<?xml version="1.0" encoding="utf-8"?>
<!-- Generator: Adobe Illustrator 16.0.0, SVG Export Plug-In . SVG Version: 6.00 Build 0)  -->
<!DOCTYPE svg PUBLIC "-//W3C//DTD SVG 1.1//EN" "http://www.w3.org/Graphics/SVG/1.1/DTD/svg11.dtd">
<svg version="1.1" xmlns="http://www.w3.org/2000/svg" xmlns:xlink="http://www.w3.org/1999/xlink"
	 viewBox="0 0 100 100" xml:space="preserve">
<pattern  x="-1784" y="1148.171" width="100" height="100" patternUnits="userSpaceOnUse" id="UC_polkadots" viewBox="15.062 -115.532 100 100" overflow="visible">
	<g>
		<polygon fill="none" points="15.062,-115.532 115.062,-115.532 115.062,-15.532 15.062,-15.532 		"/>
		<g>
			<path fill="#F2FF5B" d="M52.078-13.542c4.705,8.891,23.781,10.971,26.741-0.357c0.26-0.995-0.475-1.83-1.446-1.899
				c-9.142-0.657-19.184,3.229-27.731,6.054c-1.685,0.557-1.25,2.761,0.398,2.946c4.832,0.544,8.241-1.292,10.113-5.769
				c0.412-0.984-0.593-1.811-1.446-1.898c-1.579-0.162-3.08-0.547-4.667-0.666c0,1,0,2,0,3c6.101-0.092,12.79-1.352,18.576,1.128
				c-0.18-0.684-0.359-1.368-0.538-2.052c-3.01,4.295-10.195,3.509-13.948,0.795c-1.57-1.137-3.065,1.468-1.514,2.59
				c5.223,3.778,14.134,3.721,18.052-1.871c0.429-0.611,0.173-1.748-0.538-2.052c-6.419-2.752-13.304-1.64-20.09-1.538
				c-1.955,0.029-1.908,2.855,0,3c1.578,0.118,3.097,0.504,4.667,0.666c-0.482-0.633-0.964-1.266-1.446-1.898
				c-1.468,3.508-3.943,3.935-7.221,3.565c0.133,0.982,0.266,1.964,0.398,2.946c8.282-2.736,18.098-6.582,26.935-5.946
				c-0.482-0.633-0.964-1.266-1.446-1.899c-2.28,8.727-17.786,6.203-21.259-0.357C53.763-16.767,51.174-15.25,52.078-13.542
				L52.078-13.542z"/>
			<path fill="#F2FF5B" d="M82.594-14.031c-0.685,2.291-0.719,4.693-0.721,7.065c-0.001,0.897,0.689,1.395,1.5,1.5
				c5.134,0.668,9.295-3.645,10.113-8.434c0.15-0.882-0.229-1.516-1.048-1.846c-2.782-1.124-6.272-1.148-8.91,0.382
				c-3.313,1.923-2.597,5.779-0.783,8.488c0.576,0.86,1.579,0.934,2.355,0.304c0.958-0.777,1.652-1.61,2.05-2.785
				c0.282-0.832,0.008-1.736,0.336-2.543c0.729-1.793-2.174-2.565-2.893-0.799c-0.229,0.562-0.272,1.156-0.276,1.758
				c-0.007,1.075-0.51,1.574-1.338,2.248c0.785,0.101,1.57,0.201,2.355,0.303c-1.136-1.697-1.942-3.568,0.229-4.666
				c1.809-0.914,4.289-0.519,6.077,0.203c-0.35-0.615-0.698-1.23-1.048-1.846c-0.617,3.611-3.305,6.742-7.221,6.232
				c0.5,0.5,1,1,1.5,1.5c0.002-2.113,0.004-4.227,0.613-6.268C86.041-15.092,83.146-15.88,82.594-14.031L82.594-14.031z"/>
			<path fill="#F2FF5B" d="M51.475-2.511c4.643,1.155,10.019,1.977,14.631,0.334c5.07-1.805,9.443-6.368,12.995-10.219
				c-0.854-0.354-1.707-0.707-2.561-1.061c-0.407,3.417-3.568,6.76-5.968,8.975c-2.626,2.424-10.076,2.285-11.586-1.374
				c-0.914,0.386-1.828,0.771-2.741,1.156c1.159,1.548,2.008,2.896,3.705,3.871c0.252-0.932,0.505-1.863,0.757-2.795
				c-3.55,0.268-7.293-2.207-9.971-4.292c-0.556-0.452-1.079-0.938-1.571-1.458c-0.312-0.396-0.623-0.79-0.934-1.185
				c0.405-2.713,1.707-3.78,3.905-3.201c-1.075,0.783-3.416,0.771-4.698,0.522c0,0.964,0,1.929,0,2.893
				c0.223-0.056,0.445-0.11,0.667-0.167c1.877-0.468,1.08-3.361-0.797-2.893c-0.223,0.056-0.445,0.111-0.667,0.167
				c-1.391,0.347-1.48,2.604,0,2.893c2.285,0.445,7.636,0.472,8.452-2.495c1.084-3.939-4.735-4.659-7.082-3.288
				c-9.903,5.788,6.373,15.98,12.695,15.504c1.428-0.107,2.124-2.009,0.757-2.795c-1.031-0.795-1.907-1.728-2.629-2.796
				c-0.926-1.236-3.444-0.547-2.741,1.156c2.203,5.337,8.772,5.803,13.699,4.343c4.712-1.397,9.193-8.094,9.747-12.741
				c0.157-1.322-1.733-1.958-2.561-1.061c-3.221,3.491-6.698,6.742-10.871,9.068c-3.97,2.214-9.682,1.078-13.837,0.045
				C50.394-5.87,49.598-2.977,51.475-2.511L51.475-2.511z"/>
			<path fill="#F2FF5B" d="M18.245-12.366c1.08,1.808,3.74,2.111,5.619,1.779c2.355-0.416,3.007-3.04,1.33-4.607
				c-1.383-1.293-3.451-2.024-5.309-2.193c-2.249-0.205-3.288,1.867-2.141,3.688c1.027,1.632,3.624,0.128,2.59-1.515
				c0.001,0.001-0.252-0.518-0.149-0.232c0.156,0.432-0.319,0.928-0.679,1.068c0.161-0.064-0.183-0.02,0.229-0.018
				c0.294,0.002,0.208,0.01,0.414,0.049c0.959,0.183,1.867,0.573,2.687,1.098c0.159,0.102,0.17,0.112,0.35,0.281
				c0.098,0.091,0.118,0.152,0.049-0.027c-0.232-0.603,0.534-0.564-0.164-0.479c-0.518,0.063-1.025,0.004-1.527-0.119
				c-0.202-0.05-0.385-0.112-0.567-0.206c-0.121-0.062-0.224-0.221-0.141-0.08C19.844-15.538,17.25-14.03,18.245-12.366
				L18.245-12.366z"/>
		</g>
		<g>
			<path fill="#F2FF5B" d="M114.594-108.567c1.031,5.403,2.449,10.717,3.369,16.146c0.736,4.346,3.149,16.366-2.988,18.01
				c0.633,0.481,1.266,0.964,1.898,1.446c0.807-7.806,2.522-15.463,2.667-23.333c-1,0-2,0-3,0c0,3.556,0,7.11,0,10.667
				c0,1.934,3,1.934,3,0c0-3.778,0-7.557,0-11.334c0-1.744-2.421-1.977-2.946-0.398c-1.333,4-2.667,8-4,12
				c0.964,0.266,1.929,0.531,2.893,0.797c0.74-4.592,1.895-9.065,2.054-13.731c0.065-1.936-2.935-1.929-3,0
				c-0.149,4.396-1.25,8.61-1.946,12.935c-0.304,1.884,2.271,2.664,2.893,0.797c1.333-4,2.667-8,4-12
				c-0.982-0.133-1.964-0.266-2.946-0.398c0,3.777,0,7.556,0,11.334c0,1.934,3,1.934,3,0c0-3.557,0-7.111,0-10.667
				c0-1.937-2.965-1.933-3,0c-0.145,7.862-1.861,15.534-2.667,23.333c-0.103,0.992,1.032,1.679,1.898,1.446
				c6.279-1.681,6.263-9.506,5.942-14.749c-0.479-7.854-2.761-15.409-4.228-23.096C117.124-111.264,114.232-110.457,114.594-108.567
				L114.594-108.567z"/>
			<path fill="#F2FF5B" d="M113.207-78.966c0,0.889,0,1.777,0,2.667c0,0.817,0.683,1.5,1.5,1.5s1.5-0.683,1.5-1.5
				c0-0.89,0-1.778,0-2.667c0-0.817-0.683-1.5-1.5-1.5S113.207-79.783,113.207-78.966L113.207-78.966z"/>
			<path fill="#F2FF5B" d="M118.207-20.299c-0.001-3.707-0.045-7.409-0.721-11.065c-0.351-1.9-3.242-1.094-2.893,0.797
				c0.625,3.385,0.612,6.839,0.613,10.269C115.208-18.364,118.208-18.364,118.207-20.299L118.207-20.299z"/>
			<path fill="#F2FF5B" d="M116.168-66.033c3.066-6.843,4.667-14.601,5.58-22.007c0.758-6.148,2.173-16.225-3.314-20.811
				c-0.991-0.828-2.518-0.32-2.561,1.061c-0.16,5.2,1.848,9.827,3.199,14.763c1.792,6.543-0.675,11.761-2.646,17.839
				c-0.599,1.846,2.299,2.629,2.893,0.797c1.532-4.724,3.519-9.113,3.491-14.16c-0.036-6.668-4.145-12.516-3.938-19.238
				c-0.854,0.354-1.707,0.707-2.561,1.061c4.857,4.059,3.07,14.059,2.327,19.468c-0.905,6.588-2.328,13.612-5.062,19.715
				C112.794-65.798,115.379-64.271,116.168-66.033L116.168-66.033z"/>
		</g>
		<g>
			<path fill="#F2FF5B" d="M60.979-59.905c6.669,7.094,13.027-6.449,8.494-11.841c-2.628-3.124-5.976-2.574-7.985,0.817
				c-1.832,3.092-2.734,7.47-2.228,11.029c0.208,1.459,2.643,1.415,2.893,0c0.593-3.354,1.643-6.521,4.644-8.438
				c-0.684-0.685-1.368-1.368-2.052-2.053c-1.235,2.697-1.318,5.56-2.151,8.358c-0.42,1.409,1.491,2.584,2.507,1.46
				c1.413-1.564,1.772-3.371,2.386-5.328c0.581-1.852-2.316-2.638-2.893-0.799c-0.434,1.383-0.613,2.896-1.614,4.006
				c0.836,0.486,1.671,0.973,2.507,1.459c0.751-2.523,0.738-5.217,1.849-7.642c0.578-1.263-0.672-2.935-2.052-2.053
				c-3.675,2.348-5.286,6.06-6.022,10.229c0.964,0,1.929,0,2.893,0c-0.311-2.183,0.366-4.66,1.042-6.709
				c0.52-1.578,1.686-4.656,3.581-2.867c1.796,1.695,1.395,4.247,0.711,6.387c-0.308,0.961-0.847,2.1-1.669,2.73
				c-1.04,0.799-1.979-0.084-2.718-0.869C61.773-63.438,59.656-61.313,60.979-59.905L60.979-59.905z"/>
			<path fill="#F2FF5B" d="M83.335-64.875c2.905-6.233,3.486-13.107,2.151-19.823c-0.28-1.41-2.048-1.294-2.741-0.357
				c-3.709,5.004-3.065,11.939-4.818,17.691c0.964,0.266,1.929,0.531,2.893,0.797c0.749-3.689,2.363-6.618,4.948-9.338
				c1.332-1.401-0.786-3.525-2.121-2.121c-2.907,3.059-4.877,6.509-5.72,10.662c-0.383,1.885,2.325,2.66,2.893,0.797
				c1.661-5.451,1.018-12.254,4.516-16.975c-0.913-0.119-1.827-0.238-2.741-0.357c1.166,5.865,0.693,12.056-1.849,17.51
				C79.933-64.647,82.519-63.123,83.335-64.875L83.335-64.875z"/>
			<path fill="#F2FF5B" d="M76.594-56.698c-3.59,9.978,11.047,18.162,17.905,10.363c3.206-3.646,2.332-9.074-2.099-11.025
				c-4.229-1.863-9.7-1.426-14.092-0.385c-1.003,0.238-1.301,1.366-0.896,2.203c2.523,5.226,8.244,8.521,13.961,8.743
				c0.769,0.03,1.564-0.706,1.5-1.5c-0.438-5.353-4.299-8.956-9.749-7.25c-3.84,1.202-6.584,5.832-2.459,8.61
				c3.467,2.334,11.54,3.886,11.632-2.39c0.094-6.403-7.981-7.914-12.655-6.417c-1.061,0.34-1.488,1.685-0.662,2.507
				c2.354,2.345,4.712,4.237,7.995,5.052c1.355,0.337,2.241-1.032,1.693-2.203c-1.424-3.045-3.821-4.348-6.896-5.355
				c-1.844-0.604-2.627,2.293-0.797,2.893c2.372,0.778,3.989,1.595,5.104,3.978c0.564-0.735,1.129-1.47,1.693-2.204
				c-2.799-0.694-4.673-2.291-6.671-4.28c-0.221,0.835-0.441,1.671-0.662,2.507c3.172-1.016,6.833-0.831,8.568,2.412
				c2.099,3.92-4.495,2.164-5.962,1.447c-2.795-1.365-0.781-3.144,1.268-3.785c3.322-1.04,5.307,1.364,5.561,4.479
				c0.5-0.5,1-1,1.5-1.5c-4.723-0.183-9.305-2.979-11.371-7.257c-0.299,0.734-0.598,1.469-0.896,2.203
				c4.426-1.049,17.044-2.082,13.64,5.797c-1.457,3.371-6.291,2.909-9.038,1.918c-3.829-1.381-5.582-4.979-4.221-8.762
				C80.144-57.725,77.243-58.504,76.594-56.698L76.594-56.698z"/>
			<path fill="#F2FF5B" d="M60.313-88.692c-2.653,3.369-5.071,6.992-4.386,11.459c0.117,0.765,1.141,1.305,1.845,1.047
				c4.128-1.502,7.38-4.692,8.382-9.047c0.155-0.674-0.098-1.326-0.689-1.694c-4.201-2.612-9.989-1.839-10.257,3.962
				c-0.023,0.518,0.302,1.043,0.743,1.295c0.874,0.501,1.669,0.785,2.672,0.54c0.415-0.101,0.772-0.411,1.065-0.702
				c0.464-0.459,0.607-0.496,0.084-0.354c1.864-0.508,1.072-3.402-0.797-2.893c-0.395,0.107-0.665,0.296-0.976,0.553
				c-0.126,0.156-0.25,0.314-0.372,0.475c-0.167,0.325-0.222,0.256-0.163-0.209c0.248,0.432,0.495,0.863,0.743,1.295
				c0.159-3.447,3.66-2.666,5.743-1.371c-0.229-0.564-0.46-1.129-0.689-1.694c-0.759,3.301-3.12,5.8-6.286,6.952
				c0.615,0.35,1.229,0.699,1.845,1.048c-0.491-3.2,1.752-6.175,3.614-8.54C63.616-88.073,61.509-90.212,60.313-88.692
				L60.313-88.692z"/>
			<path fill="#F2FF5B" d="M95.373-101.466c1.935,0,1.935-3,0-3S93.438-101.466,95.373-101.466L95.373-101.466z"/>
			<path fill="#F2FF5B" d="M89.04-101.132c-2.234,0.04-4.816,0.563-6.129,2.576c-1.305,2-0.792,4.324,0.167,6.347
				c0.217,0.458,0.805,0.755,1.295,0.743c2.31-0.053,4.346-0.746,5.729-2.666c1.337-1.854,1.023-4.531,0.384-6.566
				c-0.297-0.943-1.33-1.366-2.203-0.896c-3.146,1.695-5.272,4.974-7.205,7.871c-0.359,0.538-0.238,1.385,0.234,1.817
				c0.63,0.576,1.344,1.072,2.239,0.825c0.417-0.114,0.758-0.415,0.995-0.766c0.356-0.526,0.326-0.347-0.174-0.286
				c1.896-0.229,1.918-3.232,0-3c-0.702,0.084-1.154,0.248-1.713,0.693c-0.193,0.153-0.338,0.421-0.461,0.633
				c-0.057,0.098-0.311,0.376-0.107,0.219c0.354-0.146,0.707-0.293,1.061-0.439c0.094,0,0.188,0,0.281,0
				c0.078,0.605,0.156,1.212,0.234,1.817c1.649-2.472,3.443-5.347,6.129-6.795c-0.734-0.299-1.469-0.597-2.203-0.896
				c0.365,1.164,0.707,2.57,0.199,3.754c-0.585,1.366-2.082,1.649-3.42,1.68c0.432,0.248,0.863,0.495,1.295,0.743
				c-0.429-0.906-0.948-2.313-0.234-3.229c0.817-1.049,2.391-1.159,3.606-1.181C90.973-98.167,90.976-101.167,89.04-101.132
				L89.04-101.132z"/>
			<path fill="#F2FF5B" d="M96.153-82.567c1.745-5.407,7.119-7.631,9.849-12.308c2.812-4.817,2.983-10.595,6-15.334
				c1.043-1.637-1.555-3.141-2.59-1.514c-3.169,4.978-3.047,11.513-6.638,16.157c-3.301,4.271-7.78,6.828-9.514,12.201
				C92.665-81.519,95.563-80.733,96.153-82.567L96.153-82.567z"/>
			<path fill="#F2FF5B" d="M112.04-109.466c1.935,0,1.935-3,0-3S110.105-109.466,112.04-109.466L112.04-109.466z"/>
			<path fill="#F2FF5B" d="M113.261-111.364c-3.335,13.997-3.463,28.606-1.334,42.797c0.256,1.707,2.955,1.25,2.946-0.398
				c-0.064-11.645-1.251-23.368,0.613-34.934c0.305-1.893-2.586-2.704-2.893-0.799c-1.911,11.857-0.786,23.795-0.721,35.732
				c0.982-0.133,1.964-0.266,2.946-0.398c-2.044-13.631-1.867-27.766,1.334-41.203C116.602-112.448,113.709-113.246,113.261-111.364
				L113.261-111.364z"/>
			<path fill="#F2FF5B" d="M108.54-96.966c0,6.666,0,13.334,0,20c0,1.935,2.998,1.935,3,0c0.005-4.585,0.002-9.158,1.279-13.602
				c0.536-1.865-2.337-2.645-2.893-0.797c-2.275,7.554-4.38,15.104-0.515,22.489c0.432-0.753,0.863-1.505,1.295-2.257
				c-5.822,0.264-10.779-3.96-11.167-9.834c-0.854,0.354-1.707,0.707-2.561,1.061c3.544,4.298,6.94,8.591,12.662,9.719
				c1.031,0.204,1.785-0.436,1.898-1.445c0.57-5.104,0.664-10.204,0.667-15.334c0.001-1.719-2.46-2.01-2.946-0.398
				c-1.247,4.134-2.765,8.134-6.645,10.437c0.752,0.432,1.505,0.864,2.257,1.296c0.206-6.857,2.434-13.652,5.129-19.91
				c-0.932-0.252-1.863-0.504-2.795-0.757c0.471,3.646-0.275,6.296-2.462,9.243c0.863,0.504,1.727,1.01,2.59,1.514
				c1.186-2.502,2.108-5.012,2.818-7.691c0.364-1.373-1.498-2.652-2.507-1.459c-3.315,3.918-6.688,7.624-8.901,12.303
				c0.913,0.119,1.827,0.239,2.741,0.358c-0.665-1.914-1.174-3.536-1.279-5.601c-0.074-1.452-2.019-2.098-2.795-0.758
				c-1.637,2.824-1.09,4.963-0.872,8.091c0.063,0.903,0.922,1.796,1.898,1.446c7.479-2.675,8.638-14.459,11.563-20.689
				c-0.914-0.385-1.827-0.771-2.741-1.156c-0.223,0.89-0.444,1.778-0.667,2.667c0.964,0.267,1.929,0.532,2.893,0.798
				c0.644-3.928,1.59-7.639,3.849-10.976c-0.913-0.385-1.827-0.771-2.741-1.155c-2.127,9.325-5.889,18.127-6.721,27.732
				c-0.167,1.928,2.834,1.912,3,0c0.808-9.319,4.55-17.887,6.613-26.936c0.387-1.694-1.789-2.563-2.741-1.155
				c-2.396,3.538-3.466,7.507-4.151,11.691c-0.306,1.868,2.414,2.71,2.893,0.798c0.223-0.889,0.445-1.777,0.667-2.666
				c0.399-1.598-1.997-2.742-2.741-1.156c-1.273,2.712-2.196,5.565-3.189,8.388c-1.182,3.359-2.773,9.561-6.581,10.923
				c0.633,0.482,1.266,0.964,1.898,1.446c-0.163-2.342-0.861-4.292,0.462-6.576c-0.932-0.253-1.863-0.505-2.795-0.757
				c0.116,2.275,0.639,4.247,1.387,6.398c0.387,1.113,2.141,1.627,2.741,0.358c2.102-4.438,5.289-7.98,8.433-11.696
				c-0.836-0.486-1.671-0.973-2.507-1.46c-0.648,2.446-1.427,4.677-2.516,6.976c-0.839,1.771,1.444,3.059,2.59,1.514
				c2.528-3.406,3.416-6.542,2.872-10.757c-0.163-1.265-2.126-2.312-2.795-0.757c-2.918,6.774-5.315,13.992-5.539,21.424
				c-0.034,1.141,1.299,1.863,2.257,1.295c4.576-2.716,6.543-7.32,8.023-12.23c-0.982-0.133-1.964-0.266-2.946-0.398
				c-0.003,5.13-0.097,10.23-0.667,15.334c0.633-0.482,1.266-0.965,1.898-1.447c-5.194-1.024-8.161-5.096-11.338-8.947
				c-0.825-1.001-2.644-0.192-2.561,1.061c0.49,7.434,6.643,13.174,14.167,12.834c1.162-0.053,1.834-1.227,1.295-2.258
				c-3.438-6.571-1.182-13.539,0.817-20.178c-0.964-0.266-1.929-0.531-2.893-0.797c-1.351,4.698-1.381,9.543-1.387,14.398
				c1,0,2,0,3,0c0-6.666,0-13.334,0-20C111.54-98.9,108.54-98.9,108.54-96.966L108.54-96.966z"/>
			<path fill="#F2FF5B" d="M14.594-108.567c1.031,5.403,2.449,10.717,3.369,16.146c0.736,4.346,3.149,16.366-2.988,18.01
				c0.633,0.481,1.266,0.964,1.898,1.446c0.807-7.806,2.522-15.463,2.667-23.333c-1,0-2,0-3,0c0,3.556,0,7.11,0,10.667
				c0,1.934,3,1.934,3,0c0-3.778,0-7.557,0-11.334c0-1.744-2.421-1.977-2.946-0.398c-1.333,4-2.667,8-4,12
				c0.964,0.266,1.929,0.531,2.893,0.797c0.74-4.592,1.895-9.065,2.054-13.731c0.065-1.936-2.935-1.929-3,0
				c-0.149,4.396-1.25,8.61-1.946,12.935c-0.304,1.884,2.271,2.664,2.893,0.797c1.333-4,2.667-8,4-12
				c-0.982-0.133-1.964-0.266-2.946-0.398c0,3.777,0,7.556,0,11.334c0,1.934,3,1.934,3,0c0-3.557,0-7.111,0-10.667
				c0-1.937-2.965-1.933-3,0c-0.145,7.862-1.861,15.534-2.667,23.333c-0.103,0.992,1.032,1.679,1.898,1.446
				c6.279-1.681,6.263-9.506,5.942-14.749c-0.479-7.854-2.761-15.409-4.228-23.096C17.124-111.264,14.232-110.457,14.594-108.567
				L14.594-108.567z"/>
			<path fill="#F2FF5B" d="M13.207-78.966c0,0.889,0,1.777,0,2.667c0,0.817,0.683,1.5,1.5,1.5s1.5-0.683,1.5-1.5
				c0-0.89,0-1.778,0-2.667c0-0.817-0.683-1.5-1.5-1.5S13.207-79.783,13.207-78.966L13.207-78.966z"/>
			<path fill="#F2FF5B" d="M16.979-30.571c2.39,2.494,4.015,5.623,1.333,8.545c-1.306,1.422,0.811,3.549,2.121,2.121
				c3.848-4.19,2.268-9.029-1.333-12.787C17.761-34.093,15.642-31.968,16.979-30.571L16.979-30.571z"/>
			<path fill="#F2FF5B" d="M17.373-19.466c1.935,0,1.935-3,0-3S15.438-19.466,17.373-19.466L17.373-19.466z"/>
			<path fill="#F2FF5B" d="M16.707-18.799c1.935,0,1.935-3,0-3S14.772-18.799,16.707-18.799L16.707-18.799z"/>
			<path fill="#F2FF5B" d="M18.207-20.299c-0.001-3.707-0.045-7.409-0.721-11.065c-0.351-1.9-3.242-1.094-2.893,0.797
				c0.625,3.385,0.612,6.839,0.613,10.269C15.208-18.364,18.208-18.364,18.207-20.299L18.207-20.299z"/>
			<path fill="#F2FF5B" d="M18.207-24.966c0-1.556,0-3.111,0-4.666c0-1.936-3-1.936-3,0c0,1.555,0,3.11,0,4.666
				C15.207-23.031,18.207-23.031,18.207-24.966L18.207-24.966z"/>
			<path fill="#F2FF5B" d="M111.927-29.364c-0.814,2.33-1.924,4.561-2.054,7.065c-0.049,0.95,0.999,1.737,1.898,1.446
				c4.33-1.4,4.27-6.819,3.715-10.512c-0.219-1.462-2.63-1.414-2.893,0c-0.628,3.376-0.769,6.766,0,10.131
				c0.431,1.886,3.322,1.086,2.893-0.798c-0.644-2.821-0.526-5.705,0-8.536c-0.964,0-1.929,0-2.893,0
				c0.275,1.836,0.737,6.06-1.619,6.822c0.633,0.482,1.266,0.964,1.898,1.446c0.113-2.179,1.237-4.238,1.946-6.269
				C115.459-30.398,112.561-31.179,111.927-29.364L111.927-29.364z"/>
			<path fill="#F2FF5B" d="M92.153-23.899c1.327-5.129,3.114-10.102,5.182-14.976c-0.913-0.386-1.827-0.771-2.741-1.156
				c-0.641,2.858-0.806,5.788-1.333,8.667c-0.347,1.891,2.544,2.698,2.893,0.797c0.527-2.877,0.693-5.812,1.333-8.666
				c0.354-1.578-2.05-2.787-2.741-1.156c-2.17,5.116-4.091,10.307-5.484,15.691C88.775-22.823,91.669-22.028,92.153-23.899
				L92.153-23.899z"/>
			<path fill="#F2FF5B" d="M94.04-26.799c1.935,0,1.935-3,0-3S92.105-26.799,94.04-26.799L94.04-26.799z"/>
			<path fill="#F2FF5B" d="M104.13-60.928c-2.489-1.245-4.999-2.475-7.333-4c-1.466-0.958-2.966,1.153-1.817,2.356
				c0.892,0.934,1.658,1.998,2.433,3.029c1.146,1.527,3.753,0.035,2.59-1.514c-0.926-1.232-1.836-2.521-2.901-3.637
				c-0.605,0.785-1.212,1.57-1.817,2.355c2.334,1.524,4.844,2.754,7.333,4C104.341-57.474,105.86-60.062,104.13-60.928
				L104.13-60.928z"/>
			<path fill="#F2FF5B" d="M80.668-17.723c-6.249-10.124-31.746-18.229-30.128,0.757c0.053,0.616,0.413,1.334,1.102,1.446
				c6.649,1.092,18.313,3.78,23.181-2.812c4.74-6.418-8.359-8.765-12.35-8.559c-4.258,0.221-13.548,3.647-8.873,9.332
				c3.664,4.457,15.458-0.389,19.506-1.962c1.217-0.473,1.5-1.981,0.358-2.741c-5.162-3.439-12.816-5.758-16.719,0.538
				c-0.438,0.706-0.145,1.634,0.538,2.052c3.155,1.935,5.582,1.531,8.847,0c1.751-0.82,0.227-3.406-1.514-2.59
				c-1.841,1.254-3.78,1.254-5.819,0c0.18,0.684,0.359,1.368,0.538,2.052c2.965-4.782,9.089-1.811,12.615,0.538
				c0.119-0.914,0.238-1.828,0.358-2.741c-3.434,1.335-6.993,2.345-10.615,3.01c-1.331,0.245-5.972,1.131-6.262-1.039
				c-0.349-2.606,5.53-3.294,7.041-3.448c2.168-0.219,4.053,0.262,6.136,0.768c0.747,0.182,4.683,1.232,4.065,2.68
				c-0.551,1.288-3.305,2.275-4.365,2.697c-4.524,1.797-11.279,0.086-15.87-0.667c0.367,0.481,0.734,0.964,1.102,1.446
				c-1.317-15.464,19.807-6.906,24.538,0.757C79.092-14.566,81.688-16.071,80.668-17.723L80.668-17.723z"/>
			<path fill="#F2FF5B" d="M52.078-113.542c4.705,8.891,23.781,10.971,26.741-0.357c0.26-0.995-0.475-1.83-1.446-1.899
				c-9.142-0.657-19.184,3.229-27.731,6.054c-1.685,0.557-1.25,2.761,0.398,2.946c4.832,0.544,8.241-1.292,10.113-5.769
				c0.412-0.984-0.593-1.811-1.446-1.898c-1.579-0.162-3.08-0.547-4.667-0.666c0,1,0,2,0,3c6.101-0.092,12.79-1.352,18.576,1.128
				c-0.18-0.684-0.359-1.368-0.538-2.052c-3.01,4.295-10.195,3.509-13.948,0.795c-1.57-1.137-3.065,1.468-1.514,2.59
				c5.223,3.778,14.134,3.721,18.052-1.871c0.429-0.611,0.173-1.748-0.538-2.052c-6.419-2.752-13.304-1.64-20.09-1.538
				c-1.955,0.029-1.908,2.855,0,3c1.578,0.118,3.097,0.504,4.667,0.666c-0.482-0.633-0.964-1.266-1.446-1.898
				c-1.468,3.508-3.943,3.935-7.221,3.565c0.133,0.982,0.266,1.964,0.398,2.946c8.282-2.736,18.098-6.582,26.935-5.946
				c-0.482-0.633-0.964-1.266-1.446-1.899c-2.28,8.727-17.786,6.203-21.259-0.357C53.763-116.767,51.174-115.25,52.078-113.542
				L52.078-113.542z"/>
			<path fill="#F2FF5B" d="M50.078-112.39c-2.969,6.016-0.153,9.629,6.395,8.75c5.964-0.8,13.328-3.214,18.324-6.697
				c0.937-0.653,1.054-2.522-0.358-2.742c-6.991-1.086-13.317,2.407-20.13,3.334c-1.91,0.26-1.094,3.15,0.797,2.893
				c6.133-0.834,12.264-4.309,18.536-3.334c-0.12-0.913-0.239-1.827-0.358-2.741c-3.305,2.304-7.555,3.655-11.341,4.893
				c-2.393,0.782-4.878,1.437-7.398,1.585c-3.446,0.203-3.163-1.817-1.876-4.425C53.521-112.604,50.935-114.124,50.078-112.39
				L50.078-112.39z"/>
			<path fill="#F2FF5B" d="M29.873-100.299c-0.047,5.511-0.578,11.191,1.903,16.292c2.022,4.156,7.679,5.82,11.849,4.436
				c9.283-3.084,5.486-18.119,2.135-24.044c-2.393-4.229-5.863-8.488-10.644-9.98c-3.313-1.034-7.425,0.874-8.504,4.157
				c-1.296,3.943,1.621,9.183,3.389,12.507c1.85,3.479,4.442,7.857,7.949,9.928c0.812,0.479,1.98,0.05,2.203-0.896
				c1.459-6.2,4.997-26.747-5.807-26.955c-9.566-0.184-0.063,16.455,1.731,19.979c0.672,1.319,2.872,0.714,2.795-0.757
				c-0.256-4.908-2.045-9.077-4.205-13.424c-0.863,0.504-1.727,1.01-2.59,1.514c3.834,6.291,8.085,12.206,7.795,19.91
				c-0.074,1.969,2.797,1.878,3,0c0.535-4.955-0.108-9.612-1.387-14.399c-0.914,0.386-1.828,0.771-2.741,1.156
				c1.392,3.022,1.788,6.583,1.907,9.866c0.061,1.666-0.09,3.316-0.57,4.914c-0.845,2.806-3.689,0.468-4.981-0.598
				c-0.354,0.854-0.707,1.707-1.061,2.561c4.381,0.374,8.878-0.233,11.132-4.433c2.375-4.425-0.005-10.37-1.837-14.491
				c-0.784-1.766-3.368-0.237-2.59,1.514c1.403,3.157,2.687,6.636,2.204,10.15c-0.608,4.436-5.459,4.555-8.909,4.26
				c-1.262-0.108-2.048,1.746-1.061,2.561c3.798,3.135,8.466,4.355,10.187-1.361c1.492-4.96,0.296-11.84-1.831-16.457
				c-0.728-1.581-3.169-0.443-2.741,1.156c1.214,4.546,1.785,8.918,1.279,13.602c1,0,2,0,3,0c0.312-8.267-4.067-14.636-8.205-21.424
				c-1.015-1.665-3.445-0.207-2.59,1.514c1.923,3.871,3.566,7.537,3.795,11.91c0.932-0.253,1.863-0.506,2.795-0.758
				c-1.178-2.314-2.36-4.616-3.412-6.992c-0.837-1.893-4.469-10.283,0.64-8.018c3.323,1.475,2.765,8.939,2.711,11.783
				c-0.069,3.654-0.509,7.359-1.346,10.918c0.734-0.299,1.469-0.597,2.203-0.896c-4.686-2.767-8.052-10.214-9.571-15.159
				c-1.281-4.172,1.204-7.482,5.802-5.447c3.324,1.471,5.673,5.121,7.476,8.099c2.997,4.952,5.774,15.165,0.072,19.386
				c-4.747,3.514-9.267-2.633-10.089-6.565c-0.745-3.56-0.311-7.41-0.28-11.018C32.89-102.234,29.89-102.232,29.873-100.299
				L29.873-100.299z"/>
			<path fill="#F2FF5B" d="M30.313-71.905c-0.188-0.228-0.195-0.359-0.104-0.011c0.064,0.242,0.112,0.488,0.176,0.73
				c0.178,0.674,0.539,1.345,1.144,1.724c0.676,0.423,1.487,0.421,2.22,0.149c0.876-0.325,2.199-1.026,2.462-1.995
				c1.059-3.903-7.699-2.477-5.465,0.433c0.919,1.197,2.645,0.8,2.795-0.757c0.002-0.02,0.004-0.037,0.005-0.056
				c-0.146,0.354-0.293,0.707-0.438,1.061c0.005-0.007,0.01-0.013,0.015-0.02c-0.605,0.078-1.211,0.156-1.817,0.234
				c-0.452-0.536-0.598-0.673-0.438-0.408c0.009,0.016,0.155,0.354,0.074,0.155c0.154,0.381,0.292,0.769,0.432,1.155
				c0.191,0.534,0.376,1.071,0.556,1.61c0.286,0.855,1.365,1.477,2.203,0.896c1.536-1.063,3.109-2.438,2.795-4.493
				c-0.223-1.457-1.461-2.412-2.257-3.559c-1.095-1.577-3.696-0.08-2.59,1.514c0.519,0.748,1.171,1.391,1.684,2.139
				c0.537,0.784-0.396,1.289-1.146,1.81c0.734,0.299,1.469,0.597,2.203,0.896c-0.226-0.675-0.46-1.348-0.703-2.018
				c-0.274-0.753-0.533-1.868-1.298-2.287c-0.542-0.296-1.396-0.295-1.818,0.235c-0.301,0.378-0.413,0.651-0.46,1.136
				c0.932-0.253,1.863-0.506,2.795-0.758c0.206,0.931,0.005,1.533-0.603,1.811c0.167-0.031,0.193-0.04,0.078-0.026
				c0.313-0.038,0.63-0.03,0.943-0.015c0.204,0.018,0.242,0.02,0.115,0.008c0.049,0.012,0.097,0.022,0.145,0.033
				c-0.687-0.313-0.814-1.014-0.384-2.102c-0.152,0.117-0.797,0.561-0.838,0.566c0.259-0.033,0.488,0.201,0.577,0.414
				c-0.096-0.23-0.144-0.484-0.199-0.727c-0.139-0.604-0.336-1.117-0.736-1.6C31.197-75.517,29.087-73.382,30.313-71.905
				L30.313-71.905z"/>
			<path fill="#F2FF5B" d="M22.594-54.698c-0.682,3.829-1.866,7.533-2.667,11.334c0.964,0,1.929,0,2.893,0
				c-0.426-2.764,0.632-5.256,1.334-7.869c-0.836,0.221-1.671,0.441-2.507,0.662c1.292,1.521,0.892,4.427,0.894,6.272
				c0.002,1.935,3.002,1.935,3,0c-0.003-2.87,0.195-6.076-1.772-8.394c-0.744-0.878-2.231-0.364-2.507,0.661
				c-0.869,3.238-1.857,6.069-1.334,9.464c0.228,1.478,2.599,1.396,2.893,0c0.802-3.801,1.985-7.504,2.667-11.332
				C25.823-55.792,22.933-56.601,22.594-54.698L22.594-54.698z"/>
			<path fill="#F2FF5B" d="M78.819-36.031c-1.004-2.676-2.938-6.017-6.294-5.647c-2.534,0.277-4.515,2.328-5.568,4.537
				c-1.002,2.098-1.406,4.966,0.477,6.719c2.687,2.502,7.232,0.641,10.03-0.581c0.62-0.271,0.833-1.097,0.689-1.694
				c-1.106-4.595-5.708-5.651-9.845-5.047c-1.909,0.279-1.095,3.169,0.797,2.893c2.555-0.373,5.469,0.102,6.155,2.953
				c0.229-0.565,0.46-1.13,0.689-1.694c-1.665,0.726-5.201,2.038-6.396,1.05c-0.374-0.311-0.452-0.64-0.453-1.258
				c0-0.594,0.23-1.375,0.522-1.986c0.653-1.369,1.745-2.576,3-2.891c0.334-0.083,0.913-0.021,1.409,0.383
				c0.937,0.766,1.479,1.957,1.894,3.063C76.6-33.439,79.5-34.216,78.819-36.031L78.819-36.031z"/>
			<path fill="#F2FF5B" d="M59.464-43.004c1.347-0.692,2.633-1.567,3.131-3.063c0.494-1.482-0.525-2.952-1.494-3.959
				c-1.344-1.396-3.462,0.728-2.121,2.121c0.287,0.299,0.516,0.574,0.711,0.938c-0.009-0.016-0.047,0.25,0.033,0.074
				c-0.291,0.639-1.199,1.003-1.773,1.299C56.229-44.708,57.747-42.12,59.464-43.004L59.464-43.004z"/>
			<path fill="#F2FF5B" d="M52.873-31.632c0-0.148,0.001-0.297,0.005-0.445c0.002-0.089,0.054-0.707,0.014-0.418
				c0.026-0.192,0.073-0.379,0.126-0.565c0.06-0.169,0.061-0.181,0.005-0.037c0.026-0.059,0.275-0.356,0.078-0.141
				c0.551-0.604,0.598-1.523,0-2.121c-0.558-0.558-1.57-0.604-2.121,0c-0.939,1.03-1.105,2.386-1.106,3.728
				c-0.001,0.817,0.683,1.5,1.5,1.5C52.191-30.132,52.872-30.814,52.873-31.632L52.873-31.632z"/>
			<path fill="#F2FF5B" d="M34.979-24.571c0.961,0.979,1.816,2.293,3.212,2.672c2.024,0.549,3.512-1.561,4.477-2.976
				c0.362-0.53,0.238-1.394-0.234-1.817c-0.63-0.566-1.275-0.961-2.09-1.201c-0.709-0.209-1.529-0.071-2.214-0.367
				c-0.75-0.325-1.603-0.23-2.052,0.538c-0.376,0.641-0.213,1.728,0.538,2.052c0.635,0.275,1.212,0.447,1.9,0.527
				c0.671,0.078,1.27,0.1,1.796,0.572c-0.078-0.606-0.156-1.212-0.234-1.818c-0.359,0.526-0.725,1.017-1.188,1.457
				c-0.052,0.049-0.307,0.173-0.139,0.111c0.081-0.012,0.16-0.002,0.237,0.029c-0.166-0.049-0.178-0.05-0.037-0.004
				c-0.553-0.281-1.293-1.328-1.852-1.896C35.744-28.075,33.624-25.952,34.979-24.571L34.979-24.571z"/>
			<path fill="#F2FF5B" d="M82.594-114.031c-0.685,2.291-0.719,4.693-0.721,7.065c-0.001,0.897,0.689,1.395,1.5,1.5
				c5.134,0.668,9.295-3.645,10.113-8.434c0.15-0.882-0.229-1.516-1.048-1.846c-2.782-1.124-6.272-1.148-8.91,0.382
				c-3.313,1.923-2.597,5.779-0.783,8.488c0.576,0.86,1.579,0.934,2.355,0.304c0.958-0.777,1.652-1.61,2.05-2.785
				c0.282-0.832,0.008-1.736,0.336-2.543c0.729-1.793-2.174-2.565-2.893-0.799c-0.229,0.562-0.272,1.156-0.276,1.758
				c-0.007,1.075-0.51,1.574-1.338,2.248c0.785,0.101,1.57,0.201,2.355,0.303c-1.136-1.697-1.942-3.568,0.229-4.666
				c1.809-0.914,4.289-0.519,6.077,0.203c-0.35-0.615-0.698-1.23-1.048-1.846c-0.617,3.611-3.305,6.742-7.221,6.232
				c0.5,0.5,1,1,1.5,1.5c0.002-2.113,0.004-4.227,0.613-6.268C86.041-115.092,83.146-115.88,82.594-114.031L82.594-114.031z"/>
			<path fill="#F2FF5B" d="M82.438-82.412c-1.433-0.229-5.385-1.593-5.845,1.048c-0.709,4.072-0.605,8.051,0,12.131
				c0.264,1.775,2.823,1.174,2.946-0.398c0.27-3.443-1.51-6.854-2.402-10.102c-0.522-1.903-0.979-4.271,1.301-5.119
				c1.247-0.463,3.248-1.053,4.184,0.266c2.47,3.48-0.678,11.601-2.544,14.864c0.785-0.102,1.57-0.202,2.355-0.304
				c-2.021-1.912-4.271-3.578-6.32-5.464c-0.862-0.793-2.124-1.796-2.578-2.911c-0.347-0.849,0.633-2.693,1.01-3.363
				c1.167-2.07,3.488-2.165,5.405-1.239c1.733,0.838,3.256-1.749,1.514-2.59c-5.231-2.528-11.905,1.326-10.87,7.694
				c0.331,2.037,2.555,3.756,3.967,5.054c1.86,1.711,3.918,3.204,5.752,4.94c0.694,0.658,1.865,0.555,2.355-0.304
				c2.616-4.572,6.558-15.815,0.883-19.521c-3.143-2.051-8.295,0.213-9.569,3.404c-1.887,4.727,2.931,9.943,2.559,14.693
				c0.982-0.133,1.964-0.267,2.946-0.399c-0.306-2.061-0.44-4.075-0.44-6.153c0.016-0.824,0.064-1.646,0.148-2.468
				c0.157-1.941,1.463-1.024,2.447-0.867C83.533-79.217,84.345-82.107,82.438-82.412L82.438-82.412z"/>
			<path fill="#F2FF5B" d="M113.283-56.261c-4.246,2.698-8.033,5.783-9.95,10.561c-0.519,1.293-1.516,4.633-0.354,5.795
				c1.402,1.402,3.949,2.451,5.899,2.738c7.583,1.115,6.67-10.608,6.661-15.132c-0.003-1.755-2.403-1.962-2.946-0.399
				c-1.275,3.671-2.929,7.152-5.614,10.006c0.854,0.354,1.707,0.707,2.561,1.061c-0.109-1.701-0.45-3.229-0.054-4.936
				c0.38-1.634-1.873-2.666-2.741-1.155c-2.282,3.966-0.307,12.333,5.544,9.126c5.176-2.837,2.658-12.438,2.584-17.035
				c-0.016-0.979-0.945-1.703-1.898-1.447c-7.24,1.942-10.284,9.883-9.768,16.78c0.144,1.917,3.145,1.931,3,0
				c-0.414-5.531,1.597-12.286,7.564-13.888c-0.633-0.481-1.266-0.964-1.898-1.445c0.054,3.313,0.489,6.602,0.418,9.922
				c-0.028,1.291-0.212,5.168-2.461,4.816c-2.072-0.324-1.063-4.327-0.495-5.315c-0.913-0.385-1.827-0.771-2.741-1.155
				c-0.459,1.975-0.182,3.738-0.054,5.732c0.08,1.239,1.609,2.071,2.561,1.061c3.044-3.234,4.94-7.168,6.386-11.328
				c-0.982-0.134-1.964-0.267-2.946-0.399c0.006,3.021,0.148,6.103-0.438,9.081c-0.9,4.571-4.344,2.914-7.305,0.957
				c0.248,0.432,0.495,0.863,0.743,1.295c0.202-6.035,4.503-9.684,9.257-12.705C116.425-54.704,114.921-57.302,113.283-56.261
				L113.283-56.261z"/>
			<path fill="#F2FF5B" d="M108.668-42.875c1.894-2.885,3.37-5.927,3.539-9.424c-0.982,0.133-1.964,0.266-2.946,0.399
				c0.629,4.06,0.611,8.169,0.612,12.268c0,1.934,3,1.934,3,0c-0.001-4.38-0.048-8.729-0.72-13.066
				c-0.271-1.746-2.869-1.207-2.946,0.399c-0.143,2.949-1.543,5.491-3.129,7.909C105.013-42.767,107.611-41.266,108.668-42.875
				L108.668-42.875z"/>
			<path fill="#F2FF5B" d="M51.475-102.511c4.643,1.155,10.019,1.977,14.631,0.334c5.07-1.805,9.443-6.368,12.995-10.219
				c-0.854-0.354-1.707-0.707-2.561-1.061c-0.407,3.417-3.568,6.76-5.968,8.975c-2.626,2.424-10.076,2.285-11.586-1.374
				c-0.914,0.386-1.828,0.771-2.741,1.156c1.159,1.548,2.008,2.896,3.705,3.871c0.252-0.932,0.505-1.863,0.757-2.795
				c-3.55,0.268-7.293-2.207-9.971-4.292c-0.556-0.452-1.079-0.938-1.571-1.458c-0.312-0.396-0.623-0.79-0.934-1.185
				c0.405-2.713,1.707-3.78,3.905-3.201c-1.075,0.783-3.416,0.771-4.698,0.522c0,0.964,0,1.929,0,2.893
				c0.223-0.056,0.445-0.11,0.667-0.167c1.877-0.468,1.08-3.361-0.797-2.893c-0.223,0.056-0.445,0.111-0.667,0.167
				c-1.391,0.347-1.48,2.604,0,2.893c2.285,0.445,7.636,0.472,8.452-2.495c1.084-3.939-4.735-4.659-7.082-3.288
				c-9.903,5.788,6.373,15.98,12.695,15.504c1.428-0.107,2.124-2.009,0.757-2.795c-1.031-0.795-1.907-1.728-2.629-2.796
				c-0.926-1.236-3.444-0.547-2.741,1.156c2.203,5.337,8.772,5.803,13.699,4.343c4.712-1.397,9.193-8.094,9.747-12.741
				c0.157-1.322-1.733-1.958-2.561-1.061c-3.221,3.491-6.698,6.742-10.871,9.068c-3.97,2.214-9.682,1.078-13.837,0.045
				C50.394-105.87,49.598-102.977,51.475-102.511L51.475-102.511z"/>
			<path fill="#F2FF5B" d="M18.245-112.366c1.08,1.808,3.74,2.111,5.619,1.779c2.355-0.416,3.007-3.04,1.33-4.607
				c-1.383-1.293-3.451-2.024-5.309-2.193c-2.249-0.205-3.288,1.867-2.141,3.688c1.027,1.632,3.624,0.128,2.59-1.515
				c0.001,0.001-0.252-0.518-0.149-0.232c0.156,0.432-0.319,0.928-0.679,1.068c0.161-0.064-0.183-0.02,0.229-0.018
				c0.294,0.002,0.208,0.01,0.414,0.049c0.959,0.183,1.867,0.573,2.687,1.098c0.159,0.102,0.17,0.112,0.35,0.281
				c0.098,0.091,0.118,0.152,0.049-0.027c-0.232-0.603,0.534-0.564-0.164-0.479c-0.518,0.063-1.025,0.004-1.527-0.119
				c-0.202-0.05-0.385-0.112-0.567-0.206c-0.121-0.062-0.224-0.221-0.141-0.08C19.844-115.538,17.25-114.03,18.245-112.366
				L18.245-112.366z"/>
			<path fill="#F2FF5B" d="M114.464-18.418c-3.091-1.843-7.363-4.725-11.157-4.295c-2.999,0.34-3.316,3.663-3.306,6.062
				c0.011,2.203-0.253,6.303,2.985,6.16c1.368-0.061,2.591-1.111,3.614-1.904c2.201-1.705,4.507-3.243,7.171-4.115
				c-0.385-0.913-0.771-1.827-1.155-2.741c-1.497,0.774-9.046,4.052-8.909,0.796c-0.5,0.5-1,1-1.5,1.5
				c0.428-0.058,1.216-0.311,1.384,0.237c0.116,0.38-0.149,0.741-0.485,0.649c-1.869-0.509-2.662,2.385-0.797,2.893
				c5.073,1.381,5.916-7.586-0.102-6.779c-0.838,0.111-1.462,0.598-1.5,1.5c-0.303,7.228,9.95,3.592,13.423,1.795
				c1.51-0.781,0.46-3.271-1.155-2.742c-2.521,0.824-4.74,2.113-6.887,3.658c-0.909,0.652-1.758,1.378-2.703,1.98
				c-0.729,0.465-0.322-0.229-0.345-0.858c-0.018-0.501-0.017-1.005-0.029-1.506c-0.021-0.872-0.045-1.759,0.094-2.624
				c0.204-1.271,0.989-1.004,2.035-0.783c2.788,0.592,5.392,2.267,7.811,3.708C114.615-14.835,116.123-17.429,114.464-18.418
				L114.464-18.418z"/>
			<path fill="#F2FF5B" d="M102.707-27.29c2.244,0.262,3.789-1.587,3.653-3.732c-0.139-2.196-1.7-4.177-3.987-4.268
				c-0.705-0.027-1.22,0.487-1.446,1.102c-0.366,0.994-0.159,2.229-0.682,3.142c-0.963,1.682,1.629,3.192,2.59,1.514
				c0.7-1.222,0.513-2.577,0.984-3.858c-0.482,0.367-0.964,0.734-1.446,1.102c0.26,0.01,0.348,0.072,0.63,0.381
				c0.148,0.163,0.282,0.547,0.368,0.964c0.032,0.156-0.018,0.52-0.072,0.626c-0.064,0.125-0.181,0.108,0.051,0.018
				c-0.148,0.059-0.319,0.049-0.643,0.012c-0.814-0.095-1.5,0.754-1.5,1.5C101.207-27.9,101.896-27.385,102.707-27.29L102.707-27.29
				z"/>
			<path fill="#F2FF5B" d="M113.768-15.063c1.807-1.462,1.911-3.384,1.588-5.544c-0.242-1.619-0.605-3.055-0.55-4.718
				c0.053-1.55,0.12-2.999-0.152-4.531c-0.138-0.774-1.122-1.29-1.845-1.048c-1.783,0.6-2.823,1.695-3.873,3.221
				c-1.456,2.115-3.371,3.235-5.485,4.598c-1.095,0.705-0.913,2.355,0.358,2.741c3.847,1.169,7.371-0.259,9.792-3.386
				c1.152-1.488-0.842-3.618-2.121-2.121c-2.306,2.697-6.219,4.314-7.734,7.637c-0.47,1.029,0.08,2.223,1.295,2.258
				c3.826,0.109,6.264-2.394,9.257-4.372c1.602-1.058,0.14-3.62-1.514-2.59c-1.747,1.088-2.195,2.542-1.856,4.526
				c0.325,1.904,3.216,1.095,2.893-0.797c0.159-0.38,0.318-0.76,0.478-1.14c-0.505-0.863-1.009-1.727-1.514-2.59
				c-2.444,1.615-4.604,4.052-7.743,3.962c0.432,0.752,0.863,1.504,1.295,2.257c1.372-3.007,5.157-4.563,7.266-7.03
				c-0.707-0.707-1.414-1.414-2.121-2.121c-1.776,2.295-3.957,3.5-6.874,2.614c0.12,0.913,0.239,1.827,0.358,2.741
				c1.582-1.019,3.18-1.96,4.608-3.194c1.481-1.28,2.068-3.66,4.033-4.321c-0.615-0.349-1.229-0.697-1.845-1.047
				c0.367,2.067-0.095,4.182,0.112,6.268c0.185,1.859,1.522,4.189-0.227,5.606C110.143-15.966,112.279-13.856,113.768-15.063
				L113.768-15.063z"/>
			<path fill="#F2FF5B" d="M90.653-25.355c-0.322-1.929-2.076-3.366-2.261-5.217c-0.273-2.733,3.77-6.021,5.737-7.423
				c-0.684-0.18-1.368-0.358-2.052-0.538c0.945,1.86,0.449,3.956,0.426,5.943c-0.017,1.431,0.828,4.753-1.552,4.26
				c-3.469-0.72,3.225-7.569,4.05-9.036c-0.914-0.385-1.827-0.771-2.741-1.156c-0.991,2.422-1.697,4.96-3.183,7.143
				c-1.092,1.604,1.509,3.103,2.59,1.514c1.629-2.393,2.399-5.203,3.485-7.857c0.655-1.601-1.926-2.605-2.741-1.156
				c-1.637,2.907-4.449,4.943-5.508,8.203c-0.901,2.776,1.574,5.264,4.25,5.418c2.864,0.164,4.267-1.494,4.405-4.191
				c0.171-3.35,0.648-7.567-0.892-10.597c-0.347-0.683-1.413-0.993-2.052-0.538c-2.435,1.734-5.686,4.457-6.689,7.396
				c-0.507,1.482-0.769,2.977-0.134,4.465c0.63,1.477,1.694,2.528,1.968,4.166C88.079-22.653,90.97-23.464,90.653-25.355
				L90.653-25.355z"/>
			<path fill="#F2FF5B" d="M72.911-93.714c-0.36,0.505-1.041,0.771-1.64,0.645c-0.799-0.17-1.618,0.224-1.845,1.047
				c-0.207,0.752,0.247,1.676,1.048,1.846c2.009,0.424,3.848-0.37,5.026-2.022c0.476-0.667,0.119-1.667-0.538-2.053
				C74.209-94.693,73.385-94.378,72.911-93.714L72.911-93.714z"/>
			<path fill="#F2FF5B" d="M59.206-96.79c-0.556,0-1.11,0-1.666,0c-1.935,0-1.935,3,0,3c0.556,0,1.11,0,1.666,0
				C61.141-93.79,61.141-96.79,59.206-96.79L59.206-96.79z"/>
			<path fill="#F2FF5B" d="M27.601-82.017c0.11,0.164,0.123,0.18,0.036,0.048c-0.189-0.295,0.112,0.319-0.026-0.036
				c-0.137-0.352-0.278-0.701-0.442-1.042c-0.354-0.737-1.391-0.926-2.052-0.538c-0.748,0.438-0.892,1.314-0.538,2.052
				c0.242,0.505-0.068-0.21,0.096,0.21c0.042,0.108,0.083,0.217,0.128,0.324c0.182,0.435,0.354,0.751,0.678,1.104
				c0.554,0.602,1.562,0.56,2.121,0C28.196-80.491,28.154-81.416,27.601-82.017L27.601-82.017z"/>
			<path fill="#F2FF5B" d="M24.76-36.022c-0.279,0.876-0.387,1.791-0.666,2.667c-0.248,0.779,0.283,1.636,1.048,1.845
				c0.812,0.225,1.597-0.269,1.845-1.047c0.279-0.876,0.387-1.791,0.666-2.667c0.248-0.779-0.283-1.636-1.048-1.845
				C25.793-37.294,25.008-36.801,24.76-36.022L24.76-36.022z"/>
			<path fill="#F2FF5B" d="M63.475-72.403c-6.621,1.119-20.151,13.662-10.071,19.149c2.317,1.262,5.108,1.055,7.648,1.222
				c3.035,0.198,6.331,0.635,9.181-0.664c4.421-2.014,2.346-11.756,0.269-14.685c-0.63-0.888-1.993-1.045-2.59,0
				c-1.3,2.274-1.849,4.665-2.434,7.194c-0.872,3.771-4.063,4.379-7.564,4.337c-2.772-0.032-0.775-2.525,0.086-3.797
				c1.35-1.993,3.033-3.765,4.602-5.583c1.158-1.343-0.268-3.035-1.817-2.355c-3.392,1.486-6.479,4.348-7.689,7.896
				c-0.267,0.779,0.298,1.631,1.048,1.845c3.472,0.992,7.372-0.078,10.642,1.516c1.731,0.844,3.253-1.743,1.514-2.591
				c-3.686-1.796-7.53-0.725-11.358-1.817c0.35,0.615,0.698,1.229,1.048,1.845c0.963-2.82,3.667-4.944,6.311-6.104
				c-0.605-0.785-1.212-1.57-1.817-2.355c-2.372,2.751-10.509,10.252-5.434,13.807c2.607,1.826,8.491,0.628,10.72-1.267
				c3.233-2.749,2.735-7.556,4.735-11.056c-0.863,0-1.727,0-2.59,0c1.468,2.07,3.403,9.873,0.038,10.839
				c-2.113,0.606-4.742,0.144-6.897-0.005c-2.062-0.143-4.193,0.029-6.135-0.813c-3.468-1.504-1.313-5.648,0.187-7.779
				c2.111-3.004,5.556-5.275,9.168-5.887C66.176-69.832,65.366-72.723,63.475-72.403L63.475-72.403z"/>
			<path fill="#F2FF5B" d="M53.373-42.956c0-0.557,0-1.111,0-1.668c0-1.934-3-1.934-3,0c0,0.557,0,1.111,0,1.668
				C50.373-41.022,53.373-41.022,53.373-42.956L53.373-42.956z"/>
			<path fill="#F2FF5B" d="M85.54-19.456c1.935,0,1.935-3,0-3S83.605-19.456,85.54-19.456L85.54-19.456z"/>
			<path fill="#F2FF5B" d="M78.54-97.79c0.333,0,0.667,0,1,0c1.935,0,1.935-3,0-3c-0.333,0-0.667,0-1,0
				C76.605-100.79,76.605-97.79,78.54-97.79L78.54-97.79z"/>
			<path fill="#F2FF5B" d="M97.873-106.124c0.083,0,0.167,0.002,0.25,0.006c-0.123-0.005-0.218-0.029-0.311-0.111
				c0.613,0.54,1.516,0.605,2.121,0c0.551-0.551,0.614-1.58,0-2.121c-0.609-0.537-1.249-0.769-2.061-0.773
				C95.938-109.134,95.939-106.134,97.873-106.124L97.873-106.124z"/>
			<path fill="#F2FF5B" d="M65.873-73.29c-9.064,1.14-27.797,4.831-28.98,16.471c-0.641,6.299,3.024,11.037,9.425,9.523
				c4.087-0.968,8.247-2.623,12.241-3.949c3.658-1.215,6.949-3.029,9.109-6.288c0.578-0.872-0.045-1.878-0.896-2.203
				c-7.296-2.784-17.363,0.296-22.959,5.386c-0.808,0.734-0.426,2.28,0.662,2.507c4.288,0.894,7.455-0.215,10.459-3.386
				c1.159-1.223-0.326-3.249-1.817-2.355c-0.34,0.203-3.838,2.416-4.146,1.582c-0.367-0.996,0.577-2.846,0.954-3.67
				c1.235-2.703,3.277-5.124,5.705-6.822c-0.605-0.785-1.212-1.57-1.817-2.355c-3.99,3.242-8.962,5.783-8.939,11.561
				c0.003,0.777,0.681,1.554,1.5,1.5c4.545-0.298,9.159,0.524,13.701,0.701c3.008,0.117,7.12,0.26,9.359-2.141
				c1.318-1.412-0.799-3.538-2.121-2.121c-2.187,2.344-7.951,1.26-10.797,1.071c-3.365-0.224-6.766-0.732-10.143-0.511
				c0.5,0.5,1,1,1.5,1.5c-0.018-4.615,4.919-6.886,8.061-9.439c1.32-1.073-0.427-3.328-1.817-2.355
				c-3.687,2.577-8.078,7.541-8.157,12.361c-0.093,5.611,5.644,3.542,8.671,1.729c-0.605-0.785-1.212-1.57-1.817-2.355
				c-2.218,2.341-4.235,3.303-7.541,2.614c0.221,0.835,0.441,1.671,0.662,2.507c4.854-4.414,13.76-7.01,20.041-4.614
				c-0.299-0.734-0.598-1.469-0.896-2.203c-3.375,5.091-10.774,5.765-16.108,7.698c-3.159,1.146-6.944,3.164-8.65-1.34
				c-0.973-2.57-0.471-4.993,0.974-7.235c4.537-7.04,16.891-9.399,24.58-10.366C67.766-70.528,67.789-73.53,65.873-73.29
				L65.873-73.29z"/>
			<path fill="#F2FF5B" d="M45.475-53.736c-1.438,0.394-2.766,0.394-4.203,0c0.35,0.349,0.699,0.698,1.048,1.048
				c-1.42-4.486,5.202-7.15,7.349-10.345c0.585-0.87-0.172-2.407-1.295-2.257c-5.354,0.718-13.93,5.402-9.295,11.757
				c1.127,1.546,3.732,0.052,2.59-1.514c-2.982-4.089,3.404-6.801,6.705-7.243c-0.432-0.752-0.863-1.505-1.295-2.257
				c-2.079,3.093-6.139,4.517-7.588,8.101c-0.586,1.45-0.738,3.504,0.088,4.913c1.062,1.813,5.088,1.13,6.693,0.689
				C48.136-51.354,47.344-54.249,45.475-53.736L45.475-53.736z"/>
			<path fill="#F2FF5B" d="M34.475-23.844c18.754,4.063,8.636-27.069-0.637-22.594c-5.882,2.839-8.968,19.281-1.319,21.598
				c4.831,1.464,9.578-1.912,9.591-6.891c0.012-4.814-3.778-10.228-7.979-12.354c-0.554-0.281-1.386-0.307-1.817,0.234
				c-3.678,4.604-6.667,16.704,2.561,16.561c0.712-0.012,1.21-0.459,1.446-1.102c1.504-4.084,1.071-8.421-1.151-12.155
				c-0.831-1.397-2.616-0.638-2.795,0.757c-0.476,3.706,0.452,6.777,2.939,9.561c0.771,0.863,2.208,0.372,2.507-0.662
				c0.903-3.121,0.96-6.418,2-9.5c-0.964,0-1.929,0-2.893,0c0.46,2.391,0.846,4.768,0.5,7.203c-0.269,1.891,2.622,2.706,2.893,0.797
				c0.427-3.004,0.07-5.833-0.5-8.797c-0.3-1.561-2.454-1.299-2.893,0c-1.041,3.081-1.097,6.378-2,9.5
				c0.836-0.221,1.671-0.441,2.507-0.662c-2.006-2.244-2.434-4.537-2.061-7.439c-0.932,0.252-1.863,0.505-2.795,0.757
				c1.844,3.099,2.088,6.478,0.849,9.845c0.482-0.367,0.964-0.734,1.446-1.102c-5.807,0.09-2.514-8.843-0.439-11.439
				c-0.605,0.078-1.212,0.156-1.817,0.234c3.158,1.6,5.3,4.871,6.25,8.208c0.503,1.763,0.356,3.753-1.229,4.892
				c-2.106,1.512-4.901,1.15-5.902-1.303c-1.339-3.284-0.221-7.165,0.883-10.338c0.456-1.311,1.608-4.182,3.466-3.803
				c3.585,0.73,5.255,6.986,5.755,9.932c0.827,4.873-1.375,8.295-6.566,7.171C33.386-27.146,32.584-24.253,34.475-23.844
				L34.475-23.844z"/>
			<path fill="#F2FF5B" d="M39.373-20.79c-0.833,0-1.667,0-2.5,0c-1.935,0-1.935,3,0,3c0.833,0,1.667,0,2.5,0
				C41.308-17.79,41.308-20.79,39.373-20.79L39.373-20.79z"/>
			<path fill="#F2FF5B" d="M48.934-74.851c-1.304-1.24-2.83-1.438-4.561-1.439c-1.935-0.001-1.935,2.999,0,3
				c0.418,0,1.103-0.004,1.368,0.037c0.463,0.072,0.71,0.18,1.071,0.523C48.214-71.397,50.338-73.516,48.934-74.851L48.934-74.851z"
				/>
			<path fill="#F2FF5B" d="M30.813-58.851c-0.827,0.879-0.938,1.904-0.939,3.061c-0.001,1.935,2.999,1.935,3,0
				c0-0.162,0.001-0.324,0.003-0.485c0.001-0.078,0.057-0.66-0.005-0.247c0.017-0.109,0.049-0.213,0.084-0.317
				c-0.086,0.195-0.088,0.22-0.008,0.074c-0.125,0.153-0.13,0.165-0.014,0.036c0.561-0.595,0.591-1.53,0-2.121
				C32.369-59.415,31.373-59.446,30.813-58.851L30.813-58.851z"/>
			<path fill="#F2FF5B" d="M72.873-38.79c-1.724-0.113-3.232,0.551-4.555,1.616c-0.444,0.358-2.004,2.248-2.613,2.118
				c-0.48-0.103-1.316-1.321-1.486-1.735c-0.184-0.452,0.399-0.66,0.724-0.829c1.142-0.594,2.836-0.646,4.032-0.224
				c0-0.964,0-1.929,0-2.893c-1.967,0.576-3.605,1.781-5.5,2.5c-1.791,0.679-1.016,3.58,0.797,2.893
				c1.893-0.718,3.552-1.929,5.5-2.5c1.486-0.435,1.371-2.409,0-2.893c-3.644-1.284-11.081,1.176-7.788,6.023
				c1.29,1.899,3.106,3.319,5.385,2.198c1.999-0.982,2.996-3.44,5.505-3.275C74.806-35.663,74.793-38.663,72.873-38.79L72.873-38.79
				z"/>
			<path fill="#F2FF5B" d="M72.873-46.79c0.271,0.023,0.252,0.075,0.02-0.079c0.291,0.193,0.111,0.087,0.041,0.019
				c-0.587-0.568-1.536-0.585-2.121,0c-0.571,0.57-0.587,1.553,0,2.121c0.578,0.561,1.261,0.871,2.061,0.939
				c0.816,0.07,1.5-0.735,1.5-1.5C74.373-46.161,73.688-46.72,72.873-46.79L72.873-46.79z"/>
			<path fill="#F2FF5B" d="M113.771-67.736c-7.467-2.241-17.527-5.704-18.399-14.772c-0.81-8.412,7.897-18.433,13.062-24.221
				c-0.836-0.486-1.671-0.973-2.507-1.459c-1.2,5.363-5.471,8.699-8.349,13.142c-1.056,1.629,1.543,3.131,2.59,1.514
				c3.082-4.757,7.367-8.119,8.651-13.858c0.309-1.379-1.45-2.645-2.507-1.459c-6.356,7.124-14.803,17.378-13.823,27.563
				c0.944,9.823,12.481,14.043,20.485,16.444C114.832-64.286,115.62-67.182,113.771-67.736L113.771-67.736z"/>
			<path fill="#F2FF5B" d="M16.168-66.033c3.066-6.843,4.667-14.601,5.58-22.007c0.758-6.148,2.173-16.225-3.314-20.811
				c-0.991-0.828-2.518-0.32-2.561,1.061c-0.16,5.2,1.848,9.827,3.199,14.763c1.792,6.543-0.675,11.761-2.646,17.839
				c-0.599,1.846,2.299,2.629,2.893,0.797c1.532-4.724,3.519-9.113,3.491-14.16c-0.036-6.668-4.145-12.516-3.938-19.238
				c-0.854,0.354-1.707,0.707-2.561,1.061c4.857,4.059,3.07,14.059,2.327,19.468c-0.905,6.588-2.328,13.612-5.062,19.715
				C12.794-65.798,15.379-64.271,16.168-66.033L16.168-66.033z"/>
			<path fill="#F2FF5B" d="M20.813-66.851c-1.78,1.748-3.412,3.258-2.886,5.959c0.124,0.637,0.819,1.117,1.446,1.102
				c3.75-0.092,7.352-2.505,7.5-6.5c0.024-0.664-0.476-1.273-1.102-1.446c-0.648-0.179-1.228-0.22-1.89-0.093
				c-0.244,0.047-0.485,0.189-0.703,0.307c-0.151,0.08-0.655,0.262-0.306,0.232c-1.913,0.161-1.929,3.162,0,3
				c0.778-0.065,1.585-0.695,2.102-0.554c-0.367-0.481-0.734-0.964-1.102-1.446c-0.085,2.301-2.452,3.449-4.5,3.5
				c0.482,0.367,0.964,0.734,1.446,1.102c-0.247-1.272,1.327-2.268,2.114-3.041C24.315-66.087,22.193-68.207,20.813-66.851
				L20.813-66.851z"/>
		</g>
		<g>
			<path fill="#F2FF5B" d="M13.261-111.364c-3.335,13.997-3.463,28.606-1.334,42.797c0.256,1.707,2.955,1.25,2.946-0.398
				c-0.064-11.645-1.251-23.368,0.613-34.934c0.305-1.893-2.586-2.704-2.893-0.799c-1.911,11.857-0.786,23.795-0.721,35.732
				c0.982-0.133,1.964-0.266,2.946-0.398c-2.044-13.631-1.867-27.766,1.334-41.203C16.602-112.448,13.709-113.246,13.261-111.364
				L13.261-111.364z"/>
			<path fill="#F2FF5B" d="M11.927-29.364c-0.814,2.33-1.924,4.561-2.054,7.065c-0.049,0.95,0.999,1.737,1.898,1.446
				c4.33-1.4,4.27-6.819,3.715-10.512c-0.219-1.462-2.63-1.414-2.893,0c-0.628,3.376-0.769,6.766,0,10.131
				c0.431,1.886,3.322,1.086,2.893-0.798c-0.644-2.821-0.526-5.705,0-8.536c-0.964,0-1.929,0-2.893,0
				c0.275,1.836,0.737,6.06-1.619,6.822c0.633,0.482,1.266,0.964,1.898,1.446c0.113-2.179,1.237-4.238,1.946-6.269
				C15.459-30.398,12.561-31.179,11.927-29.364L11.927-29.364z"/>
			<path fill="#F2FF5B" d="M13.283-56.261C9.037-53.563,5.25-50.478,3.333-45.7c-0.519,1.293-1.516,4.633-0.354,5.795
				c1.402,1.402,3.949,2.451,5.899,2.738c7.583,1.115,6.67-10.608,6.661-15.132c-0.003-1.755-2.403-1.962-2.946-0.399
				c-1.275,3.671-2.929,7.152-5.614,10.006c0.854,0.354,1.707,0.707,2.561,1.061c-0.109-1.701-0.45-3.229-0.054-4.936
				c0.38-1.634-1.873-2.666-2.741-1.155c-2.282,3.966-0.307,12.333,5.544,9.126c5.176-2.837,2.658-12.438,2.584-17.035
				c-0.016-0.979-0.945-1.703-1.898-1.447c-7.24,1.942-10.284,9.883-9.768,16.78c0.144,1.917,3.145,1.931,3,0
				c-0.414-5.531,1.597-12.286,7.564-13.888c-0.633-0.481-1.266-0.964-1.898-1.445c0.054,3.313,0.489,6.602,0.418,9.922
				c-0.028,1.291-0.212,5.168-2.461,4.816c-2.072-0.324-1.063-4.327-0.495-5.315c-0.913-0.385-1.827-0.771-2.741-1.155
				c-0.459,1.975-0.182,3.738-0.054,5.732c0.08,1.239,1.609,2.071,2.561,1.061c3.044-3.234,4.94-7.168,6.386-11.328
				c-0.982-0.134-1.964-0.267-2.946-0.399c0.006,3.021,0.148,6.103-0.438,9.081c-0.9,4.571-4.344,2.914-7.305,0.957
				c0.248,0.432,0.495,0.863,0.743,1.295c0.202-6.035,4.503-9.684,9.257-12.705C16.425-54.704,14.921-57.302,13.283-56.261
				L13.283-56.261z"/>
			<path fill="#F2FF5B" d="M14.464-18.418c-3.091-1.843-7.363-4.725-11.157-4.295c-2.999,0.34-3.316,3.663-3.306,6.062
				c0.011,2.203-0.253,6.303,2.985,6.16c1.368-0.061,2.591-1.111,3.614-1.904c2.201-1.705,4.507-3.243,7.171-4.115
				c-0.385-0.913-0.771-1.827-1.155-2.741c-1.497,0.774-9.046,4.052-8.909,0.796c-0.5,0.5-1,1-1.5,1.5
				c0.428-0.058,1.216-0.311,1.384,0.237c0.116,0.38-0.149,0.741-0.485,0.649c-1.869-0.509-2.662,2.385-0.797,2.893
				c5.073,1.381,5.916-7.586-0.102-6.779c-0.838,0.111-1.462,0.598-1.5,1.5c-0.303,7.228,9.95,3.592,13.423,1.795
				c1.51-0.781,0.46-3.271-1.155-2.742c-2.521,0.824-4.74,2.113-6.887,3.658c-0.909,0.652-1.758,1.378-2.703,1.98
				C2.655-13.3,3.063-13.993,3.04-14.623c-0.018-0.501-0.017-1.005-0.029-1.506c-0.021-0.872-0.045-1.759,0.094-2.624
				c0.204-1.271,0.989-1.004,2.035-0.783c2.788,0.592,5.392,2.267,7.811,3.708C14.615-14.835,16.123-17.429,14.464-18.418
				L14.464-18.418z"/>
			<path fill="#F2FF5B" d="M13.768-15.063c1.807-1.462,1.911-3.384,1.588-5.544c-0.242-1.619-0.605-3.055-0.55-4.718
				c0.053-1.55,0.12-2.999-0.152-4.531c-0.138-0.774-1.122-1.29-1.845-1.048c-1.783,0.6-2.823,1.695-3.873,3.221
				c-1.456,2.115-3.371,3.235-5.485,4.598c-1.095,0.705-0.913,2.355,0.358,2.741c3.847,1.169,7.371-0.259,9.792-3.386
				c1.152-1.488-0.842-3.618-2.121-2.121c-2.306,2.697-6.219,4.314-7.734,7.637c-0.47,1.029,0.08,2.223,1.295,2.258
				c3.826,0.109,6.264-2.394,9.257-4.372c1.602-1.058,0.14-3.62-1.514-2.59c-1.747,1.088-2.195,2.542-1.856,4.526
				c0.325,1.904,3.216,1.095,2.893-0.797c0.159-0.38,0.318-0.76,0.478-1.14c-0.505-0.863-1.009-1.727-1.514-2.59
				c-2.444,1.615-4.604,4.052-7.743,3.962c0.432,0.752,0.863,1.504,1.295,2.257c1.372-3.007,5.157-4.563,7.266-7.03
				c-0.707-0.707-1.414-1.414-2.121-2.121c-1.776,2.295-3.957,3.5-6.874,2.614c0.12,0.913,0.239,1.827,0.358,2.741
				c1.582-1.019,3.18-1.96,4.608-3.194c1.481-1.28,2.068-3.66,4.033-4.321c-0.615-0.349-1.229-0.697-1.845-1.047
				c0.367,2.067-0.095,4.182,0.112,6.268c0.185,1.859,1.522,4.189-0.227,5.606C10.143-15.966,12.279-13.856,13.768-15.063
				L13.768-15.063z"/>
		</g>
		<g>
			<path fill="#F2FF5B" d="M80.668-117.723c-6.249-10.124-31.746-18.229-30.128,0.757c0.053,0.616,0.413,1.334,1.102,1.446
				c6.649,1.092,18.313,3.78,23.181-2.812c4.74-6.418-8.359-8.765-12.35-8.559c-4.258,0.221-13.548,3.647-8.873,9.332
				c3.664,4.457,15.458-0.389,19.506-1.962c1.217-0.473,1.5-1.981,0.358-2.741c-5.162-3.439-12.816-5.758-16.719,0.538
				c-0.438,0.706-0.145,1.634,0.538,2.052c3.155,1.935,5.582,1.531,8.847,0c1.751-0.82,0.227-3.406-1.514-2.59
				c-1.841,1.254-3.78,1.254-5.819,0c0.18,0.684,0.359,1.368,0.538,2.052c2.965-4.782,9.089-1.811,12.615,0.538
				c0.119-0.914,0.238-1.828,0.358-2.741c-3.434,1.335-6.993,2.345-10.615,3.01c-1.331,0.245-5.972,1.131-6.262-1.039
				c-0.349-2.606,5.53-3.294,7.041-3.448c2.168-0.219,4.053,0.262,6.136,0.768c0.747,0.182,4.683,1.232,4.065,2.68
				c-0.551,1.288-3.305,2.275-4.365,2.697c-4.524,1.797-11.279,0.086-15.87-0.667c0.367,0.481,0.734,0.964,1.102,1.446
				c-1.317-15.464,19.807-6.906,24.538,0.757C79.092-114.566,81.688-116.071,80.668-117.723L80.668-117.723z"/>
			<path fill="#F2FF5B" d="M114.464-118.418c-3.091-1.843-7.363-4.725-11.157-4.295c-2.999,0.34-3.316,3.663-3.306,6.062
				c0.011,2.203-0.253,6.303,2.985,6.16c1.368-0.061,2.591-1.111,3.614-1.904c2.201-1.705,4.507-3.243,7.171-4.115
				c-0.385-0.913-0.771-1.827-1.155-2.741c-1.497,0.774-9.046,4.052-8.909,0.796c-0.5,0.5-1,1-1.5,1.5
				c0.428-0.058,1.216-0.311,1.384,0.237c0.116,0.38-0.149,0.741-0.485,0.649c-1.869-0.509-2.662,2.385-0.797,2.893
				c5.073,1.381,5.916-7.586-0.102-6.779c-0.838,0.111-1.462,0.598-1.5,1.5c-0.303,7.228,9.95,3.592,13.423,1.795
				c1.51-0.781,0.46-3.271-1.155-2.742c-2.521,0.824-4.74,2.113-6.887,3.658c-0.909,0.652-1.758,1.378-2.703,1.98
				c-0.729,0.465-0.322-0.229-0.345-0.858c-0.018-0.501-0.017-1.005-0.029-1.506c-0.021-0.872-0.045-1.759,0.094-2.624
				c0.204-1.271,0.989-1.004,2.035-0.783c2.788,0.592,5.392,2.267,7.811,3.708C114.615-114.835,116.123-117.429,114.464-118.418
				L114.464-118.418z"/>
			<path fill="#F2FF5B" d="M113.768-115.063c1.807-1.462,1.911-3.384,1.588-5.544c-0.242-1.619-0.605-3.055-0.55-4.718
				c0.053-1.55,0.12-2.999-0.152-4.531c-0.138-0.774-1.122-1.29-1.845-1.048c-1.783,0.6-2.823,1.695-3.873,3.221
				c-1.456,2.115-3.371,3.235-5.485,4.598c-1.095,0.705-0.913,2.355,0.358,2.741c3.847,1.169,7.371-0.259,9.792-3.386
				c1.152-1.488-0.842-3.618-2.121-2.121c-2.306,2.697-6.219,4.314-7.734,7.637c-0.47,1.029,0.08,2.223,1.295,2.258
				c3.826,0.109,6.264-2.394,9.257-4.372c1.602-1.058,0.14-3.62-1.514-2.59c-1.747,1.088-2.195,2.542-1.856,4.526
				c0.325,1.904,3.216,1.095,2.893-0.797c0.159-0.38,0.318-0.76,0.478-1.14c-0.505-0.863-1.009-1.727-1.514-2.59
				c-2.444,1.615-4.604,4.052-7.743,3.962c0.432,0.752,0.863,1.504,1.295,2.257c1.372-3.007,5.157-4.563,7.266-7.03
				c-0.707-0.707-1.414-1.414-2.121-2.121c-1.776,2.295-3.957,3.5-6.874,2.614c0.12,0.913,0.239,1.827,0.358,2.741
				c1.582-1.019,3.18-1.96,4.608-3.194c1.481-1.28,2.068-3.66,4.033-4.321c-0.615-0.349-1.229-0.697-1.845-1.047
				c0.367,2.067-0.095,4.182,0.112,6.268c0.185,1.859,1.522,4.189-0.227,5.606C110.143-115.966,112.279-113.856,113.768-115.063
				L113.768-115.063z"/>
		</g>
		<g>
			<path fill="#F2FF5B" d="M14.464-118.418c-3.091-1.843-7.363-4.725-11.157-4.295c-2.999,0.34-3.316,3.663-3.306,6.062
				c0.011,2.203-0.253,6.303,2.985,6.16c1.368-0.061,2.591-1.111,3.614-1.904c2.201-1.705,4.507-3.243,7.171-4.115
				c-0.385-0.913-0.771-1.827-1.155-2.741c-1.497,0.774-9.046,4.052-8.909,0.796c-0.5,0.5-1,1-1.5,1.5
				c0.428-0.058,1.216-0.311,1.384,0.237c0.116,0.38-0.149,0.741-0.485,0.649c-1.869-0.509-2.662,2.385-0.797,2.893
				c5.073,1.381,5.916-7.586-0.102-6.779c-0.838,0.111-1.462,0.598-1.5,1.5c-0.303,7.228,9.95,3.592,13.423,1.795
				c1.51-0.781,0.46-3.271-1.155-2.742c-2.521,0.824-4.74,2.113-6.887,3.658c-0.909,0.652-1.758,1.378-2.703,1.98
				c-0.729,0.465-0.322-0.229-0.345-0.858c-0.018-0.501-0.017-1.005-0.029-1.506c-0.021-0.872-0.045-1.759,0.094-2.624
				c0.204-1.271,0.989-1.004,2.035-0.783c2.788,0.592,5.392,2.267,7.811,3.708C14.615-114.835,16.123-117.429,14.464-118.418
				L14.464-118.418z"/>
			<path fill="#F2FF5B" d="M13.768-115.063c1.807-1.462,1.911-3.384,1.588-5.544c-0.242-1.619-0.605-3.055-0.55-4.718
				c0.053-1.55,0.12-2.999-0.152-4.531c-0.138-0.774-1.122-1.29-1.845-1.048c-1.783,0.6-2.823,1.695-3.873,3.221
				c-1.456,2.115-3.371,3.235-5.485,4.598c-1.095,0.705-0.913,2.355,0.358,2.741c3.847,1.169,7.371-0.259,9.792-3.386
				c1.152-1.488-0.842-3.618-2.121-2.121c-2.306,2.697-6.219,4.314-7.734,7.637c-0.47,1.029,0.08,2.223,1.295,2.258
				c3.826,0.109,6.264-2.394,9.257-4.372c1.602-1.058,0.14-3.62-1.514-2.59c-1.747,1.088-2.195,2.542-1.856,4.526
				c0.325,1.904,3.216,1.095,2.893-0.797c0.159-0.38,0.318-0.76,0.478-1.14c-0.505-0.863-1.009-1.727-1.514-2.59
				c-2.444,1.615-4.604,4.052-7.743,3.962c0.432,0.752,0.863,1.504,1.295,2.257c1.372-3.007,5.157-4.563,7.266-7.03
				c-0.707-0.707-1.414-1.414-2.121-2.121c-1.776,2.295-3.957,3.5-6.874,2.614c0.12,0.913,0.239,1.827,0.358,2.741
				c1.582-1.019,3.18-1.96,4.608-3.194c1.481-1.28,2.068-3.66,4.033-4.321c-0.615-0.349-1.229-0.697-1.845-1.047
				c0.367,2.067-0.095,4.182,0.112,6.268c0.185,1.859,1.522,4.189-0.227,5.606C10.143-115.966,12.279-113.856,13.768-115.063
				L13.768-115.063z"/>
		</g>
	</g>
</pattern>
<g id="Map">
</g>
<g id="Ebene_1">
</g>
<g id="Icons">
</g>
<g id="Schrift">
</g>
<g id="Grafik">
	<rect y="0.171" fill="url(#UC_polkadots)" width="100" height="100"/>
</g>
</svg>
