<?xml version="1.0" encoding="utf-8"?>
<!-- Generator: Adobe Illustrator 16.0.0, SVG Export Plug-In . SVG Version: 6.00 Build 0)  -->
<!DOCTYPE svg PUBLIC "-//W3C//DTD SVG 1.1//EN" "http://www.w3.org/Graphics/SVG/1.1/DTD/svg11.dtd">
<svg version="1.1" xmlns="http://www.w3.org/2000/svg" xmlns:xlink="http://www.w3.org/1999/xlink"
	 viewBox="0 0 100 100" xml:space="preserve">
<pattern  x="-1784" y="1148.171" width="100" height="100" patternUnits="userSpaceOnUse" id="uc_wavy" viewBox="60.25 -145.25 100 100" overflow="visible">
	<g>
		<polygon fill="none" points="60.25,-145.25 160.25,-145.25 160.25,-45.25 60.25,-45.25 		"/>
		<g>
			<path fill="none" stroke="#F2FF5B" stroke-miterlimit="10" d="M151.5,0c0-33.717,44.95-61,100.5-61"/>
		</g>
		<g>
			<path fill="none" stroke="#F2FF5B" stroke-miterlimit="10" d="M51.5,0c0-33.717,44.95-61,100.5-61"/>
			<path fill="none" stroke="#F2FF5B" stroke-miterlimit="10" d="M65.5-51.5c0,12.437,40.992,23,83,23"/>
		</g>
		<g>
			<path fill="none" stroke="#F2FF5B" stroke-miterlimit="10" d="M146.5-88.5c0,16.582,48.781,37,93,37"/>
			<path fill="none" stroke="#F2FF5B" stroke-miterlimit="10" d="M151.5-100c0-33.717,44.95-61,100.5-61"/>
		</g>
		<g>
			<path fill="none" stroke="#F2FF5B" stroke-miterlimit="10" d="M75.5-75.5c0-21.833,30.362-39.5,63.25-39.5"/>
			<path fill="none" stroke="#F2FF5B" stroke-miterlimit="10" d="M106.5-103.5c-15,25,8.182,40,22,40"/>
			<path fill="none" stroke="#F2FF5B" stroke-miterlimit="10" d="M124.5-79.671C114-125,146.547-142,177.5-142"/>
			<path fill="none" stroke="#F2FF5B" stroke-miterlimit="10" d="M46.5-88.5c0,16.582,48.781,37,93,37"/>
			<path fill="none" stroke="#F2FF5B" stroke-miterlimit="10" d="M100.5-43.5c0-40.805,41.214-77.5,94-77.5"/>
			<path fill="none" stroke="#F2FF5B" stroke-miterlimit="10" d="M68-126.5c0,11.607,12.165,25.5,44.5,25.5"/>
			<path fill="none" stroke="#F2FF5B" stroke-miterlimit="10" d="M51.5-100c0-33.717,44.95-61,100.5-61"/>
			<path fill="none" stroke="#F2FF5B" stroke-miterlimit="10" d="M65.5-151.5c0,12.437,40.992,23,83,23"/>
			<polygon fill="#F2FF5B" points="97.104,-117.617 113.367,-101.354 96.396,-84.383 80.133,-100.646 			"/>
			<polygon fill="#F2FF5B" points="101.302,-60.91 110.635,-51.612 100.918,-41.896 91.585,-51.193 			"/>
			<polygon fill="#F2FF5B" points="138.857,-134.062 149.477,-123.459 138.396,-112.383 127.777,-122.985 			"/>
		</g>
		<g>
			<path fill="none" stroke="#F2FF5B" stroke-miterlimit="10" d="M24.5-79.671C14-125,46.547-142,77.5-142"/>
			<path fill="none" stroke="#F2FF5B" stroke-miterlimit="10" d="M0.5-43.5c0-40.805,41.214-77.5,94-77.5"/>
		</g>
		<g>
			<path fill="none" stroke="#F2FF5B" stroke-miterlimit="10" d="M100.5-143.5c0-40.805,41.214-77.5,94-77.5"/>
			<polygon fill="#F2FF5B" points="101.302,-160.91 110.635,-151.612 100.918,-141.896 91.585,-151.193 			"/>
		</g>
		<g>
			<path fill="none" stroke="#F2FF5B" stroke-miterlimit="10" d="M0.5-143.5c0-40.805,41.214-77.5,94-77.5"/>
		</g>
	</g>
</pattern>
<g id="Map">
</g>
<g id="Ebene_1">
</g>
<g id="Icons">
</g>
<g id="Schrift">
</g>
<g id="Grafik">
	<pattern  id="SVGID_1_" xlink:href="#uc_wavy" patternTransform="matrix(1 0 0 1 1 0)">
	</pattern>
	<rect y="0.171" fill="url(#SVGID_1_)" width="100" height="100"/>
</g>
</svg>
