<?xml version="1.0" encoding="utf-8"?>
<!-- Generator: Adobe Illustrator 16.0.0, SVG Export Plug-In . SVG Version: 6.00 Build 0)  -->
<!DOCTYPE svg PUBLIC "-//W3C//DTD SVG 1.1//EN" "http://www.w3.org/Graphics/SVG/1.1/DTD/svg11.dtd">
<svg version="1.1" id="Ebene_1" xmlns="http://www.w3.org/2000/svg" xmlns:xlink="http://www.w3.org/1999/xlink" x="0px" y="0px"
	 width="100px" height="100px" viewBox="0 0 100 100" enable-background="new 0 0 100 100" xml:space="preserve">
<pattern  x="-461.5" y="434.5" width="100" height="100" patternUnits="userSpaceOnUse" id="SVGID_1" viewBox="5.189 -108.702 100 100" overflow="visible">
	<g>
		<polygon fill="none" points="5.189,-108.702 105.189,-108.702 105.189,-8.702 5.189,-8.702 		"/>
		<g>
			<defs>
				<rect id="SVGID_1_" x="5.189" y="-108.702" width="100" height="100"/>
			</defs>
			<clipPath id="SVGID_2_">
				<use xlink:href="#SVGID_1_"  overflow="visible"/>
			</clipPath>
			<g clip-path="url(#SVGID_2_)">
				<path d="M8.374-111.868c1.08-1.81,3.74-2.11,5.619-1.778c2.355,0.416,3.007,3.038,1.33,4.606
					c-1.383,1.293-3.451,2.022-5.309,2.192c-2.248,0.207-3.287-1.865-2.14-3.688c1.027-1.631,3.624-0.127,2.59,1.517
					c0.001-0.002-0.252,0.518-0.149,0.231c0.156-0.433-0.319-0.929-0.679-1.067c0.161,0.063-0.183,0.02,0.229,0.018
					c0.294-0.002,0.208-0.01,0.414-0.049c0.959-0.185,1.867-0.574,2.687-1.099c0.159-0.102,0.17-0.112,0.35-0.28
					c0.098-0.093,0.118-0.152,0.049,0.026c-0.232,0.603,0.534,0.563-0.164,0.479c-0.518-0.063-1.025-0.004-1.527,0.119
					c-0.202,0.051-0.385,0.112-0.567,0.207c-0.121,0.061-0.224,0.221-0.141,0.08C9.973-108.696,7.378-110.203,8.374-111.868
					L8.374-111.868z"/>
				<path d="M40.107-111.24c-0.88,2.641-1.785,5.284-2.356,8.014c-0.359,1.715-2.913,1.281-2.951-0.382
					c-0.03-1.29-0.24-2.585-0.422-3.86c-0.27-1.892,2.629-2.68,2.901-0.762c0.217,1.525,0.484,3.082,0.52,4.622
					c-0.983-0.127-1.967-0.253-2.95-0.38c0.572-2.729,1.478-5.372,2.356-8.014C37.814-113.831,40.72-113.076,40.107-111.24
					L40.107-111.24z"/>
			</g>
			<g clip-path="url(#SVGID_2_)">
				<path d="M103.336-45.268c0-0.89,0-1.777,0-2.668c0-0.816,0.683-1.5,1.5-1.5c0.816,0,1.5,0.684,1.5,1.5c0,0.891,0,1.778,0,2.668
					c0,0.815-0.684,1.5-1.5,1.5C104.019-43.768,103.336-44.452,103.336-45.268L103.336-45.268z"/>
				<path d="M108.336-103.936c-0.002,3.707-0.045,7.409-0.722,11.065c-0.351,1.899-3.241,1.094-2.893-0.797
					c0.625-3.386,0.612-6.841,0.612-10.271C105.336-105.869,108.336-105.869,108.336-103.936L108.336-103.936z"/>
			</g>
			<g clip-path="url(#SVGID_2_)">
				<path d="M85.502-22.768c1.935,0,1.935,3,0,3C83.566-19.768,83.566-22.768,85.502-22.768L85.502-22.768z"/>
				<path d="M102.168-14.768c1.936,0,1.936,3,0,3C100.233-11.768,100.233-14.768,102.168-14.768L102.168-14.768z"/>
				<path d="M3.335-45.268c0-0.89,0-1.777,0-2.668c0-0.816,0.683-1.5,1.5-1.5s1.5,0.684,1.5,1.5c0,0.891,0,1.778,0,2.668
					c0,0.815-0.683,1.5-1.5,1.5S3.335-44.452,3.335-45.268L3.335-45.268z"/>
				<path d="M7.501-104.768c1.935,0,1.935,3,0,3S5.566-104.768,7.501-104.768L7.501-104.768z"/>
				<path d="M6.835-105.436c1.935,0,1.935,3,0,3S4.9-105.436,6.835-105.436L6.835-105.436z"/>
				<path d="M8.335-103.936c-0.001,3.707-0.045,7.409-0.721,11.065c-0.351,1.899-3.242,1.094-2.893-0.797
					c0.625-3.386,0.612-6.841,0.613-10.271C5.336-105.869,8.336-105.869,8.335-103.936L8.335-103.936z"/>
				<path d="M102.056-94.869c-0.813-2.33-1.925-4.561-2.054-7.066c-0.049-0.949,0.998-1.735,1.897-1.444
					c4.33,1.399,4.271,6.817,3.715,10.512c-0.219,1.461-2.63,1.414-2.893,0c-0.628-3.377-0.769-6.767,0-10.131
					c0.431-1.888,3.321-1.086,2.893,0.797c-0.644,2.822-0.526,5.705,0,8.537c-0.964,0-1.929,0-2.893,0
					c0.274-1.836,0.737-6.062-1.619-6.822c0.633-0.481,1.267-0.965,1.897-1.446c0.113,2.18,1.237,4.237,1.946,6.27
					C105.588-93.836,102.688-93.055,102.056-94.869L102.056-94.869z"/>
				<path d="M20.23-97.645c1.327,5.129,3.114,10.103,5.182,14.977c-0.913,0.386-1.827,0.771-2.741,1.156
					c-0.641-2.858-0.806-5.789-1.333-8.668c-0.347-1.891,2.544-2.697,2.893-0.797c0.527,2.877,0.693,5.813,1.333,8.666
					c0.354,1.578-2.05,2.787-2.741,1.156c-2.17-5.115-4.091-10.307-5.484-15.691C16.854-98.721,19.747-99.516,20.23-97.645
					L20.23-97.645z"/>
				<path d="M84.168-97.436c1.936,0,1.936,3,0,3C82.233-94.436,82.233-97.436,84.168-97.436L84.168-97.436z"/>
				<path d="M94.258-63.307c-2.488,1.246-4.998,2.475-7.332,4c-1.467,0.959-2.967-1.152-1.817-2.355
					c0.892-0.934,1.658-1.998,2.433-3.029c1.146-1.527,3.754-0.035,2.59,1.514c-0.926,1.232-1.836,2.521-2.9,3.638
					c-0.605-0.785-1.212-1.57-1.816-2.354c2.334-1.525,4.844-2.754,7.332-4C94.47-66.76,95.988-64.172,94.258-63.307L94.258-63.307z
					"/>
				<path d="M9.709-48.768c-0.188,0.229-0.195,0.359-0.104,0.012c0.064-0.242,0.112-0.488,0.176-0.73
					c0.178-0.674,0.539-1.345,1.144-1.724c0.676-0.423,1.487-0.421,2.22-0.149c0.876,0.325,2.199,1.026,2.462,1.995
					c1.059,3.903-7.699,2.478-5.465-0.433c0.919-1.197,2.645-0.801,2.795,0.757c0.002,0.021,0.004,0.037,0.005,0.056
					c-0.146-0.354-0.293-0.707-0.438-1.061c0.005,0.007,0.01,0.013,0.015,0.02c-0.605-0.078-1.211-0.156-1.817-0.234
					c-0.452,0.537-0.598,0.674-0.438,0.408c0.009-0.016,0.155-0.354,0.074-0.154c0.154-0.381,0.292-0.77,0.432-1.155
					c0.191-0.534,0.376-1.071,0.556-1.61c0.286-0.854,1.365-1.477,2.203-0.896c1.536,1.063,3.109,2.438,2.795,4.493
					c-0.223,1.457-1.461,2.412-2.257,3.559c-1.095,1.577-3.696,0.08-2.59-1.514c0.519-0.748,1.171-1.391,1.684-2.139
					c0.537-0.785-0.396-1.289-1.146-1.811c0.734-0.299,1.469-0.598,2.203-0.896c-0.226,0.676-0.46,1.349-0.703,2.019
					c-0.274,0.753-0.533,1.868-1.298,2.287c-0.542,0.296-1.396,0.295-1.818-0.235c-0.301-0.378-0.413-0.65-0.46-1.136
					c0.932,0.253,1.863,0.506,2.795,0.758c0.206-0.931,0.005-1.532-0.603-1.812c0.167,0.031,0.193,0.041,0.078,0.026
					c0.313,0.038,0.63,0.03,0.943,0.015c0.204-0.018,0.242-0.02,0.115-0.008c0.049-0.012,0.097-0.021,0.145-0.033
					c-0.687,0.313-0.814,1.015-0.384,2.103c-0.152-0.117-0.797-0.562-0.838-0.565c0.259,0.032,0.488-0.201,0.577-0.414
					c-0.096,0.229-0.144,0.483-0.199,0.727c-0.139,0.604-0.336,1.117-0.736,1.6C10.595-45.156,8.483-47.29,9.709-48.768
					L9.709-48.768z"/>
				<path d="M12.723-69.536c-0.682-3.83-1.866-7.533-2.667-11.334c0.964,0,1.929,0,2.893,0c-0.426,2.765,0.632,5.256,1.334,7.869
					c-0.836-0.222-1.671-0.441-2.507-0.662c1.292-1.521,0.892-4.429,0.894-6.272c0.002-1.935,3.002-1.935,3,0
					c-0.003,2.871,0.195,6.075-1.772,8.395c-0.744,0.877-2.231,0.363-2.507-0.662c-0.869-3.238-1.857-6.068-1.334-9.463
					c0.228-1.479,2.599-1.396,2.893,0c0.802,3.801,1.985,7.504,2.667,11.332C15.952-68.442,13.062-67.633,12.723-69.536
					L12.723-69.536z"/>
				<path d="M49.592-81.23c1.347,0.692,2.633,1.567,3.131,3.063c0.493,1.481-0.524,2.95-1.494,3.959
					c-1.344,1.396-3.462-0.729-2.121-2.121c0.287-0.299,0.516-0.574,0.711-0.938c-0.009,0.016-0.047-0.25,0.033-0.074
					c-0.291-0.639-1.199-1.002-1.773-1.299C46.357-79.526,47.875-82.114,49.592-81.23L49.592-81.23z"/>
				<path d="M43.001-92.602c0,0.147,0.001,0.297,0.005,0.444c0.002,0.088,0.054,0.707,0.014,0.418
					c0.026,0.19,0.073,0.379,0.126,0.563c0.06,0.171,0.061,0.183,0.005,0.037c0.026,0.06,0.275,0.357,0.078,0.142
					c0.551,0.604,0.598,1.522,0,2.121c-0.558,0.559-1.57,0.604-2.121,0c-0.939-1.029-1.105-2.386-1.106-3.728
					c-0.001-0.817,0.683-1.5,1.5-1.5C42.319-94.102,43-93.42,43.001-92.602L43.001-92.602z"/>
				<path d="M47.741-90.039c0.961-0.979,1.816-2.293,3.212-2.672c2.024-0.549,3.512,1.561,4.477,2.976
					c0.361,0.53,0.238,1.394-0.234,1.817c-0.63,0.566-1.275,0.961-2.09,1.201c-0.709,0.209-1.529,0.07-2.214,0.367
					c-0.75,0.324-1.603,0.229-2.052-0.539c-0.376-0.641-0.213-1.728,0.538-2.051c0.635-0.275,1.212-0.447,1.9-0.527
					c0.671-0.078,1.27-0.101,1.797-0.572c-0.078,0.605-0.156,1.212-0.234,1.818c-0.359-0.526-0.725-1.018-1.188-1.457
					c-0.052-0.049-0.307-0.174-0.139-0.111c0.081,0.012,0.16,0.002,0.237-0.029c-0.166,0.049-0.178,0.051-0.037,0.004
					c-0.553,0.281-1.293,1.328-1.852,1.896C48.505-86.536,46.386-88.659,47.741-90.039L47.741-90.039z"/>
				<path d="M8.374-11.868c1.08-1.81,3.74-2.11,5.619-1.778c2.355,0.416,3.007,3.038,1.33,4.606
					c-1.383,1.293-3.451,2.022-5.309,2.192c-2.249,0.205-3.288-1.866-2.141-3.688c1.027-1.631,3.624-0.127,2.59,1.517
					c0.001-0.002-0.252,0.518-0.149,0.231c0.156-0.433-0.319-0.929-0.679-1.067c0.161,0.063-0.183,0.02,0.229,0.018
					c0.294-0.002,0.208-0.01,0.414-0.049c0.959-0.185,1.867-0.574,2.687-1.099c0.159-0.102,0.17-0.112,0.35-0.28
					c0.098-0.093,0.118-0.152,0.049,0.026c-0.232,0.603,0.534,0.563-0.164,0.479c-0.518-0.063-1.025-0.004-1.527,0.119
					c-0.202,0.051-0.385,0.112-0.567,0.207c-0.121,0.061-0.224,0.221-0.141,0.08C9.973-8.696,7.378-10.203,8.374-11.868
					L8.374-11.868z"/>
				<path d="M92.836-96.944c2.244-0.262,3.789,1.586,3.652,3.732c-0.139,2.194-1.699,4.176-3.986,4.268
					c-0.705,0.027-1.221-0.487-1.446-1.102c-0.366-0.994-0.159-2.229-0.683-3.144c-0.963-1.682,1.629-3.19,2.59-1.514
					c0.701,1.223,0.514,2.578,0.984,3.859c-0.482-0.367-0.964-0.734-1.445-1.103c0.26-0.01,0.348-0.071,0.629-0.381
					c0.148-0.164,0.283-0.547,0.369-0.965c0.031-0.156-0.019-0.521-0.072-0.625c-0.064-0.125-0.182-0.109,0.051-0.019
					c-0.148-0.059-0.318-0.049-0.643-0.012c-0.814,0.094-1.5-0.754-1.5-1.5C91.336-96.334,92.023-96.85,92.836-96.944L92.836-96.944
					z"/>
				<path d="M45.97-16.405c-2.224-1.071-4.585-1.864-6.448-3.545c-0.706-0.637-0.521-1.935,0.32-2.364
					c4.052-2.07,7.841,1.803,10.06,4.807c0.879,1.188-0.859,2.859-2.046,2.045c-2.831-1.942-5.327-4.24-7.163-7.163
					c-1.029-1.638,1.581-3.116,2.609-1.481c1.54,2.451,3.662,4.406,6.036,6.037c-0.682,0.682-1.364,1.363-2.046,2.045
					c-1.104-1.492-3.763-4.807-5.969-3.68c0.106-0.789,0.214-1.576,0.32-2.365c1.62,1.461,3.871,2.123,5.809,3.057
					C49.199-18.172,47.701-15.571,45.97-16.405L45.97-16.405z"/>
				<path d="M8.84-28.238c1.368-1.367,3.489,0.753,2.122,2.121C9.595-24.748,7.473-26.869,8.84-28.238L8.84-28.238z"/>
				<path d="M40.107-11.24c-0.88,2.641-1.785,5.284-2.356,8.014c-0.359,1.715-2.913,1.281-2.951-0.382
					c-0.03-1.29-0.24-2.585-0.422-3.86c-0.27-1.892,2.629-2.68,2.901-0.762c0.217,1.525,0.484,3.081,0.52,4.622
					c-0.983-0.127-1.967-0.253-2.95-0.38c0.572-2.729,1.478-5.372,2.356-8.014C37.814-13.831,40.72-13.076,40.107-11.24
					L40.107-11.24z"/>
				<path d="M15.316-34.02c1.401-1.771,3.801-1.558,5.222,0.057c1.455,1.65,1.752,4.156,0.198,5.838
					c-0.479,0.518-1.207,0.518-1.802,0.242c-0.961-0.443-1.688-1.463-2.703-1.738c-1.87-0.508-1.105-3.409,0.761-2.902
					c1.359,0.369,2.186,1.461,3.425,2.033c-0.601,0.081-1.201,0.162-1.802,0.243c0.177-0.19,0.194-0.297,0.177-0.715
					c-0.011-0.22-0.188-0.587-0.422-0.941c-0.088-0.134-0.38-0.354-0.494-0.392c-0.134-0.043-0.204,0.051,0.024-0.049
					c-0.146,0.063-0.261,0.19-0.463,0.445c-0.509,0.645-1.594,0.528-2.121,0C14.688-32.527,14.811-33.378,15.316-34.02L15.316-34.02
					z"/>
				<path d="M63.039-30.52c-0.359-0.507-1.041-0.771-1.64-0.646c-0.799,0.17-1.618-0.226-1.845-1.047
					c-0.207-0.752,0.247-1.677,1.048-1.847c2.009-0.424,3.849,0.369,5.026,2.021c0.476,0.668,0.119,1.668-0.539,2.053
					C64.338-29.541,63.514-29.855,63.039-30.52L63.039-30.52z"/>
				<path d="M49.334-27.444c-0.556,0-1.11,0-1.666,0c-1.935,0-1.935-3,0-3c0.556,0,1.11,0,1.666,0
					C51.27-30.444,51.27-27.444,49.334-27.444L49.334-27.444z"/>
				<path d="M17.729-42.217c0.11-0.164,0.123-0.18,0.036-0.049c-0.189,0.295,0.112-0.318-0.026,0.037
					c-0.137,0.352-0.278,0.7-0.442,1.041c-0.354,0.737-1.391,0.926-2.052,0.538c-0.748-0.438-0.892-1.313-0.538-2.053
					c0.242-0.504-0.068,0.211,0.096-0.209c0.042-0.108,0.083-0.217,0.128-0.324c0.182-0.436,0.354-0.752,0.678-1.104
					c0.554-0.603,1.562-0.562,2.121,0C18.325-43.743,18.283-42.819,17.729-42.217L17.729-42.217z"/>
				<path d="M14.889-88.211c-0.279-0.877-0.387-1.791-0.666-2.668c-0.248-0.779,0.283-1.635,1.048-1.844
					c0.812-0.226,1.597,0.268,1.845,1.047c0.279,0.875,0.387,1.791,0.666,2.666c0.248,0.779-0.283,1.637-1.048,1.846
					C15.921-86.939,15.137-87.434,14.889-88.211L14.889-88.211z"/>
				<path d="M43.501-81.278c0,0.558,0,1.111,0,1.668c0,1.935-3,1.935-3,0c0-0.557,0-1.11,0-1.668
					C40.501-83.211,43.501-83.211,43.501-81.278L43.501-81.278z"/>
				<path d="M75.668-104.778c1.936,0,1.936,3,0,3C73.733-101.778,73.733-104.778,75.668-104.778L75.668-104.778z"/>
				<path d="M68.668-26.444c0.334,0,0.668,0,1,0c1.936,0,1.936,3,0,3c-0.332,0-0.666,0-1,0
					C66.733-23.444,66.733-26.444,68.668-26.444L68.668-26.444z"/>
				<path d="M88.002-18.11c0.082,0,0.166-0.002,0.25-0.006c-0.123,0.004-0.219,0.029-0.312,0.111c0.613-0.541,1.517-0.605,2.121,0
					c0.551,0.551,0.614,1.579,0,2.12c-0.608,0.537-1.249,0.769-2.062,0.773C86.065-15.1,86.067-18.1,88.002-18.11L88.002-18.11z"/>
				<path d="M35.604-70.498c-1.438-0.393-2.766-0.393-4.203,0c0.35-0.348,0.699-0.697,1.048-1.047
					c-1.42,4.486,5.202,7.15,7.349,10.344c0.585,0.871-0.172,2.408-1.295,2.258c-5.354-0.719-13.93-5.402-9.295-11.758
					c1.127-1.545,3.732-0.051,2.59,1.514c-2.982,4.09,3.404,6.801,6.705,7.244c-0.432,0.752-0.863,1.504-1.295,2.256
					c-2.079-3.092-6.139-4.516-7.588-8.1c-0.586-1.451-0.738-3.504,0.088-4.914c1.062-1.813,5.088-1.129,6.693-0.689
					C38.265-72.879,37.473-69.985,35.604-70.498L35.604-70.498z"/>
				<path d="M29.501-103.444c-0.833,0-1.667,0-2.5,0c-1.935,0-1.935-3,0-3c0.833,0,1.667,0,2.5,0
					C31.437-106.444,31.437-103.444,29.501-103.444L29.501-103.444z"/>
				<path d="M39.063-49.383c-1.304,1.24-2.83,1.438-4.561,1.438c-1.935,0-1.935-3,0-3c0.418,0,1.103,0.005,1.368-0.036
					c0.463-0.072,0.71-0.181,1.071-0.523C38.342-52.836,40.466-50.719,39.063-49.383L39.063-49.383z"/>
				<path d="M20.94-65.383c-0.827-0.879-0.938-1.904-0.939-3.062c-0.001-1.936,2.999-1.936,3,0c0,0.162,0.001,0.324,0.003,0.484
					c0.001,0.077,0.057,0.659-0.005,0.248c0.017,0.108,0.049,0.213,0.084,0.315c-0.086-0.195-0.088-0.219-0.008-0.074
					c-0.125-0.151-0.13-0.164-0.014-0.034c0.561,0.594,0.591,1.528,0,2.12C22.498-64.819,21.501-64.787,20.94-65.383L20.94-65.383z"
					/>
				<path d="M63.002-77.444c0.271-0.022,0.252-0.075,0.02,0.078c0.291-0.192,0.111-0.086,0.041-0.019
					c-0.587,0.568-1.536,0.584-2.121,0c-0.57-0.569-0.587-1.553,0-2.12c0.578-0.562,1.262-0.871,2.061-0.939
					c0.816-0.069,1.5,0.734,1.5,1.5C64.502-78.073,63.815-77.514,63.002-77.444L63.002-77.444z"/>
				<path d="M10.94-57.383c-1.78-1.748-3.412-3.258-2.886-5.959c0.124-0.637,0.819-1.117,1.446-1.103
					c3.75,0.093,7.352,2.505,7.5,6.5c0.024,0.664-0.476,1.273-1.102,1.445c-0.648,0.18-1.228,0.221-1.89,0.094
					c-0.244-0.047-0.485-0.188-0.703-0.307c-0.151-0.08-0.655-0.263-0.306-0.232c-1.913-0.161-1.929-3.161,0-3
					c0.778,0.064,1.585,0.695,2.102,0.554c-0.367,0.481-0.734,0.965-1.102,1.446c-0.085-2.301-2.452-3.448-4.5-3.5
					c0.482-0.366,0.964-0.733,1.446-1.102c-0.247,1.271,1.327,2.268,2.114,3.041C14.443-58.146,12.321-56.028,10.94-57.383
					L10.94-57.383z"/>
				<path d="M35.605-25.969c-2.494-2.39-5.623-4.015-8.545-1.332c-1.422,1.306-3.549-0.812-2.121-2.121
					c4.19-3.848,9.029-2.268,12.787,1.333C39.127-26.749,37.002-24.63,35.605-25.969L35.605-25.969z"/>
				<path d="M31.833-103.029c0-1.935,3-1.935,3,0C34.833-101.094,31.833-101.094,31.833-103.029L31.833-103.029z"/>
				<path d="M76.939-39.301c0.229,0.188,0.359,0.195,0.012,0.104c-0.242-0.064-0.488-0.111-0.73-0.176
					c-0.674-0.178-1.346-0.539-1.725-1.145c-0.422-0.676-0.42-1.486-0.148-2.22c0.324-0.876,1.025-2.198,1.994-2.462
					c3.904-1.059,2.478,7.699-0.432,5.465c-1.197-0.919-0.801-2.645,0.756-2.795c0.021-0.002,0.037-0.004,0.057-0.005
					c-0.354,0.146-0.707,0.293-1.061,0.438c0.006-0.006,0.012-0.01,0.02-0.016c-0.078,0.605-0.156,1.211-0.234,1.817
					c0.536,0.452,0.674,0.598,0.408,0.438c-0.016-0.01-0.354-0.156-0.154-0.074c-0.382-0.154-0.77-0.293-1.156-0.433
					c-0.533-0.19-1.07-0.376-1.609-0.556c-0.855-0.286-1.477-1.365-0.896-2.203c1.063-1.536,2.438-3.109,4.494-2.795
					c1.457,0.223,2.411,1.461,3.559,2.257c1.576,1.095,0.08,3.696-1.514,2.59c-0.748-0.519-1.392-1.171-2.14-1.684
					c-0.784-0.537-1.289,0.396-1.81,1.146c-0.299-0.734-0.598-1.469-0.896-2.203c0.676,0.227,1.348,0.461,2.018,0.703
					c0.754,0.274,1.869,0.533,2.287,1.299c0.297,0.541,0.295,1.396-0.234,1.817c-0.379,0.302-0.651,0.413-1.137,0.46
					c0.254-0.932,0.506-1.863,0.758-2.795c-0.93-0.206-1.532-0.005-1.811,0.604c0.031-0.168,0.04-0.193,0.026-0.078
					c0.038-0.313,0.03-0.631,0.015-0.943c-0.018-0.204-0.02-0.242-0.008-0.115c-0.012-0.049-0.021-0.097-0.033-0.145
					c0.313,0.687,1.014,0.814,2.102,0.384c-0.116,0.151-0.561,0.797-0.565,0.838c0.033-0.259-0.2-0.487-0.414-0.577
					c0.229,0.096,0.484,0.145,0.728,0.199c0.604,0.139,1.117,0.336,1.6,0.736C80.552-40.186,78.416-38.076,76.939-39.301
					L76.939-39.301z"/>
				<path d="M59.125-63.03c0.691-1.347,1.566-2.633,3.063-3.131c1.482-0.494,2.952,0.524,3.959,1.494
					c1.396,1.344-0.729,3.462-2.121,2.121c-0.299-0.287-0.574-0.517-0.938-0.712c0.016,0.01-0.25,0.048-0.074-0.032
					c-0.639,0.291-1.003,1.198-1.299,1.772C60.828-59.795,58.24-61.313,59.125-63.03L59.125-63.03z"/>
				<path d="M36.667-61.862c0.148,0,0.297-0.001,0.445-0.005c0.089-0.002,0.707-0.054,0.418-0.014
					c0.192-0.026,0.379-0.073,0.565-0.127c0.169-0.06,0.181-0.061,0.037-0.004c0.059-0.026,0.356-0.275,0.141-0.078
					c0.604-0.551,1.523-0.598,2.121,0c0.558,0.558,0.604,1.57,0,2.121c-1.03,0.938-2.386,1.104-3.728,1.105
					c-0.817,0.001-1.5-0.683-1.5-1.5C35.167-61.18,35.85-61.861,36.667-61.862L36.667-61.862z"/>
				<path d="M29.605-43.969c-0.979-0.961-2.293-1.815-2.672-3.211c-0.549-2.024,1.561-3.513,2.976-4.478
					c0.53-0.362,1.394-0.237,1.817,0.233c0.566,0.631,0.961,1.275,1.201,2.091c0.209,0.709,0.071,1.528,0.367,2.214
					c0.325,0.75,0.23,1.604-0.538,2.052c-0.641,0.376-1.728,0.214-2.052-0.538c-0.275-0.635-0.447-1.212-0.527-1.899
					c-0.078-0.671-0.1-1.271-0.572-1.796c0.606,0.078,1.212,0.156,1.818,0.233c-0.526,0.359-1.017,0.726-1.457,1.188
					c-0.049,0.052-0.173,0.307-0.111,0.139c0.012-0.081,0.002-0.16-0.029-0.236c0.049,0.166,0.05,0.178,0.004,0.037
					c0.281,0.553,1.328,1.293,1.896,1.852C33.109-44.733,30.986-42.613,29.605-43.969L29.605-43.969z"/>
				<path d="M98.529-54.162c-1.07,2.225-1.863,4.585-3.544,6.448c-0.637,0.706-1.935,0.521-2.364-0.32
					c-2.072-4.052,1.803-7.841,4.807-10.06c1.188-0.879,2.859,0.858,2.045,2.045c-1.942,2.832-4.24,5.328-7.163,7.164
					c-1.638,1.029-3.117-1.582-1.481-2.609c2.45-1.54,4.406-3.662,6.036-6.036c0.683,0.683,1.363,1.364,2.046,2.046
					c-1.492,1.104-4.807,3.764-3.68,5.969c-0.789-0.105-1.576-0.213-2.365-0.319c1.461-1.62,2.122-3.871,3.057-5.81
					C96.764-57.393,99.364-55.895,98.529-54.162L98.529-54.162z"/>
				<path d="M95.25-34.178c-1.771-1.4-1.558-3.801,0.056-5.222c1.651-1.454,4.155-1.752,5.838-0.198
					c0.519,0.479,0.519,1.207,0.243,1.803c-0.444,0.961-1.463,1.688-1.739,2.703c-0.508,1.869-3.409,1.104-2.901-0.762
					c0.368-1.358,1.461-2.186,2.032-3.425c0.081,0.601,0.162,1.201,0.243,1.802c-0.189-0.177-0.297-0.193-0.715-0.177
					c-0.221,0.011-0.586,0.188-0.941,0.423c-0.134,0.088-0.354,0.379-0.392,0.493c-0.043,0.134,0.051,0.204-0.048-0.024
					c0.063,0.146,0.189,0.262,0.445,0.463c0.644,0.51,0.527,1.595,0,2.121C96.742-33.547,95.891-33.67,95.25-34.178L95.25-34.178z"
					/>
				<path d="M98.748-81.9c-0.504,0.36-0.771,1.041-0.645,1.641c0.17,0.799-0.225,1.617-1.047,1.845
					c-0.752,0.207-1.676-0.247-1.846-1.048c-0.424-2.01,0.369-3.848,2.021-5.026c0.667-0.476,1.667-0.119,2.053,0.538
					C99.729-83.198,99.412-82.373,98.748-81.9L98.748-81.9z"/>
				<path d="M101.824-68.195c0,0.557,0,1.11,0,1.666c0,1.936-3,1.936-3,0c0-0.556,0-1.109,0-1.666
					C98.824-70.129,101.824-70.129,101.824-68.195L101.824-68.195z"/>
				<path d="M73.982-20.223c-0.164-0.109-0.18-0.123-0.048-0.035c0.295,0.188-0.319-0.112,0.036,0.025
					c0.352,0.137,0.701,0.278,1.042,0.442c0.737,0.354,0.926,1.391,0.538,2.052c-0.438,0.748-1.314,0.893-2.053,0.538
					c-0.504-0.242,0.211,0.067-0.209-0.096c-0.108-0.042-0.218-0.083-0.324-0.128c-0.436-0.182-0.752-0.354-1.104-0.678
					c-0.603-0.555-0.56-1.563,0-2.121C72.457-20.818,73.383-20.776,73.982-20.223L73.982-20.223z"/>
				<path d="M41.058-33.748c-0.876,0.279-1.791,0.387-2.667,0.666c-0.779,0.248-1.636-0.283-1.845-1.048
					c-0.225-0.813,0.269-1.597,1.047-1.845c0.876-0.279,1.791-0.388,2.667-0.666c0.779-0.248,1.636,0.282,1.845,1.047
					C42.329-34.782,41.835-33.996,41.058-33.748L41.058-33.748z"/>
				<path d="M47.991-62.362c0.557,0,1.111,0,1.668,0c1.934,0,1.934,3,0,3c-0.557,0-1.111,0-1.668,0
					C46.058-59.362,46.058-62.362,47.991-62.362L47.991-62.362z"/>
				<path d="M51.001-45.36c0,0.148,0.001,0.298,0.005,0.445c0.002,0.09,0.054,0.707,0.014,0.418
					c0.026,0.192,0.073,0.379,0.126,0.565c0.06,0.168,0.061,0.181,0.005,0.037c0.026,0.06,0.275,0.355,0.078,0.142
					c0.551,0.604,0.598,1.522,0,2.12c-0.558,0.558-1.57,0.604-2.121,0c-0.939-1.03-1.105-2.387-1.106-3.729
					c-0.001-0.816,0.683-1.5,1.5-1.5C50.319-46.86,51-46.176,51.001-45.36L51.001-45.36z"/>
				<path d="M22.889-40.969c-0.279-0.875-0.387-1.791-0.666-2.666c-0.248-0.779,0.283-1.637,1.048-1.846
					c0.812-0.226,1.597,0.27,1.845,1.047c0.279,0.877,0.387,1.791,0.666,2.668c0.248,0.778-0.283,1.635-1.048,1.844
					C23.921-39.698,23.137-40.189,22.889-40.969L22.889-40.969z"/>
				<path d="M28.94-18.141c-0.827-0.879-0.938-1.904-0.939-3.062c-0.001-1.935,2.999-1.935,3,0c0,0.162,0.001,0.324,0.003,0.485
					c0.001,0.078,0.057,0.66-0.005,0.246c0.017,0.109,0.049,0.213,0.084,0.318c-0.086-0.195-0.088-0.221-0.008-0.074
					c-0.125-0.153-0.13-0.166-0.014-0.037c0.561,0.597,0.591,1.531,0,2.121C30.498-17.577,29.501-17.545,28.94-18.141L28.94-18.141z
					"/>
				<path d="M55.99-15.119c0.557,0,1.111,0,1.668,0c1.934,0,1.934,3,0,3c-0.557,0-1.111,0-1.668,0
					C54.058-12.119,54.058-15.119,55.99-15.119L55.99-15.119z"/>
				<path d="M24.491-94.529c0-1.935,3-1.935,3,0C27.491-92.594,24.491-92.594,24.491-94.529L24.491-94.529z"/>
				<path d="M102.824-87.529c0-0.333,0-0.667,0-1c0-1.935,3-1.935,3,0c0,0.333,0,0.667,0,1
					C105.824-85.594,102.824-85.594,102.824-87.529L102.824-87.529z"/>
				<path d="M73.271-35.963c-0.394,1.438-0.394,2.766,0,4.203c-0.349-0.351-0.698-0.699-1.048-1.049
					c4.486,1.42,7.15-5.201,10.345-7.349c0.87-0.585,2.407,0.172,2.257,1.295c-0.718,5.354-5.402,13.931-11.757,9.295
					c-1.546-1.127-0.052-3.731,1.515-2.59c4.088,2.981,6.801-3.403,7.242-6.705c0.752,0.433,1.506,0.863,2.258,1.295
					c-3.094,2.079-4.518,6.14-8.102,7.589c-1.449,0.586-3.504,0.737-4.913-0.089c-1.813-1.062-1.13-5.088-0.688-6.692
					C70.89-38.624,73.783-37.832,73.271-35.963L73.271-35.963z"/>
				<path d="M24.825-55.695c0,0.833,0,1.667,0,2.5c0,1.936-3,1.936-3,0c0-0.833,0-1.667,0-2.5
					C21.825-57.629,24.825-57.629,24.825-55.695L24.825-55.695z"/>
				<path d="M79.886-57.922c1.239,1.304,1.438,2.83,1.438,4.561c0.002,1.936-2.998,1.936-3,0c0-0.418,0.004-1.103-0.037-1.367
					c-0.072-0.464-0.18-0.711-0.522-1.072C76.433-57.202,78.551-59.327,79.886-57.922L79.886-57.922z"/>
				<path d="M88.834-77.436c1.936,0,1.936,3,0,3C86.899-74.436,86.899-77.436,88.834-77.436L88.834-77.436z"/>
				<path d="M63.002-86.111c0.332,0,0.666,0,1,0c1.935,0,1.935,3,0,3c-0.334,0-0.668,0-1,0
					C61.066-83.111,61.066-86.111,63.002-86.111L63.002-86.111z"/>
				<path d="M91.334-72.777c0.084,0,0.168-0.002,0.25-0.006c-0.123,0.005-0.217,0.029-0.311,0.111c0.613-0.54,1.516-0.605,2.121,0
					c0.551,0.551,0.613,1.58,0,2.121c-0.609,0.537-1.249,0.769-2.061,0.772C89.398-69.768,89.4-72.768,91.334-72.777L91.334-72.777z
					"/>
				<path d="M52.847-101.289c0.271-0.023,0.252-0.075,0.021,0.079c0.291-0.193,0.11-0.087,0.041-0.019
					c-0.588,0.567-1.537,0.584-2.122,0c-0.571-0.57-0.587-1.554,0-2.121c0.578-0.562,1.261-0.871,2.061-0.939
					c0.816-0.07,1.5,0.734,1.5,1.5C54.347-101.918,53.66-101.36,52.847-101.289L52.847-101.289z"/>
				<path d="M83.219-112.588c1.24,1.303,1.438,2.83,1.439,4.561c0,1.934-3,1.934-3,0c0-0.418,0.004-1.104-0.037-1.369
					c-0.072-0.463-0.181-0.709-0.523-1.07C79.766-111.869,81.883-113.993,83.219-112.588L83.219-112.588z"/>
				<path d="M63.886-39.801c-0.88,0.826-1.904,0.938-3.062,0.938c-1.935,0.001-1.935-2.999,0-3c0.162,0,0.324-0.001,0.485-0.003
					c0.078-0.001,0.66-0.057,0.247,0.005c0.109-0.017,0.213-0.049,0.316-0.084c-0.194,0.086-0.22,0.089-0.074,0.009
					c-0.152,0.125-0.164,0.129-0.035,0.014c0.595-0.562,1.529-0.592,2.121,0C64.449-41.358,64.48-40.362,63.886-39.801
					L63.886-39.801z"/>
				<path d="M58.514-93.789c-0.023-0.271-0.075-0.252,0.078-0.02c-0.192-0.291-0.086-0.111-0.018-0.041
					c0.567,0.586,0.584,1.535,0,2.121c-0.57,0.57-1.554,0.586-2.121,0c-0.562-0.578-0.871-1.262-0.939-2.062
					c-0.07-0.815,0.734-1.5,1.5-1.5C57.885-95.289,58.442-94.604,58.514-93.789L58.514-93.789z"/>
				<path d="M61.886-19.801c-1.748,1.779-3.259,3.412-5.959,2.886c-0.638-0.124-1.117-0.819-1.103-1.446
					c0.092-3.75,2.506-7.352,6.5-7.5c0.664-0.023,1.273,0.477,1.446,1.102c0.179,0.648,0.22,1.229,0.093,1.891
					c-0.047,0.244-0.189,0.484-0.307,0.703c-0.08,0.15-0.262,0.654-0.232,0.306c-0.16,1.913-3.162,1.929-3,0
					c0.065-0.778,0.695-1.585,0.555-2.102c0.48,0.366,0.963,0.733,1.445,1.102c-2.301,0.085-3.449,2.452-3.5,4.5
					c-0.367-0.481-0.734-0.964-1.102-1.446c1.271,0.248,2.268-1.326,3.041-2.113C61.121-23.305,63.242-21.182,61.886-19.801
					L61.886-19.801z"/>
				<path d="M90.867-65.912c1.936,0,1.936,3,0,3C88.933-62.912,88.934-65.912,90.867-65.912L90.867-65.912z"/>
				<path d="M99.459-12.774c-2.233-0.04-4.815-0.563-6.129-2.575c-1.305-2-0.791-4.324,0.168-6.348
					c0.217-0.458,0.805-0.755,1.295-0.742c2.31,0.053,4.346,0.745,5.729,2.666c1.337,1.854,1.023,4.53,0.384,6.565
					c-0.297,0.942-1.329,1.366-2.202,0.896c-3.146-1.695-5.272-4.974-7.205-7.871c-0.359-0.537-0.238-1.385,0.233-1.816
					c0.63-0.576,1.345-1.072,2.239-0.825c0.417,0.114,0.758,0.415,0.994,0.767c0.356,0.525,0.326,0.347-0.174,0.285
					c1.896,0.229,1.918,3.232,0,3c-0.701-0.084-1.153-0.248-1.713-0.693c-0.192-0.152-0.338-0.42-0.461-0.633
					c-0.057-0.098-0.311-0.375-0.106-0.219c0.354,0.146,0.706,0.293,1.061,0.439c0.095,0,0.188,0,0.281,0
					c0.078-0.605,0.155-1.213,0.233-1.817c1.649,2.472,3.443,5.347,6.129,6.795c-0.733,0.3-1.469,0.597-2.202,0.896
					c0.364-1.164,0.707-2.57,0.198-3.755c-0.584-1.365-2.082-1.648-3.42-1.68c0.433-0.248,0.863-0.494,1.295-0.742
					c-0.428,0.905-0.947,2.313-0.233,3.229c0.817,1.049,2.392,1.159,3.606,1.182C101.393-15.739,101.396-12.739,99.459-12.774
					L99.459-12.774z"/>
				<path d="M99.625-106.451c-2.489,1.245-5,2.475-7.334,4c-1.465,0.958-2.965-1.152-1.816-2.355
					c0.893-0.935,1.658-1.998,2.434-3.029c1.146-1.527,3.752-0.035,2.59,1.514c-0.927,1.232-1.836,2.521-2.901,3.637
					c-0.604-0.785-1.212-1.569-1.817-2.354c2.334-1.524,4.844-2.754,7.333-4C99.836-109.905,101.354-107.317,99.625-106.451
					L99.625-106.451z"/>
				<path d="M68.405-73.664c-0.36-0.505-1.041-0.771-1.64-0.645c-0.799,0.17-1.618-0.225-1.846-1.047
					c-0.207-0.753,0.248-1.677,1.049-1.847c2.009-0.424,3.848,0.37,5.025,2.022c0.477,0.666,0.119,1.666-0.537,2.053
					C69.703-72.686,68.879-73,68.405-73.664L68.405-73.664z"/>
				<path d="M74.035-69.588c0.332,0,0.666,0,1,0c1.935,0,1.935,3,0,3c-0.334,0-0.668,0-1,0
					C72.101-66.588,72.101-69.588,74.035-69.588L74.035-69.588z"/>
				<path d="M82.307-82.446c0.229,0.188,0.359,0.195,0.011,0.104c-0.241-0.064-0.487-0.111-0.729-0.176
					c-0.674-0.179-1.346-0.539-1.725-1.144c-0.423-0.676-0.421-1.487-0.148-2.222c0.324-0.875,1.025-2.198,1.994-2.461
					c3.903-1.059,2.478,7.699-0.433,5.466c-1.196-0.921-0.8-2.646,0.757-2.796c0.021-0.002,0.037-0.004,0.057-0.006
					c-0.354,0.146-0.707,0.293-1.062,0.439c0.007-0.006,0.013-0.01,0.021-0.016c-0.078,0.604-0.156,1.211-0.234,1.818
					c0.536,0.45,0.673,0.598,0.408,0.438c-0.016-0.008-0.354-0.154-0.155-0.074c-0.381-0.154-0.769-0.291-1.155-0.432
					c-0.533-0.191-1.07-0.375-1.609-0.555c-0.855-0.287-1.477-1.365-0.896-2.203c1.063-1.537,2.438-3.109,4.493-2.795
					c1.457,0.223,2.412,1.461,3.56,2.256c1.576,1.096,0.08,3.697-1.515,2.59c-0.748-0.518-1.391-1.17-2.139-1.684
					c-0.784-0.537-1.289,0.396-1.81,1.146c-0.3-0.734-0.598-1.47-0.896-2.203c0.675,0.226,1.348,0.459,2.018,0.703
					c0.754,0.272,1.868,0.532,2.287,1.297c0.297,0.543,0.295,1.396-0.234,1.817c-0.379,0.302-0.651,0.414-1.137,0.461
					c0.254-0.932,0.506-1.862,0.758-2.795c-0.931-0.207-1.533-0.006-1.811,0.603c0.031-0.166,0.04-0.192,0.025-0.078
					c0.039-0.313,0.031-0.629,0.016-0.942c-0.018-0.203-0.02-0.242-0.008-0.115c-0.012-0.049-0.021-0.096-0.033-0.145
					c0.313,0.688,1.014,0.813,2.102,0.385c-0.117,0.151-0.561,0.797-0.565,0.838c0.032-0.26-0.201-0.488-0.414-0.578
					c0.229,0.096,0.483,0.145,0.728,0.199c0.604,0.139,1.116,0.336,1.6,0.735C85.918-83.33,83.783-81.219,82.307-82.446
					L82.307-82.446z"/>
				<path d="M33.513-82.616c-1.071,2.224-1.864,4.585-3.544,6.448c-0.637,0.706-1.935,0.521-2.365-0.32
					c-2.071-4.052,1.804-7.841,4.807-10.061c1.188-0.879,2.859,0.859,2.045,2.047c-1.942,2.831-4.24,5.326-7.163,7.163
					c-1.638,1.028-3.117-1.581-1.481-2.609c2.45-1.54,4.406-3.662,6.036-6.036c0.682,0.682,1.363,1.364,2.045,2.047
					c-1.492,1.104-4.806,3.762-3.679,5.969c-0.789-0.106-1.576-0.215-2.365-0.32c1.461-1.62,2.122-3.871,3.057-5.809
					C31.746-85.846,34.348-84.348,33.513-82.616L33.513-82.616z"/>
				<path d="M80.996-74.813c-0.164-0.109-0.18-0.123-0.047-0.035c0.295,0.188-0.32-0.112,0.035,0.025
					c0.352,0.137,0.701,0.278,1.042,0.442c0.737,0.354,0.927,1.391,0.538,2.052c-0.438,0.748-1.314,0.893-2.052,0.538
					c-0.505-0.242,0.21,0.067-0.21-0.097c-0.108-0.041-0.217-0.082-0.324-0.127c-0.436-0.183-0.751-0.354-1.104-0.679
					c-0.603-0.554-0.561-1.562,0-2.12C79.472-75.408,80.396-75.366,80.996-74.813L80.996-74.813z"/>
				<path d="M64.138-107.723c-0.394,1.438-0.394,2.766,0,4.203c-0.349-0.351-0.698-0.699-1.048-1.048
					c4.486,1.421,7.149-5.202,10.345-7.35c0.87-0.584,2.407,0.172,2.257,1.295c-0.718,5.354-5.402,13.93-11.757,9.295
					c-1.546-1.127-0.052-3.731,1.515-2.59c4.088,2.981,6.801-3.404,7.242-6.705c0.752,0.433,1.505,0.862,2.258,1.295
					c-3.094,2.08-4.518,6.14-8.102,7.588c-1.45,0.586-3.504,0.738-4.913-0.088c-1.813-1.062-1.13-5.088-0.688-6.692
					C61.756-110.383,64.649-109.592,64.138-107.723L64.138-107.723z"/>
				<path d="M85.252-101.067c1.24,1.306,1.438,2.83,1.438,4.562c0.001,1.936-2.999,1.936-3,0c0-0.418,0.004-1.103-0.037-1.367
					c-0.071-0.463-0.18-0.711-0.522-1.072C81.799-100.346,83.916-102.471,85.252-101.067L85.252-101.067z"/>
				<path d="M89.176-44.896c-0.879,0.825-1.904,0.938-3.061,0.938c-1.936,0-1.936-3,0-3c0.161,0,0.323-0.002,0.484-0.004
					c0.078,0,0.66-0.058,0.247,0.006c0.108-0.019,0.213-0.049,0.317-0.084c-0.195,0.086-0.221,0.088-0.074,0.008
					c-0.153,0.125-0.166,0.129-0.036,0.015c0.595-0.562,1.53-0.593,2.12,0C89.739-46.453,89.771-45.457,89.176-44.896L89.176-44.896
					z"/>
				<path d="M65.074-52.229c-1.748,1.779-3.259,3.411-5.96,2.885c-0.637-0.123-1.116-0.818-1.102-1.445
					c0.092-3.75,2.505-7.352,6.5-7.5c0.664-0.023,1.272,0.477,1.446,1.102c0.179,0.648,0.22,1.229,0.093,1.891
					c-0.048,0.244-0.189,0.484-0.308,0.703c-0.08,0.15-0.262,0.654-0.231,0.306c-0.161,1.913-3.162,1.929-3,0
					c0.065-0.778,0.694-1.585,0.554-2.103c0.48,0.367,0.964,0.734,1.446,1.103c-2.302,0.085-3.449,2.452-3.5,4.5
					c-0.367-0.481-0.734-0.964-1.103-1.446c1.272,0.247,2.269-1.326,3.041-2.113C64.311-55.732,66.431-53.61,65.074-52.229
					L65.074-52.229z"/>
			</g>
			<g clip-path="url(#SVGID_2_)">
				<path d="M2.056-94.869c-0.814-2.33-1.924-4.561-2.054-7.066c-0.049-0.949,0.999-1.735,1.898-1.444
					c4.33,1.399,4.27,6.817,3.715,10.512c-0.219,1.461-2.63,1.414-2.893,0c-0.628-3.377-0.769-6.767,0-10.131
					c0.431-1.888,3.322-1.086,2.893,0.797c-0.644,2.822-0.526,5.705,0,8.537c-0.964,0-1.929,0-2.893,0
					c0.275-1.836,0.737-6.062-1.619-6.822c0.633-0.481,1.266-0.965,1.898-1.446c0.113,2.18,1.237,4.237,1.946,6.27
					C5.587-93.836,2.688-93.055,2.056-94.869L2.056-94.869z"/>
				<path d="M2.825-87.529c0-0.333,0-0.667,0-1c0-1.935,3-1.935,3,0c0,0.333,0,0.667,0,1C5.825-85.594,2.825-85.594,2.825-87.529
					L2.825-87.529z"/>
			</g>
			<g clip-path="url(#SVGID_2_)">
				<path d="M83.219-12.588c1.24,1.303,1.438,2.83,1.439,4.561c0,1.934-3,1.934-3,0c0-0.418,0.004-1.104-0.037-1.369
					c-0.072-0.463-0.181-0.709-0.523-1.07C79.766-11.869,81.883-13.993,83.219-12.588L83.219-12.588z"/>
				<path d="M99.625-6.451c-2.489,1.245-5,2.475-7.334,4c-1.465,0.958-2.965-1.152-1.816-2.355c0.893-0.935,1.658-1.998,2.434-3.029
					c1.146-1.527,3.752-0.035,2.59,1.514c-0.927,1.232-1.836,2.521-2.901,3.637c-0.604-0.785-1.212-1.569-1.817-2.354
					c2.334-1.524,4.844-2.754,7.333-4C99.836-9.905,101.354-7.317,99.625-6.451L99.625-6.451z"/>
				<path d="M64.138-7.723c-0.394,1.438-0.394,2.766,0,4.203c-0.349-0.351-0.698-0.699-1.048-1.048
					c4.486,1.421,7.149-5.202,10.345-7.35c0.87-0.584,2.407,0.172,2.257,1.295c-0.718,5.354-5.402,13.93-11.757,9.295
					c-1.546-1.127-0.052-3.731,1.515-2.59c4.088,2.981,6.801-3.404,7.242-6.705c0.752,0.433,1.505,0.862,2.258,1.295
					c-3.094,2.08-4.518,6.14-8.102,7.588c-1.45,0.586-3.504,0.738-4.913-0.088c-1.813-1.062-1.13-5.088-0.688-6.692
					C61.756-10.383,64.649-9.592,64.138-7.723L64.138-7.723z"/>
			</g>
		</g>
	</g>
</pattern>
<g id="Grafik">
	<pattern  id="SVGID_3_" xlink:href="#SVGID_1" patternTransform="matrix(1 0 0 -1 -1626.6899 -18562.9375)">
	</pattern>
	<rect y="0.171" fill="url(#SVGID_3_)" width="100" height="100"/>
</g>
</svg>
