<?xml version="1.0" encoding="utf-8"?>
<!-- Generator: Adobe Illustrator 16.0.0, SVG Export Plug-In . SVG Version: 6.00 Build 0)  -->
<!DOCTYPE svg PUBLIC "-//W3C//DTD SVG 1.1//EN" "http://www.w3.org/Graphics/SVG/1.1/DTD/svg11.dtd">
<svg version="1.1" id="Ebene_1" xmlns="http://www.w3.org/2000/svg" xmlns:xlink="http://www.w3.org/1999/xlink" x="0px" y="0px"
	 width="100px" height="100px" viewBox="0 0 100 100" enable-background="new 0 0 100 100" xml:space="preserve">
<pattern  x="-461.5" y="434.5" width="100" height="100" patternUnits="userSpaceOnUse" id="SVGID_1" viewBox="56.218 -181.088 100 100" overflow="visible">
	<g>
		<polygon fill="none" points="56.218,-181.088 156.218,-181.088 156.218,-81.088 56.218,-81.088 		"/>
		<g>
			<defs>
				<rect id="SVGID_1_" x="56.218" y="-181.088" width="100" height="100"/>
			</defs>
			<clipPath id="SVGID_2_">
				<use xlink:href="#SVGID_1_"  overflow="visible"/>
			</clipPath>
			<g clip-path="url(#SVGID_2_)">
				<path fill="none" stroke="#000000" stroke-miterlimit="10" d="M147.468-226.338c0,33.717,44.95,61,100.5,61"/>
				<path fill="none" stroke="#000000" stroke-miterlimit="10" d="M149.801-229.338c0,33.717,44.95,61,100.5,61"/>
				<path fill="none" stroke="#000000" stroke-miterlimit="10" d="M152.801-231.338c0,33.717,44.95,61,100.5,61"/>
				<path fill="none" stroke="#000000" stroke-miterlimit="10" d="M156.468-178.671c0-12.438,40.992-23,83-23"/>
			</g>
			<g clip-path="url(#SVGID_2_)">
				<path fill="none" stroke="#000000" stroke-miterlimit="10" d="M47.468-226.338c0,33.717,44.95,61,100.5,61"/>
				<path fill="none" stroke="#000000" stroke-miterlimit="10" d="M49.801-229.338c0,33.717,44.95,61,100.5,61"/>
				<path fill="none" stroke="#000000" stroke-miterlimit="10" d="M52.801-231.338c0,33.717,44.95,61,100.5,61"/>
				<g>
					<path fill="none" stroke="#000000" stroke-miterlimit="10" d="M61.468-164.838c0-12.438,40.992-23,83-23"/>
					<path fill="none" stroke="#000000" stroke-miterlimit="10" d="M60.468-168.171c0-12.438,40.992-23,83-23"/>
					<path fill="none" stroke="#000000" stroke-miterlimit="10" d="M58.801-171.838c0-12.438,40.992-23,83-23"/>
					<path fill="none" stroke="#000000" stroke-miterlimit="10" d="M57.468-175.338c0-12.438,40.992-23,83-23"/>
					<path fill="none" stroke="#000000" stroke-miterlimit="10" d="M56.468-178.671c0-12.438,40.992-23,83-23"/>
				</g>
			</g>
			<g clip-path="url(#SVGID_2_)">
				<g>
					<path fill="none" stroke="#000000" stroke-miterlimit="10" d="M142.468-138.838c0-16.582,48.781-37,93-37"/>
					<path fill="none" stroke="#000000" stroke-miterlimit="10" d="M145.468-135.505c0-16.582,48.781-37,93-37"/>
					<path fill="none" stroke="#000000" stroke-miterlimit="10" d="M148.135-131.838c0-16.582,48.781-37,93-37"/>
					<path fill="none" stroke="#000000" stroke-miterlimit="10" d="M152.093-129.213c0-16.582,48.781-37,93-37"/>
					<path fill="none" stroke="#000000" stroke-miterlimit="10" d="M155.093-125.88c0-16.582,48.781-37,93-37"/>
				</g>
				<path fill="none" stroke="#000000" stroke-miterlimit="10" d="M147.468-126.338c0,33.717,44.95,61,100.5,61"/>
				<path fill="none" stroke="#000000" stroke-miterlimit="10" d="M149.801-129.338c0,33.717,44.95,61,100.5,61"/>
				<path fill="none" stroke="#000000" stroke-miterlimit="10" d="M152.801-131.338c0,33.717,44.95,61,100.5,61"/>
				<g>
					<path fill="none" stroke="#000000" stroke-miterlimit="10" d="M156.468-78.671c0-12.438,40.992-23,83-23"/>
					<path fill="none" stroke="#000000" stroke-miterlimit="10" d="M154.801-82.338c0-12.438,40.992-23,83-23"/>
				</g>
			</g>
			<g clip-path="url(#SVGID_2_)">
				<g>
					<path fill="none" stroke="#000000" stroke-miterlimit="10" d="M71.468-150.838c0,21.833,30.865,39.5,64.298,39.5"/>
					<path fill="none" stroke="#000000" stroke-miterlimit="10" d="M74.518-153.837c0,21.832,30.865,39.5,64.298,39.5"/>
					<path fill="none" stroke="#000000" stroke-miterlimit="10" d="M77.398-156.671c0,21.832,30.865,39.5,64.297,39.5"/>
					<path fill="none" stroke="#000000" stroke-miterlimit="10" d="M80.49-159.713c0,21.833,30.864,39.5,64.297,39.5"/>
					<path fill="none" stroke="#000000" stroke-miterlimit="10" d="M83.54-162.712c0,21.832,30.864,39.5,64.297,39.5"/>
					<path fill="none" stroke="#000000" stroke-miterlimit="10" d="M86.421-165.546c0,21.832,30.864,39.5,64.297,39.5"/>
				</g>
				<path fill="none" stroke="#000000" stroke-miterlimit="10" d="M102.468-122.838"/>
				<path fill="none" stroke="#000000" stroke-miterlimit="10" d="M130.134-161.838"/>
				<path fill="none" stroke="#000000" stroke-miterlimit="10" d="M107.134-121.838"/>
				<path fill="none" stroke="#000000" stroke-miterlimit="10" d="M135.801-161.171"/>
				<path fill="none" stroke="#000000" stroke-miterlimit="10" d="M112.801-121.171"/>
				<path fill="none" stroke="#000000" stroke-miterlimit="10" d="M120.468-146.667c-10.5,45.329,22.048,62.329,53,62.329"/>
				<path fill="none" stroke="#000000" stroke-miterlimit="10" d="M123.801-149.667c-10.5,45.329,22.047,62.329,53,62.329"/>
				<path fill="none" stroke="#000000" stroke-miterlimit="10" d="M127.467-151.667c-10.5,45.329,22.047,62.329,53,62.329"/>
				<g>
					<path fill="none" stroke="#000000" stroke-miterlimit="10" d="M42.468-138.838c0-16.582,48.781-37,93-37"/>
					<path fill="none" stroke="#000000" stroke-miterlimit="10" d="M45.468-135.505c0-16.582,48.781-37,93-37"/>
					<path fill="none" stroke="#000000" stroke-miterlimit="10" d="M48.135-131.838c0-16.582,48.781-37,93-37"/>
					<path fill="none" stroke="#000000" stroke-miterlimit="10" d="M52.093-129.213c0-16.582,48.781-37,93-37"/>
					<path fill="none" stroke="#000000" stroke-miterlimit="10" d="M55.093-125.88c0-16.582,48.781-37,93-37"/>
					<path fill="none" stroke="#000000" stroke-miterlimit="10" d="M57.76-122.213c0-16.582,48.781-37,93-37"/>
				</g>
				<g>
					<path fill="none" stroke="#000000" stroke-miterlimit="10" d="M100.987-189.242c-5.15,40.479,31.102,82.084,83.465,88.746"/>
					<path fill="none" stroke="#000000" stroke-miterlimit="10" d="M103.35-191.966c-5.15,40.479,31.102,82.083,83.466,88.746"/>
					<path fill="none" stroke="#000000" stroke-miterlimit="10" d="M105.959-193.984c-5.151,40.479,31.102,82.082,83.466,88.746"/>
					<path fill="none" stroke="#000000" stroke-miterlimit="10" d="M109.094-195.52c-5.149,40.479,31.104,82.082,83.467,88.746"/>
					<path fill="none" stroke="#000000" stroke-miterlimit="10" d="M111.457-198.242c-5.15,40.479,31.102,82.082,83.466,88.745"/>
					<path fill="none" stroke="#000000" stroke-miterlimit="10" d="M114.066-200.263c-5.151,40.479,31.101,82.083,83.465,88.745"/>
				</g>
				<g>
					<path fill="none" stroke="#000000" stroke-miterlimit="10" d="M64.968-109.838c0-11.607,12.165-25.5,44.5-25.5"/>
					<path fill="none" stroke="#000000" stroke-miterlimit="10" d="M67.468-106.339c0-11.606,12.165-25.5,44.5-25.5"/>
					<path fill="none" stroke="#000000" stroke-miterlimit="10" d="M70.635-103.171c0-11.606,12.165-25.5,44.5-25.5"/>
					<path fill="none" stroke="#000000" stroke-miterlimit="10" d="M74.218-100.588c0-11.607,12.165-25.5,44.5-25.5"/>
					<path fill="none" stroke="#000000" stroke-miterlimit="10" d="M76.718-97.089c0-11.606,12.165-25.5,44.5-25.5"/>
					<path fill="none" stroke="#000000" stroke-miterlimit="10" d="M79.885-93.921c0-11.606,12.165-25.5,44.5-25.5"/>
				</g>
				<path fill="none" stroke="#000000" stroke-miterlimit="10" d="M47.468-126.338c0,33.717,44.95,61,100.5,61"/>
				<path fill="none" stroke="#000000" stroke-miterlimit="10" d="M49.801-129.338c0,33.717,44.95,61,100.5,61"/>
				<path fill="none" stroke="#000000" stroke-miterlimit="10" d="M52.801-131.338c0,33.717,44.95,61,100.5,61"/>
				<g>
					<path fill="none" stroke="#000000" stroke-miterlimit="10" d="M61.468-64.838c0-12.438,40.992-23,83-23"/>
					<path fill="none" stroke="#000000" stroke-miterlimit="10" d="M60.468-68.171c0-12.438,40.992-23,83-23"/>
					<path fill="none" stroke="#000000" stroke-miterlimit="10" d="M58.801-71.838c0-12.438,40.992-23,83-23"/>
					<path fill="none" stroke="#000000" stroke-miterlimit="10" d="M57.468-75.338c0-12.438,40.992-23,83-23"/>
					<path fill="none" stroke="#000000" stroke-miterlimit="10" d="M56.468-78.671c0-12.438,40.992-23,83-23"/>
					<path fill="none" stroke="#000000" stroke-miterlimit="10" d="M54.801-82.338c0-12.438,40.992-23,83-23"/>
				</g>
			</g>
			<g clip-path="url(#SVGID_2_)">
				<path fill="none" stroke="#000000" stroke-miterlimit="10" d="M20.468-146.667c-10.5,45.329,22.047,62.329,53,62.329"/>
				<path fill="none" stroke="#000000" stroke-miterlimit="10" d="M23.801-149.667c-10.5,45.329,22.047,62.329,53,62.329"/>
				<path fill="none" stroke="#000000" stroke-miterlimit="10" d="M27.467-151.667c-10.5,45.329,22.047,62.329,53,62.329"/>
				<g>
					<path fill="none" stroke="#000000" stroke-miterlimit="10" d="M0.987-189.242c-5.15,40.479,31.102,82.084,83.465,88.746"/>
					<path fill="none" stroke="#000000" stroke-miterlimit="10" d="M3.35-191.966c-5.15,40.479,31.102,82.083,83.466,88.746"/>
					<path fill="none" stroke="#000000" stroke-miterlimit="10" d="M5.959-193.984c-5.151,40.479,31.102,82.082,83.466,88.746"/>
					<path fill="none" stroke="#000000" stroke-miterlimit="10" d="M9.094-195.52c-5.149,40.479,31.103,82.082,83.466,88.746"/>
					<path fill="none" stroke="#000000" stroke-miterlimit="10" d="M11.457-198.242c-5.15,40.479,31.102,82.082,83.466,88.745"/>
					<path fill="none" stroke="#000000" stroke-miterlimit="10" d="M14.066-200.263c-5.151,40.479,31.101,82.083,83.465,88.745"/>
				</g>
			</g>
			<g clip-path="url(#SVGID_2_)">
				<path fill="none" stroke="#000000" stroke-miterlimit="10" d="M100.987-89.242c-5.15,40.479,31.102,82.084,83.465,88.746"/>
				<path fill="none" stroke="#000000" stroke-miterlimit="10" d="M103.35-91.966C98.2-51.486,134.452-9.883,186.816-3.22"/>
				<path fill="none" stroke="#000000" stroke-miterlimit="10" d="M105.959-93.984c-5.151,40.479,31.102,82.082,83.466,88.746"/>
				<path fill="none" stroke="#000000" stroke-miterlimit="10" d="M109.094-95.52c-5.149,40.479,31.104,82.082,83.467,88.746"/>
				<path fill="none" stroke="#000000" stroke-miterlimit="10" d="M111.457-98.242c-5.15,40.479,31.102,82.082,83.466,88.745"/>
				<path fill="none" stroke="#000000" stroke-miterlimit="10" d="M114.066-100.263c-5.151,40.479,31.101,82.083,83.465,88.745"/>
			</g>
			<g clip-path="url(#SVGID_2_)">
				<path fill="none" stroke="#000000" stroke-miterlimit="10" d="M0.987-89.242C-4.163-48.763,32.089-7.158,84.452-0.496"/>
				<path fill="none" stroke="#000000" stroke-miterlimit="10" d="M3.35-91.966C-1.8-51.486,34.452-9.883,86.816-3.22"/>
				<path fill="none" stroke="#000000" stroke-miterlimit="10" d="M5.959-93.984C0.808-53.506,37.061-11.902,89.425-5.238"/>
				<path fill="none" stroke="#000000" stroke-miterlimit="10" d="M9.094-95.52C3.945-55.04,40.197-13.438,92.56-6.773"/>
				<path fill="none" stroke="#000000" stroke-miterlimit="10" d="M11.457-98.242C6.307-57.764,42.559-16.16,94.923-9.497"/>
				<path fill="none" stroke="#000000" stroke-miterlimit="10" d="M14.066-100.263C8.915-59.783,45.167-18.18,97.531-11.518"/>
			</g>
		</g>
	</g>
</pattern>
<g id="Grafik">
	<pattern  id="SVGID_3_" xlink:href="#SVGID_1" patternTransform="matrix(1 0 0 -1 -1677.7168 -18752.8984)">
	</pattern>
	<rect y="0.171" fill="url(#SVGID_3_)" width="100" height="100"/>
</g>
</svg>
