<?xml version="1.0" encoding="utf-8"?>
<!DOCTYPE svg PUBLIC "-//W3C//DTD SVG 1.1//EN" "http://www.w3.org/Graphics/SVG/1.1/DTD/svg11.dtd">
<svg version="1.1" xmlns="http://www.w3.org/2000/svg" xmlns:xlink="http://www.w3.org/1999/xlink" width="100px"
	 height="100px" viewBox="0 0 100 100" enable-background="new 0 0 100 100" xml:space="preserve">
<pattern  x="-1784" y="1148.171" width="100" height="100" patternUnits="userSpaceOnUse" id="UC_polkadots" viewBox="5.19 -105.063 100 100" overflow="visible">
	<g>
		<polygon fill="none" points="5.19,-105.063 105.19,-105.063 105.19,-5.063 5.19,-5.063 		"/>
		<g>
			<path fill="#F2FF5B" d="M8.374-1.897c1.08,1.809,3.74,2.111,5.619,1.779c2.355-0.416,3.007-3.039,1.33-4.607
				c-1.383-1.293-3.451-2.023-5.309-2.193C7.766-7.124,6.727-5.052,7.874-3.229c1.027,1.631,3.624,0.127,2.59-1.516
				c0.001,0.002-0.252-0.518-0.149-0.232c0.156,0.432-0.319,0.928-0.679,1.068c0.161-0.064-0.183-0.02,0.229-0.018
				c0.294,0.002,0.208,0.01,0.414,0.049c0.959,0.184,1.867,0.574,2.687,1.098c0.159,0.102,0.17,0.113,0.35,0.281
				c0.098,0.092,0.118,0.152,0.049-0.027c-0.232-0.602,0.534-0.564-0.164-0.479c-0.518,0.063-1.025,0.004-1.527-0.119
				c-0.202-0.051-0.385-0.113-0.567-0.207c-0.121-0.061-0.224-0.221-0.141-0.08C9.973-5.069,7.379-3.562,8.374-1.897L8.374-1.897z"
				/>
			<path fill="#F2FF5B" d="M40.108-2.525c-0.88-2.641-1.785-5.284-2.356-8.014c-0.359-1.714-2.913-1.281-2.951,0.382
				c-0.03,1.29-0.24,2.585-0.422,3.861c-0.27,1.891,2.629,2.679,2.901,0.762c0.217-1.526,0.484-3.082,0.52-4.623
				c-0.983,0.127-1.967,0.253-2.95,0.38c0.572,2.729,1.478,5.372,2.356,8.014C37.815,0.066,40.72-0.689,40.108-2.525L40.108-2.525z"
				/>
		</g>
		<g>
			<path fill="#F2FF5B" d="M103.336-68.497c0,0.889,0,1.777,0,2.668c0,0.816,0.683,1.5,1.5,1.5s1.5-0.684,1.5-1.5
				c0-0.891,0-1.779,0-2.668c0-0.816-0.683-1.5-1.5-1.5S103.336-69.313,103.336-68.497L103.336-68.497z"/>
			<path fill="#F2FF5B" d="M108.336-9.829c-0.001-3.707-0.045-7.41-0.721-11.066c-0.351-1.9-3.242-1.094-2.893,0.797
				c0.625,3.385,0.612,6.84,0.613,10.27C105.337-7.896,108.337-7.896,108.336-9.829L108.336-9.829z"/>
		</g>
		<g>
			<path fill="#F2FF5B" d="M85.502-90.997c1.935,0,1.935-3,0-3S83.567-90.997,85.502-90.997L85.502-90.997z"/>
			<path fill="#F2FF5B" d="M102.169-98.997c1.935,0,1.935-3,0-3S100.234-98.997,102.169-98.997L102.169-98.997z"/>
			<path fill="#F2FF5B" d="M3.336-68.497c0,0.889,0,1.777,0,2.668c0,0.816,0.683,1.5,1.5,1.5s1.5-0.684,1.5-1.5
				c0-0.891,0-1.779,0-2.668c0-0.816-0.683-1.5-1.5-1.5S3.336-69.313,3.336-68.497L3.336-68.497z"/>
			<path fill="#F2FF5B" d="M7.502-8.997c1.935,0,1.935-3,0-3S5.567-8.997,7.502-8.997L7.502-8.997z"/>
			<path fill="#F2FF5B" d="M6.836-8.329c1.935,0,1.935-3,0-3S4.901-8.329,6.836-8.329L6.836-8.329z"/>
			<path fill="#F2FF5B" d="M8.336-9.829c-0.001-3.707-0.045-7.41-0.721-11.066c-0.351-1.9-3.242-1.094-2.893,0.797
				c0.625,3.385,0.612,6.84,0.613,10.27C5.337-7.896,8.337-7.896,8.336-9.829L8.336-9.829z"/>
			<path fill="#F2FF5B" d="M102.056-18.896c-0.814,2.33-1.924,4.561-2.054,7.066c-0.049,0.949,0.999,1.736,1.898,1.445
				c4.33-1.4,4.27-6.818,3.715-10.512c-0.219-1.461-2.63-1.414-2.893,0c-0.628,3.377-0.769,6.766,0,10.131
				c0.431,1.887,3.322,1.086,2.893-0.797c-0.644-2.822-0.526-5.705,0-8.537c-0.964,0-1.929,0-2.893,0
				c0.275,1.836,0.737,6.061-1.619,6.822c0.633,0.482,1.266,0.965,1.898,1.447c0.113-2.18,1.237-4.238,1.946-6.27
				C105.588-19.929,102.689-20.71,102.056-18.896L102.056-18.896z"/>
			<path fill="#F2FF5B" d="M20.231-16.121c1.327-5.129,3.114-10.102,5.182-14.976c-0.913-0.386-1.827-0.771-2.741-1.156
				c-0.641,2.858-0.806,5.788-1.333,8.667c-0.347,1.891,2.544,2.698,2.893,0.797c0.527-2.877,0.693-5.812,1.333-8.666
				c0.354-1.578-2.05-2.787-2.741-1.156c-2.17,5.116-4.091,10.307-5.484,15.691C16.854-15.045,19.747-14.25,20.231-16.121
				L20.231-16.121z"/>
			<path fill="#F2FF5B" d="M84.169-16.329c1.935,0,1.935-3,0-3S82.234-16.329,84.169-16.329L84.169-16.329z"/>
			<path fill="#F2FF5B" d="M94.259-50.458c-2.489-1.246-4.999-2.475-7.333-4c-1.466-0.959-2.966,1.152-1.817,2.355
				c0.892,0.934,1.658,1.998,2.433,3.029c1.146,1.527,3.753,0.035,2.59-1.514c-0.926-1.232-1.836-2.521-2.901-3.637
				c-0.605,0.785-1.212,1.57-1.817,2.355c2.334,1.525,4.844,2.754,7.333,4C94.47-47.005,95.989-49.593,94.259-50.458L94.259-50.458z
				"/>
			<path fill="#F2FF5B" d="M9.71-64.998c-0.188-0.228-0.195-0.359-0.104-0.011c0.064,0.242,0.112,0.488,0.176,0.73
				c0.178,0.674,0.539,1.345,1.144,1.724c0.676,0.423,1.487,0.421,2.22,0.149c0.876-0.325,2.199-1.026,2.462-1.995
				c1.059-3.903-7.699-2.477-5.465,0.433c0.919,1.197,2.645,0.8,2.795-0.757c0.002-0.02,0.004-0.037,0.005-0.056
				c-0.146,0.354-0.293,0.707-0.438,1.061c0.005-0.007,0.01-0.013,0.015-0.02c-0.605,0.078-1.211,0.156-1.817,0.234
				c-0.452-0.536-0.598-0.673-0.438-0.408c0.009,0.016,0.155,0.354,0.074,0.155c0.154,0.381,0.292,0.769,0.432,1.155
				c0.191,0.534,0.376,1.071,0.556,1.61c0.286,0.855,1.365,1.477,2.203,0.896c1.536-1.063,3.109-2.438,2.795-4.493
				c-0.223-1.457-1.461-2.412-2.257-3.559c-1.095-1.577-3.696-0.08-2.59,1.514c0.519,0.748,1.171,1.391,1.684,2.139
				c0.537,0.784-0.396,1.289-1.146,1.81c0.734,0.299,1.469,0.597,2.203,0.896c-0.226-0.675-0.46-1.348-0.703-2.018
				c-0.274-0.753-0.533-1.868-1.298-2.287c-0.542-0.296-1.396-0.295-1.818,0.235c-0.301,0.378-0.413,0.651-0.46,1.136
				c0.932-0.253,1.863-0.506,2.795-0.758c0.206,0.931,0.005,1.533-0.603,1.811c0.167-0.031,0.193-0.04,0.078-0.026
				c0.313-0.038,0.63-0.03,0.943-0.015c0.204,0.018,0.242,0.02,0.115,0.008c0.049,0.012,0.097,0.022,0.145,0.033
				c-0.687-0.313-0.814-1.014-0.384-2.102c-0.152,0.117-0.797,0.561-0.838,0.566c0.259-0.033,0.488,0.201,0.577,0.414
				c-0.096-0.23-0.144-0.484-0.199-0.727c-0.139-0.604-0.336-1.117-0.736-1.6C10.595-68.609,8.484-66.475,9.71-64.998L9.71-64.998z"
				/>
			<path fill="#F2FF5B" d="M12.723-44.229c-0.682,3.83-1.866,7.533-2.667,11.334c0.964,0,1.929,0,2.893,0
				c-0.426-2.764,0.632-5.256,1.334-7.869c-0.836,0.221-1.671,0.441-2.507,0.662c1.292,1.521,0.892,4.428,0.894,6.273
				c0.002,1.934,3.002,1.934,3,0c-0.003-2.871,0.195-6.076-1.772-8.395c-0.744-0.877-2.231-0.363-2.507,0.662
				c-0.869,3.238-1.857,6.068-1.334,9.463c0.228,1.479,2.599,1.396,2.893,0c0.802-3.801,1.985-7.504,2.667-11.332
				C15.952-45.323,13.062-46.132,12.723-44.229L12.723-44.229z"/>
			<path fill="#F2FF5B" d="M49.593-32.534c1.347-0.693,2.633-1.568,3.131-3.064c0.494-1.482-0.525-2.951-1.494-3.959
				c-1.344-1.396-3.462,0.729-2.121,2.121c0.287,0.299,0.516,0.574,0.711,0.939c-0.009-0.016-0.047,0.25,0.033,0.074
				c-0.291,0.639-1.199,1.002-1.773,1.299C46.358-34.239,47.876-31.651,49.593-32.534L49.593-32.534z"/>
			<path fill="#F2FF5B" d="M43.002-21.163c0-0.148,0.001-0.297,0.005-0.445c0.002-0.088,0.054-0.707,0.014-0.418
				c0.026-0.191,0.073-0.379,0.126-0.564c0.06-0.17,0.061-0.182,0.005-0.037c0.026-0.059,0.275-0.357,0.078-0.141
				c0.551-0.604,0.598-1.523,0-2.121c-0.558-0.559-1.57-0.605-2.121,0c-0.939,1.029-1.105,2.385-1.106,3.727
				c-0.001,0.818,0.683,1.5,1.5,1.5C42.32-19.663,43.001-20.345,43.002-21.163L43.002-21.163z"/>
			<path fill="#F2FF5B" d="M47.741-23.726c0.961,0.979,1.816,2.293,3.212,2.672c2.024,0.549,3.512-1.561,4.477-2.976
				c0.362-0.53,0.238-1.394-0.234-1.817c-0.63-0.566-1.275-0.961-2.09-1.201c-0.709-0.209-1.529-0.071-2.214-0.367
				c-0.75-0.325-1.603-0.23-2.052,0.538c-0.376,0.641-0.213,1.728,0.538,2.052c0.635,0.275,1.212,0.447,1.9,0.527
				c0.671,0.078,1.27,0.1,1.796,0.572c-0.078-0.606-0.156-1.212-0.234-1.818c-0.359,0.526-0.725,1.017-1.188,1.457
				c-0.052,0.049-0.307,0.173-0.139,0.111c0.081-0.012,0.16-0.002,0.237,0.029c-0.166-0.049-0.178-0.05-0.037-0.004
				c-0.553-0.281-1.293-1.328-1.852-1.896C48.506-27.229,46.386-25.106,47.741-23.726L47.741-23.726z"/>
			<path fill="#F2FF5B" d="M8.374-101.897c1.08,1.809,3.74,2.111,5.619,1.779c2.355-0.416,3.007-3.039,1.33-4.607
				c-1.383-1.293-3.451-2.023-5.309-2.193c-2.249-0.205-3.288,1.867-2.141,3.689c1.027,1.631,3.624,0.127,2.59-1.516
				c0.001,0.002-0.252-0.518-0.149-0.232c0.156,0.432-0.319,0.928-0.679,1.068c0.161-0.064-0.183-0.02,0.229-0.018
				c0.294,0.002,0.208,0.01,0.414,0.049c0.959,0.184,1.867,0.574,2.687,1.098c0.159,0.102,0.17,0.113,0.35,0.281
				c0.098,0.092,0.118,0.152,0.049-0.027c-0.232-0.602,0.534-0.564-0.164-0.479c-0.518,0.063-1.025,0.004-1.527-0.119
				c-0.202-0.051-0.385-0.113-0.567-0.207c-0.121-0.061-0.224-0.221-0.141-0.08C9.973-105.069,7.379-103.562,8.374-101.897
				L8.374-101.897z"/>
			<path fill="#F2FF5B" d="M92.836-16.821c2.244,0.262,3.789-1.586,3.653-3.732c-0.139-2.195-1.7-4.176-3.987-4.268
				c-0.705-0.027-1.22,0.488-1.446,1.102c-0.366,0.994-0.159,2.229-0.682,3.143c-0.963,1.682,1.629,3.191,2.59,1.514
				c0.7-1.223,0.513-2.578,0.984-3.859c-0.482,0.367-0.964,0.734-1.446,1.102c0.26,0.01,0.348,0.072,0.63,0.381
				c0.148,0.164,0.282,0.547,0.368,0.965c0.032,0.156-0.018,0.52-0.072,0.625c-0.064,0.125-0.181,0.109,0.051,0.018
				c-0.148,0.059-0.319,0.049-0.643,0.012c-0.814-0.094-1.5,0.754-1.5,1.5C91.336-17.431,92.024-16.915,92.836-16.821L92.836-16.821
				z"/>
			<path fill="#F2FF5B" d="M45.97-97.36c-2.224,1.072-4.585,1.865-6.448,3.545c-0.706,0.637-0.521,1.934,0.32,2.365
				c4.052,2.07,7.841-1.804,10.06-4.807c0.879-1.189-0.859-2.859-2.046-2.045c-2.831,1.942-5.327,4.24-7.163,7.163
				c-1.029,1.638,1.581,3.116,2.609,1.481c1.54-2.451,3.662-4.406,6.036-6.037c-0.682-0.681-1.364-1.363-2.046-2.045
				c-1.104,1.493-3.763,4.807-5.969,3.68c0.106,0.789,0.214,1.576,0.32,2.365c1.62-1.461,3.871-2.123,5.809-3.057
				C49.199-95.593,47.701-98.194,45.97-97.36L45.97-97.36z"/>
			<path fill="#F2FF5B" d="M8.841-85.527c1.368,1.368,3.489-0.753,2.122-2.121C9.595-89.017,7.473-86.896,8.841-85.527L8.841-85.527
				z"/>
			<path fill="#F2FF5B" d="M40.108-102.525c-0.88-2.641-1.785-5.284-2.356-8.014c-0.359-1.714-2.913-1.281-2.951,0.382
				c-0.03,1.29-0.24,2.585-0.422,3.861c-0.27,1.891,2.629,2.679,2.901,0.762c0.217-1.526,0.484-3.082,0.52-4.623
				c-0.983,0.127-1.967,0.253-2.95,0.38c0.572,2.729,1.478,5.372,2.356,8.014C37.815-99.934,40.72-100.689,40.108-102.525
				L40.108-102.525z"/>
			<path fill="#F2FF5B" d="M15.317-79.746c1.401,1.772,3.801,1.558,5.222-0.056c1.455-1.651,1.752-4.156,0.198-5.838
				c-0.479-0.518-1.207-0.518-1.802-0.243c-0.961,0.444-1.688,1.464-2.703,1.739c-1.87,0.508-1.105,3.409,0.761,2.902
				c1.359-0.369,2.186-1.461,3.425-2.033c-0.601-0.081-1.201-0.162-1.802-0.243c0.177,0.19,0.194,0.297,0.177,0.715
				c-0.011,0.22-0.188,0.586-0.422,0.941c-0.088,0.134-0.38,0.354-0.494,0.392c-0.134,0.043-0.204-0.051,0.024,0.049
				c-0.146-0.064-0.261-0.191-0.463-0.446c-0.509-0.644-1.594-0.528-2.121,0C14.688-81.238,14.811-80.387,15.317-79.746
				L15.317-79.746z"/>
			<path fill="#F2FF5B" d="M63.04-83.245c-0.36,0.506-1.041,0.771-1.64,0.645c-0.799-0.17-1.618,0.225-1.845,1.047
				c-0.207,0.752,0.247,1.676,1.048,1.846c2.009,0.424,3.848-0.369,5.026-2.021c0.476-0.668,0.119-1.668-0.538-2.053
				C64.338-84.224,63.514-83.909,63.04-83.245L63.04-83.245z"/>
			<path fill="#F2FF5B" d="M49.335-86.321c-0.556,0-1.11,0-1.666,0c-1.935,0-1.935,3,0,3c0.556,0,1.11,0,1.666,0
				C51.27-83.321,51.27-86.321,49.335-86.321L49.335-86.321z"/>
			<path fill="#F2FF5B" d="M17.729-71.548c0.11,0.164,0.123,0.18,0.036,0.049c-0.189-0.295,0.112,0.318-0.026-0.037
				c-0.137-0.352-0.278-0.701-0.442-1.041c-0.354-0.738-1.391-0.926-2.052-0.539c-0.748,0.438-0.892,1.314-0.538,2.053
				c0.242,0.504-0.068-0.211,0.096,0.209c0.042,0.109,0.083,0.217,0.128,0.324c0.182,0.436,0.354,0.752,0.678,1.104
				c0.554,0.602,1.562,0.561,2.121,0C18.325-70.022,18.283-70.946,17.729-71.548L17.729-71.548z"/>
			<path fill="#F2FF5B" d="M14.889-25.554c-0.279,0.877-0.387,1.791-0.666,2.668c-0.248,0.779,0.283,1.635,1.048,1.844
				c0.812,0.225,1.597-0.268,1.845-1.047c0.279-0.875,0.387-1.791,0.666-2.666c0.248-0.779-0.283-1.637-1.048-1.846
				C15.922-26.825,15.137-26.331,14.889-25.554L14.889-25.554z"/>
			<path fill="#F2FF5B" d="M43.502-32.487c0-0.557,0-1.111,0-1.668c0-1.934-3-1.934-3,0c0,0.557,0,1.111,0,1.668
				C40.502-30.554,43.502-30.554,43.502-32.487L43.502-32.487z"/>
			<path fill="#F2FF5B" d="M75.669-8.987c1.935,0,1.935-3,0-3S73.734-8.987,75.669-8.987L75.669-8.987z"/>
			<path fill="#F2FF5B" d="M68.669-87.321c0.333,0,0.667,0,1,0c1.935,0,1.935-3,0-3c-0.333,0-0.667,0-1,0
				C66.734-90.321,66.734-87.321,68.669-87.321L68.669-87.321z"/>
			<path fill="#F2FF5B" d="M88.002-95.655c0.083,0,0.167,0.002,0.25,0.006c-0.123-0.004-0.218-0.029-0.311-0.111
				c0.613,0.541,1.516,0.605,2.121,0c0.551-0.551,0.614-1.58,0-2.121c-0.609-0.537-1.249-0.768-2.061-0.773
				C86.066-98.665,86.068-95.665,88.002-95.655L88.002-95.655z"/>
			<path fill="#F2FF5B" d="M35.604-43.267c-1.438,0.393-2.766,0.393-4.203,0c0.35,0.348,0.699,0.697,1.048,1.047
				c-1.42-4.486,5.202-7.15,7.349-10.344c0.585-0.871-0.172-2.408-1.295-2.258c-5.354,0.719-13.93,5.402-9.295,11.758
				c1.127,1.545,3.732,0.051,2.59-1.514c-2.982-4.09,3.404-6.801,6.705-7.244c-0.432-0.752-0.863-1.504-1.295-2.256
				c-2.079,3.092-6.139,4.516-7.588,8.1c-0.586,1.451-0.738,3.504,0.088,4.914c1.062,1.813,5.088,1.129,6.693,0.689
				C38.265-40.886,37.473-43.78,35.604-43.267L35.604-43.267z"/>
			<path fill="#F2FF5B" d="M29.502-10.321c-0.833,0-1.667,0-2.5,0c-1.935,0-1.935,3,0,3c0.833,0,1.667,0,2.5,0
				C31.437-7.321,31.437-10.321,29.502-10.321L29.502-10.321z"/>
			<path fill="#F2FF5B" d="M39.063-64.382c-1.304-1.24-2.83-1.438-4.561-1.439c-1.935,0-1.935,3,0,3
				c0.418,0,1.103-0.004,1.368,0.037c0.463,0.072,0.71,0.18,1.071,0.523C38.343-60.929,40.467-63.046,39.063-64.382L39.063-64.382z"
				/>
			<path fill="#F2FF5B" d="M20.941-48.382c-0.827,0.879-0.938,1.904-0.939,3.061c-0.001,1.936,2.999,1.936,3,0
				c0-0.162,0.001-0.324,0.003-0.484c0.001-0.078,0.057-0.66-0.005-0.248c0.017-0.109,0.049-0.213,0.084-0.316
				c-0.086,0.195-0.088,0.219-0.008,0.074c-0.125,0.152-0.13,0.164-0.014,0.035c0.561-0.594,0.591-1.529,0-2.121
				C22.498-48.946,21.502-48.978,20.941-48.382L20.941-48.382z"/>
			<path fill="#F2FF5B" d="M63.002-36.321c0.271,0.023,0.252,0.076,0.02-0.078c0.291,0.193,0.111,0.086,0.041,0.018
				c-0.587-0.568-1.536-0.584-2.121,0c-0.571,0.57-0.587,1.553,0,2.121c0.578,0.561,1.261,0.871,2.061,0.939
				c0.816,0.07,1.5-0.734,1.5-1.5C64.502-35.692,63.816-36.251,63.002-36.321L63.002-36.321z"/>
			<path fill="#F2FF5B" d="M10.941-56.382c-1.78,1.748-3.412,3.258-2.886,5.959c0.124,0.637,0.819,1.117,1.446,1.102
				c3.75-0.092,7.352-2.504,7.5-6.5c0.024-0.664-0.476-1.273-1.102-1.445c-0.648-0.18-1.228-0.221-1.89-0.094
				c-0.244,0.047-0.485,0.189-0.703,0.307c-0.151,0.08-0.655,0.262-0.306,0.232c-1.913,0.162-1.929,3.162,0,3
				c0.778-0.064,1.585-0.695,2.102-0.553c-0.367-0.482-0.734-0.965-1.102-1.447c-0.085,2.301-2.452,3.449-4.5,3.5
				c0.482,0.367,0.964,0.734,1.446,1.102c-0.247-1.271,1.327-2.268,2.114-3.041C14.444-55.618,12.322-57.737,10.941-56.382
				L10.941-56.382z"/>
			<path fill="#F2FF5B" d="M35.606-87.797c-2.494,2.39-5.623,4.015-8.545,1.333c-1.422-1.306-3.549,0.811-2.121,2.121
				c4.19,3.848,9.029,2.268,12.787-1.333C39.128-87.016,37.003-89.135,35.606-87.797L35.606-87.797z"/>
			<path fill="#F2FF5B" d="M31.834-10.736c0,1.935,3,1.935,3,0S31.834-12.671,31.834-10.736L31.834-10.736z"/>
			<path fill="#F2FF5B" d="M76.94-74.464c0.228-0.188,0.359-0.195,0.011-0.104c-0.242,0.064-0.488,0.112-0.73,0.176
				c-0.674,0.178-1.345,0.539-1.724,1.144c-0.423,0.676-0.421,1.487-0.149,2.22c0.325,0.876,1.026,2.199,1.995,2.462
				c3.903,1.059,2.477-7.699-0.433-5.465c-1.197,0.919-0.8,2.645,0.757,2.795c0.02,0.002,0.037,0.004,0.056,0.005
				c-0.354-0.146-0.707-0.293-1.061-0.438c0.007,0.005,0.013,0.01,0.02,0.015c-0.078-0.605-0.156-1.211-0.234-1.817
				c0.536-0.452,0.673-0.598,0.408-0.438c-0.016,0.009-0.354,0.155-0.155,0.074c-0.381,0.154-0.769,0.292-1.155,0.432
				c-0.534,0.191-1.071,0.376-1.61,0.556c-0.855,0.286-1.477,1.365-0.896,2.203c1.063,1.536,2.438,3.109,4.493,2.795
				c1.457-0.223,2.412-1.461,3.559-2.257c1.577-1.095,0.08-3.696-1.514-2.59c-0.748,0.519-1.391,1.171-2.139,1.684
				c-0.784,0.537-1.289-0.396-1.81-1.146c-0.299,0.734-0.597,1.469-0.896,2.203c0.675-0.226,1.348-0.46,2.018-0.703
				c0.753-0.274,1.868-0.533,2.287-1.298c0.296-0.542,0.295-1.396-0.235-1.818c-0.378-0.301-0.651-0.413-1.136-0.46
				c0.253,0.932,0.506,1.863,0.758,2.795c-0.931,0.206-1.533,0.005-1.811-0.603c0.031,0.167,0.04,0.193,0.026,0.078
				c0.038,0.313,0.03,0.63,0.015,0.943c-0.018,0.204-0.02,0.242-0.008,0.115c-0.012,0.049-0.022,0.097-0.033,0.145
				c0.313-0.687,1.014-0.814,2.102-0.384c-0.117-0.152-0.561-0.797-0.566-0.838c0.033,0.259-0.201,0.488-0.414,0.577
				c0.23-0.096,0.484-0.144,0.727-0.199c0.604-0.139,1.117-0.336,1.6-0.736C80.552-73.579,78.417-75.689,76.94-74.464L76.94-74.464z
				"/>
			<path fill="#F2FF5B" d="M59.125-50.735c0.692,1.347,1.567,2.633,3.063,3.131c1.482,0.494,2.952-0.525,3.959-1.494
				c1.396-1.344-0.728-3.462-2.121-2.121c-0.299,0.287-0.574,0.516-0.938,0.711c0.016-0.009-0.25-0.047-0.074,0.033
				c-0.639-0.291-1.003-1.199-1.299-1.773C60.829-53.97,58.241-52.452,59.125-50.735L59.125-50.735z"/>
			<path fill="#F2FF5B" d="M36.667-51.903c0.148,0,0.297,0.001,0.445,0.005c0.089,0.002,0.707,0.054,0.418,0.014
				c0.192,0.026,0.379,0.073,0.565,0.126c0.169,0.06,0.181,0.061,0.037,0.005c0.059,0.026,0.356,0.275,0.141,0.078
				c0.604,0.551,1.523,0.598,2.121,0c0.558-0.558,0.604-1.57,0-2.121c-1.03-0.939-2.386-1.105-3.728-1.106
				c-0.817-0.001-1.5,0.683-1.5,1.5C35.167-52.585,35.85-51.904,36.667-51.903L36.667-51.903z"/>
			<path fill="#F2FF5B" d="M29.606-69.797c-0.979,0.961-2.293,1.816-2.672,3.212c-0.549,2.024,1.561,3.512,2.976,4.477
				c0.53,0.362,1.394,0.238,1.817-0.234c0.566-0.63,0.961-1.275,1.201-2.09c0.209-0.709,0.071-1.529,0.367-2.214
				c0.325-0.75,0.23-1.603-0.538-2.052c-0.641-0.376-1.728-0.213-2.052,0.538c-0.275,0.635-0.447,1.212-0.527,1.9
				c-0.078,0.671-0.1,1.27-0.572,1.796c0.606-0.078,1.212-0.156,1.818-0.234c-0.526-0.359-1.017-0.725-1.457-1.188
				c-0.049-0.052-0.173-0.307-0.111-0.139c0.012,0.081,0.002,0.16-0.029,0.237c0.049-0.166,0.05-0.178,0.004-0.037
				c0.281-0.553,1.328-1.293,1.896-1.852C33.11-69.032,30.987-71.152,29.606-69.797L29.606-69.797z"/>
			<path fill="#F2FF5B" d="M98.53-59.603c-1.071-2.224-1.864-4.585-3.544-6.448c-0.637-0.706-1.935-0.521-2.365,0.32
				c-2.071,4.052,1.804,7.841,4.807,10.06c1.188,0.879,2.859-0.859,2.045-2.046c-1.942-2.831-4.24-5.327-7.163-7.163
				c-1.638-1.029-3.117,1.581-1.481,2.609c2.45,1.54,4.406,3.662,6.036,6.036c0.682-0.682,1.363-1.364,2.045-2.046
				c-1.492-1.104-4.806-3.763-3.679-5.969c-0.789,0.106-1.576,0.214-2.365,0.32c1.461,1.62,2.122,3.871,3.057,5.809
				C96.764-56.373,99.365-57.871,98.53-59.603L98.53-59.603z"/>
			<path fill="#F2FF5B" d="M95.25-79.588c-1.771,1.401-1.557,3.801,0.056,5.222c1.651,1.455,4.156,1.752,5.838,0.198
				c0.518-0.479,0.518-1.207,0.243-1.802c-0.444-0.961-1.463-1.688-1.739-2.703c-0.508-1.87-3.409-1.105-2.901,0.761
				c0.368,1.359,1.46,2.186,2.032,3.425c0.081-0.601,0.162-1.201,0.243-1.802c-0.19,0.177-0.297,0.194-0.715,0.177
				c-0.22-0.011-0.586-0.188-0.941-0.422c-0.134-0.088-0.354-0.38-0.392-0.494c-0.043-0.134,0.051-0.204-0.048,0.024
				c0.063-0.146,0.19-0.261,0.445-0.463c0.644-0.509,0.528-1.594,0-2.121C96.742-80.218,95.891-80.095,95.25-79.588L95.25-79.588z"
				/>
			<path fill="#F2FF5B" d="M98.749-31.865c-0.505-0.36-0.771-1.041-0.645-1.64c0.17-0.799-0.224-1.618-1.047-1.845
				c-0.752-0.207-1.676,0.247-1.846,1.048c-0.424,2.009,0.37,3.848,2.022,5.026c0.667,0.476,1.667,0.119,2.053-0.538
				C99.729-30.567,99.413-31.392,98.749-31.865L98.749-31.865z"/>
			<path fill="#F2FF5B" d="M101.825-45.57c0-0.556,0-1.11,0-1.666c0-1.935-3-1.935-3,0c0,0.556,0,1.11,0,1.666
				C98.825-43.636,101.825-43.636,101.825-45.57L101.825-45.57z"/>
			<path fill="#F2FF5B" d="M73.983-93.543c-0.164,0.11-0.18,0.123-0.048,0.036c0.295-0.189-0.319,0.112,0.036-0.026
				c0.352-0.137,0.701-0.278,1.042-0.442c0.737-0.354,0.926-1.391,0.538-2.052c-0.438-0.748-1.314-0.892-2.052-0.538
				c-0.505,0.242,0.21-0.068-0.21,0.096c-0.108,0.042-0.217,0.083-0.324,0.128c-0.435,0.182-0.751,0.354-1.104,0.678
				c-0.602,0.554-0.56,1.562,0,2.121C72.458-92.947,73.383-92.989,73.983-93.543L73.983-93.543z"/>
			<path fill="#F2FF5B" d="M41.058-80.017c-0.876-0.279-1.791-0.387-2.667-0.666c-0.779-0.248-1.636,0.283-1.845,1.048
				c-0.225,0.812,0.269,1.597,1.047,1.845c0.876,0.279,1.791,0.387,2.667,0.666c0.779,0.248,1.636-0.283,1.845-1.048
				C42.329-78.983,41.836-79.769,41.058-80.017L41.058-80.017z"/>
			<path fill="#F2FF5B" d="M47.991-51.403c0.557,0,1.111,0,1.668,0c1.934,0,1.934-3,0-3c-0.557,0-1.111,0-1.668,0
				C46.058-54.403,46.058-51.403,47.991-51.403L47.991-51.403z"/>
			<path fill="#F2FF5B" d="M51.002-68.405c0-0.148,0.001-0.297,0.005-0.445c0.002-0.09,0.054-0.707,0.014-0.418
				c0.026-0.193,0.073-0.379,0.126-0.566c0.06-0.168,0.061-0.18,0.005-0.037c0.026-0.059,0.275-0.355,0.078-0.141
				c0.551-0.604,0.598-1.523,0-2.121c-0.558-0.557-1.57-0.604-2.121,0c-0.939,1.031-1.105,2.387-1.106,3.729
				c-0.001,0.816,0.683,1.5,1.5,1.5C50.32-66.905,51.001-67.589,51.002-68.405L51.002-68.405z"/>
			<path fill="#F2FF5B" d="M22.889-72.796c-0.279,0.875-0.387,1.791-0.666,2.666c-0.248,0.779,0.283,1.637,1.048,1.846
				c0.812,0.225,1.597-0.27,1.845-1.047c0.279-0.877,0.387-1.791,0.666-2.668c0.248-0.779-0.283-1.635-1.048-1.844
				C23.922-74.067,23.137-73.575,22.889-72.796L22.889-72.796z"/>
			<path fill="#F2FF5B" d="M28.941-95.624c-0.827,0.879-0.938,1.904-0.939,3.061c-0.001,1.934,2.999,1.934,3,0
				c0-0.162,0.001-0.324,0.003-0.486c0.001-0.078,0.057-0.66-0.005-0.246c0.017-0.109,0.049-0.213,0.084-0.318
				c-0.086,0.195-0.088,0.221-0.008,0.074c-0.125,0.154-0.13,0.166-0.014,0.037c0.561-0.596,0.591-1.531,0-2.121
				C30.498-96.188,29.502-96.22,28.941-95.624L28.941-95.624z"/>
			<path fill="#F2FF5B" d="M55.991-98.646c0.557,0,1.111,0,1.668,0c1.934,0,1.934-3,0-3c-0.557,0-1.111,0-1.668,0
				C54.058-101.646,54.058-98.646,55.991-98.646L55.991-98.646z"/>
			<path fill="#F2FF5B" d="M24.491-19.236c0,1.935,3,1.935,3,0S24.491-21.171,24.491-19.236L24.491-19.236z"/>
			<path fill="#F2FF5B" d="M102.825-26.236c0,0.333,0,0.667,0,1c0,1.935,3,1.935,3,0c0-0.333,0-0.667,0-1
				C105.825-28.171,102.825-28.171,102.825-26.236L102.825-26.236z"/>
			<path fill="#F2FF5B" d="M73.271-77.802c-0.394-1.438-0.394-2.766,0-4.203c-0.349,0.35-0.698,0.699-1.048,1.048
				c4.486-1.42,7.15,5.202,10.345,7.349c0.87,0.585,2.407-0.172,2.257-1.295c-0.718-5.354-5.402-13.93-11.757-9.295
				c-1.546,1.127-0.052,3.732,1.514,2.59c4.089-2.982,6.801,3.404,7.243,6.705c0.752-0.432,1.505-0.863,2.257-1.295
				c-3.093-2.079-4.517-6.139-8.101-7.588c-1.45-0.586-3.504-0.738-4.913,0.088c-1.813,1.062-1.13,5.088-0.689,6.693
				C70.89-75.141,73.784-75.933,73.271-77.802L73.271-77.802z"/>
			<path fill="#F2FF5B" d="M24.825-58.07c0-0.833,0-1.667,0-2.5c0-1.935-3-1.935-3,0c0,0.833,0,1.667,0,2.5
				C21.825-56.136,24.825-56.136,24.825-58.07L24.825-58.07z"/>
			<path fill="#F2FF5B" d="M79.886-55.843c1.24-1.304,1.438-2.83,1.439-4.561c0.001-1.935-2.999-1.935-3,0
				c0,0.418,0.004,1.103-0.037,1.368c-0.072,0.463-0.18,0.71-0.523,1.071C76.433-56.563,78.551-54.438,79.886-55.843L79.886-55.843z
				"/>
			<path fill="#F2FF5B" d="M88.835-36.33c1.935,0,1.935-3,0-3S86.9-36.33,88.835-36.33L88.835-36.33z"/>
			<path fill="#F2FF5B" d="M63.002-27.654c0.333,0,0.667,0,1,0c1.935,0,1.935-3,0-3c-0.333,0-0.667,0-1,0
				C61.067-30.654,61.067-27.654,63.002-27.654L63.002-27.654z"/>
			<path fill="#F2FF5B" d="M91.335-40.988c0.083,0,0.167,0.002,0.25,0.006c-0.123-0.005-0.218-0.029-0.311-0.111
				c0.613,0.54,1.516,0.605,2.121,0c0.551-0.551,0.614-1.58,0-2.121c-0.609-0.537-1.249-0.769-2.061-0.773
				C89.399-43.998,89.401-40.998,91.335-40.988L91.335-40.988z"/>
			<path fill="#F2FF5B" d="M52.847-12.476c0.271,0.023,0.252,0.075,0.02-0.079c0.291,0.193,0.111,0.087,0.041,0.019
				c-0.587-0.568-1.536-0.585-2.121,0c-0.571,0.57-0.587,1.553,0,2.121c0.578,0.561,1.261,0.871,2.061,0.939
				c0.816,0.07,1.5-0.735,1.5-1.5C54.347-11.847,53.661-12.405,52.847-12.476L52.847-12.476z"/>
			<path fill="#F2FF5B" d="M83.219-1.177c1.24-1.303,1.438-2.83,1.439-4.561c0.001-1.934-2.999-1.934-3,0
				c0,0.418,0.004,1.104-0.037,1.369c-0.072,0.463-0.18,0.709-0.523,1.07C79.766-1.896,81.884,0.228,83.219-1.177L83.219-1.177z"/>
			<path fill="#F2FF5B" d="M63.886-73.964c-0.879-0.827-1.904-0.938-3.061-0.939c-1.935-0.001-1.935,2.999,0,3
				c0.162,0,0.324,0.001,0.485,0.003c0.078,0.001,0.66,0.057,0.247-0.005c0.109,0.017,0.213,0.049,0.317,0.084
				c-0.195-0.086-0.22-0.088-0.074-0.008c-0.153-0.125-0.165-0.13-0.036-0.014c0.595,0.561,1.53,0.591,2.121,0
				C64.45-72.407,64.481-73.403,63.886-73.964L63.886-73.964z"/>
			<path fill="#F2FF5B" d="M58.514-19.976c-0.023,0.271-0.075,0.252,0.079,0.02c-0.193,0.291-0.087,0.111-0.019,0.041
				c0.568-0.587,0.585-1.536,0-2.121c-0.57-0.571-1.553-0.587-2.121,0c-0.561,0.578-0.871,1.261-0.939,2.061
				c-0.07,0.816,0.735,1.5,1.5,1.5C57.885-18.476,58.443-19.161,58.514-19.976L58.514-19.976z"/>
			<path fill="#F2FF5B" d="M61.886-93.964c-1.748-1.78-3.258-3.412-5.959-2.886c-0.637,0.124-1.117,0.819-1.102,1.446
				c0.092,3.75,2.505,7.352,6.5,7.5c0.664,0.024,1.273-0.476,1.446-1.102c0.179-0.648,0.22-1.228,0.093-1.89
				c-0.047-0.244-0.189-0.485-0.307-0.703c-0.08-0.151-0.262-0.655-0.232-0.306c-0.161-1.913-3.162-1.929-3,0
				c0.065,0.778,0.695,1.585,0.554,2.102c0.481-0.367,0.964-0.734,1.446-1.102c-2.301-0.085-3.449-2.452-3.5-4.5
				c-0.367,0.482-0.734,0.964-1.102,1.446c1.272-0.247,2.268,1.327,3.041,2.114C61.122-90.461,63.242-92.583,61.886-93.964
				L61.886-93.964z"/>
			<path fill="#F2FF5B" d="M90.868-47.853c1.935,0,1.935-3,0-3S88.934-47.853,90.868-47.853L90.868-47.853z"/>
			<path fill="#F2FF5B" d="M99.46-100.991c-2.234,0.04-4.816,0.563-6.129,2.576c-1.305,2-0.792,4.324,0.167,6.347
				c0.217,0.458,0.805,0.755,1.295,0.743c2.31-0.053,4.346-0.746,5.729-2.666c1.337-1.854,1.023-4.531,0.384-6.566
				c-0.297-0.943-1.33-1.366-2.203-0.896c-3.146,1.695-5.272,4.974-7.205,7.871c-0.359,0.538-0.238,1.385,0.234,1.817
				c0.63,0.576,1.344,1.072,2.239,0.825c0.417-0.114,0.758-0.415,0.995-0.766c0.356-0.526,0.326-0.347-0.174-0.286
				c1.896-0.229,1.918-3.232,0-3c-0.702,0.084-1.154,0.248-1.713,0.693c-0.193,0.153-0.338,0.421-0.461,0.633
				c-0.057,0.098-0.311,0.376-0.107,0.219c0.354-0.146,0.707-0.293,1.061-0.439c0.094,0,0.188,0,0.281,0
				c0.078,0.605,0.156,1.212,0.234,1.817c1.649-2.472,3.443-5.347,6.129-6.795c-0.734-0.299-1.469-0.597-2.203-0.896
				c0.365,1.164,0.707,2.57,0.199,3.754c-0.585,1.366-2.082,1.649-3.42,1.68c0.432,0.248,0.863,0.495,1.295,0.743
				c-0.429-0.906-0.948-2.313-0.234-3.229c0.817-1.049,2.391-1.159,3.606-1.181C101.393-98.026,101.396-101.026,99.46-100.991
				L99.46-100.991z"/>
			<path fill="#F2FF5B" d="M99.625-7.314c-2.489-1.245-4.999-2.475-7.333-4c-1.466-0.958-2.966,1.153-1.817,2.356
				c0.892,0.934,1.658,1.998,2.433,3.029c1.146,1.527,3.753,0.035,2.59-1.514c-0.926-1.232-1.836-2.521-2.901-3.637
				c-0.605,0.785-1.212,1.57-1.817,2.355c2.334,1.524,4.844,2.754,7.333,4C99.836-3.86,101.355-6.448,99.625-7.314L99.625-7.314z"/>
			<path fill="#F2FF5B" d="M68.406-40.101c-0.36,0.505-1.041,0.771-1.64,0.645c-0.799-0.17-1.618,0.224-1.845,1.047
				c-0.207,0.752,0.247,1.676,1.048,1.846c2.009,0.424,3.848-0.37,5.026-2.022c0.476-0.667,0.119-1.667-0.538-2.053
				C69.704-41.08,68.88-40.765,68.406-40.101L68.406-40.101z"/>
			<path fill="#F2FF5B" d="M74.035-44.177c0.333,0,0.667,0,1,0c1.935,0,1.935-3,0-3c-0.333,0-0.667,0-1,0
				C72.101-47.177,72.101-44.177,74.035-44.177L74.035-44.177z"/>
			<path fill="#F2FF5B" d="M82.307-31.319c0.228-0.189,0.359-0.195,0.011-0.104c-0.242,0.064-0.488,0.111-0.73,0.176
				c-0.674,0.178-1.345,0.539-1.724,1.143c-0.423,0.676-0.421,1.488-0.149,2.221c0.325,0.875,1.026,2.199,1.995,2.461
				c3.903,1.059,2.477-7.699-0.433-5.465c-1.197,0.92-0.8,2.645,0.757,2.795c0.02,0.002,0.037,0.004,0.056,0.006
				c-0.354-0.146-0.707-0.293-1.061-0.439c0.007,0.006,0.013,0.01,0.02,0.016c-0.078-0.605-0.156-1.211-0.234-1.818
				c0.536-0.451,0.673-0.598,0.408-0.438c-0.016,0.008-0.354,0.154-0.155,0.074c-0.381,0.154-0.769,0.291-1.155,0.432
				c-0.534,0.191-1.071,0.375-1.61,0.555c-0.855,0.287-1.477,1.365-0.896,2.203c1.063,1.537,2.438,3.109,4.493,2.795
				c1.457-0.223,2.412-1.461,3.559-2.256c1.577-1.096,0.08-3.697-1.514-2.59c-0.748,0.518-1.391,1.17-2.139,1.684
				c-0.784,0.537-1.289-0.396-1.81-1.146c-0.299,0.734-0.597,1.469-0.896,2.203c0.675-0.225,1.348-0.459,2.018-0.703
				c0.753-0.273,1.868-0.533,2.287-1.297c0.296-0.543,0.295-1.396-0.235-1.818c-0.378-0.301-0.651-0.414-1.136-0.461
				c0.253,0.932,0.506,1.863,0.758,2.795c-0.931,0.207-1.533,0.006-1.811-0.602c0.031,0.166,0.04,0.193,0.026,0.078
				c0.038,0.313,0.03,0.629,0.015,0.943c-0.018,0.203-0.02,0.242-0.008,0.115c-0.012,0.049-0.022,0.096-0.033,0.145
				c0.313-0.688,1.014-0.814,2.102-0.385c-0.117-0.152-0.561-0.797-0.566-0.838c0.033,0.26-0.201,0.488-0.414,0.578
				c0.23-0.096,0.484-0.145,0.727-0.199c0.604-0.139,1.117-0.336,1.6-0.736C85.918-30.435,83.783-32.546,82.307-31.319
				L82.307-31.319z"/>
			<path fill="#F2FF5B" d="M33.513-31.149c-1.071-2.224-1.864-4.585-3.544-6.448c-0.637-0.706-1.935-0.521-2.365,0.32
				c-2.071,4.052,1.804,7.841,4.807,10.06c1.188,0.879,2.859-0.859,2.045-2.046c-1.942-2.831-4.24-5.327-7.163-7.163
				c-1.638-1.029-3.117,1.581-1.481,2.609c2.45,1.54,4.406,3.662,6.036,6.036c0.682-0.682,1.363-1.364,2.045-2.046
				c-1.492-1.104-4.806-3.763-3.679-5.969c-0.789,0.106-1.576,0.214-2.365,0.32c1.461,1.62,2.122,3.871,3.057,5.809
				C31.746-27.92,34.348-29.418,33.513-31.149L33.513-31.149z"/>
			<path fill="#F2FF5B" d="M80.997-38.953c-0.164,0.11-0.18,0.123-0.048,0.036c0.295-0.189-0.319,0.112,0.036-0.026
				c0.352-0.137,0.701-0.278,1.042-0.442c0.737-0.354,0.926-1.391,0.538-2.052c-0.438-0.748-1.314-0.892-2.052-0.538
				c-0.505,0.242,0.21-0.068-0.21,0.096c-0.108,0.042-0.217,0.083-0.324,0.128c-0.435,0.182-0.751,0.354-1.104,0.678
				c-0.602,0.554-0.56,1.562,0,2.121C79.472-38.357,80.396-38.399,80.997-38.953L80.997-38.953z"/>
			<path fill="#F2FF5B" d="M64.138-6.042c-0.394-1.438-0.394-2.766,0-4.203c-0.349,0.35-0.698,0.699-1.048,1.047
				c4.486-1.42,7.15,5.203,10.345,7.35c0.87,0.584,2.407-0.172,2.257-1.295c-0.718-5.355-5.402-13.93-11.757-9.295
				c-1.546,1.127-0.052,3.732,1.514,2.59c4.089-2.982,6.801,3.404,7.243,6.705c0.752-0.432,1.505-0.863,2.257-1.295
				c-3.093-2.08-4.517-6.139-8.101-7.588c-1.45-0.586-3.504-0.738-4.913,0.088c-1.813,1.061-1.13,5.088-0.689,6.693
				C61.756-3.382,64.65-4.173,64.138-6.042L64.138-6.042z"/>
			<path fill="#F2FF5B" d="M85.252-12.698c1.24-1.305,1.438-2.83,1.439-4.561c0.001-1.936-2.999-1.936-3,0
				c0,0.418,0.004,1.102-0.037,1.367c-0.072,0.463-0.18,0.711-0.523,1.072C81.799-13.419,83.917-11.294,85.252-12.698L85.252-12.698
				z"/>
			<path fill="#F2FF5B" d="M89.176-68.868c-0.879-0.826-1.904-0.938-3.061-0.939c-1.935,0-1.935,3,0,3
				c0.162,0,0.324,0.002,0.485,0.004c0.078,0,0.66,0.057,0.247-0.006c0.109,0.018,0.213,0.049,0.317,0.084
				c-0.195-0.086-0.22-0.088-0.074-0.008c-0.153-0.125-0.165-0.129-0.036-0.014c0.595,0.561,1.53,0.592,2.121,0
				C89.74-67.312,89.771-68.308,89.176-68.868L89.176-68.868z"/>
			<path fill="#F2FF5B" d="M65.074-61.536c-1.748-1.78-3.258-3.412-5.959-2.886c-0.637,0.124-1.117,0.819-1.102,1.446
				c0.092,3.75,2.505,7.352,6.5,7.5c0.664,0.024,1.273-0.476,1.446-1.102c0.179-0.648,0.22-1.228,0.093-1.89
				c-0.047-0.244-0.189-0.485-0.307-0.703c-0.08-0.151-0.262-0.655-0.232-0.306c-0.161-1.913-3.162-1.929-3,0
				c0.065,0.778,0.695,1.585,0.554,2.102c0.481-0.367,0.964-0.734,1.446-1.102c-2.301-0.085-3.449-2.452-3.5-4.5
				c-0.367,0.482-0.734,0.964-1.102,1.446c1.272-0.247,2.268,1.327,3.041,2.114C64.311-58.033,66.431-60.155,65.074-61.536
				L65.074-61.536z"/>
		</g>
		<g>
			<path fill="#F2FF5B" d="M2.056-18.896c-0.814,2.33-1.924,4.561-2.054,7.066c-0.049,0.949,0.999,1.736,1.898,1.445
				c4.33-1.4,4.27-6.818,3.715-10.512c-0.219-1.461-2.63-1.414-2.893,0c-0.628,3.377-0.769,6.766,0,10.131
				c0.431,1.887,3.322,1.086,2.893-0.797c-0.644-2.822-0.526-5.705,0-8.537c-0.964,0-1.929,0-2.893,0
				c0.275,1.836,0.737,6.061-1.619,6.822c0.633,0.482,1.266,0.965,1.898,1.447c0.113-2.18,1.237-4.238,1.946-6.27
				C5.588-19.929,2.689-20.71,2.056-18.896L2.056-18.896z"/>
			<path fill="#F2FF5B" d="M2.825-26.236c0,0.333,0,0.667,0,1c0,1.935,3,1.935,3,0c0-0.333,0-0.667,0-1
				C5.825-28.171,2.825-28.171,2.825-26.236L2.825-26.236z"/>
		</g>
		<g>
			<path fill="#F2FF5B" d="M83.219-101.177c1.24-1.303,1.438-2.83,1.439-4.561c0.001-1.934-2.999-1.934-3,0
				c0,0.418,0.004,1.104-0.037,1.369c-0.072,0.463-0.18,0.709-0.523,1.07C79.766-101.896,81.884-99.772,83.219-101.177
				L83.219-101.177z"/>
			<path fill="#F2FF5B" d="M99.625-107.314c-2.489-1.245-4.999-2.475-7.333-4c-1.466-0.958-2.966,1.153-1.817,2.356
				c0.892,0.934,1.658,1.998,2.433,3.029c1.146,1.527,3.753,0.035,2.59-1.514c-0.926-1.232-1.836-2.521-2.901-3.637
				c-0.605,0.785-1.212,1.57-1.817,2.355c2.334,1.524,4.844,2.754,7.333,4C99.836-103.86,101.355-106.448,99.625-107.314
				L99.625-107.314z"/>
			<path fill="#F2FF5B" d="M64.138-106.042c-0.394-1.438-0.394-2.766,0-4.203c-0.349,0.35-0.698,0.699-1.048,1.047
				c4.486-1.42,7.15,5.203,10.345,7.35c0.87,0.584,2.407-0.172,2.257-1.295c-0.718-5.355-5.402-13.93-11.757-9.295
				c-1.546,1.127-0.052,3.732,1.514,2.59c4.089-2.982,6.801,3.404,7.243,6.705c0.752-0.432,1.505-0.863,2.257-1.295
				c-3.093-2.08-4.517-6.139-8.101-7.588c-1.45-0.586-3.504-0.738-4.913,0.088c-1.813,1.061-1.13,5.088-0.689,6.693
				C61.756-103.382,64.65-104.173,64.138-106.042L64.138-106.042z"/>
		</g>
	</g>
</pattern>
<g id="Grafik">
	<pattern  id="SVGID_1_" xlink:href="#UC_polkadots" patternTransform="matrix(1 0 0 1 1 0)">
	</pattern>
	<rect y="0.171" fill="url(#SVGID_1_)" width="100" height="100"/>
</g>
</svg>
