<?xml version="1.0" encoding="utf-8"?>
<!DOCTYPE svg PUBLIC "-//W3C//DTD SVG 1.1//EN" "http://www.w3.org/Graphics/SVG/1.1/DTD/svg11.dtd">
<svg version="1.1" id="Ebene_1" xmlns="http://www.w3.org/2000/svg" xmlns:xlink="http://www.w3.org/1999/xlink"
	 viewBox="0 0 100 100" xml:space="preserve">
<pattern  x="-461.5" y="434.5" width="100" height="100" patternUnits="userSpaceOnUse" id="uc_collective" viewBox="100.862 -200.814 100 100" overflow="visible">
	<g>
		<polygon fill="none" points="100.862,-200.814 200.862,-200.814 200.862,-100.814 100.862,-100.814 		"/>
		<g>
			<defs>
				<rect id="SVGID_1_" x="100.862" y="-200.814" width="100" height="100"/>
			</defs>
			<clipPath id="SVGID_2_">
				<use xlink:href="#SVGID_1_"  overflow="visible"/>
			</clipPath>
			<g clip-path="url(#SVGID_2_)">
				<path fill="none" stroke="#000000" stroke-width="0.5" stroke-miterlimit="10" d="M163.882-200.007"/>

					<line fill="none" stroke="#000000" stroke-width="0.5" stroke-miterlimit="10" x1="162.382" y1="-301.257" x2="159.632" y2="-200.257"/>

					<line fill="none" stroke="#000000" stroke-width="0.5" stroke-miterlimit="10" x1="128.882" y1="-301.257" x2="126.132" y2="-200.257"/>

					<line fill="none" stroke="#000000" stroke-width="0.5" stroke-miterlimit="10" x1="132.132" y1="-301.257" x2="128.884" y2="-200.674"/>

					<line fill="none" stroke="#000000" stroke-width="0.5" stroke-miterlimit="10" x1="125.632" y1="-301.507" x2="122.882" y2="-200.507"/>

					<line fill="none" stroke="#000000" stroke-width="0.5" stroke-miterlimit="10" x1="154.882" y1="-301.757" x2="152.132" y2="-200.757"/>

					<line fill="none" stroke="#000000" stroke-width="0.5" stroke-miterlimit="10" x1="139.882" y1="-300.757" x2="137.132" y2="-199.757"/>

					<line fill="none" stroke="#000000" stroke-width="0.5" stroke-miterlimit="10" x1="135.632" y1="-301.007" x2="132.882" y2="-200.007"/>

					<line fill="none" stroke="#000000" stroke-width="0.5" stroke-miterlimit="10" x1="178.55" y1="-301.59" x2="175.8" y2="-200.59"/>

					<line fill="none" stroke="#000000" stroke-width="0.5" stroke-miterlimit="10" x1="182.8" y1="-301.59" x2="180.05" y2="-200.59"/>

					<line fill="none" stroke="#000000" stroke-width="0.5" stroke-miterlimit="10" x1="191.05" y1="-300.341" x2="186.8" y2="-200.09"/>

					<line fill="none" stroke="#000000" stroke-width="0.5" stroke-miterlimit="10" x1="193.8" y1="-301.09" x2="191.05" y2="-200.09"/>

					<line fill="none" stroke="#000000" stroke-width="0.5" stroke-miterlimit="10" x1="188.3" y1="-301.34" x2="185.55" y2="-200.34"/>
			</g>
			<path clip-path="url(#SVGID_2_)" fill="none" stroke="#000000" stroke-width="0.5" stroke-miterlimit="10" d="M101.507-200.382"
				/>
			<g clip-path="url(#SVGID_2_)">

					<line fill="none" stroke="#000000" stroke-width="0.5" stroke-miterlimit="10" x1="203.632" y1="-202.257" x2="200.882" y2="-101.257"/>
				<g>

						<line fill="none" stroke="#000000" stroke-width="0.5" stroke-miterlimit="10" x1="301.757" y1="-198.132" x2="200.757" y2="-200.882"/>

						<line fill="none" stroke="#000000" stroke-width="0.5" stroke-miterlimit="10" x1="301.757" y1="-193.882" x2="200.757" y2="-196.632"/>

						<line fill="none" stroke="#000000" stroke-width="0.5" stroke-miterlimit="10" x1="300.507" y1="-135.132" x2="199.507" y2="-137.882"/>

						<line fill="none" stroke="#000000" stroke-width="0.5" stroke-miterlimit="10" x1="300.507" y1="-131.882" x2="200.341" y2="-131.798"/>

						<line fill="none" stroke="#000000" stroke-width="0.5" stroke-miterlimit="10" x1="300.757" y1="-139.382" x2="199.757" y2="-142.132"/>

						<line fill="none" stroke="#000000" stroke-width="0.5" stroke-miterlimit="10" x1="300.757" y1="-172.882" x2="199.757" y2="-175.632"/>

						<line fill="none" stroke="#000000" stroke-width="0.5" stroke-miterlimit="10" x1="300.757" y1="-169.632" x2="200.174" y2="-172.879"/>

						<line fill="none" stroke="#000000" stroke-width="0.5" stroke-miterlimit="10" x1="301.007" y1="-176.132" x2="200.007" y2="-178.882"/>

						<line fill="none" stroke="#000000" stroke-width="0.5" stroke-miterlimit="10" x1="301.257" y1="-146.882" x2="200.257" y2="-149.632"/>

						<line fill="none" stroke="#000000" stroke-width="0.5" stroke-miterlimit="10" x1="301.507" y1="-151.132" x2="200.507" y2="-153.882"/>
					<path fill="none" stroke="#000000" stroke-width="0.5" stroke-miterlimit="10" d="M200.507-103.132"/>

						<line fill="none" stroke="#000000" stroke-width="0.5" stroke-miterlimit="10" x1="301.757" y1="-104.632" x2="200.757" y2="-107.382"/>

						<line fill="none" stroke="#000000" stroke-width="0.5" stroke-miterlimit="10" x1="300.257" y1="-161.882" x2="199.257" y2="-164.632"/>

						<line fill="none" stroke="#000000" stroke-width="0.5" stroke-miterlimit="10" x1="300.257" y1="-158.632" x2="200.507" y2="-158.798"/>

						<line fill="none" stroke="#000000" stroke-width="0.5" stroke-miterlimit="10" x1="300.507" y1="-166.132" x2="199.507" y2="-168.882"/>

						<line fill="none" stroke="#000000" stroke-width="0.5" stroke-miterlimit="10" x1="301.09" y1="-123.214" x2="200.09" y2="-125.964"/>

						<line fill="none" stroke="#000000" stroke-width="0.5" stroke-miterlimit="10" x1="301.09" y1="-118.964" x2="200.09" y2="-121.714"/>

						<line fill="none" stroke="#000000" stroke-width="0.5" stroke-miterlimit="10" x1="301.34" y1="-126.464" x2="200.34" y2="-129.214"/>

						<line fill="none" stroke="#000000" stroke-width="0.5" stroke-miterlimit="10" x1="299.841" y1="-110.714" x2="199.59" y2="-114.964"/>

						<line fill="none" stroke="#000000" stroke-width="0.5" stroke-miterlimit="10" x1="300.59" y1="-107.964" x2="199.59" y2="-110.714"/>

						<line fill="none" stroke="#000000" stroke-width="0.5" stroke-miterlimit="10" x1="300.84" y1="-113.464" x2="199.84" y2="-116.214"/>
				</g>
			</g>
			<g clip-path="url(#SVGID_2_)">
				<g>

						<line fill="none" stroke="#000000" stroke-width="0.5" stroke-miterlimit="10" x1="103.632" y1="-202.257" x2="100.882" y2="-101.257"/>

						<line fill="none" stroke="#000000" stroke-width="0.5" stroke-miterlimit="10" x1="107.882" y1="-202.257" x2="105.132" y2="-101.257"/>
					<path fill="none" stroke="#000000" stroke-width="0.5" stroke-miterlimit="10" d="M163.882-100.007"/>
					<path fill="none" stroke="#000000" stroke-width="0.5" stroke-miterlimit="10" d="M166.632-201.007"/>

						<line fill="none" stroke="#000000" stroke-width="0.5" stroke-miterlimit="10" x1="169.882" y1="-201.007" x2="169.966" y2="-100.841"/>

						<line fill="none" stroke="#000000" stroke-width="0.5" stroke-miterlimit="10" x1="162.382" y1="-201.257" x2="159.632" y2="-100.257"/>

						<line fill="none" stroke="#000000" stroke-width="0.5" stroke-miterlimit="10" x1="128.882" y1="-201.257" x2="126.132" y2="-100.257"/>

						<line fill="none" stroke="#000000" stroke-width="0.5" stroke-miterlimit="10" x1="132.132" y1="-201.257" x2="128.884" y2="-100.674"/>

						<line fill="none" stroke="#000000" stroke-width="0.5" stroke-miterlimit="10" x1="125.632" y1="-201.507" x2="122.882" y2="-100.507"/>

						<line fill="none" stroke="#000000" stroke-width="0.5" stroke-miterlimit="10" x1="115.882" y1="-202.757" x2="113.132" y2="-101.757"/>

						<line fill="none" stroke="#000000" stroke-width="0.5" stroke-miterlimit="10" x1="119.132" y1="-202.757" x2="117.134" y2="-102.173"/>

						<line fill="none" stroke="#000000" stroke-width="0.5" stroke-miterlimit="10" x1="111.632" y1="-203.007" x2="108.882" y2="-102.007"/>

						<line fill="none" stroke="#000000" stroke-width="0.5" stroke-miterlimit="10" x1="154.882" y1="-201.757" x2="152.132" y2="-100.757"/>

						<line fill="none" stroke="#000000" stroke-width="0.5" stroke-miterlimit="10" x1="157.634" y1="-202.674" x2="154.884" y2="-101.674"/>

						<line fill="none" stroke="#000000" stroke-width="0.5" stroke-miterlimit="10" x1="150.632" y1="-202.007" x2="147.882" y2="-101.007"/>
					<path fill="none" stroke="#000000" stroke-width="0.5" stroke-miterlimit="10" d="M198.632-101.007"/>
					<path fill="none" stroke="#000000" stroke-width="0.5" stroke-miterlimit="10" d="M201.382-202.007"/>

						<line fill="none" stroke="#000000" stroke-width="0.5" stroke-miterlimit="10" x1="197.132" y1="-202.257" x2="194.382" y2="-101.257"/>

						<line fill="none" stroke="#000000" stroke-width="0.5" stroke-miterlimit="10" x1="139.882" y1="-200.757" x2="137.132" y2="-99.757"/>

						<line fill="none" stroke="#000000" stroke-width="0.5" stroke-miterlimit="10" x1="143.132" y1="-200.757" x2="142.966" y2="-101.007"/>

						<line fill="none" stroke="#000000" stroke-width="0.5" stroke-miterlimit="10" x1="135.632" y1="-201.007" x2="132.882" y2="-100.007"/>

						<line fill="none" stroke="#000000" stroke-width="0.5" stroke-miterlimit="10" x1="178.55" y1="-201.59" x2="175.8" y2="-100.59"/>

						<line fill="none" stroke="#000000" stroke-width="0.5" stroke-miterlimit="10" x1="182.8" y1="-201.59" x2="180.05" y2="-100.59"/>

						<line fill="none" stroke="#000000" stroke-width="0.5" stroke-miterlimit="10" x1="175.3" y1="-201.84" x2="172.55" y2="-100.84"/>

						<line fill="none" stroke="#000000" stroke-width="0.5" stroke-miterlimit="10" x1="191.05" y1="-200.341" x2="186.8" y2="-100.09"/>

						<line fill="none" stroke="#000000" stroke-width="0.5" stroke-miterlimit="10" x1="193.8" y1="-201.09" x2="191.05" y2="-100.09"/>

						<line fill="none" stroke="#000000" stroke-width="0.5" stroke-miterlimit="10" x1="188.3" y1="-201.34" x2="185.55" y2="-100.34"/>
				</g>
				<g>

						<line fill="none" stroke="#000000" stroke-width="0.5" stroke-miterlimit="10" x1="201.757" y1="-198.132" x2="100.757" y2="-200.882"/>

						<line fill="none" stroke="#000000" stroke-width="0.5" stroke-miterlimit="10" x1="201.757" y1="-193.882" x2="100.757" y2="-196.632"/>

						<line fill="none" stroke="#000000" stroke-width="0.5" stroke-miterlimit="10" x1="200.507" y1="-135.132" x2="99.507" y2="-137.882"/>

						<line fill="none" stroke="#000000" stroke-width="0.5" stroke-miterlimit="10" x1="200.507" y1="-131.882" x2="100.341" y2="-131.798"/>

						<line fill="none" stroke="#000000" stroke-width="0.5" stroke-miterlimit="10" x1="200.757" y1="-139.382" x2="99.757" y2="-142.132"/>

						<line fill="none" stroke="#000000" stroke-width="0.5" stroke-miterlimit="10" x1="200.757" y1="-172.882" x2="99.757" y2="-175.632"/>

						<line fill="none" stroke="#000000" stroke-width="0.5" stroke-miterlimit="10" x1="200.757" y1="-169.632" x2="100.174" y2="-172.879"/>

						<line fill="none" stroke="#000000" stroke-width="0.5" stroke-miterlimit="10" x1="201.007" y1="-176.132" x2="100.007" y2="-178.882"/>
					<path fill="none" stroke="#000000" stroke-width="0.5" stroke-miterlimit="10" d="M101.257-188.632"/>
					<path fill="none" stroke="#000000" stroke-width="0.5" stroke-miterlimit="10" d="M202.257-185.882"/>

						<line fill="none" stroke="#000000" stroke-width="0.5" stroke-miterlimit="10" x1="202.257" y1="-182.632" x2="101.673" y2="-184.629"/>

						<line fill="none" stroke="#000000" stroke-width="0.5" stroke-miterlimit="10" x1="202.507" y1="-190.132" x2="101.507" y2="-192.882"/>

						<line fill="none" stroke="#000000" stroke-width="0.5" stroke-miterlimit="10" x1="201.257" y1="-146.882" x2="100.257" y2="-149.632"/>

						<line fill="none" stroke="#000000" stroke-width="0.5" stroke-miterlimit="10" x1="202.174" y1="-144.129" x2="101.174" y2="-146.879"/>

						<line fill="none" stroke="#000000" stroke-width="0.5" stroke-miterlimit="10" x1="201.507" y1="-151.132" x2="100.507" y2="-153.882"/>
					<path fill="none" stroke="#000000" stroke-width="0.5" stroke-miterlimit="10" d="M100.507-103.132"/>
					<path fill="none" stroke="#000000" stroke-width="0.5" stroke-miterlimit="10" d="M201.507-100.382"/>

						<line fill="none" stroke="#000000" stroke-width="0.5" stroke-miterlimit="10" x1="201.757" y1="-104.632" x2="100.757" y2="-107.382"/>

						<line fill="none" stroke="#000000" stroke-width="0.5" stroke-miterlimit="10" x1="200.257" y1="-161.882" x2="99.257" y2="-164.632"/>

						<line fill="none" stroke="#000000" stroke-width="0.5" stroke-miterlimit="10" x1="200.257" y1="-158.632" x2="100.507" y2="-158.798"/>

						<line fill="none" stroke="#000000" stroke-width="0.5" stroke-miterlimit="10" x1="200.507" y1="-166.132" x2="99.507" y2="-168.882"/>

						<line fill="none" stroke="#000000" stroke-width="0.5" stroke-miterlimit="10" x1="201.09" y1="-123.214" x2="100.09" y2="-125.964"/>

						<line fill="none" stroke="#000000" stroke-width="0.5" stroke-miterlimit="10" x1="201.09" y1="-118.964" x2="100.09" y2="-121.714"/>

						<line fill="none" stroke="#000000" stroke-width="0.5" stroke-miterlimit="10" x1="201.34" y1="-126.464" x2="100.34" y2="-129.214"/>

						<line fill="none" stroke="#000000" stroke-width="0.5" stroke-miterlimit="10" x1="199.841" y1="-110.714" x2="99.59" y2="-114.964"/>

						<line fill="none" stroke="#000000" stroke-width="0.5" stroke-miterlimit="10" x1="200.59" y1="-107.964" x2="99.59" y2="-110.714"/>

						<line fill="none" stroke="#000000" stroke-width="0.5" stroke-miterlimit="10" x1="200.84" y1="-113.464" x2="99.84" y2="-116.214"/>
				</g>
			</g>
			<g clip-path="url(#SVGID_2_)">

					<line fill="none" stroke="#000000" stroke-width="0.5" stroke-miterlimit="10" x1="101.757" y1="-198.132" x2="0.757" y2="-200.882"/>

					<line fill="none" stroke="#000000" stroke-width="0.5" stroke-miterlimit="10" x1="101.757" y1="-193.882" x2="0.757" y2="-196.632"/>

					<line fill="none" stroke="#000000" stroke-width="0.5" stroke-miterlimit="10" x1="101.007" y1="-176.132" x2="0.007" y2="-178.882"/>
				<path fill="none" stroke="#000000" stroke-width="0.5" stroke-miterlimit="10" d="M102.257-185.882"/>

					<line fill="none" stroke="#000000" stroke-width="0.5" stroke-miterlimit="10" x1="102.257" y1="-182.632" x2="1.673" y2="-184.629"/>

					<line fill="none" stroke="#000000" stroke-width="0.5" stroke-miterlimit="10" x1="102.507" y1="-190.132" x2="1.507" y2="-192.882"/>

					<line fill="none" stroke="#000000" stroke-width="0.5" stroke-miterlimit="10" x1="101.257" y1="-146.882" x2="0.257" y2="-149.632"/>

					<line fill="none" stroke="#000000" stroke-width="0.5" stroke-miterlimit="10" x1="102.174" y1="-144.129" x2="1.174" y2="-146.879"/>

					<line fill="none" stroke="#000000" stroke-width="0.5" stroke-miterlimit="10" x1="101.507" y1="-151.132" x2="0.507" y2="-153.882"/>

					<line fill="none" stroke="#000000" stroke-width="0.5" stroke-miterlimit="10" x1="101.757" y1="-104.632" x2="0.757" y2="-107.382"/>

					<line fill="none" stroke="#000000" stroke-width="0.5" stroke-miterlimit="10" x1="101.09" y1="-123.214" x2="0.09" y2="-125.964"/>

					<line fill="none" stroke="#000000" stroke-width="0.5" stroke-miterlimit="10" x1="101.09" y1="-118.964" x2="0.09" y2="-121.714"/>

					<line fill="none" stroke="#000000" stroke-width="0.5" stroke-miterlimit="10" x1="101.34" y1="-126.464" x2="0.34" y2="-129.214"/>
			</g>
			<g clip-path="url(#SVGID_2_)">

					<line fill="none" stroke="#000000" stroke-width="0.5" stroke-miterlimit="10" x1="203.632" y1="-102.257" x2="200.882" y2="-1.257"/>

					<line fill="none" stroke="#000000" stroke-width="0.5" stroke-miterlimit="10" x1="301.757" y1="-98.132" x2="200.757" y2="-100.882"/>
			</g>
			<g clip-path="url(#SVGID_2_)">
				<g>

						<line fill="none" stroke="#000000" stroke-width="0.5" stroke-miterlimit="10" x1="103.632" y1="-102.257" x2="100.882" y2="-1.257"/>

						<line fill="none" stroke="#000000" stroke-width="0.5" stroke-miterlimit="10" x1="107.882" y1="-102.257" x2="105.132" y2="-1.257"/>
					<path fill="none" stroke="#000000" stroke-width="0.5" stroke-miterlimit="10" d="M166.632-101.007"/>

						<line fill="none" stroke="#000000" stroke-width="0.5" stroke-miterlimit="10" x1="169.882" y1="-101.007" x2="169.966" y2="-0.841"/>

						<line fill="none" stroke="#000000" stroke-width="0.5" stroke-miterlimit="10" x1="162.382" y1="-101.257" x2="159.632" y2="-0.257"/>

						<line fill="none" stroke="#000000" stroke-width="0.5" stroke-miterlimit="10" x1="128.882" y1="-101.257" x2="126.132" y2="-0.257"/>

						<line fill="none" stroke="#000000" stroke-width="0.5" stroke-miterlimit="10" x1="132.132" y1="-101.257" x2="128.884" y2="-0.674"/>

						<line fill="none" stroke="#000000" stroke-width="0.5" stroke-miterlimit="10" x1="125.632" y1="-101.507" x2="122.882" y2="-0.507"/>

						<line fill="none" stroke="#000000" stroke-width="0.5" stroke-miterlimit="10" x1="115.882" y1="-102.757" x2="113.132" y2="-1.757"/>

						<line fill="none" stroke="#000000" stroke-width="0.5" stroke-miterlimit="10" x1="119.132" y1="-102.757" x2="117.134" y2="-2.173"/>

						<line fill="none" stroke="#000000" stroke-width="0.5" stroke-miterlimit="10" x1="111.632" y1="-103.007" x2="108.882" y2="-2.007"/>

						<line fill="none" stroke="#000000" stroke-width="0.5" stroke-miterlimit="10" x1="154.882" y1="-101.757" x2="152.132" y2="-0.757"/>

						<line fill="none" stroke="#000000" stroke-width="0.5" stroke-miterlimit="10" x1="157.634" y1="-102.674" x2="154.884" y2="-1.674"/>

						<line fill="none" stroke="#000000" stroke-width="0.5" stroke-miterlimit="10" x1="150.632" y1="-102.007" x2="147.882" y2="-1.007"/>

						<line fill="none" stroke="#000000" stroke-width="0.5" stroke-miterlimit="10" x1="197.132" y1="-102.257" x2="194.382" y2="-1.257"/>

						<line fill="none" stroke="#000000" stroke-width="0.5" stroke-miterlimit="10" x1="135.632" y1="-101.007" x2="132.882" y2="-0.007"/>

						<line fill="none" stroke="#000000" stroke-width="0.5" stroke-miterlimit="10" x1="178.55" y1="-101.59" x2="175.8" y2="-0.59"/>

						<line fill="none" stroke="#000000" stroke-width="0.5" stroke-miterlimit="10" x1="182.8" y1="-101.59" x2="180.05" y2="-0.59"/>

						<line fill="none" stroke="#000000" stroke-width="0.5" stroke-miterlimit="10" x1="175.3" y1="-101.84" x2="172.55" y2="-0.84"/>

						<line fill="none" stroke="#000000" stroke-width="0.5" stroke-miterlimit="10" x1="193.8" y1="-101.09" x2="191.05" y2="-0.09"/>

						<line fill="none" stroke="#000000" stroke-width="0.5" stroke-miterlimit="10" x1="188.3" y1="-101.34" x2="185.55" y2="-0.34"/>
				</g>

					<line fill="none" stroke="#000000" stroke-width="0.5" stroke-miterlimit="10" x1="201.757" y1="-98.132" x2="100.757" y2="-100.882"/>
			</g>
			<g clip-path="url(#SVGID_2_)">
				<path fill="none" stroke="#000000" stroke-width="0.5" stroke-miterlimit="10" d="M101.382-102.007"/>

					<line fill="none" stroke="#000000" stroke-width="0.5" stroke-miterlimit="10" x1="101.757" y1="-98.132" x2="0.757" y2="-100.882"/>
			</g>
		</g>
	</g>
</pattern>
<rect y="0.171" fill="url(#uc_collective)" width="100" height="100"/>
</svg>
