<?xml version="1.0" encoding="utf-8"?>
<!DOCTYPE svg PUBLIC "-//W3C//DTD SVG 1.1//EN" "http://www.w3.org/Graphics/SVG/1.1/DTD/svg11.dtd">
<svg version="1.1" xmlns="http://www.w3.org/2000/svg" xmlns:xlink="http://www.w3.org/1999/xlink"
	 viewBox="0 0 100 100" xml:space="preserve">
<pattern  x="-1784" y="1148.171" width="100" height="100" patternUnits="userSpaceOnUse" id="uc_collective" viewBox="100.862 -200.949 100 100" overflow="visible">
	<g>
		<polygon fill="none" points="100.862,-200.949 200.862,-200.949 200.862,-100.949 100.862,-100.949 		"/>
		<g>
			<g>
				<path fill="none" stroke="#F2FF5B" stroke-width="0.5" stroke-miterlimit="10" d="M163.882-101.757"/>

					<line fill="none" stroke="#F2FF5B" stroke-width="0.5" stroke-miterlimit="10" x1="162.382" y1="-0.507" x2="159.632" y2="-101.507"/>

					<line fill="none" stroke="#F2FF5B" stroke-width="0.5" stroke-miterlimit="10" x1="128.882" y1="-0.507" x2="126.132" y2="-101.507"/>

					<line fill="none" stroke="#F2FF5B" stroke-width="0.5" stroke-miterlimit="10" x1="132.132" y1="-0.507" x2="128.884" y2="-101.09"/>

					<line fill="none" stroke="#F2FF5B" stroke-width="0.5" stroke-miterlimit="10" x1="125.632" y1="-0.257" x2="122.882" y2="-101.257"/>

					<line fill="none" stroke="#F2FF5B" stroke-width="0.5" stroke-miterlimit="10" x1="154.882" y1="-0.007" x2="152.132" y2="-101.007"/>

					<line fill="none" stroke="#F2FF5B" stroke-width="0.5" stroke-miterlimit="10" x1="139.882" y1="-1.007" x2="137.132" y2="-102.007"/>

					<line fill="none" stroke="#F2FF5B" stroke-width="0.5" stroke-miterlimit="10" x1="135.632" y1="-0.757" x2="132.882" y2="-101.757"/>

					<line fill="none" stroke="#F2FF5B" stroke-width="0.5" stroke-miterlimit="10" x1="178.55" y1="-0.174" x2="175.8" y2="-101.174"/>

					<line fill="none" stroke="#F2FF5B" stroke-width="0.5" stroke-miterlimit="10" x1="182.8" y1="-0.174" x2="180.05" y2="-101.174"/>

					<line fill="none" stroke="#F2FF5B" stroke-width="0.5" stroke-miterlimit="10" x1="191.05" y1="-1.423" x2="186.8" y2="-101.674"/>

					<line fill="none" stroke="#F2FF5B" stroke-width="0.5" stroke-miterlimit="10" x1="193.8" y1="-0.674" x2="191.05" y2="-101.674"/>

					<line fill="none" stroke="#F2FF5B" stroke-width="0.5" stroke-miterlimit="10" x1="188.3" y1="-0.424" x2="185.55" y2="-101.424"/>
			</g>
		</g>
		<g>
			<g>
				<path fill="none" stroke="#F2FF5B" stroke-width="0.5" stroke-miterlimit="10" d="M101.507-101.382"/>
			</g>
		</g>
		<g>
			<g>

					<line fill="none" stroke="#F2FF5B" stroke-width="0.5" stroke-miterlimit="10" x1="203.632" y1="-99.507" x2="200.882" y2="-200.507"/>
			</g>
			<g>

					<line fill="none" stroke="#F2FF5B" stroke-width="0.5" stroke-miterlimit="10" x1="301.757" y1="-103.632" x2="200.757" y2="-100.882"/>

					<line fill="none" stroke="#F2FF5B" stroke-width="0.5" stroke-miterlimit="10" x1="301.757" y1="-107.882" x2="200.757" y2="-105.132"/>

					<line fill="none" stroke="#F2FF5B" stroke-width="0.5" stroke-miterlimit="10" x1="300.507" y1="-166.632" x2="199.507" y2="-163.882"/>

					<line fill="none" stroke="#F2FF5B" stroke-width="0.5" stroke-miterlimit="10" x1="300.507" y1="-169.882" x2="200.341" y2="-169.966"/>

					<line fill="none" stroke="#F2FF5B" stroke-width="0.5" stroke-miterlimit="10" x1="300.757" y1="-162.382" x2="199.757" y2="-159.632"/>

					<line fill="none" stroke="#F2FF5B" stroke-width="0.5" stroke-miterlimit="10" x1="300.757" y1="-128.882" x2="199.757" y2="-126.132"/>

					<line fill="none" stroke="#F2FF5B" stroke-width="0.5" stroke-miterlimit="10" x1="300.757" y1="-132.132" x2="200.174" y2="-128.884"/>

					<line fill="none" stroke="#F2FF5B" stroke-width="0.5" stroke-miterlimit="10" x1="301.007" y1="-125.632" x2="200.007" y2="-122.882"/>

					<line fill="none" stroke="#F2FF5B" stroke-width="0.5" stroke-miterlimit="10" x1="301.257" y1="-154.882" x2="200.257" y2="-152.132"/>

					<line fill="none" stroke="#F2FF5B" stroke-width="0.5" stroke-miterlimit="10" x1="301.507" y1="-150.632" x2="200.507" y2="-147.882"/>
				<path fill="none" stroke="#F2FF5B" stroke-width="0.5" stroke-miterlimit="10" d="M200.507-198.632"/>

					<line fill="none" stroke="#F2FF5B" stroke-width="0.5" stroke-miterlimit="10" x1="301.757" y1="-197.132" x2="200.757" y2="-194.382"/>

					<line fill="none" stroke="#F2FF5B" stroke-width="0.5" stroke-miterlimit="10" x1="300.257" y1="-139.882" x2="199.257" y2="-137.132"/>

					<line fill="none" stroke="#F2FF5B" stroke-width="0.5" stroke-miterlimit="10" x1="300.257" y1="-143.132" x2="200.507" y2="-142.966"/>

					<line fill="none" stroke="#F2FF5B" stroke-width="0.5" stroke-miterlimit="10" x1="300.507" y1="-135.632" x2="199.507" y2="-132.882"/>

					<line fill="none" stroke="#F2FF5B" stroke-width="0.5" stroke-miterlimit="10" x1="301.09" y1="-178.55" x2="200.09" y2="-175.8"/>

					<line fill="none" stroke="#F2FF5B" stroke-width="0.5" stroke-miterlimit="10" x1="301.09" y1="-182.8" x2="200.09" y2="-180.05"/>

					<line fill="none" stroke="#F2FF5B" stroke-width="0.5" stroke-miterlimit="10" x1="301.34" y1="-175.3" x2="200.34" y2="-172.55"/>

					<line fill="none" stroke="#F2FF5B" stroke-width="0.5" stroke-miterlimit="10" x1="299.841" y1="-191.05" x2="199.59" y2="-186.8"/>

					<line fill="none" stroke="#F2FF5B" stroke-width="0.5" stroke-miterlimit="10" x1="300.59" y1="-193.8" x2="199.59" y2="-191.05"/>

					<line fill="none" stroke="#F2FF5B" stroke-width="0.5" stroke-miterlimit="10" x1="300.84" y1="-188.3" x2="199.84" y2="-185.55"/>
			</g>
		</g>
		<g>
			<g>

					<line fill="none" stroke="#F2FF5B" stroke-width="0.5" stroke-miterlimit="10" x1="103.632" y1="-99.507" x2="100.882" y2="-200.507"/>

					<line fill="none" stroke="#F2FF5B" stroke-width="0.5" stroke-miterlimit="10" x1="107.882" y1="-99.507" x2="105.132" y2="-200.507"/>
				<path fill="none" stroke="#F2FF5B" stroke-width="0.5" stroke-miterlimit="10" d="M163.882-201.757"/>
				<path fill="none" stroke="#F2FF5B" stroke-width="0.5" stroke-miterlimit="10" d="M166.632-100.757"/>

					<line fill="none" stroke="#F2FF5B" stroke-width="0.5" stroke-miterlimit="10" x1="169.882" y1="-100.757" x2="169.966" y2="-200.923"/>

					<line fill="none" stroke="#F2FF5B" stroke-width="0.5" stroke-miterlimit="10" x1="162.382" y1="-100.507" x2="159.632" y2="-201.507"/>

					<line fill="none" stroke="#F2FF5B" stroke-width="0.5" stroke-miterlimit="10" x1="128.882" y1="-100.507" x2="126.132" y2="-201.507"/>

					<line fill="none" stroke="#F2FF5B" stroke-width="0.5" stroke-miterlimit="10" x1="132.132" y1="-100.507" x2="128.884" y2="-201.09"/>

					<line fill="none" stroke="#F2FF5B" stroke-width="0.5" stroke-miterlimit="10" x1="125.632" y1="-100.257" x2="122.882" y2="-201.257"/>

					<line fill="none" stroke="#F2FF5B" stroke-width="0.5" stroke-miterlimit="10" x1="115.882" y1="-99.007" x2="113.132" y2="-200.007"/>

					<line fill="none" stroke="#F2FF5B" stroke-width="0.5" stroke-miterlimit="10" x1="119.132" y1="-99.007" x2="117.134" y2="-199.591"/>

					<line fill="none" stroke="#F2FF5B" stroke-width="0.5" stroke-miterlimit="10" x1="111.632" y1="-98.757" x2="108.882" y2="-199.757"/>

					<line fill="none" stroke="#F2FF5B" stroke-width="0.5" stroke-miterlimit="10" x1="154.882" y1="-100.007" x2="152.132" y2="-201.007"/>

					<line fill="none" stroke="#F2FF5B" stroke-width="0.5" stroke-miterlimit="10" x1="157.634" y1="-99.09" x2="154.884" y2="-200.09"/>

					<line fill="none" stroke="#F2FF5B" stroke-width="0.5" stroke-miterlimit="10" x1="150.632" y1="-99.757" x2="147.882" y2="-200.757"/>
				<path fill="none" stroke="#F2FF5B" stroke-width="0.5" stroke-miterlimit="10" d="M198.632-200.757"/>
				<path fill="none" stroke="#F2FF5B" stroke-width="0.5" stroke-miterlimit="10" d="M201.382-99.757"/>

					<line fill="none" stroke="#F2FF5B" stroke-width="0.5" stroke-miterlimit="10" x1="197.132" y1="-99.507" x2="194.382" y2="-200.507"/>

					<line fill="none" stroke="#F2FF5B" stroke-width="0.5" stroke-miterlimit="10" x1="139.882" y1="-101.007" x2="137.132" y2="-202.007"/>

					<line fill="none" stroke="#F2FF5B" stroke-width="0.5" stroke-miterlimit="10" x1="143.132" y1="-101.007" x2="142.966" y2="-200.757"/>

					<line fill="none" stroke="#F2FF5B" stroke-width="0.5" stroke-miterlimit="10" x1="135.632" y1="-100.757" x2="132.882" y2="-201.757"/>

					<line fill="none" stroke="#F2FF5B" stroke-width="0.5" stroke-miterlimit="10" x1="178.55" y1="-100.174" x2="175.8" y2="-201.174"/>

					<line fill="none" stroke="#F2FF5B" stroke-width="0.5" stroke-miterlimit="10" x1="182.8" y1="-100.174" x2="180.05" y2="-201.174"/>

					<line fill="none" stroke="#F2FF5B" stroke-width="0.5" stroke-miterlimit="10" x1="175.3" y1="-99.924" x2="172.55" y2="-200.924"/>

					<line fill="none" stroke="#F2FF5B" stroke-width="0.5" stroke-miterlimit="10" x1="191.05" y1="-101.423" x2="186.8" y2="-201.674"/>

					<line fill="none" stroke="#F2FF5B" stroke-width="0.5" stroke-miterlimit="10" x1="193.8" y1="-100.674" x2="191.05" y2="-201.674"/>

					<line fill="none" stroke="#F2FF5B" stroke-width="0.5" stroke-miterlimit="10" x1="188.3" y1="-100.424" x2="185.55" y2="-201.424"/>
			</g>
			<g>

					<line fill="none" stroke="#F2FF5B" stroke-width="0.5" stroke-miterlimit="10" x1="201.757" y1="-103.632" x2="100.757" y2="-100.882"/>

					<line fill="none" stroke="#F2FF5B" stroke-width="0.5" stroke-miterlimit="10" x1="201.757" y1="-107.882" x2="100.757" y2="-105.132"/>

					<line fill="none" stroke="#F2FF5B" stroke-width="0.5" stroke-miterlimit="10" x1="200.507" y1="-166.632" x2="99.507" y2="-163.882"/>

					<line fill="none" stroke="#F2FF5B" stroke-width="0.5" stroke-miterlimit="10" x1="200.507" y1="-169.882" x2="100.341" y2="-169.966"/>

					<line fill="none" stroke="#F2FF5B" stroke-width="0.5" stroke-miterlimit="10" x1="200.757" y1="-162.382" x2="99.757" y2="-159.632"/>

					<line fill="none" stroke="#F2FF5B" stroke-width="0.5" stroke-miterlimit="10" x1="200.757" y1="-128.882" x2="99.757" y2="-126.132"/>

					<line fill="none" stroke="#F2FF5B" stroke-width="0.5" stroke-miterlimit="10" x1="200.757" y1="-132.132" x2="100.174" y2="-128.884"/>

					<line fill="none" stroke="#F2FF5B" stroke-width="0.5" stroke-miterlimit="10" x1="201.007" y1="-125.632" x2="100.007" y2="-122.882"/>
				<path fill="none" stroke="#F2FF5B" stroke-width="0.5" stroke-miterlimit="10" d="M101.257-113.132"/>
				<path fill="none" stroke="#F2FF5B" stroke-width="0.5" stroke-miterlimit="10" d="M202.257-115.882"/>

					<line fill="none" stroke="#F2FF5B" stroke-width="0.5" stroke-miterlimit="10" x1="202.257" y1="-119.132" x2="101.673" y2="-117.134"/>

					<line fill="none" stroke="#F2FF5B" stroke-width="0.5" stroke-miterlimit="10" x1="202.507" y1="-111.632" x2="101.507" y2="-108.882"/>

					<line fill="none" stroke="#F2FF5B" stroke-width="0.5" stroke-miterlimit="10" x1="201.257" y1="-154.882" x2="100.257" y2="-152.132"/>

					<line fill="none" stroke="#F2FF5B" stroke-width="0.5" stroke-miterlimit="10" x1="202.174" y1="-157.634" x2="101.174" y2="-154.884"/>

					<line fill="none" stroke="#F2FF5B" stroke-width="0.5" stroke-miterlimit="10" x1="201.507" y1="-150.632" x2="100.507" y2="-147.882"/>
				<path fill="none" stroke="#F2FF5B" stroke-width="0.5" stroke-miterlimit="10" d="M100.507-198.632"/>
				<path fill="none" stroke="#F2FF5B" stroke-width="0.5" stroke-miterlimit="10" d="M201.507-201.382"/>

					<line fill="none" stroke="#F2FF5B" stroke-width="0.5" stroke-miterlimit="10" x1="201.757" y1="-197.132" x2="100.757" y2="-194.382"/>

					<line fill="none" stroke="#F2FF5B" stroke-width="0.5" stroke-miterlimit="10" x1="200.257" y1="-139.882" x2="99.257" y2="-137.132"/>

					<line fill="none" stroke="#F2FF5B" stroke-width="0.5" stroke-miterlimit="10" x1="200.257" y1="-143.132" x2="100.507" y2="-142.966"/>

					<line fill="none" stroke="#F2FF5B" stroke-width="0.5" stroke-miterlimit="10" x1="200.507" y1="-135.632" x2="99.507" y2="-132.882"/>

					<line fill="none" stroke="#F2FF5B" stroke-width="0.5" stroke-miterlimit="10" x1="201.09" y1="-178.55" x2="100.09" y2="-175.8"/>

					<line fill="none" stroke="#F2FF5B" stroke-width="0.5" stroke-miterlimit="10" x1="201.09" y1="-182.8" x2="100.09" y2="-180.05"/>

					<line fill="none" stroke="#F2FF5B" stroke-width="0.5" stroke-miterlimit="10" x1="201.34" y1="-175.3" x2="100.34" y2="-172.55"/>

					<line fill="none" stroke="#F2FF5B" stroke-width="0.5" stroke-miterlimit="10" x1="199.841" y1="-191.05" x2="99.59" y2="-186.8"/>

					<line fill="none" stroke="#F2FF5B" stroke-width="0.5" stroke-miterlimit="10" x1="200.59" y1="-193.8" x2="99.59" y2="-191.05"/>

					<line fill="none" stroke="#F2FF5B" stroke-width="0.5" stroke-miterlimit="10" x1="200.84" y1="-188.3" x2="99.84" y2="-185.55"/>
			</g>
		</g>
		<g>
			<g>

					<line fill="none" stroke="#F2FF5B" stroke-width="0.5" stroke-miterlimit="10" x1="101.757" y1="-103.632" x2="0.757" y2="-100.882"/>

					<line fill="none" stroke="#F2FF5B" stroke-width="0.5" stroke-miterlimit="10" x1="101.757" y1="-107.882" x2="0.757" y2="-105.132"/>

					<line fill="none" stroke="#F2FF5B" stroke-width="0.5" stroke-miterlimit="10" x1="101.007" y1="-125.632" x2="0.007" y2="-122.882"/>
				<path fill="none" stroke="#F2FF5B" stroke-width="0.5" stroke-miterlimit="10" d="M102.257-115.882"/>

					<line fill="none" stroke="#F2FF5B" stroke-width="0.5" stroke-miterlimit="10" x1="102.257" y1="-119.132" x2="1.673" y2="-117.134"/>

					<line fill="none" stroke="#F2FF5B" stroke-width="0.5" stroke-miterlimit="10" x1="102.507" y1="-111.632" x2="1.507" y2="-108.882"/>

					<line fill="none" stroke="#F2FF5B" stroke-width="0.5" stroke-miterlimit="10" x1="101.257" y1="-154.882" x2="0.257" y2="-152.132"/>

					<line fill="none" stroke="#F2FF5B" stroke-width="0.5" stroke-miterlimit="10" x1="102.174" y1="-157.634" x2="1.174" y2="-154.884"/>

					<line fill="none" stroke="#F2FF5B" stroke-width="0.5" stroke-miterlimit="10" x1="101.507" y1="-150.632" x2="0.507" y2="-147.882"/>

					<line fill="none" stroke="#F2FF5B" stroke-width="0.5" stroke-miterlimit="10" x1="101.757" y1="-197.132" x2="0.757" y2="-194.382"/>

					<line fill="none" stroke="#F2FF5B" stroke-width="0.5" stroke-miterlimit="10" x1="101.09" y1="-178.55" x2="0.09" y2="-175.8"/>

					<line fill="none" stroke="#F2FF5B" stroke-width="0.5" stroke-miterlimit="10" x1="101.09" y1="-182.8" x2="0.09" y2="-180.05"/>

					<line fill="none" stroke="#F2FF5B" stroke-width="0.5" stroke-miterlimit="10" x1="101.34" y1="-175.3" x2="0.34" y2="-172.55"/>
			</g>
		</g>
		<g>
			<g>

					<line fill="none" stroke="#F2FF5B" stroke-width="0.5" stroke-miterlimit="10" x1="203.632" y1="-199.507" x2="200.882" y2="-300.507"/>
			</g>
			<g>

					<line fill="none" stroke="#F2FF5B" stroke-width="0.5" stroke-miterlimit="10" x1="301.757" y1="-203.632" x2="200.757" y2="-200.882"/>
			</g>
		</g>
		<g>
			<g>

					<line fill="none" stroke="#F2FF5B" stroke-width="0.5" stroke-miterlimit="10" x1="103.632" y1="-199.507" x2="100.882" y2="-300.507"/>

					<line fill="none" stroke="#F2FF5B" stroke-width="0.5" stroke-miterlimit="10" x1="107.882" y1="-199.507" x2="105.132" y2="-300.507"/>
				<path fill="none" stroke="#F2FF5B" stroke-width="0.5" stroke-miterlimit="10" d="M166.632-200.757"/>

					<line fill="none" stroke="#F2FF5B" stroke-width="0.5" stroke-miterlimit="10" x1="169.882" y1="-200.757" x2="169.966" y2="-300.923"/>

					<line fill="none" stroke="#F2FF5B" stroke-width="0.5" stroke-miterlimit="10" x1="162.382" y1="-200.507" x2="159.632" y2="-301.507"/>

					<line fill="none" stroke="#F2FF5B" stroke-width="0.5" stroke-miterlimit="10" x1="128.882" y1="-200.507" x2="126.132" y2="-301.507"/>

					<line fill="none" stroke="#F2FF5B" stroke-width="0.5" stroke-miterlimit="10" x1="132.132" y1="-200.507" x2="128.884" y2="-301.09"/>

					<line fill="none" stroke="#F2FF5B" stroke-width="0.5" stroke-miterlimit="10" x1="125.632" y1="-200.257" x2="122.882" y2="-301.257"/>

					<line fill="none" stroke="#F2FF5B" stroke-width="0.5" stroke-miterlimit="10" x1="115.882" y1="-199.007" x2="113.132" y2="-300.007"/>

					<line fill="none" stroke="#F2FF5B" stroke-width="0.5" stroke-miterlimit="10" x1="119.132" y1="-199.007" x2="117.134" y2="-299.591"/>

					<line fill="none" stroke="#F2FF5B" stroke-width="0.5" stroke-miterlimit="10" x1="111.632" y1="-198.757" x2="108.882" y2="-299.757"/>

					<line fill="none" stroke="#F2FF5B" stroke-width="0.5" stroke-miterlimit="10" x1="154.882" y1="-200.007" x2="152.132" y2="-301.007"/>

					<line fill="none" stroke="#F2FF5B" stroke-width="0.5" stroke-miterlimit="10" x1="157.634" y1="-199.09" x2="154.884" y2="-300.09"/>

					<line fill="none" stroke="#F2FF5B" stroke-width="0.5" stroke-miterlimit="10" x1="150.632" y1="-199.757" x2="147.882" y2="-300.757"/>

					<line fill="none" stroke="#F2FF5B" stroke-width="0.5" stroke-miterlimit="10" x1="197.132" y1="-199.507" x2="194.382" y2="-300.507"/>

					<line fill="none" stroke="#F2FF5B" stroke-width="0.5" stroke-miterlimit="10" x1="135.632" y1="-200.757" x2="132.882" y2="-301.757"/>

					<line fill="none" stroke="#F2FF5B" stroke-width="0.5" stroke-miterlimit="10" x1="178.55" y1="-200.174" x2="175.8" y2="-301.174"/>

					<line fill="none" stroke="#F2FF5B" stroke-width="0.5" stroke-miterlimit="10" x1="182.8" y1="-200.174" x2="180.05" y2="-301.174"/>

					<line fill="none" stroke="#F2FF5B" stroke-width="0.5" stroke-miterlimit="10" x1="175.3" y1="-199.924" x2="172.55" y2="-300.924"/>

					<line fill="none" stroke="#F2FF5B" stroke-width="0.5" stroke-miterlimit="10" x1="193.8" y1="-200.674" x2="191.05" y2="-301.674"/>

					<line fill="none" stroke="#F2FF5B" stroke-width="0.5" stroke-miterlimit="10" x1="188.3" y1="-200.424" x2="185.55" y2="-301.424"/>
			</g>
			<g>

					<line fill="none" stroke="#F2FF5B" stroke-width="0.5" stroke-miterlimit="10" x1="201.757" y1="-203.632" x2="100.757" y2="-200.882"/>
			</g>
		</g>
		<g>
			<g>
				<path fill="none" stroke="#F2FF5B" stroke-width="0.5" stroke-miterlimit="10" d="M101.382-199.757"/>
			</g>
			<g>

					<line fill="none" stroke="#F2FF5B" stroke-width="0.5" stroke-miterlimit="10" x1="101.757" y1="-203.632" x2="0.757" y2="-200.882"/>
			</g>
		</g>
	</g>
</pattern>
<g id="Grafik">
	<pattern  id="SVGID_1_" xlink:href="#uc_collective" patternTransform="matrix(1 0 0 1 1 0)">
	</pattern>
	<rect y="0.171" fill="url(#SVGID_1_)" width="100" height="100"/>
</g>
</svg>
