<?xml version="1.0" encoding="utf-8"?>
<!DOCTYPE svg PUBLIC "-//W3C//DTD SVG 1.1//EN" "http://www.w3.org/Graphics/SVG/1.1/DTD/svg11.dtd">
<svg version="1.1" xmlns="http://www.w3.org/2000/svg" xmlns:xlink="http://www.w3.org/1999/xlink"
	 viewBox="0 0 51.5 450.33" xml:space="preserve">
	<g>
		<g>
			<path d="M17.33,15.042v12.679h-4.154V9.077h6.604l6.18,12.358l6.178-12.358l6.822,0v18.645l-5.437-5.458v-7.221l-6.02,12.679
				h-3.835L17.33,15.042z"/>
			<path d="M22.711,36.65l9.324-18.644h5.414l9.322,18.645h-5.833l-1.758-3.516h-9.697l-1.757,3.516L22.711,36.65z M31.4,29.299
				h5.863l-2.933-5.86L31.4,29.299z"/>
			<path d="M5.216,54.743V35.865h7.497l9.088,13.862V35.865h4.207v18.878H18.51L9.523,40.882v13.861H5.216z"/>
			<path d="M25.84,63.707V44.795h7.51l9.105,13.887V44.795h4.216v18.912H39.16L30.193,49.82v13.887H25.84z"/>
			<path d="M21.699,53.724v7.298h8.494v-7.298h5.703v18.645h-5.703v-7.512h-8.494v7.512h-5.671V53.724H21.699z"/>
			<path d="M25.975,90.228V71.583h20.837v3.836H32.105v3.462h12.762v3.835l-12.762,0v3.676h14.706v3.835H25.975z"/>
			<path d="M28.542,80.48v18.646h-5.434V80.48H28.542z"/>
			<path d="M9.312,103.577v12.677H5.156V97.609h6.605l6.182,12.358l6.18-12.358h6.816v18.645h-5.434v-12.677l-6.017,12.677h-3.837
				L9.312,103.577z"/>
		</g>
		<g>
			<path d="M36.313,143.045v15.184c0,1.273-0.34,2.248-1.012,2.92c-0.674,0.674-1.645,1.012-2.922,1.012H19.162
				c-1.275,0-2.248-0.338-2.922-1.012c-0.674-0.672-1.012-1.646-1.012-2.92v-15.184h5.876v14.363c0,0.545,0.276,0.82,0.82,0.82
				h7.648c0.544,0,0.819-0.275,0.819-0.82v-14.363H36.313z"/>
			<path d="M5.216,179.74v-18.643h16.088c1.243,0,2.192,0.33,2.851,0.986c0.655,0.656,0.984,1.607,0.984,2.85v10.973
				c0,1.244-0.329,2.191-0.984,2.852c-0.658,0.656-1.607,0.982-2.851,0.982H5.216z M10.65,175.906h8.256
				c0.531,0,0.797-0.268,0.797-0.799v-9.375c0-0.533-0.266-0.799-0.797-0.799H10.65V175.906z"/>
			<path d="M15.713,197.453v-18.645h20.836v3.834H21.842v3.465h12.762v3.836H21.842v3.674h14.707v3.836H15.713z"/>
			<path d="M26.965,214.344v-18.645h16.09c1.242,0,2.191,0.33,2.851,0.988c0.655,0.658,0.984,1.605,0.984,2.85v1.732
				c0,1.242-0.329,2.182-0.984,2.822c-0.659,0.639-1.608,0.959-2.851,0.959v0.266c1.242,0,2.191,0.324,2.851,0.971
				c0.655,0.648,0.984,1.598,0.984,2.838v5.219h-5.437v-6.707c0-0.537-0.266-0.803-0.797-0.803h-8.258v7.51H26.965z
				 M32.398,202.998h8.258c0.531,0,0.797-0.266,0.797-0.797v-1.865c0-0.535-0.266-0.799-0.797-0.799h-8.258V202.998z"/>
			<path d="M25.904,170.969v-18.877H33.4l9.09,13.861v-13.861h4.208v18.877h-7.496l-8.987-13.861v13.861H25.904z"/>
			<rect x="30" y="156" width="1" height="3"/>
		</g>
		<g>
			<path d="M15.924,256.125v-10.977c0-1.24,0.325-2.189,0.982-2.848c0.656-0.658,1.607-0.986,2.852-0.986h12.251
				c1.243,0,2.192,0.328,2.849,0.986c0.659,0.656,0.986,1.607,0.986,2.848v1.918H30.41v-1.117c0-0.531-0.265-0.801-0.797-0.801
				h-7.461c-0.531,0-0.797,0.27-0.797,0.801v9.377c0,0.531,0.266,0.799,0.797,0.799h7.461c0.532,0,0.797-0.268,0.797-0.801v-1.119
				h5.434v1.92c0,1.242-0.327,2.193-0.986,2.85c-0.656,0.658-1.605,0.984-2.849,0.984H19.758c-1.244,0-2.195-0.328-2.852-0.984
				C16.249,258.318,15.924,257.367,15.924,256.125z"/>
			<path d="M26.709,264.973v-11.045c0-1.254,0.328-2.209,0.992-2.873c0.662-0.66,1.615-0.99,2.867-0.99h12.335
				c1.253,0,2.204,0.33,2.868,0.99c0.662,0.664,0.994,1.619,0.994,2.873v11.045c0,1.25-0.332,2.209-0.994,2.869
				c-0.664,0.662-1.615,0.992-2.868,0.992H30.568c-1.252,0-2.205-0.33-2.867-0.992C27.037,267.182,26.709,266.223,26.709,264.973z
				 M32.178,264.168c0,0.537,0.268,0.805,0.805,0.805h7.51c0.533,0,0.803-0.268,0.803-0.805v-9.438c0-0.537-0.27-0.531-0.803-0.531
				h-7.51c-0.537,0-0.805-0.006-0.805,0.531V264.168z"/>
			<path d="M5.201,300.732v-1.918h5.433v1.117c0,0.533,0.269,0.801,0.8,0.801h7.459c0.531,0,0.8-0.268,0.8-0.801v-2.078
				c0-0.531-0.269-0.797-0.8-0.797H9.037c-1.243,0-2.196-0.33-2.852-0.988c-0.658-0.654-0.984-1.605-0.984-2.85v-3.461
				c0-1.242,0.326-2.191,0.984-2.848c0.655-0.66,1.608-0.988,2.852-0.988h12.252c1.241,0,2.192,0.328,2.85,0.988
				c0.656,0.656,0.986,1.605,0.986,2.848v1.916h-5.433v-1.117c0-0.531-0.269-0.799-0.8-0.799h-7.459c-0.531,0-0.8,0.268-0.8,0.799
				v1.867c0,0.529,0.269,0.795,0.8,0.795h9.855c1.241,0,2.192,0.332,2.85,0.988c0.656,0.658,0.986,1.605,0.986,2.85v3.676
				c0,1.242-0.33,2.191-0.986,2.85c-0.657,0.656-1.608,0.984-2.85,0.984H9.037c-1.243,0-2.196-0.328-2.852-0.984
				C5.527,302.924,5.201,301.975,5.201,300.732z"/>
			<path d="M26.941,298.627v-3.834h19.871v3.834h-7.217v14.809H34.16v-14.809H26.941z"/>
			<path d="M15.964,331.457v-18.645h16.089c1.243,0,2.196,0.33,2.849,0.986c0.659,0.658,0.987,1.607,0.987,2.85v1.732
				c0,1.242-0.328,2.184-0.987,2.822c-0.652,0.639-1.605,0.959-2.849,0.959v0.266c1.243,0,2.196,0.324,2.849,0.973
				c0.659,0.648,0.987,1.594,0.987,2.838v5.219h-5.432v-6.711c0-0.533-0.27-0.799-0.801-0.799h-8.257v7.51H15.964z M21.399,320.111
				h8.257c0.531,0,0.801-0.266,0.801-0.799v-1.865c0-0.533-0.27-0.799-0.801-0.799h-8.257V320.111z"/>
			<path d="M26.227,330.563v15.186c0,1.271-0.338,2.246-1.012,2.918c-0.673,0.676-1.645,1.012-2.922,1.012H9.074
				c-1.273,0-2.247-0.336-2.92-1.012c-0.672-0.672-1.01-1.646-1.01-2.918v-15.186h5.875v14.363c0,0.545,0.275,0.822,0.82,0.822
				h7.646c0.546,0,0.819-0.277,0.819-0.822v-14.363H26.227z"/>
			<path d="M15.758,287.031v-18.879h7.496l9.089,13.861v-13.861h4.206v18.879h-7.498l-8.983-13.861v13.861H15.758z"/>
			<path d="M5.047,429.777v-18.879h7.5l9.088,13.861v-13.861h4.207v18.879h-7.497l-8.987-13.861v13.861H5.047z"/>
			<path d="M16.023,363.314v-10.977c0-1.24,0.327-2.191,0.983-2.848c0.657-0.656,1.608-0.988,2.854-0.988h12.251
				c1.24,0,2.189,0.332,2.849,0.988c0.656,0.656,0.985,1.607,0.985,2.848v1.92h-5.434v-1.119c0-0.533-0.267-0.801-0.799-0.801
				h-7.458c-0.531,0-0.8,0.268-0.8,0.801v9.377c0,0.531,0.269,0.799,0.8,0.797h7.458c0.532,0,0.799-0.266,0.799-0.797v-1.119h5.434
				v1.916c0,1.244-0.329,2.193-0.985,2.852c-0.659,0.656-1.608,0.986-2.849,0.986H19.86c-1.245,0-2.196-0.328-2.854-0.986
				C16.351,365.506,16.023,364.557,16.023,363.314z"/>
			<path d="M26.643,369.496v-3.834h19.87v3.834h-7.219v14.811H33.86v-14.811H26.643z"/>
			<path d="M28.645,375.047v18.646H23.21v-18.646H28.645z"/>
			<path d="M26.429,408.004v-10.975c0-1.242,0.327-2.191,0.985-2.85c0.658-0.656,1.607-0.986,2.85-0.986h12.253
				c1.244,0,2.191,0.33,2.85,0.986c0.657,0.658,0.985,1.607,0.985,2.85v10.975c0,1.242-0.328,2.191-0.985,2.85
				c-0.658,0.656-1.605,0.984-2.85,0.984H30.264c-1.242,0-2.191-0.328-2.85-0.984C26.756,410.195,26.429,409.246,26.429,408.004z
				 M31.863,407.203c0,0.533,0.266,0.801,0.797,0.801h7.459c0.533,0,0.799-0.268,0.799-0.801v-9.373
				c0-0.535-0.266-0.801-0.799-0.801H32.66c-0.531,0-0.797,0.266-0.797,0.801V407.203z"/>
		</g>
	</g>
</svg>
