<?xml version="1.0" encoding="utf-8"?>
<!DOCTYPE svg PUBLIC "-//W3C//DTD SVG 1.1//EN" "http://www.w3.org/Graphics/SVG/1.1/DTD/svg11.dtd">
<svg version="1.1" xmlns="http://www.w3.org/2000/svg" xmlns:xlink="http://www.w3.org/1999/xlink"
	 viewBox="0 0 50 413" xml:space="preserve">
	<g>
		<g>
			<path d="M17.237,25.107v12.852h-4.212v-18.9h6.696l6.264,12.528l6.265-12.528h6.912v18.9h-5.509V25.107l-6.102,12.852h-3.888
				L17.237,25.107z"/>
			<path d="M20.958,39.792l9.45-18.9h4.887l9.45,18.9h-5.913l-1.782-3.564h-9.828l-1.782,3.564H20.958z M29.166,32.34h5.939
				l-2.97-5.94L29.166,32.34z"/>
			<path d="M6.525,47.625v-18.9h7.507l9.099,13.878V28.725h4.212v18.9h-7.506l-9.1-13.878v13.878H6.525z"/>
			<path d="M23.899,54.334v-18.9h7.507l9.099,13.877V35.434h4.212v18.9h-7.506l-9.1-13.878v13.878H23.899z"/>
			<path d="M21.535,45.892v7.398h9.126v-7.398h5.508v18.9h-5.508v-7.614h-9.126v7.614h-5.509v-18.9H21.535z"/>
			<path d="M24.192,70.126v-18.9h20.143v3.889H29.701v3.51h12.663v3.888H29.701v3.727h14.634v3.888H24.192z"/>
			<path d="M31.201,57.058v18.9h-5.509v-18.9H31.201z"/>
			<path d="M16.903,75.189v12.852h-4.212v-18.9h6.696l6.264,12.528l6.265-12.528h6.912v18.9h-5.509V75.189l-6.102,12.852H23.33
				L16.903,75.189z"/>
		</g>
		<g>
			<path d="M35.167,117.225v15.014c0,1.26-0.333,2.223-0.999,2.889s-1.63,0.998-2.89,0.998h-12.42c-1.26,0-2.223-0.332-2.889-0.998
				s-0.999-1.629-0.999-2.889v-15.014h5.508v14.203c0,0.539,0.271,0.811,0.811,0.811h7.56c0.54,0,0.811-0.271,0.811-0.811v-14.203
				H35.167z"/>
			<path d="M23.608,151.208v-18.9h7.507l9.099,13.878v-13.878h4.212v18.9H36.92l-9.1-13.878v13.878H23.608z"/>
			<path d="M6.358,157.625v-18.9h16.309c1.26,0,2.223,0.334,2.889,0.999c0.666,0.667,0.999,1.63,0.999,2.89v11.124
				c0,1.26-0.333,2.223-0.999,2.889s-1.629,0.999-2.889,0.999H6.358z M11.867,153.737h8.369c0.54,0,0.811-0.271,0.811-0.811v-9.504
				c0-0.54-0.271-0.81-0.811-0.81h-8.369V153.737z"/>
			<path d="M24.191,162.125v-18.9h20.143v3.889H29.7v3.51h12.663v3.888H29.7v3.727h14.634v3.888H24.191z"/>
			<path d="M16.025,177.125v-18.9h16.309c1.26,0,2.223,0.334,2.889,0.999c0.666,0.667,0.999,1.63,0.999,2.89v1.755
				c0,1.26-0.333,2.214-0.999,2.862c-0.666,0.647-1.629,0.972-2.889,0.972v0.27c1.26,0,2.223,0.329,2.889,0.985
				c0.666,0.658,0.999,1.616,0.999,2.876v5.292h-5.508v-6.804c0-0.54-0.271-0.811-0.811-0.811h-8.369v7.614H16.025z
				 M21.534,165.623h8.369c0.54,0,0.811-0.271,0.811-0.81v-1.891c0-0.54-0.271-0.81-0.811-0.81h-8.369V165.623z"/>
		</g>
		<g>
			<path d="M15.447,221.03v-11.124c0-1.26,0.332-2.223,0.998-2.89c0.666-0.665,1.629-0.999,2.89-0.999h12.42
				c1.26,0,2.223,0.334,2.889,0.999c0.666,0.667,0.999,1.63,0.999,2.89v1.943h-5.508v-1.134c0-0.54-0.27-0.81-0.81-0.81h-7.561
				c-0.54,0-0.81,0.27-0.81,0.81v9.504c0,0.54,0.27,0.811,0.81,0.811h7.561c0.54,0,0.81-0.271,0.81-0.811v-1.134h5.508v1.944
				c0,1.26-0.333,2.223-0.999,2.889s-1.629,0.999-2.889,0.999h-12.42c-1.261,0-2.224-0.333-2.89-0.999S15.447,222.29,15.447,221.03
				z"/>
			<path d="M24.197,229.238v-11.124c0-1.26,0.332-2.223,0.998-2.89c0.666-0.665,1.629-0.999,2.89-0.999h12.42
				c1.26,0,2.223,0.334,2.889,0.999c0.666,0.667,0.999,1.63,0.999,2.89v11.124c0,1.26-0.333,2.223-0.999,2.889
				s-1.629,0.999-2.889,0.999h-12.42c-1.261,0-2.224-0.333-2.89-0.999S24.197,230.498,24.197,229.238z M29.705,228.428
				c0,0.54,0.27,0.811,0.81,0.811h7.561c0.54,0,0.81-0.271,0.81-0.811v-9.504c0-0.54-0.27-0.81-0.81-0.81h-7.561
				c-0.54,0-0.81,0.27-0.81,0.81V228.428z"/>
			<path d="M6.358,358.793v-18.9h7.507l9.099,13.878v-13.878h4.212v18.9H19.67l-9.1-13.878v13.878H6.358z"/>
			<path d="M6.451,251.905v-1.944h5.508v1.134c0,0.54,0.27,0.811,0.81,0.811h7.561c0.54,0,0.81-0.271,0.81-0.811v-2.105
				c0-0.54-0.27-0.811-0.81-0.811h-9.99c-1.26,0-2.224-0.333-2.889-0.999c-0.667-0.665-0.999-1.629-0.999-2.889v-3.51
				c0-1.26,0.332-2.223,0.999-2.89c0.665-0.665,1.629-0.999,2.889-0.999h12.42c1.26,0,2.223,0.334,2.889,0.999
				c0.666,0.667,0.999,1.63,0.999,2.89v1.943h-5.508v-1.134c0-0.54-0.27-0.81-0.81-0.81h-7.561c-0.54,0-0.81,0.27-0.81,0.81v1.891
				c0,0.539,0.27,0.81,0.81,0.81h9.99c1.26,0,2.223,0.333,2.889,0.999s0.999,1.629,0.999,2.889v3.727
				c0,1.26-0.333,2.223-0.999,2.889s-1.629,0.999-2.889,0.999h-12.42c-1.26,0-2.224-0.333-2.889-0.999
				C6.783,254.128,6.451,253.165,6.451,251.905z"/>
			<path d="M14.997,251.447v-3.889h20.142v3.889h-7.316v15.012h-5.509v-15.012H14.997z"/>
			<path d="M24.066,271.543v-18.9h16.309c1.26,0,2.223,0.334,2.889,0.999c0.666,0.667,0.999,1.63,0.999,2.89v1.755
				c0,1.26-0.333,2.214-0.999,2.862c-0.666,0.647-1.629,0.972-2.889,0.972v0.27c1.26,0,2.223,0.329,2.889,0.985
				c0.666,0.658,0.999,1.616,0.999,2.876v5.292h-5.508v-6.804c0-0.54-0.271-0.811-0.811-0.811h-8.369v7.614H24.066z
				 M29.575,260.041h8.369c0.54,0,0.811-0.271,0.811-0.81v-1.891c0-0.54-0.271-0.81-0.811-0.81h-8.369V260.041z"/>
			<path d="M26.584,262.559v15.013c0,1.26-0.333,2.223-0.999,2.889s-1.63,0.999-2.89,0.999h-12.42c-1.26,0-2.223-0.333-2.889-0.999
				s-0.999-1.629-0.999-2.889v-15.013h5.508v14.202c0,0.54,0.271,0.811,0.811,0.811h7.56c0.54,0,0.811-0.271,0.811-0.811v-14.202
				H26.584z"/>
			<path d="M14.947,285.071v-11.124c0-1.26,0.332-2.223,0.998-2.89c0.666-0.665,1.629-0.999,2.89-0.999h12.42
				c1.26,0,2.223,0.334,2.889,0.999c0.666,0.667,0.999,1.63,0.999,2.89v1.943h-5.508v-1.134c0-0.54-0.27-0.81-0.81-0.81h-7.561
				c-0.54,0-0.81,0.27-0.81,0.81v9.504c0,0.54,0.27,0.811,0.81,0.811h7.561c0.54,0,0.81-0.271,0.81-0.811v-1.134h5.508v1.944
				c0,1.26-0.333,2.223-0.999,2.889s-1.629,0.999-2.889,0.999h-12.42c-1.261,0-2.224-0.333-2.89-0.999
				S14.947,286.331,14.947,285.071z"/>
			<path d="M24.247,286.114v-3.889h20.142v3.889h-7.316v15.012h-5.509v-15.012H24.247z"/>
			<path d="M27.783,295.226v18.9h-5.509v-18.9H27.783z"/>
			<path d="M24.03,332.488v-11.124c0-1.26,0.332-2.223,0.998-2.89c0.666-0.665,1.629-0.999,2.89-0.999h12.42
				c1.26,0,2.223,0.334,2.889,0.999c0.666,0.667,0.999,1.63,0.999,2.89v11.124c0,1.26-0.333,2.223-0.999,2.889
				s-1.629,0.999-2.889,0.999h-12.42c-1.261,0-2.224-0.333-2.89-0.999S24.03,333.748,24.03,332.488z M29.538,331.678
				c0,0.54,0.27,0.811,0.81,0.811h7.561c0.54,0,0.81-0.271,0.81-0.811v-9.504c0-0.54-0.27-0.81-0.81-0.81h-7.561
				c-0.54,0-0.81,0.27-0.81,0.81V331.678z"/>
			<path d="M14.899,245.001v-18.9h7.507l9.099,13.878v-13.878h4.212v18.9h-7.506l-9.1-13.878v13.878H14.899z"/>
		</g>
	</g>
</svg>
