<?xml version="1.0" encoding="utf-8"?>
<!DOCTYPE svg PUBLIC "-//W3C//DTD SVG 1.1//EN" "http://www.w3.org/Graphics/SVG/1.1/DTD/svg11.dtd">
<svg version="1.1" xmlns="http://www.w3.org/2000/svg" xmlns:xlink="http://www.w3.org/1999/xlink"
	 viewBox="0 0 51.5 522" xml:space="preserve">
	<g>
		<g>
			<path d="M14.861,7.401v15.725H9.709V0.002H17.9l7.666,15.327l7.663-15.327h8.459v23.124l-6.741-6.77V7.401l-7.466,15.725h-4.757
				L14.861,7.401z"/>
			<path d="M21.537,34.2L33.1,11.077h6.715l11.563,23.124h-7.234l-2.18-4.361H29.937l-2.18,4.361L21.537,34.2z M32.314,25.083h7.27
				l-3.635-7.268L32.314,25.083z"/>
			<path d="M-0.164,56.639V33.226h9.301l11.27,17.192V33.226h5.219v23.413h-9.299L5.181,39.447v17.191H-0.164z"/>
			<path d="M25.415,67.757V44.301h9.317l11.293,17.224V44.301h5.229v23.457h-9.316L30.816,50.533v17.224H25.415z"/>
			<path d="M20.28,55.375v9.052h10.536v-9.052h7.074V78.5h-7.074v-9.316H20.28V78.5h-7.032V55.375H20.28z"/>
			<path d="M25.586,100.65V77.525h25.842v4.758h-18.24v4.294h15.828v4.756H33.188v4.56h18.24v4.757H25.586z"/>
			<path d="M28.768,88.56v23.125h-6.738V88.56H28.768z"/>
			<path d="M4.917,117.205v15.724h-5.153v-23.125h8.193l7.664,15.329l7.666-15.329h8.455v23.125h-6.74v-15.724l-7.463,15.724
				h-4.758L4.917,117.205z"/>
		</g>
		<g>
			<path d="M38.405,166.154v18.834c0,1.578-0.419,2.787-1.253,3.622c-0.837,0.835-2.043,1.253-3.627,1.253H17.133
				c-1.58,0-2.785-0.418-3.623-1.253c-0.836-0.835-1.252-2.044-1.252-3.622v-18.834h7.286v17.815c0,0.677,0.341,1.019,1.017,1.019
				h9.485c0.677,0,1.017-0.342,1.017-1.019v-17.815H38.405z"/>
			<path d="M-0.164,211.669v-23.123h19.953c1.543,0,2.721,0.408,3.536,1.222c0.813,0.815,1.222,1.995,1.222,3.535v13.61
				c0,1.543-0.408,2.72-1.222,3.536c-0.815,0.814-1.993,1.22-3.536,1.22H-0.164z M6.576,206.913h10.24
				c0.661,0,0.991-0.331,0.991-0.991v-11.627c0-0.662-0.33-0.992-0.991-0.992H6.576V206.913z"/>
			<path d="M12.856,233.636v-23.124h25.841v4.757H20.459v4.296h15.826v4.756H20.459v4.559h18.238v4.757H12.856z"/>
			<path d="M26.812,254.586v-23.124h19.956c1.54,0,2.72,0.409,3.535,1.225c0.813,0.815,1.221,1.991,1.221,3.534v2.148
				c0,1.54-0.408,2.707-1.221,3.501c-0.815,0.792-1.995,1.188-3.535,1.188v0.33c1.54,0,2.72,0.402,3.535,1.205
				c0.813,0.804,1.221,1.979,1.221,3.519v6.474h-6.74v-8.321c0-0.663-0.33-0.993-0.99-0.993h-10.24v9.314H26.812z M33.553,240.514
				h10.24c0.66,0,0.99-0.329,0.99-0.988v-2.314c0-0.661-0.33-0.99-0.99-0.99h-10.24V240.514z"/>
			<path d="M25.497,200.79v-23.413h9.299l11.272,17.191v-17.191h5.219v23.413h-9.299l-11.146-17.192v17.192H25.497z"/>
			<rect x="31" y="183" width="1" height="3"/>
		</g>
		<g>
			<path d="M13.116,306.405v-13.613c0-1.541,0.405-2.72,1.22-3.532c0.813-0.815,1.993-1.225,3.535-1.225h15.196
				c1.542,0,2.72,0.409,3.534,1.225c0.815,0.813,1.223,1.992,1.223,3.532v2.379h-6.738v-1.387c0-0.661-0.33-0.992-0.99-0.992
				h-9.252c-0.66,0-0.988,0.331-0.988,0.992v11.629c0,0.659,0.328,0.992,0.988,0.992h9.252c0.66,0,0.99-0.333,0.99-0.992v-1.388
				h6.738v2.38c0,1.54-0.407,2.719-1.223,3.533c-0.814,0.816-1.992,1.222-3.534,1.222H17.871c-1.542,0-2.722-0.406-3.535-1.222
				C13.521,309.124,13.116,307.945,13.116,306.405z"/>
			<path d="M26.494,317.379v-13.7c0-1.554,0.408-2.739,1.23-3.562c0.82-0.818,2.006-1.23,3.559-1.23h15.298
				c1.552,0,2.735,0.412,3.557,1.23c0.821,0.822,1.231,2.008,1.231,3.562v13.7c0,1.55-0.41,2.737-1.231,3.557
				c-0.821,0.82-2.005,1.231-3.557,1.231H31.283c-1.553,0-2.738-0.411-3.559-1.231C26.902,320.116,26.494,318.929,26.494,317.379z
				 M33.277,316.378c0,0.668,0.334,1.001,0.998,1.001h9.314c0.663,0,0.995-0.333,0.995-0.999v-11.707
				c0-0.664-0.332-0.655-0.995-0.655h-9.314c-0.664,0-0.998-0.009-0.998,0.655V316.378z"/>
			<path d="M-0.182,361.729v-2.38h6.738v1.387c0,0.66,0.332,0.993,0.99,0.993h9.252c0.66,0,0.992-0.333,0.992-0.993v-2.576
				c0-0.661-0.332-0.99-0.992-0.99H4.576c-1.542,0-2.723-0.409-3.535-1.225c-0.816-0.812-1.223-1.992-1.223-3.534v-4.294
				c0-1.541,0.406-2.719,1.223-3.534c0.813-0.815,1.993-1.224,3.535-1.224h15.195c1.541,0,2.721,0.408,3.535,1.224
				c0.813,0.815,1.224,1.993,1.224,3.534v2.378h-6.739v-1.388c0-0.659-0.332-0.99-0.992-0.99H7.547c-0.658,0-0.99,0.331-0.99,0.99
				v2.314c0,0.659,0.332,0.989,0.99,0.989h12.225c1.541,0,2.721,0.409,3.535,1.225c0.813,0.815,1.224,1.991,1.224,3.534v4.56
				c0,1.54-0.41,2.719-1.224,3.534c-0.814,0.813-1.994,1.22-3.535,1.22H4.576c-1.542,0-2.723-0.406-3.535-1.22
				C0.225,364.448-0.182,363.27-0.182,361.729z"/>
			<path d="M26.785,359.118v-4.758H51.43v4.758h-8.953v18.365h-6.738v-18.365H26.785z"/>
			<path d="M13.168,399.836v-23.124h19.955c1.541,0,2.723,0.407,3.534,1.223c0.815,0.815,1.225,1.993,1.225,3.534v2.148
				c0,1.541-0.409,2.708-1.225,3.5c-0.812,0.794-1.993,1.189-3.534,1.189v0.331c1.541,0,2.723,0.401,3.534,1.204
				c0.815,0.806,1.225,1.979,1.225,3.521v6.474h-6.739v-8.324c0-0.661-0.333-0.99-0.992-0.99H19.909v9.314H13.168z M19.909,385.762
				H30.15c0.659,0,0.992-0.328,0.992-0.988v-2.313c0-0.662-0.333-0.991-0.992-0.991H19.909V385.762z"/>
			<path d="M25.896,398.725v18.834c0,1.578-0.42,2.787-1.254,3.622c-0.836,0.836-2.042,1.253-3.625,1.253H4.623
				c-1.579,0-2.787-0.417-3.622-1.253c-0.835-0.835-1.253-2.044-1.253-3.622v-18.834h7.287v17.814c0,0.677,0.342,1.02,1.016,1.02
				h9.484c0.679,0,1.018-0.343,1.018-1.02v-17.814H25.896z"/>
			<path d="M12.91,344.735v-23.414h9.299l11.273,17.191v-17.191h5.215v23.414H29.4l-11.145-17.191v17.191H12.91z"/>
			<path d="M-0.371,521.777v-23.414H8.93l11.271,17.191v-17.191h5.219v23.414h-9.299L4.975,504.586v17.191H-0.371z"/>
			<path d="M13.241,439.346v-13.612c0-1.539,0.405-2.719,1.22-3.534c0.816-0.813,1.994-1.223,3.539-1.223h15.193
				c1.541,0,2.719,0.409,3.534,1.223c0.814,0.815,1.224,1.995,1.224,3.534v2.379h-6.74v-1.385c0-0.663-0.33-0.994-0.99-0.994
				h-9.252c-0.658,0-0.99,0.331-0.99,0.994v11.627c0,0.659,0.332,0.991,0.99,0.991h9.252c0.66,0,0.99-0.332,0.99-0.991v-1.389h6.74
				v2.38c0,1.542-0.409,2.72-1.224,3.535c-0.815,0.815-1.993,1.222-3.534,1.222H18c-1.545,0-2.723-0.406-3.539-1.222
				C13.646,442.064,13.241,440.888,13.241,439.346z"/>
			<path d="M26.413,447.015v-4.758h24.645v4.758h-8.954v18.368h-6.739v-18.368H26.413z"/>
			<path d="M28.895,453.897v23.126h-6.74v-23.126H28.895z"/>
			<path d="M26.148,494.772v-13.61c0-1.541,0.406-2.719,1.221-3.536c0.815-0.813,1.992-1.223,3.535-1.223H46.1
				c1.543,0,2.719,0.409,3.535,1.224c0.814,0.816,1.223,1.994,1.223,3.535v13.61c0,1.54-0.408,2.719-1.223,3.533
				c-0.816,0.815-1.992,1.224-3.535,1.224H30.904c-1.543,0-2.72-0.408-3.535-1.224C26.555,497.491,26.148,496.313,26.148,494.772z
				 M32.888,493.779c0,0.663,0.329,0.993,0.989,0.993h9.251c0.66,0,0.99-0.33,0.99-0.993v-11.627c0-0.661-0.33-0.99-0.99-0.99
				h-9.251c-0.66,0-0.989,0.329-0.989,0.99V493.779z"/>
		</g>
	</g>
</svg>
