<?xml version="1.0" encoding="utf-8"?>
<!DOCTYPE svg PUBLIC "-//W3C//DTD SVG 1.1//EN" "http://www.w3.org/Graphics/SVG/1.1/DTD/svg11.dtd">
<svg version="1.1" xmlns="http://www.w3.org/2000/svg" xmlns:xlink="http://www.w3.org/1999/xlink" viewBox="0 0 100 100" xml:space="preserve">
<pattern  x="-5336" y="986" width="100" height="100" patternUnits="userSpaceOnUse" id="mikro_x5F_w" viewBox="53.143 -135.358 100 100" overflow="visible">
	<g>
		<polygon fill="none" points="53.143,-135.358 153.143,-135.358 153.143,-35.358 53.143,-35.358"/>
		<g>
			<path d="M165.074-39.641V0h-55.563c-3.082,0-5.439-0.814-7.068-2.445C100.814-4.074,100-6.431,100-9.514v-30.127h12.75v29.334
				c0,1.321,0.66,1.982,1.982,1.982h11.428v-31.316h12.752v31.316h13.477v-31.316H165.074z"/>
			<path d="M121.074-58.641V-19H65.512c-3.082,0-5.439-0.814-7.068-2.445C56.814-23.074,56-25.431,56-28.514v-30.127h12.75v29.334
				c0,1.321,0.66,1.982,1.982,1.982H82.16v-31.316h12.752v31.316h13.477v-31.316H121.074z"/>
		</g>
		<g>
			<path d="M65.074-39.641V0H9.512C6.43,0,4.072-0.814,2.443-2.445C0.814-4.074,0-6.431,0-9.514v-30.127h12.75v29.334
				c0,1.321,0.66,1.982,1.982,1.982H26.16v-31.316h12.752v31.316h13.477v-31.316H65.074z"/>
		</g>
		<g>
			<path d="M196.574-119.973v39.639h-55.563c-3.082,0-5.439-0.814-7.068-2.443s-2.443-3.986-2.443-7.07v-30.125h12.75v29.333
				c0,1.321,0.66,1.981,1.982,1.981h11.428v-31.314h12.752v31.314h13.477v-31.314H196.574z"/>
		</g>
		<g>
			<path d="M96.574-119.973v39.639H41.012c-3.082,0-5.439-0.814-7.068-2.443s-2.443-3.986-2.443-7.07v-30.125h12.75v29.333
				c0,1.321,0.66,1.981,1.982,1.981H57.66v-31.314h12.752v31.314h13.477v-31.314H96.574z"/>
			<path d="M125.408-96.973v39.639H69.846c-3.082,0-5.439-0.814-7.068-2.443s-2.443-3.986-2.443-7.07v-30.125h12.75v29.333
				c0,1.321,0.66,1.981,1.982,1.981h11.428v-31.314h12.752v31.314h13.477v-31.314H125.408z"/>
			<path d="M165.074-139.641V-100h-55.563c-3.082,0-5.439-0.814-7.068-2.445c-1.629-1.629-2.443-3.985-2.443-7.068v-30.127h12.75
				v29.334c0,1.321,0.66,1.982,1.982,1.982h11.428v-31.316h12.752v31.316h13.477v-31.316H165.074z"/>
			<path d="M168.408-80.973v39.639h-55.563c-3.082,0-5.439-0.814-7.068-2.443s-2.443-3.986-2.443-7.07v-30.125h12.75v29.333
				c0,1.321,0.66,1.981,1.982,1.981h11.428v-31.314h12.752v31.314h13.477v-31.314H168.408z"/>
			<path d="M121.074-158.641V-119H65.512c-3.082,0-5.439-0.814-7.068-2.445c-1.629-1.629-2.443-3.985-2.443-7.068v-30.127h12.75
				v29.334c0,1.321,0.66,1.982,1.982,1.982H82.16v-31.316h12.752v31.316h13.477v-31.316H121.074z"/>
		</g>
		<g>
			<path d="M65.074-139.641V-100H9.512c-3.082,0-5.439-0.814-7.068-2.445C0.814-104.074,0-106.431,0-109.514v-30.127h12.75v29.334
				c0,1.321,0.66,1.982,1.982,1.982H26.16v-31.316h12.752v31.316h13.477v-31.316H65.074z"/>
			<path d="M68.408-80.973v39.639H12.846c-3.082,0-5.439-0.814-7.068-2.443s-2.443-3.986-2.443-7.07v-30.125h12.75v29.333
				c0,1.321,0.66,1.981,1.982,1.981h11.428v-31.314h12.752v31.314h13.477v-31.314H68.408z"/>
		</g>
	</g>
</pattern>
<g id="Grafik">
	<pattern  id="SVGID_2_" xlink:href="#mikro_x5F_w" patternTransform="matrix(1 0 0 1 53 62.1709)">
	</pattern>
	<rect fill="url(#SVGID_2_)" width="100" height="100"/>
</g>
</svg>
