<?xml version="1.0" encoding="utf-8"?>
<!DOCTYPE svg PUBLIC "-//W3C//DTD SVG 1.1//EN" "http://www.w3.org/Graphics/SVG/1.1/DTD/svg11.dtd">
<svg version="1.1" xmlns="http://www.w3.org/2000/svg" xmlns:xlink="http://www.w3.org/1999/xlink"viewBox="0 0 100 100" xml:space="preserve">
<pattern  x="-5336" y="868" width="100" height="100" patternUnits="userSpaceOnUse" id="mikro_x5F_blk2" viewBox="87.75 -110.31 100 100" overflow="visible">
	<g>
		<polygon fill="none" points="87.75,-110.311 187.75,-110.311 187.75,-10.311 87.75,-10.311"/>
		<g>
			<path d="M178.5-39.33v-4.039h11.447v2.355c0,1.123,0.561,1.684,1.684,1.684h15.711c1.123,0,1.684-0.561,1.684-1.684v-4.377
				c0-1.121-0.561-1.684-1.684-1.684H186.58c-2.617,0-4.619-0.691-6.004-2.074c-1.383-1.385-2.076-3.387-2.076-6.006v-7.293
				c0-2.619,0.693-4.621,2.076-6.004c1.385-1.385,3.387-2.076,6.004-2.076h72.496c2.617,0,4.619,0.691,6.004,2.076
				c1.383,1.383,2.076,3.385,2.076,6.004v4.039h-11.447v-2.355c0-1.123-0.561-1.684-1.684-1.684h-15.711
				c-1.121,0-1.684,0.561-1.684,1.684v3.928c0,1.121,0.563,1.682,1.684,1.682h20.762c2.617,0,4.619,0.693,6.004,2.076
				c1.383,1.385,2.076,3.387,2.076,6.004v7.744c0,2.619-0.693,4.621-2.076,6.004c-1.385,1.385-3.387,2.076-6.004,2.076H186.58
				c-2.617,0-4.619-0.691-6.004-2.076C179.193-34.709,178.5-36.711,178.5-39.33z M189.947-56.836c0,1.121,0.561,1.682,1.684,1.682
				h20.762c2.617,0,4.619,0.693,6.004,2.076c1.383,1.385,2.076,3.387,2.076,6.004v7.744h33.553c1.123,0,1.684-0.561,1.684-1.684
				v-4.377c0-1.121-0.561-1.684-1.684-1.684h-20.76c-2.619,0-4.621-0.691-6.004-2.074c-1.385-1.385-2.076-3.387-2.076-6.006v-7.293
				h-33.555c-1.123,0-1.684,0.561-1.684,1.684V-56.836z"/>
			<path d="M183.75-71.33v-4.039h11.447v2.355c0,1.123,0.561,1.684,1.684,1.684h15.711c1.123,0,1.684-0.561,1.684-1.684v-4.377
				c0-1.121-0.561-1.684-1.684-1.684H191.83c-2.617,0-4.619-0.691-6.004-2.074c-1.383-1.385-2.076-3.387-2.076-6.006v-7.293
				c0-2.619,0.693-4.621,2.076-6.004c1.385-1.385,3.387-2.076,6.004-2.076h72.496c2.617,0,4.619,0.691,6.004,2.076
				c1.383,1.383,2.076,3.385,2.076,6.004v4.039h-11.447v-2.355c0-1.123-0.561-1.684-1.684-1.684h-15.711
				c-1.121,0-1.684,0.561-1.684,1.684v3.928c0,1.121,0.563,1.682,1.684,1.682h20.762c2.617,0,4.619,0.693,6.004,2.076
				c1.383,1.385,2.076,3.387,2.076,6.004v7.744c0,2.619-0.693,4.621-2.076,6.004c-1.385,1.385-3.387,2.076-6.004,2.076H191.83
				c-2.617,0-4.619-0.691-6.004-2.076C184.443-66.709,183.75-68.711,183.75-71.33z M195.197-88.836c0,1.121,0.561,1.682,1.684,1.682
				h20.762c2.617,0,4.619,0.693,6.004,2.076c1.383,1.385,2.076,3.387,2.076,6.004v7.744h33.553c1.123,0,1.684-0.561,1.684-1.684
				v-4.377c0-1.121-0.561-1.684-1.684-1.684h-20.76c-2.619,0-4.621-0.691-6.004-2.074c-1.385-1.385-2.076-3.387-2.076-6.006v-7.293
				h-33.555c-1.123,0-1.684,0.561-1.684,1.684V-88.836z"/>
		</g>
		<g>
			<path d="M107.75-39.33v-4.039h11.447v2.355c0,1.123,0.561,1.684,1.684,1.684h15.711c1.123,0,1.684-0.561,1.684-1.684v-4.377
				c0-1.121-0.561-1.684-1.684-1.684H115.83c-2.617,0-4.619-0.691-6.004-2.074c-1.383-1.385-2.076-3.387-2.076-6.006v-7.293
				c0-2.619,0.693-4.621,2.076-6.004c1.385-1.385,3.387-2.076,6.004-2.076h72.496c2.617,0,4.619,0.691,6.004,2.076
				c1.383,1.383,2.076,3.385,2.076,6.004v4.039h-11.447v-2.355c0-1.123-0.561-1.684-1.684-1.684h-15.711
				c-1.121,0-1.684,0.561-1.684,1.684v3.928c0,1.121,0.563,1.682,1.684,1.682h20.762c2.617,0,4.619,0.693,6.004,2.076
				c1.383,1.385,2.076,3.387,2.076,6.004v7.744c0,2.619-0.693,4.621-2.076,6.004c-1.385,1.385-3.387,2.076-6.004,2.076H115.83
				c-2.617,0-4.619-0.691-6.004-2.076C108.443-34.709,107.75-36.711,107.75-39.33z M119.197-56.836c0,1.121,0.561,1.682,1.684,1.682
				h20.762c2.617,0,4.619,0.693,6.004,2.076c1.383,1.385,2.076,3.387,2.076,6.004v7.744h33.553c1.123,0,1.684-0.561,1.684-1.684
				v-4.377c0-1.121-0.561-1.684-1.684-1.684h-20.76c-2.619,0-4.621-0.691-6.004-2.074c-1.385-1.385-2.076-3.387-2.076-6.006v-7.293
				h-33.555c-1.123,0-1.684,0.561-1.684,1.684V-56.836z"/>
			<path d="M78.5-39.33v-4.039h11.447v2.355c0,1.123,0.561,1.684,1.684,1.684h15.711c1.123,0,1.684-0.561,1.684-1.684v-4.377
				c0-1.121-0.561-1.684-1.684-1.684H86.58c-2.617,0-4.619-0.691-6.004-2.074c-1.383-1.385-2.076-3.387-2.076-6.006v-7.293
				c0-2.619,0.693-4.621,2.076-6.004c1.385-1.385,3.387-2.076,6.004-2.076h72.496c2.617,0,4.619,0.691,6.004,2.076
				c1.383,1.383,2.076,3.385,2.076,6.004v4.039h-11.447v-2.355c0-1.123-0.561-1.684-1.684-1.684h-15.711
				c-1.121,0-1.684,0.561-1.684,1.684v3.928c0,1.121,0.563,1.682,1.684,1.682h20.762c2.617,0,4.619,0.693,6.004,2.076
				c1.383,1.385,2.076,3.387,2.076,6.004v7.744c0,2.619-0.693,4.621-2.076,6.004c-1.385,1.385-3.387,2.076-6.004,2.076H86.58
				c-2.617,0-4.619-0.691-6.004-2.076C79.193-34.709,78.5-36.711,78.5-39.33z M89.947-56.836c0,1.121,0.561,1.682,1.684,1.682
				h20.762c2.617,0,4.619,0.693,6.004,2.076c1.383,1.385,2.076,3.387,2.076,6.004v7.744h33.553c1.123,0,1.684-0.561,1.684-1.684
				v-4.377c0-1.121-0.561-1.684-1.684-1.684h-20.76c-2.619,0-4.621-0.691-6.004-2.074c-1.385-1.385-2.076-3.387-2.076-6.006v-7.293
				H91.631c-1.123,0-1.684,0.561-1.684,1.684V-56.836z"/>
			<path d="M100-71.33v-4.039h11.447v2.355c0,1.123,0.561,1.684,1.684,1.684h15.711c1.123,0,1.684-0.561,1.684-1.684v-4.377
				c0-1.121-0.561-1.684-1.684-1.684H108.08c-2.617,0-4.619-0.691-6.004-2.074c-1.383-1.385-2.076-3.387-2.076-6.006v-7.293
				c0-2.619,0.693-4.621,2.076-6.004c1.385-1.385,3.387-2.076,6.004-2.076h72.496c2.617,0,4.619,0.691,6.004,2.076
				c1.383,1.383,2.076,3.385,2.076,6.004v4.039h-11.447v-2.355c0-1.123-0.561-1.684-1.684-1.684h-15.711
				c-1.121,0-1.684,0.561-1.684,1.684v3.928c0,1.121,0.563,1.682,1.684,1.682h20.762c2.617,0,4.619,0.693,6.004,2.076
				c1.383,1.385,2.076,3.387,2.076,6.004v7.744c0,2.619-0.693,4.621-2.076,6.004c-1.385,1.385-3.387,2.076-6.004,2.076H108.08
				c-2.617,0-4.619-0.691-6.004-2.076C100.693-66.709,100-68.711,100-71.33z M111.447-88.836c0,1.121,0.561,1.682,1.684,1.682
				h20.762c2.617,0,4.619,0.693,6.004,2.076c1.383,1.385,2.076,3.387,2.076,6.004v7.744h33.553c1.123,0,1.684-0.561,1.684-1.684
				v-4.377c0-1.121-0.561-1.684-1.684-1.684h-20.76c-2.619,0-4.621-0.691-6.004-2.074c-1.385-1.385-2.076-3.387-2.076-6.006v-7.293
				h-33.555c-1.123,0-1.684,0.561-1.684,1.684V-88.836z"/>
			<path d="M83.75-71.33v-4.039h11.447v2.355c0,1.123,0.561,1.684,1.684,1.684h15.711c1.123,0,1.684-0.561,1.684-1.684v-4.377
				c0-1.121-0.561-1.684-1.684-1.684H91.83c-2.617,0-4.619-0.691-6.004-2.074c-1.383-1.385-2.076-3.387-2.076-6.006v-7.293
				c0-2.619,0.693-4.621,2.076-6.004c1.385-1.385,3.387-2.076,6.004-2.076h72.496c2.617,0,4.619,0.691,6.004,2.076
				c1.383,1.383,2.076,3.385,2.076,6.004v4.039h-11.447v-2.355c0-1.123-0.561-1.684-1.684-1.684h-15.711
				c-1.121,0-1.684,0.561-1.684,1.684v3.928c0,1.121,0.563,1.682,1.684,1.682h20.762c2.617,0,4.619,0.693,6.004,2.076
				c1.383,1.385,2.076,3.387,2.076,6.004v7.744c0,2.619-0.693,4.621-2.076,6.004c-1.385,1.385-3.387,2.076-6.004,2.076H91.83
				c-2.617,0-4.619-0.691-6.004-2.076C84.443-66.709,83.75-68.711,83.75-71.33z M95.197-88.836c0,1.121,0.561,1.682,1.684,1.682
				h20.762c2.617,0,4.619,0.693,6.004,2.076c1.383,1.385,2.076,3.387,2.076,6.004v7.744h33.553c1.123,0,1.684-0.561,1.684-1.684
				v-4.377c0-1.121-0.561-1.684-1.684-1.684h-20.76c-2.619,0-4.621-0.691-6.004-2.074c-1.385-1.385-2.076-3.387-2.076-6.006v-7.293
				H96.881c-1.123,0-1.684,0.561-1.684,1.684V-88.836z"/>
			<path d="M119.25-8.08v-4.039h11.447v2.355c0,1.123,0.561,1.684,1.684,1.684h15.711c1.123,0,1.684-0.561,1.684-1.684v-4.377
				c0-1.121-0.561-1.684-1.684-1.684H127.33c-2.617,0-4.619-0.691-6.004-2.074c-1.383-1.385-2.076-3.387-2.076-6.006v-7.293
				c0-2.619,0.693-4.621,2.076-6.004c1.385-1.385,3.387-2.076,6.004-2.076h72.496c2.617,0,4.619,0.691,6.004,2.076
				c1.383,1.383,2.076,3.385,2.076,6.004v4.039h-11.447v-2.355c0-1.123-0.561-1.684-1.684-1.684h-15.711
				c-1.121,0-1.684,0.561-1.684,1.684v3.928c0,1.121,0.563,1.682,1.684,1.682h20.762c2.617,0,4.619,0.693,6.004,2.076
				c1.383,1.385,2.076,3.387,2.076,6.004v7.744c0,2.619-0.693,4.621-2.076,6.004C204.445-0.691,202.443,0,199.826,0H127.33
				c-2.617,0-4.619-0.691-6.004-2.076C119.943-3.459,119.25-5.461,119.25-8.08z M130.697-25.586c0,1.121,0.561,1.682,1.684,1.682
				h20.762c2.617,0,4.619,0.693,6.004,2.076c1.383,1.385,2.076,3.387,2.076,6.004v7.744h33.553c1.123,0,1.684-0.561,1.684-1.684
				v-4.377c0-1.121-0.561-1.684-1.684-1.684h-20.76c-2.619,0-4.621-0.691-6.004-2.074c-1.385-1.385-2.076-3.387-2.076-6.006v-7.293
				h-33.555c-1.123,0-1.684,0.561-1.684,1.684V-25.586z"/>
			<path d="M90-8.08v-4.039h11.447v2.355c0,1.123,0.561,1.684,1.684,1.684h15.711c1.123,0,1.684-0.561,1.684-1.684v-4.377
				c0-1.121-0.561-1.684-1.684-1.684H98.08c-2.617,0-4.619-0.691-6.004-2.074C90.693-19.283,90-21.285,90-23.904v-7.293
				c0-2.619,0.693-4.621,2.076-6.004c1.385-1.385,3.387-2.076,6.004-2.076h72.496c2.617,0,4.619,0.691,6.004,2.076
				c1.383,1.383,2.076,3.385,2.076,6.004v4.039h-11.447v-2.355c0-1.123-0.561-1.684-1.684-1.684h-15.711
				c-1.121,0-1.684,0.561-1.684,1.684v3.928c0,1.121,0.563,1.682,1.684,1.682h20.762c2.617,0,4.619,0.693,6.004,2.076
				c1.383,1.385,2.076,3.387,2.076,6.004v7.744c0,2.619-0.693,4.621-2.076,6.004C175.195-0.691,173.193,0,170.576,0H98.08
				c-2.617,0-4.619-0.691-6.004-2.076C90.693-3.459,90-5.461,90-8.08z M101.447-25.586c0,1.121,0.561,1.682,1.684,1.682h20.762
				c2.617,0,4.619,0.693,6.004,2.076c1.383,1.385,2.076,3.387,2.076,6.004v7.744h33.553c1.123,0,1.684-0.561,1.684-1.684v-4.377
				c0-1.121-0.561-1.684-1.684-1.684h-20.76c-2.619,0-4.621-0.691-6.004-2.074c-1.385-1.385-2.076-3.387-2.076-6.006v-7.293h-33.555
				c-1.123,0-1.684,0.561-1.684,1.684V-25.586z"/>
		</g>
		<g>
			<path d="M7.75-39.33v-4.039h11.447v2.355c0,1.123,0.561,1.684,1.684,1.684h15.711c1.123,0,1.684-0.561,1.684-1.684v-4.377
				c0-1.121-0.561-1.684-1.684-1.684H15.83c-2.617,0-4.619-0.691-6.004-2.074c-1.383-1.385-2.076-3.387-2.076-6.006v-7.293
				c0-2.619,0.693-4.621,2.076-6.004c1.385-1.385,3.387-2.076,6.004-2.076h72.496c2.617,0,4.619,0.691,6.004,2.076
				c1.383,1.383,2.076,3.385,2.076,6.004v4.039H84.959v-2.355c0-1.123-0.561-1.684-1.684-1.684H67.564
				c-1.121,0-1.684,0.561-1.684,1.684v3.928c0,1.121,0.563,1.682,1.684,1.682h20.762c2.617,0,4.619,0.693,6.004,2.076
				c1.383,1.385,2.076,3.387,2.076,6.004v7.744c0,2.619-0.693,4.621-2.076,6.004c-1.385,1.385-3.387,2.076-6.004,2.076H15.83
				c-2.617,0-4.619-0.691-6.004-2.076C8.443-34.709,7.75-36.711,7.75-39.33z M19.197-56.836c0,1.121,0.561,1.682,1.684,1.682h20.762
				c2.617,0,4.619,0.693,6.004,2.076c1.383,1.385,2.076,3.387,2.076,6.004v7.744h33.553c1.123,0,1.684-0.561,1.684-1.684v-4.377
				c0-1.121-0.561-1.684-1.684-1.684h-20.76c-2.619,0-4.621-0.691-6.004-2.074c-1.385-1.385-2.076-3.387-2.076-6.006v-7.293H20.881
				c-1.123,0-1.684,0.561-1.684,1.684V-56.836z"/>
			<path d="M0-71.33v-4.039h11.447v2.355c0,1.123,0.561,1.684,1.684,1.684h15.711c1.123,0,1.684-0.561,1.684-1.684v-4.377
				c0-1.121-0.561-1.684-1.684-1.684H8.08c-2.617,0-4.619-0.691-6.004-2.074C0.693-82.533,0-84.535,0-87.154v-7.293
				c0-2.619,0.693-4.621,2.076-6.004c1.385-1.385,3.387-2.076,6.004-2.076h72.496c2.617,0,4.619,0.691,6.004,2.076
				c1.383,1.383,2.076,3.385,2.076,6.004v4.039H77.209v-2.355c0-1.123-0.561-1.684-1.684-1.684H59.814
				c-1.121,0-1.684,0.561-1.684,1.684v3.928c0,1.121,0.563,1.682,1.684,1.682h20.762c2.617,0,4.619,0.693,6.004,2.076
				c1.383,1.385,2.076,3.387,2.076,6.004v7.744c0,2.619-0.693,4.621-2.076,6.004c-1.385,1.385-3.387,2.076-6.004,2.076H8.08
				c-2.617,0-4.619-0.691-6.004-2.076C0.693-66.709,0-68.711,0-71.33z M11.447-88.836c0,1.121,0.561,1.682,1.684,1.682h20.762
				c2.617,0,4.619,0.693,6.004,2.076c1.383,1.385,2.076,3.387,2.076,6.004v7.744h33.553c1.123,0,1.684-0.561,1.684-1.684v-4.377
				c0-1.121-0.561-1.684-1.684-1.684h-20.76c-2.619,0-4.621-0.691-6.004-2.074c-1.385-1.385-2.076-3.387-2.076-6.006v-7.293H13.131
				c-1.123,0-1.684,0.561-1.684,1.684V-88.836z"/>
			<path d="M19.25-8.08v-4.039h11.447v2.355c0,1.123,0.561,1.684,1.684,1.684h15.711c1.123,0,1.684-0.561,1.684-1.684v-4.377
				c0-1.121-0.561-1.684-1.684-1.684H27.33c-2.617,0-4.619-0.691-6.004-2.074c-1.383-1.385-2.076-3.387-2.076-6.006v-7.293
				c0-2.619,0.693-4.621,2.076-6.004c1.385-1.385,3.387-2.076,6.004-2.076h72.496c2.617,0,4.619,0.691,6.004,2.076
				c1.383,1.383,2.076,3.385,2.076,6.004v4.039H96.459v-2.355c0-1.123-0.561-1.684-1.684-1.684H79.064
				c-1.121,0-1.684,0.561-1.684,1.684v3.928c0,1.121,0.563,1.682,1.684,1.682h20.762c2.617,0,4.619,0.693,6.004,2.076
				c1.383,1.385,2.076,3.387,2.076,6.004v7.744c0,2.619-0.693,4.621-2.076,6.004C104.445-0.691,102.443,0,99.826,0H27.33
				c-2.617,0-4.619-0.691-6.004-2.076C19.943-3.459,19.25-5.461,19.25-8.08z M30.697-25.586c0,1.121,0.561,1.682,1.684,1.682h20.762
				c2.617,0,4.619,0.693,6.004,2.076c1.383,1.385,2.076,3.387,2.076,6.004v7.744h33.553c1.123,0,1.684-0.561,1.684-1.684v-4.377
				c0-1.121-0.561-1.684-1.684-1.684h-20.76c-2.619,0-4.621-0.691-6.004-2.074c-1.385-1.385-2.076-3.387-2.076-6.006v-7.293H32.381
				c-1.123,0-1.684,0.561-1.684,1.684V-25.586z"/>
		</g>
		<g>
			<path d="M119.25-108.08v-4.039h11.447v2.355c0,1.123,0.561,1.684,1.684,1.684h15.711c1.123,0,1.684-0.561,1.684-1.684v-4.377
				c0-1.121-0.561-1.684-1.684-1.684H127.33c-2.617,0-4.619-0.691-6.004-2.074c-1.383-1.385-2.076-3.387-2.076-6.006v-7.293
				c0-2.619,0.693-4.621,2.076-6.004c1.385-1.385,3.387-2.076,6.004-2.076h72.496c2.617,0,4.619,0.691,6.004,2.076
				c1.383,1.383,2.076,3.385,2.076,6.004v4.039h-11.447v-2.355c0-1.123-0.561-1.684-1.684-1.684h-15.711
				c-1.121,0-1.684,0.561-1.684,1.684v3.928c0,1.121,0.563,1.682,1.684,1.682h20.762c2.617,0,4.619,0.693,6.004,2.076
				c1.383,1.385,2.076,3.387,2.076,6.004v7.744c0,2.619-0.693,4.621-2.076,6.004c-1.385,1.385-3.387,2.076-6.004,2.076H127.33
				c-2.617,0-4.619-0.691-6.004-2.076C119.943-103.459,119.25-105.461,119.25-108.08z M130.697-125.586
				c0,1.121,0.561,1.682,1.684,1.682h20.762c2.617,0,4.619,0.693,6.004,2.076c1.383,1.385,2.076,3.387,2.076,6.004v7.744h33.553
				c1.123,0,1.684-0.561,1.684-1.684v-4.377c0-1.121-0.561-1.684-1.684-1.684h-20.76c-2.619,0-4.621-0.691-6.004-2.074
				c-1.385-1.385-2.076-3.387-2.076-6.006v-7.293h-33.555c-1.123,0-1.684,0.561-1.684,1.684V-125.586z"/>
			<path d="M90-108.08v-4.039h11.447v2.355c0,1.123,0.561,1.684,1.684,1.684h15.711c1.123,0,1.684-0.561,1.684-1.684v-4.377
				c0-1.121-0.561-1.684-1.684-1.684H98.08c-2.617,0-4.619-0.691-6.004-2.074c-1.383-1.385-2.076-3.387-2.076-6.006v-7.293
				c0-2.619,0.693-4.621,2.076-6.004c1.385-1.385,3.387-2.076,6.004-2.076h72.496c2.617,0,4.619,0.691,6.004,2.076
				c1.383,1.383,2.076,3.385,2.076,6.004v4.039h-11.447v-2.355c0-1.123-0.561-1.684-1.684-1.684h-15.711
				c-1.121,0-1.684,0.561-1.684,1.684v3.928c0,1.121,0.563,1.682,1.684,1.682h20.762c2.617,0,4.619,0.693,6.004,2.076
				c1.383,1.385,2.076,3.387,2.076,6.004v7.744c0,2.619-0.693,4.621-2.076,6.004c-1.385,1.385-3.387,2.076-6.004,2.076H98.08
				c-2.617,0-4.619-0.691-6.004-2.076C90.693-103.459,90-105.461,90-108.08z M101.447-125.586c0,1.121,0.561,1.682,1.684,1.682
				h20.762c2.617,0,4.619,0.693,6.004,2.076c1.383,1.385,2.076,3.387,2.076,6.004v7.744h33.553c1.123,0,1.684-0.561,1.684-1.684
				v-4.377c0-1.121-0.561-1.684-1.684-1.684h-20.76c-2.619,0-4.621-0.691-6.004-2.074c-1.385-1.385-2.076-3.387-2.076-6.006v-7.293
				h-33.555c-1.123,0-1.684,0.561-1.684,1.684V-125.586z"/>
		</g>
		<g>
			<path d="M19.25-108.08v-4.039h11.447v2.355c0,1.123,0.561,1.684,1.684,1.684h15.711c1.123,0,1.684-0.561,1.684-1.684v-4.377
				c0-1.121-0.561-1.684-1.684-1.684H27.33c-2.617,0-4.619-0.691-6.004-2.074c-1.383-1.385-2.076-3.387-2.076-6.006v-7.293
				c0-2.619,0.693-4.621,2.076-6.004c1.385-1.385,3.387-2.076,6.004-2.076h72.496c2.617,0,4.619,0.691,6.004,2.076
				c1.383,1.383,2.076,3.385,2.076,6.004v4.039H96.459v-2.355c0-1.123-0.561-1.684-1.684-1.684H79.064
				c-1.121,0-1.684,0.561-1.684,1.684v3.928c0,1.121,0.563,1.682,1.684,1.682h20.762c2.617,0,4.619,0.693,6.004,2.076
				c1.383,1.385,2.076,3.387,2.076,6.004v7.744c0,2.619-0.693,4.621-2.076,6.004c-1.385,1.385-3.387,2.076-6.004,2.076H27.33
				c-2.617,0-4.619-0.691-6.004-2.076C19.943-103.459,19.25-105.461,19.25-108.08z M30.697-125.586c0,1.121,0.561,1.682,1.684,1.682
				h20.762c2.617,0,4.619,0.693,6.004,2.076c1.383,1.385,2.076,3.387,2.076,6.004v7.744h33.553c1.123,0,1.684-0.561,1.684-1.684
				v-4.377c0-1.121-0.561-1.684-1.684-1.684h-20.76c-2.619,0-4.621-0.691-6.004-2.074c-1.385-1.385-2.076-3.387-2.076-6.006v-7.293
				H32.381c-1.123,0-1.684,0.561-1.684,1.684V-125.586z"/>
		</g>
	</g>
</pattern>
<g id="Grafik">
	<pattern  id="SVGID_2_" xlink:href="#mikro_x5F_blk2" patternTransform="matrix(1 0 0 1 53 80.1709)">
	</pattern>
	<rect fill="url(#SVGID_2_)" width="100" height="100"/>
</g>
</svg>
