<?xml version="1.0" encoding="utf-8"?>
<!DOCTYPE svg PUBLIC "-//W3C//DTD SVG 1.1//EN" "http://www.w3.org/Graphics/SVG/1.1/DTD/svg11.dtd">
<svg version="1.1" xmlns="http://www.w3.org/2000/svg" xmlns:xlink="http://www.w3.org/1999/xlink" viewBox="0 0 100 100" xml:space="preserve">
<pattern  x="-5337" y="750" width="100" height="100" patternUnits="userSpaceOnUse" id="mikro_x5F_k" viewBox="21.453 -137.727 100 100" overflow="visible">
	<g>
		<polygon fill="none" points="21.453,-137.727 121.453,-137.727 121.453,-37.727 21.453,-37.727"/>
		<g>
			<path d="M57.125,0v-39.488h9.477v21.57h7.602l6.764-11.699H91.48L82.35-14.809L91.48,0H80.967l-6.713-11.699h-7.652V0H57.125z"/>
			<path d="M100.428-0.75v-39.488h9.477v21.57h7.602l6.764-11.699h10.514l-9.131,14.809l9.131,14.809H124.27l-6.713-11.699h-7.652
				V-0.75H100.428z"/>
		</g>
		<g>
			<path d="M0.428-0.75v-39.488h9.477v21.57h7.602l6.764-11.699h10.514l-9.131,14.809L34.783-0.75H24.27l-6.713-11.699H9.904V-0.75
				H0.428z"/>
		</g>
		<g>
			<path d="M114.5-9.5v-39.488h9.477v21.57h7.602l6.764-11.699h10.514l-9.131,14.809L148.855-9.5h-10.514l-6.713-11.699h-7.652V-9.5
				H114.5z"/>
			<path d="M116-49v-39.488h9.477v21.57h7.602l6.764-11.699h10.514l-9.131,14.809L150.355-49h-10.514l-6.713-11.699h-7.652V-49H116z
				"/>
			<path d="M116-75.5v-39.488h9.477v21.57h7.602l6.764-11.699h10.514l-9.131,14.809l9.131,14.809h-10.514l-6.713-11.699h-7.652
				V-75.5H116z"/>
			<path d="M100-77v-39.488h9.477v21.57h7.602l6.764-11.699h10.514l-9.131,14.809L134.355-77h-10.514l-6.713-11.699h-7.652V-77H100z
				"/>
		</g>
		<g>
			<path d="M47.125-49v-39.488h9.477v21.57h7.602l6.764-11.699H81.48L72.35-63.809L81.48-49H70.967l-6.713-11.699h-7.652V-49H47.125
				z"/>
			<path d="M57.125-100v-39.488h9.477v21.57h7.602l6.764-11.699H91.48l-9.131,14.809L91.48-100H80.967l-6.713-11.699h-7.652V-100
				H57.125z"/>
			<path d="M79.678-81v-39.488h9.477v21.57h7.602l6.764-11.699h10.514l-9.131,14.809L114.033-81H103.52l-6.713-11.699h-7.652V-81
				H79.678z"/>
			<path d="M85-24v-39.488h9.477v21.57h7.602l6.764-11.699h10.514l-9.131,14.809L119.355-24h-10.514l-6.713-11.699h-7.652V-24H85z"
				/>
			<path d="M69-26v-39.488h9.477v21.57h7.602l6.764-11.699h10.514l-9.131,14.809L103.355-26H92.842l-6.713-11.699h-7.652V-26H69z"/>
			<path d="M84.178-57.5v-39.488h9.477v21.57h7.602l6.764-11.699h10.514l-9.131,14.809l9.131,14.809H108.02l-6.713-11.699h-7.652
				V-57.5H84.178z"/>
			<path d="M109.178-34.5v-39.488h9.477v21.57h7.602l6.764-11.699h10.514l-9.131,14.809l9.131,14.809H133.02l-6.713-11.699h-7.652
				V-34.5H109.178z"/>
			<path d="M14.5-9.5v-39.488h9.477v21.57h7.602l6.764-11.699h10.514l-9.131,14.809L48.855-9.5H38.342l-6.713-11.699h-7.652V-9.5
				H14.5z"/>
			<path d="M16-49v-39.488h9.477v21.57h7.602l6.764-11.699h10.514l-9.131,14.809L50.355-49H39.842l-6.713-11.699h-7.652V-49H16z"/>
			<path d="M55.178-20v-39.488h9.477v21.57h7.602l6.764-11.699h10.514l-9.131,14.809L89.533-20H79.02l-6.713-11.699h-7.652V-20
				H55.178z"/>
			<path d="M100.428-100.75v-39.488h9.477v21.57h7.602l6.764-11.699h10.514l-9.131,14.809l9.131,14.809H124.27l-6.713-11.699h-7.652
				v11.699H100.428z"/>
			<path d="M16-75.5v-39.488h9.477v21.57h7.602l6.764-11.699h10.514l-9.131,14.809L50.355-75.5H39.842l-6.713-11.699h-7.652V-75.5
				H16z"/>
			<path d="M0-77v-39.488h9.477v21.57h7.602l6.764-11.699h10.514l-9.131,14.809L34.355-77H23.842l-6.713-11.699H9.477V-77H0z"/>
			<path d="M50.678-86v-39.488h9.477v21.57h7.602l6.764-11.699h10.514l-9.131,14.809L85.033-86H74.52l-6.713-11.699h-7.652V-86
				H50.678z"/>
		</g>
		<g>
			<path d="M9.178-34.5v-39.488h9.477v21.57h7.602l6.764-11.699h10.514l-9.131,14.809L43.533-34.5H33.02l-6.713-11.699h-7.652V-34.5
				H9.178z"/>
			<path d="M0.428-100.75v-39.488h9.477v21.57h7.602l6.764-11.699h10.514l-9.131,14.809l9.131,14.809H24.27l-6.713-11.699H9.904
				v11.699H0.428z"/>
		</g>
		<g>
			<path d="M114.5-109.5v-39.488h9.477v21.57h7.602l6.764-11.699h10.514l-9.131,14.809l9.131,14.809h-10.514l-6.713-11.699h-7.652
				v11.699H114.5z"/>
		</g>
		<g>
			<path d="M85-124v-39.488h9.477v21.57h7.602l6.764-11.699h10.514l-9.131,14.809L119.355-124h-10.514l-6.713-11.699h-7.652V-124H85
				z"/>
			<path d="M69-126v-39.488h9.477v21.57h7.602l6.764-11.699h10.514l-9.131,14.809L103.355-126H92.842l-6.713-11.699h-7.652V-126H69z
				"/>
			<path d="M109.178-134.5v-39.488h9.477v21.57h7.602l6.764-11.699h10.514l-9.131,14.809l9.131,14.809H133.02l-6.713-11.699h-7.652
				v11.699H109.178z"/>
			<path d="M14.5-109.5v-39.488h9.477v21.57h7.602l6.764-11.699h10.514l-9.131,14.809l9.131,14.809H38.342l-6.713-11.699h-7.652
				v11.699H14.5z"/>
			<path d="M55.178-120v-39.488h9.477v21.57h7.602l6.764-11.699h10.514l-9.131,14.809L89.533-120H79.02l-6.713-11.699h-7.652V-120
				H55.178z"/>
		</g>
		<g>
			<path d="M9.178-134.5v-39.488h9.477v21.57h7.602l6.764-11.699h10.514l-9.131,14.809l9.131,14.809H33.02l-6.713-11.699h-7.652
				v11.699H9.178z"/>
		</g>
	</g>
</pattern>
<g id="Grafik">
	<pattern  id="SVGID_2_" xlink:href="#mikro_x5F_k" patternTransform="matrix(1 0 0 1 -46 98.1709)">
	</pattern>
	<rect fill="url(#SVGID_2_)" width="100" height="100"/>
</g>
</svg>
