<?xml version="1.0" encoding="utf-8"?>
<!DOCTYPE svg PUBLIC "-//W3C//DTD SVG 1.1//EN" "http://www.w3.org/Graphics/SVG/1.1/DTD/svg11.dtd">
<svg version="1.1" xmlns="http://www.w3.org/2000/svg" xmlns:xlink="http://www.w3.org/1999/xlink"
	 viewBox="0 0 50 413" xml:space="preserve">
	<g>
		<text transform="matrix(1 0 -3.000000e-005 1 10.2793 114.1455)" font-family="'The-Neue-Black'" font-size="33" letter-spacing="1"> </text>
	</g>
	<g>
		<g>
			<path d="M9.8,49.035l11.551-23.1h5.973l11.55,23.1h-7.228l-2.178-4.356H17.456l-2.178,4.356H9.8z M19.832,39.927h7.26
				l-3.63-7.26L19.832,39.927z"/>
			<path d="M11.713,85.035l0.001-23.1h9.174l11.12,16.962l0.001-16.962h5.147l-0.001,23.1h-9.174l-11.12-16.962L16.86,85.035
				H11.713z"/>
			<path d="M11.712,121.035v-23.1h9.175l11.12,16.962V97.936h5.148l-0.001,23.1H27.98l-11.12-16.962l-0.001,16.962H11.712z"/>
		</g>
		<g>
			<path d="M36.999,137.269l-0.001,18.348c0,1.54-0.407,2.718-1.222,3.531c-0.813,0.813-1.99,1.221-3.53,1.221H17.065
				c-1.539,0-2.717-0.407-3.53-1.221c-0.814-0.813-1.222-1.991-1.222-3.531l0.001-18.348h6.731v17.357c0,0.66,0.33,0.99,0.99,0.99
				h9.24c0.66,0,0.99-0.33,0.99-0.99v-17.357H36.999z"/>
			<path d="M12.379,196.368l0.001-23.1h9.174l11.12,16.962l0.001-16.962h5.147l-0.001,23.1h-9.174l-11.12-16.962l-0.001,16.962
				H12.379z"/>
		</g>
		<g>
			<path d="M13.046,175.035v-23.1h19.933c1.54,0,2.717,0.407,3.53,1.221c0.814,0.814,1.222,1.991,1.222,3.531l-0.001,13.596
				c0,1.54-0.406,2.718-1.221,3.531s-1.991,1.221-3.531,1.221H13.046z M19.778,170.283h10.229c0.66,0,0.99-0.33,0.99-0.99
				l0.001-11.616c0-0.659-0.33-0.989-0.99-0.989h-10.23V170.283z"/>
			<path d="M13.045,211.035l0.001-23.1h24.617v4.752H19.777v4.29h15.478l-0.001,4.752H19.776v4.554h17.887v4.752H13.045z"/>
			<path d="M13.044,247.035v-23.1h19.933c1.54,0,2.717,0.407,3.53,1.221c0.814,0.814,1.222,1.991,1.222,3.531l-0.001,2.145
				c0,1.54-0.406,2.706-1.221,3.498s-1.991,1.188-3.531,1.188v0.33c1.54,0,2.717,0.401,3.531,1.204
				c0.814,0.804,1.221,1.975,1.221,3.515v6.468h-6.732l0.001-8.316c0-0.659-0.33-0.989-0.99-0.989H19.776l-0.001,9.306H13.044z
				 M19.776,232.978h10.229c0.66,0,0.99-0.33,0.99-0.99l0.001-2.311c0-0.659-0.33-0.989-0.99-0.989h-10.23V232.978z"/>
		</g>
		<g>
			<path d="M12.751,310.688v-4.752h24.618v4.752h-8.942l-0.001,18.348h-6.731v-18.348H12.751z"/>
			<path d="M28.096,341.936l-0.001,23.1h-6.731l0.001-23.1H28.096z"/>
			<path d="M12.386,396.283l0.001-13.596c0-1.541,0.407-2.717,1.221-3.531s1.991-1.221,3.531-1.221h15.18
				c1.54,0,2.717,0.406,3.531,1.221c0.813,0.814,1.222,1.99,1.222,3.531l-0.001,13.596c0,1.539-0.407,2.717-1.222,3.531
				c-0.814,0.813-1.991,1.221-3.531,1.221h-15.18c-1.54,0-2.717-0.408-3.531-1.221C12.793,399,12.386,397.822,12.386,396.283z
				 M19.118,395.293c0,0.66,0.33,0.99,0.99,0.99h9.24c0.66,0,0.989-0.33,0.989-0.99l0.001-11.617c0-0.658-0.33-0.988-0.99-0.988
				h-9.24c-0.66,0-0.99,0.33-0.99,0.988V395.293z"/>
		</g>
		<g>
			<path d="M12.011,405.699v-23.1h9.175l11.12,16.963V382.6h5.148v23.1H28.28l-11.121-16.961v16.961H12.011z"/>
		</g>
		<g>
			<path d="M12.228,260.355v-4.752h24.617v4.752h-8.942l-0.001,18.348H21.17l0.001-18.348H12.228z"/>
			<path d="M13.381,314.703l0.001-23.1h19.932c1.539,0,2.717,0.408,3.531,1.221c0.813,0.814,1.221,1.992,1.221,3.531v2.145
				c0,1.541-0.408,2.707-1.222,3.498c-0.813,0.793-1.991,1.189-3.53,1.189v0.33c1.539,0,2.717,0.4,3.53,1.203
				c0.813,0.805,1.222,1.975,1.222,3.516v6.467h-6.732v-8.316c0-0.658-0.33-0.988-0.99-0.988h-10.23v9.305H13.381z M20.113,300.646
				h10.229c0.66,0,0.99-0.33,0.99-0.99v-2.311c0-0.66-0.33-0.99-0.99-0.99H20.113V300.646z"/>
			<path d="M37.999,327.604l-0.001,18.348c0,1.541-0.407,2.719-1.222,3.531c-0.814,0.814-1.991,1.221-3.531,1.221h-15.18
				c-1.54,0-2.717-0.406-3.53-1.221c-0.814-0.813-1.222-1.99-1.222-3.531l0.001-18.348h6.731v17.357c0,0.66,0.33,0.99,0.99,0.99
				h9.24c0.66,0,0.99-0.33,0.99-0.99v-17.357H37.999z"/>
			<path d="M13.181,381.951v-13.596c0-1.539,0.408-2.717,1.222-3.531c0.813-0.813,1.991-1.221,3.531-1.221h15.18
				c1.54,0,2.717,0.408,3.531,1.221c0.813,0.814,1.221,1.992,1.221,3.531v2.377h-6.732v-1.387c0-0.66-0.329-0.99-0.989-0.99h-9.24
				c-0.66,0-0.99,0.33-0.99,0.99v11.615c0,0.66,0.33,0.99,0.99,0.99h9.24c0.66,0,0.989-0.33,0.989-0.99v-1.385h6.732v2.375
				c-0.001,1.541-0.408,2.719-1.222,3.531c-0.814,0.814-1.991,1.221-3.531,1.221h-15.18c-1.54,0-2.717-0.406-3.531-1.221
				C13.587,384.67,13.181,383.492,13.181,381.951z"/>
		</g>
		<g>
			<path d="M13.517,218.616v-13.596c0-1.54,0.406-2.717,1.221-3.531c0.814-0.813,1.991-1.221,3.531-1.221h15.18
				c1.54,0,2.717,0.407,3.531,1.221c0.813,0.814,1.221,1.991,1.221,3.531v2.376h-6.732v-1.387c0-0.659-0.329-0.989-0.989-0.989
				h-9.24c-0.659,0-0.989,0.33-0.989,0.989l-0.001,11.616c0,0.66,0.33,0.99,0.989,0.99h9.24c0.66,0,0.99-0.33,0.99-0.99v-1.386
				H38.2v2.376c0,1.54-0.408,2.718-1.221,3.531c-0.814,0.813-1.992,1.221-3.531,1.221h-15.18c-1.541,0-2.718-0.407-3.531-1.221
				C13.923,221.334,13.517,220.156,13.517,218.616z"/>
			<path d="M13.515,254.616l0.001-13.596c0-1.54,0.407-2.717,1.221-3.531c0.813-0.813,1.991-1.221,3.531-1.221h15.18
				c1.54,0,2.717,0.407,3.531,1.221c0.813,0.814,1.222,1.991,1.222,3.531l-0.001,13.596c0,1.54-0.407,2.718-1.222,3.531
				s-1.99,1.221-3.531,1.221h-15.18c-1.539,0-2.717-0.407-3.531-1.221C13.922,257.334,13.515,256.156,13.515,254.616z
				 M20.247,253.626c0,0.66,0.33,0.99,0.99,0.99h9.24c0.66,0,0.989-0.33,0.989-0.99l0.001-11.616c0-0.659-0.33-0.989-0.99-0.989
				h-9.24c-0.66,0-0.99,0.33-0.99,0.989V253.626z"/>
			<path d="M13.712,295.368v-23.1h9.175l11.12,16.962v-16.962h5.148l-0.001,23.1H29.98l-11.12-16.962l-0.001,16.962H13.712z"/>
			<path d="M13.315,326.616v-2.376h6.731v1.386c0,0.66,0.33,0.99,0.99,0.99h9.239c0.66,0,0.99-0.33,0.99-0.99v-2.574
				c0-0.659-0.33-0.989-0.99-0.989H18.067c-1.541,0-2.718-0.407-3.531-1.222c-0.814-0.813-1.221-1.99-1.221-3.53v-4.29
				c0-1.54,0.406-2.717,1.221-3.531c0.814-0.813,1.991-1.221,3.531-1.221h15.18c1.54,0,2.717,0.407,3.531,1.221
				c0.814,0.814,1.221,1.991,1.221,3.531v2.376h-6.732v-1.387c0-0.659-0.33-0.989-0.99-0.989h-9.239c-0.66,0-0.99,0.33-0.99,0.989
				v2.311c0,0.66,0.33,0.99,0.99,0.99h12.21c1.539,0,2.717,0.407,3.531,1.221c0.813,0.814,1.221,1.991,1.221,3.531v4.554
				c0,1.54-0.408,2.718-1.222,3.531s-1.991,1.221-3.53,1.221H18.066c-1.54,0-2.718-0.407-3.53-1.221
				C13.722,329.334,13.314,328.156,13.315,326.616z"/>
		</g>
		<g>
			<path d="M13.528,14.994v15.708H8.38v-23.1h8.185l7.655,15.312l7.656-15.312h8.449l-0.001,23.1h-6.732l0.001-15.708
				l-7.459,15.708h-4.752L13.528,14.994z"/>
		</g>
		<g>
			<path d="M18.487,38.936v9.042h11.154v-9.042h6.732l-0.001,23.1h-6.731v-9.306H18.487v9.306h-6.732v-23.1H18.487z"/>
			<path d="M12.067,98.035v-23.1h24.619v4.752H18.8v4.29h15.477v4.752H18.8v4.554h17.886v4.752H12.067z"/>
			<path d="M27.429,110.936l-0.001,23.1h-6.731v-23.1H27.429z"/>
		</g>
		<g>
			<path d="M13.369,127.661l-0.001,15.708H8.221l0.001-23.1h8.184l7.656,15.312l7.656-15.312h8.447v23.1h-6.732v-15.708
				l-7.458,15.708h-4.752L13.369,127.661z"/>
		</g>
	</g>
</svg>
