<?xml version="1.0" encoding="utf-8"?>
<!DOCTYPE svg PUBLIC "-//W3C//DTD SVG 1.1//EN" "http://www.w3.org/Graphics/SVG/1.1/DTD/svg11.dtd">
<svg version="1.1" xmlns="http://www.w3.org/2000/svg" xmlns:xlink="http://www.w3.org/1999/xlink"
	 viewBox="0 0 100 100" xml:space="preserve">
<pattern  x="-1784" y="1148.171" width="100" height="100" patternUnits="userSpaceOnUse" id="uc_x5F_a_x5F_yllw" viewBox="40.744 -108.313 100 100" overflow="visible">
	<g>
		<polygon fill="none" points="40.744,-108.313 140.744,-108.313 140.744,-8.313 40.744,-8.313"/>
		<g>
			<path d="M133.75-29.25l19.714-39.428h10.195l19.714,39.428h-12.336l-3.717-7.436h-20.503L143.1-29.25H133.75z
				 M150.873-44.796h12.392l-6.196-12.392L150.873-44.796z"/>
		</g>
		<g>
			<path d="M127-64.5l19.714-39.428h10.195L176.623-64.5h-12.336l-3.717-7.436h-20.503L136.35-64.5H127z
				 M144.123-80.046h12.392l-6.196-12.392L144.123-80.046z"/>
			<path d="M107.5-64.5l19.714-39.428h10.195L157.123-64.5h-12.336l-3.717-7.436h-20.503L116.85-64.5H107.5z
				 M124.623-80.046h12.392l-6.196-12.392L124.623-80.046z"/>
			<path d="M76.75-64.5l19.714-39.428h10.195L126.373-64.5h-12.336l-3.717-7.436H89.817L86.1-64.5H76.75z
				 M93.873-80.046h12.392l-6.196-12.392L93.873-80.046z"/>
			<path d="M57.25-64.5l19.714-39.428h10.195L106.873-64.5H94.537l-3.717-7.436H70.317L66.6-64.5H57.25z
				 M74.373-80.046h12.392l-6.196-12.392L74.373-80.046z"/>
			<path d="M103.5-29.25l19.714-39.428h10.195l19.714,39.428h-12.336l-3.717-7.436h-20.503l-3.718,7.436H103.5z
				 M120.623-44.796h12.392l-6.196-12.392L120.623-44.796z"/>
			<path d="M84-29.25l19.714-39.428h10.195l19.714,39.428h-12.336l-3.717-7.436H97.067L93.35-29.25H84z
				 M101.123-44.796h12.392l-6.196-12.392L101.123-44.796z"/>
			<path d="M53.25-29.25l19.714-39.428h10.195l19.714,39.428H90.537l-3.717-7.436H66.317L62.6-29.25H53.25z
				 M70.373-44.796h12.392l-6.196-12.392L70.373-44.796z"/>
			<path d="M33.75-29.25l19.714-39.428h10.195L83.373-29.25H71.037l-3.717-7.436H46.817L43.1-29.25H33.75z
				 M50.873-44.796h12.392l-6.196-12.392L50.873-44.796z"/>
			<path d="M120.5,0l19.714-39.428h10.195L170.123,0h-12.336l-3.717-7.436h-20.503L129.85,0H120.5z M137.623-15.546
				h12.392l-6.196-12.392L137.623-15.546z"/>
			<path d="M100,0l19.714-39.428h10.195L149.623,0h-12.336l-3.717-7.436h-20.503L109.35,0H100z M117.123-15.546
				h12.392l-6.196-12.392L117.123-15.546z"/>
			<path d="M69.25,0l19.714-39.428h10.195L118.873,0h-12.336l-3.717-7.436H82.317L78.6,0H69.25z M86.373-15.546
				h12.392l-6.196-12.392L86.373-15.546z"/>
			<path d="M50.75,0l19.714-39.428h10.195L100.373,0H88.037L84.32-7.436H63.817L60.1,0H50.75z M67.873-15.546h12.392
				l-6.196-12.392L67.873-15.546z"/>
		</g>
		<g>
			<path d="M27-64.5l19.714-39.428h10.195L76.623-64.5H64.287l-3.717-7.436H40.067L36.35-64.5H27z M44.123-80.046
				h12.392l-6.196-12.392L44.123-80.046z"/>
			<path d="M7.5-64.5l19.714-39.428h10.195L57.123-64.5H44.787l-3.717-7.436H20.567L16.85-64.5H7.5z M24.623-80.046
				h12.392l-6.196-12.392L24.623-80.046z"/>
			<path d="M3.5-29.25l19.714-39.428h10.195L53.123-29.25H40.787l-3.717-7.436H16.567L12.85-29.25H3.5z
				 M20.623-44.796h12.392l-6.196-12.392L20.623-44.796z"/>
			<path d="M20.5,0l19.714-39.428h10.195L70.123,0H57.787L54.07-7.436H33.567L29.85,0H20.5z M37.623-15.546h12.392
				l-6.196-12.392L37.623-15.546z"/>
			<path d="M0,0l19.714-39.428h10.195L49.623,0H37.287L33.57-7.436H13.067L9.35,0H0z M17.123-15.546h12.392
				l-6.196-12.392L17.123-15.546z"/>
		</g>
		<g>
			<path d="M120.5-100l19.714-39.428h10.195L170.123-100h-12.336l-3.717-7.436h-20.503L129.85-100H120.5z
				 M137.623-115.546h12.392l-6.196-12.392L137.623-115.546z"/>
			<path d="M100-100l19.714-39.428h10.195L149.623-100h-12.336l-3.717-7.436h-20.503L109.35-100H100z
				 M117.123-115.546h12.392l-6.196-12.392L117.123-115.546z"/>
			<path d="M69.25-100l19.714-39.428h10.195L118.873-100h-12.336l-3.717-7.436H82.317L78.6-100H69.25z
				 M86.373-115.546h12.392l-6.196-12.392L86.373-115.546z"/>
			<path d="M50.75-100l19.714-39.428h10.195L100.373-100H88.037l-3.717-7.436H63.817L60.1-100H50.75z
				 M67.873-115.546h12.392l-6.196-12.392L67.873-115.546z"/>
		</g>
		<g>
			<path d="M20.5-100l19.714-39.428h10.195L70.123-100H57.787l-3.717-7.436H33.567L29.85-100H20.5z M37.623-115.546
				h12.392l-6.196-12.392L37.623-115.546z"/>
			<path d="M0-100l19.714-39.428h10.195L49.623-100H37.287l-3.717-7.436H13.067L9.35-100H0z M17.123-115.546h12.392
				l-6.196-12.392L17.123-115.546z"/>
		</g>
	</g>
</pattern>
<g id="Grafik">
	<pattern  id="SVGID_1_" xlink:href="#uc_x5F_a_x5F_yllw" patternTransform="matrix(1 0 0 1 1 0)">
	</pattern>
	<rect y="0.171" fill="url(#SVGID_1_)" width="100" height="100"/>
</g>
</svg>
