<?xml version="1.0" encoding="utf-8"?>
<!DOCTYPE svg PUBLIC "-//W3C//DTD SVG 1.1//EN" "http://www.w3.org/Graphics/SVG/1.1/DTD/svg11.dtd">
<svg version="1.1" xmlns="http://www.w3.org/2000/svg" xmlns:xlink="http://www.w3.org/1999/xlink"
	 viewBox="0 0 100 100" xml:space="preserve">
<pattern  x="-1784" y="1148.171" width="100" height="100" patternUnits="userSpaceOnUse" id="uc_x5F_c_x5F_blk" viewBox="26.173 -109.933 100 100" overflow="visible">
	<g>
		<polygon fill="none" points="26.173,-109.933 126.173,-109.933 126.173,-9.933 26.173,-9.933"/>
		<g>
			<path d="M26.333-74.244v-19.776c0-2.239,0.592-3.952,1.775-5.136s2.896-1.776,5.137-1.776h22.079c2.24,0,3.952,0.593,5.137,1.776
				c1.184,1.184,1.775,2.896,1.775,5.136v3.456h-9.792v-2.016c0-0.961-0.479-1.44-1.439-1.44h-13.44c-0.96,0-1.439,0.479-1.439,1.44
				v16.896c0,0.96,0.479,1.44,1.439,1.44h13.44c0.96,0,1.439-0.48,1.439-1.44v-2.017h9.792v3.457c0,2.24-0.592,3.952-1.775,5.136
				c-1.185,1.185-2.896,1.776-5.137,1.776H33.245c-2.24,0-3.953-0.592-5.137-1.776C26.925-70.292,26.333-72.004,26.333-74.244z"/>
			<path d="M40.333-74.244v-19.776c0-2.239,0.592-3.952,1.775-5.136s2.896-1.776,5.137-1.776h22.079c2.24,0,3.952,0.593,5.137,1.776
				c1.184,1.184,1.775,2.896,1.775,5.136v3.456h-9.792v-2.016c0-0.961-0.479-1.44-1.439-1.44h-13.44c-0.96,0-1.439,0.479-1.439,1.44
				v16.896c0,0.96,0.479,1.44,1.439,1.44h13.44c0.96,0,1.439-0.48,1.439-1.44v-2.017h9.792v3.457c0,2.24-0.592,3.952-1.775,5.136
				c-1.185,1.185-2.896,1.776-5.137,1.776H47.245c-2.24,0-3.953-0.592-5.137-1.776C40.925-70.292,40.333-72.004,40.333-74.244z"/>
			<path d="M66-74.244v-19.776c0-2.239,0.592-3.952,1.775-5.136s2.896-1.776,5.137-1.776h22.079c2.24,0,3.952,0.593,5.137,1.776
				c1.184,1.184,1.775,2.896,1.775,5.136v3.456h-9.792v-2.016c0-0.961-0.479-1.44-1.439-1.44h-13.44c-0.96,0-1.439,0.479-1.439,1.44
				v16.896c0,0.96,0.479,1.44,1.439,1.44h13.44c0.96,0,1.439-0.48,1.439-1.44v-2.017h9.792v3.457c0,2.24-0.592,3.952-1.775,5.136
				c-1.185,1.185-2.896,1.776-5.137,1.776H72.912c-2.24,0-3.953-0.592-5.137-1.776C66.592-70.292,66-72.004,66-74.244z"/>
			<path d="M80-74.244v-19.776c0-2.239,0.592-3.952,1.775-5.136s2.896-1.776,5.137-1.776h22.079c2.24,0,3.952,0.593,5.137,1.776
				c1.184,1.184,1.775,2.896,1.775,5.136v3.456h-9.792v-2.016c0-0.961-0.479-1.44-1.439-1.44h-13.44c-0.96,0-1.439,0.479-1.439,1.44
				v16.896c0,0.96,0.479,1.44,1.439,1.44h13.44c0.96,0,1.439-0.48,1.439-1.44v-2.017h9.792v3.457c0,2.24-0.592,3.952-1.775,5.136
				c-1.185,1.185-2.896,1.776-5.137,1.776H86.912c-2.24,0-3.953-0.592-5.137-1.776C80.592-70.292,80-72.004,80-74.244z"/>
			<path d="M26.333-40.578v-19.775c0-2.24,0.592-3.952,1.775-5.137c1.184-1.184,2.896-1.775,5.137-1.775h22.079
				c2.24,0,3.952,0.592,5.137,1.775c1.184,1.185,1.775,2.896,1.775,5.137v3.455h-9.792v-2.016c0-0.96-0.479-1.439-1.439-1.439
				h-13.44c-0.96,0-1.439,0.479-1.439,1.439v16.896c0,0.959,0.479,1.439,1.439,1.439h13.44c0.96,0,1.439-0.48,1.439-1.439v-2.017
				h9.792v3.456c0,2.24-0.592,3.953-1.775,5.137c-1.185,1.184-2.896,1.775-5.137,1.775H33.245c-2.24,0-3.953-0.592-5.137-1.775
				S26.333-38.338,26.333-40.578z"/>
			<path d="M40.333-40.578v-19.775c0-2.24,0.592-3.952,1.775-5.137c1.184-1.184,2.896-1.775,5.137-1.775h22.079
				c2.24,0,3.952,0.592,5.137,1.775c1.184,1.185,1.775,2.896,1.775,5.137v3.455h-9.792v-2.016c0-0.96-0.479-1.439-1.439-1.439
				h-13.44c-0.96,0-1.439,0.479-1.439,1.439v16.896c0,0.959,0.479,1.439,1.439,1.439h13.44c0.96,0,1.439-0.48,1.439-1.439v-2.017
				h9.792v3.456c0,2.24-0.592,3.953-1.775,5.137c-1.185,1.184-2.896,1.775-5.137,1.775H47.245c-2.24,0-3.953-0.592-5.137-1.775
				S40.333-38.338,40.333-40.578z"/>
			<path d="M66-40.578v-19.775c0-2.24,0.592-3.952,1.775-5.137c1.184-1.184,2.896-1.775,5.137-1.775h22.079
				c2.24,0,3.952,0.592,5.137,1.775c1.184,1.185,1.775,2.896,1.775,5.137v3.455h-9.792v-2.016c0-0.96-0.479-1.439-1.439-1.439
				h-13.44c-0.96,0-1.439,0.479-1.439,1.439v16.896c0,0.959,0.479,1.439,1.439,1.439h13.44c0.96,0,1.439-0.48,1.439-1.439v-2.017
				h9.792v3.456c0,2.24-0.592,3.953-1.775,5.137c-1.185,1.184-2.896,1.775-5.137,1.775H72.912c-2.24,0-3.953-0.592-5.137-1.775
				S66-38.338,66-40.578z"/>
			<path d="M80-40.578v-19.775c0-2.24,0.592-3.952,1.775-5.137c1.184-1.184,2.896-1.775,5.137-1.775h22.079
				c2.24,0,3.952,0.592,5.137,1.775c1.184,1.185,1.775,2.896,1.775,5.137v3.455h-9.792v-2.016c0-0.96-0.479-1.439-1.439-1.439
				h-13.44c-0.96,0-1.439,0.479-1.439,1.439v16.896c0,0.959,0.479,1.439,1.439,1.439h13.44c0.96,0,1.439-0.48,1.439-1.439v-2.017
				h9.792v3.456c0,2.24-0.592,3.953-1.775,5.137c-1.185,1.184-2.896,1.775-5.137,1.775H86.912c-2.24,0-3.953-0.592-5.137-1.775
				S80-38.338,80-40.578z"/>
			<path d="M26.333-6.912v-19.775c0-2.24,0.592-3.951,1.775-5.137c1.184-1.183,2.896-1.775,5.137-1.775h22.079
				c2.24,0,3.952,0.593,5.137,1.775c1.184,1.186,1.775,2.896,1.775,5.137v3.456h-9.792v-2.017c0-0.959-0.479-1.439-1.439-1.439
				h-13.44c-0.96,0-1.439,0.48-1.439,1.439v16.896c0,0.96,0.479,1.439,1.439,1.439h13.44c0.96,0,1.439-0.479,1.439-1.439v-2.016
				h9.792v3.455c0,2.24-0.592,3.953-1.775,5.137C59.276-0.592,57.564,0,55.324,0H33.245c-2.24,0-3.953-0.592-5.137-1.775
				S26.333-4.672,26.333-6.912z"/>
			<path d="M40.333-6.912v-19.775c0-2.24,0.592-3.951,1.775-5.137c1.184-1.183,2.896-1.775,5.137-1.775h22.079
				c2.24,0,3.952,0.593,5.137,1.775c1.184,1.186,1.775,2.896,1.775,5.137v3.456h-9.792v-2.017c0-0.959-0.479-1.439-1.439-1.439
				h-13.44c-0.96,0-1.439,0.48-1.439,1.439v16.896c0,0.96,0.479,1.439,1.439,1.439h13.44c0.96,0,1.439-0.479,1.439-1.439v-2.016
				h9.792v3.455c0,2.24-0.592,3.953-1.775,5.137C73.276-0.592,71.564,0,69.324,0H47.245c-2.24,0-3.953-0.592-5.137-1.775
				S40.333-4.672,40.333-6.912z"/>
			<path d="M66-6.912v-19.775c0-2.24,0.592-3.951,1.775-5.137c1.184-1.183,2.896-1.775,5.137-1.775h22.079
				c2.24,0,3.952,0.593,5.137,1.775c1.184,1.186,1.775,2.896,1.775,5.137v3.456h-9.792v-2.017c0-0.959-0.479-1.439-1.439-1.439
				h-13.44c-0.96,0-1.439,0.48-1.439,1.439v16.896c0,0.96,0.479,1.439,1.439,1.439h13.44c0.96,0,1.439-0.479,1.439-1.439v-2.016
				h9.792v3.455c0,2.24-0.592,3.953-1.775,5.137C98.943-0.592,97.231,0,94.991,0H72.912c-2.24,0-3.953-0.592-5.137-1.775
				S66-4.672,66-6.912z"/>
			<path d="M80-6.912v-19.775c0-2.24,0.592-3.951,1.775-5.137c1.184-1.183,2.896-1.775,5.137-1.775h22.079
				c2.24,0,3.952,0.593,5.137,1.775c1.184,1.186,1.775,2.896,1.775,5.137v3.456h-9.792v-2.017c0-0.959-0.479-1.439-1.439-1.439
				h-13.44c-0.96,0-1.439,0.48-1.439,1.439v16.896c0,0.96,0.479,1.439,1.439,1.439h13.44c0.96,0,1.439-0.479,1.439-1.439v-2.016
				h9.792v3.455c0,2.24-0.592,3.953-1.775,5.137C112.943-0.592,111.231,0,108.991,0H86.912c-2.24,0-3.953-0.592-5.137-1.775
				S80-4.672,80-6.912z"/>
			<path d="M100-74.244v-19.776c0-2.239,0.592-3.952,1.775-5.136s2.896-1.776,5.137-1.776h22.079c2.24,0,3.952,0.593,5.137,1.776
				c1.184,1.184,1.775,2.896,1.775,5.136v3.456h-9.792v-2.016c0-0.961-0.479-1.44-1.439-1.44h-13.44c-0.96,0-1.439,0.479-1.439,1.44
				v16.896c0,0.96,0.479,1.44,1.439,1.44h13.44c0.96,0,1.439-0.48,1.439-1.44v-2.017h9.792v3.457c0,2.24-0.592,3.952-1.775,5.136
				c-1.185,1.185-2.896,1.776-5.137,1.776h-22.079c-2.24,0-3.953-0.592-5.137-1.776C100.592-70.292,100-72.004,100-74.244z"/>
			<path d="M100-40.578v-19.775c0-2.24,0.592-3.952,1.775-5.137c1.184-1.184,2.896-1.775,5.137-1.775h22.079
				c2.24,0,3.952,0.592,5.137,1.775c1.184,1.185,1.775,2.896,1.775,5.137v3.455h-9.792v-2.016c0-0.96-0.479-1.439-1.439-1.439
				h-13.44c-0.96,0-1.439,0.479-1.439,1.439v16.896c0,0.959,0.479,1.439,1.439,1.439h13.44c0.96,0,1.439-0.48,1.439-1.439v-2.017
				h9.792v3.456c0,2.24-0.592,3.953-1.775,5.137c-1.185,1.184-2.896,1.775-5.137,1.775h-22.079c-2.24,0-3.953-0.592-5.137-1.775
				S100-38.338,100-40.578z"/>
			<path d="M100-6.912v-19.775c0-2.24,0.592-3.951,1.775-5.137c1.184-1.183,2.896-1.775,5.137-1.775h22.079
				c2.24,0,3.952,0.593,5.137,1.775c1.184,1.186,1.775,2.896,1.775,5.137v3.456h-9.792v-2.017c0-0.959-0.479-1.439-1.439-1.439
				h-13.44c-0.96,0-1.439,0.48-1.439,1.439v16.896c0,0.96,0.479,1.439,1.439,1.439h13.44c0.96,0,1.439-0.479,1.439-1.439v-2.016
				h9.792v3.455c0,2.24-0.592,3.953-1.775,5.137C132.943-0.592,131.231,0,128.991,0h-22.079c-2.24,0-3.953-0.592-5.137-1.775
				S100-4.672,100-6.912z"/>
		</g>
		<g>
			<path d="M0-74.244v-19.776c0-2.239,0.592-3.952,1.775-5.136s2.896-1.776,5.137-1.776h22.079c2.24,0,3.952,0.593,5.137,1.776
				c1.184,1.184,1.775,2.896,1.775,5.136v3.456h-9.792v-2.016c0-0.961-0.479-1.44-1.439-1.44h-13.44c-0.96,0-1.439,0.479-1.439,1.44
				v16.896c0,0.96,0.479,1.44,1.439,1.44h13.44c0.96,0,1.439-0.48,1.439-1.44v-2.017h9.792v3.457c0,2.24-0.592,3.952-1.775,5.136
				c-1.185,1.185-2.896,1.776-5.137,1.776H6.912c-2.24,0-3.953-0.592-5.137-1.776C0.592-70.292,0-72.004,0-74.244z"/>
			<path d="M0-40.578v-19.775c0-2.24,0.592-3.952,1.775-5.137c1.184-1.184,2.896-1.775,5.137-1.775h22.079
				c2.24,0,3.952,0.592,5.137,1.775c1.184,1.185,1.775,2.896,1.775,5.137v3.455h-9.792v-2.016c0-0.96-0.479-1.439-1.439-1.439
				h-13.44c-0.96,0-1.439,0.479-1.439,1.439v16.896c0,0.959,0.479,1.439,1.439,1.439h13.44c0.96,0,1.439-0.48,1.439-1.439v-2.017
				h9.792v3.456c0,2.24-0.592,3.953-1.775,5.137c-1.185,1.184-2.896,1.775-5.137,1.775H6.912c-2.24,0-3.953-0.592-5.137-1.775
				S0-38.338,0-40.578z"/>
			<path d="M0-6.912v-19.775c0-2.24,0.592-3.951,1.775-5.137C2.959-33.007,4.672-33.6,6.912-33.6h22.079
				c2.24,0,3.952,0.593,5.137,1.775c1.184,1.186,1.775,2.896,1.775,5.137v3.456h-9.792v-2.017c0-0.959-0.479-1.439-1.439-1.439
				h-13.44c-0.96,0-1.439,0.48-1.439,1.439v16.896c0,0.96,0.479,1.439,1.439,1.439h13.44c0.96,0,1.439-0.479,1.439-1.439v-2.016
				h9.792v3.455c0,2.24-0.592,3.953-1.775,5.137C32.943-0.592,31.231,0,28.991,0H6.912c-2.24,0-3.953-0.592-5.137-1.775
				S0-4.672,0-6.912z"/>
		</g>
		<g>
			<path d="M26.333-106.912v-19.775c0-2.24,0.592-3.951,1.775-5.137c1.184-1.183,2.896-1.775,5.137-1.775h22.079
				c2.24,0,3.952,0.593,5.137,1.775c1.184,1.186,1.775,2.896,1.775,5.137v3.456h-9.792v-2.017c0-0.959-0.479-1.439-1.439-1.439
				h-13.44c-0.96,0-1.439,0.48-1.439,1.439v16.896c0,0.96,0.479,1.439,1.439,1.439h13.44c0.96,0,1.439-0.479,1.439-1.439v-2.016
				h9.792v3.455c0,2.24-0.592,3.953-1.775,5.137c-1.185,1.184-2.896,1.775-5.137,1.775H33.245c-2.24,0-3.953-0.592-5.137-1.775
				S26.333-104.672,26.333-106.912z"/>
			<path d="M40.333-106.912v-19.775c0-2.24,0.592-3.951,1.775-5.137c1.184-1.183,2.896-1.775,5.137-1.775h22.079
				c2.24,0,3.952,0.593,5.137,1.775c1.184,1.186,1.775,2.896,1.775,5.137v3.456h-9.792v-2.017c0-0.959-0.479-1.439-1.439-1.439
				h-13.44c-0.96,0-1.439,0.48-1.439,1.439v16.896c0,0.96,0.479,1.439,1.439,1.439h13.44c0.96,0,1.439-0.479,1.439-1.439v-2.016
				h9.792v3.455c0,2.24-0.592,3.953-1.775,5.137c-1.185,1.184-2.896,1.775-5.137,1.775H47.245c-2.24,0-3.953-0.592-5.137-1.775
				S40.333-104.672,40.333-106.912z"/>
			<path d="M66-106.912v-19.775c0-2.24,0.592-3.951,1.775-5.137c1.184-1.183,2.896-1.775,5.137-1.775h22.079
				c2.24,0,3.952,0.593,5.137,1.775c1.184,1.186,1.775,2.896,1.775,5.137v3.456h-9.792v-2.017c0-0.959-0.479-1.439-1.439-1.439
				h-13.44c-0.96,0-1.439,0.48-1.439,1.439v16.896c0,0.96,0.479,1.439,1.439,1.439h13.44c0.96,0,1.439-0.479,1.439-1.439v-2.016
				h9.792v3.455c0,2.24-0.592,3.953-1.775,5.137c-1.185,1.184-2.896,1.775-5.137,1.775H72.912c-2.24,0-3.953-0.592-5.137-1.775
				S66-104.672,66-106.912z"/>
			<path d="M80-106.912v-19.775c0-2.24,0.592-3.951,1.775-5.137c1.184-1.183,2.896-1.775,5.137-1.775h22.079
				c2.24,0,3.952,0.593,5.137,1.775c1.184,1.186,1.775,2.896,1.775,5.137v3.456h-9.792v-2.017c0-0.959-0.479-1.439-1.439-1.439
				h-13.44c-0.96,0-1.439,0.48-1.439,1.439v16.896c0,0.96,0.479,1.439,1.439,1.439h13.44c0.96,0,1.439-0.479,1.439-1.439v-2.016
				h9.792v3.455c0,2.24-0.592,3.953-1.775,5.137c-1.185,1.184-2.896,1.775-5.137,1.775H86.912c-2.24,0-3.953-0.592-5.137-1.775
				S80-104.672,80-106.912z"/>
			<path d="M100-106.912v-19.775c0-2.24,0.592-3.951,1.775-5.137c1.184-1.183,2.896-1.775,5.137-1.775h22.079
				c2.24,0,3.952,0.593,5.137,1.775c1.184,1.186,1.775,2.896,1.775,5.137v3.456h-9.792v-2.017c0-0.959-0.479-1.439-1.439-1.439
				h-13.44c-0.96,0-1.439,0.48-1.439,1.439v16.896c0,0.96,0.479,1.439,1.439,1.439h13.44c0.96,0,1.439-0.479,1.439-1.439v-2.016
				h9.792v3.455c0,2.24-0.592,3.953-1.775,5.137c-1.185,1.184-2.896,1.775-5.137,1.775h-22.079c-2.24,0-3.953-0.592-5.137-1.775
				S100-104.672,100-106.912z"/>
		</g>
		<g>
			<path d="M0-106.912v-19.775c0-2.24,0.592-3.951,1.775-5.137c1.184-1.183,2.896-1.775,5.137-1.775h22.079
				c2.24,0,3.952,0.593,5.137,1.775c1.184,1.186,1.775,2.896,1.775,5.137v3.456h-9.792v-2.017c0-0.959-0.479-1.439-1.439-1.439
				h-13.44c-0.96,0-1.439,0.48-1.439,1.439v16.896c0,0.96,0.479,1.439,1.439,1.439h13.44c0.96,0,1.439-0.479,1.439-1.439v-2.016
				h9.792v3.455c0,2.24-0.592,3.953-1.775,5.137c-1.185,1.184-2.896,1.775-5.137,1.775H6.912c-2.24,0-3.953-0.592-5.137-1.775
				S0-104.672,0-106.912z"/>
		</g>
	</g>
</pattern>
<g id="Grafik">
	<pattern  id="SVGID_1_" xlink:href="#uc_x5F_c_x5F_blk" patternTransform="matrix(1 0 0 1 1 0)">
	</pattern>
	<rect y="0.171" fill="url(#SVGID_1_)" width="100" height="100"/>
</g>
</svg>
