<?xml version="1.0" encoding="utf-8"?>
<!DOCTYPE svg PUBLIC "-//W3C//DTD SVG 1.1//EN" "http://www.w3.org/Graphics/SVG/1.1/DTD/svg11.dtd">
<svg version="1.1" xmlns="http://www.w3.org/2000/svg" xmlns:xlink="http://www.w3.org/1999/xlink"
	 viewBox="0 0 100 100" xml:space="preserve">
<pattern  x="-1784" y="1148.171" width="100" height="100" patternUnits="userSpaceOnUse" id="uc_x5F_c_x5F_yllw2" viewBox="24.173 -106.6 100 100" overflow="visible">
	<g>
		<polygon fill="none" points="24.173,-106.6 124.173,-106.6 124.173,-6.6 24.173,-6.6 		"/>
		<g>
			<path d="M24.333-79.91v-19.777c0-2.238,0.592-3.951,1.775-5.135s2.896-1.777,5.137-1.777h22.079
				c2.24,0,3.952,0.594,5.137,1.777c1.184,1.184,1.775,2.896,1.775,5.135v3.457h-9.792v-2.016c0-0.961-0.479-1.441-1.439-1.441
				h-13.44c-0.96,0-1.439,0.48-1.439,1.441v16.895c0,0.961,0.479,1.441,1.439,1.441h13.44c0.96,0,1.439-0.48,1.439-1.441v-2.016
				h9.792v3.457c0,2.24-0.592,3.951-1.775,5.135c-1.185,1.186-2.896,1.777-5.137,1.777H31.245c-2.24,0-3.953-0.592-5.137-1.777
				C24.925-75.959,24.333-77.67,24.333-79.91z"/>
			<path d="M29.333-79.91v-19.777c0-2.238,0.592-3.951,1.775-5.135s2.896-1.777,5.137-1.777h22.079
				c2.24,0,3.952,0.594,5.137,1.777c1.184,1.184,1.775,2.896,1.775,5.135v3.457h-9.792v-2.016c0-0.961-0.479-1.441-1.439-1.441
				h-13.44c-0.96,0-1.439,0.48-1.439,1.441v16.895c0,0.961,0.479,1.441,1.439,1.441h13.44c0.96,0,1.439-0.48,1.439-1.441v-2.016
				h9.792v3.457c0,2.24-0.592,3.951-1.775,5.135c-1.185,1.186-2.896,1.777-5.137,1.777H36.245c-2.24,0-3.953-0.592-5.137-1.777
				C29.925-75.959,29.333-77.67,29.333-79.91z"/>
			<path d="M64-79.91v-19.777c0-2.238,0.592-3.951,1.775-5.135s2.896-1.777,5.137-1.777h22.079
				c2.24,0,3.952,0.594,5.137,1.777c1.184,1.184,1.775,2.896,1.775,5.135v3.457h-9.792v-2.016c0-0.961-0.479-1.441-1.439-1.441
				h-13.44c-0.96,0-1.439,0.48-1.439,1.441v16.895c0,0.961,0.479,1.441,1.439,1.441h13.44c0.96,0,1.439-0.48,1.439-1.441v-2.016
				h9.792v3.457c0,2.24-0.592,3.951-1.775,5.135c-1.185,1.186-2.896,1.777-5.137,1.777H70.912c-2.24,0-3.953-0.592-5.137-1.777
				C64.592-75.959,64-77.67,64-79.91z"/>
			<path d="M81-79.91v-19.777c0-2.238,0.592-3.951,1.775-5.135s2.896-1.777,5.137-1.777h22.079
				c2.24,0,3.952,0.594,5.137,1.777c1.184,1.184,1.775,2.896,1.775,5.135v3.457h-9.792v-2.016c0-0.961-0.479-1.441-1.439-1.441
				h-13.44c-0.96,0-1.439,0.48-1.439,1.441v16.895c0,0.961,0.479,1.441,1.439,1.441h13.44c0.96,0,1.439-0.48,1.439-1.441v-2.016
				h9.792v3.457c0,2.24-0.592,3.951-1.775,5.135c-1.185,1.186-2.896,1.777-5.137,1.777H87.912c-2.24,0-3.953-0.592-5.137-1.777
				C81.592-75.959,81-77.67,81-79.91z"/>
			<path d="M24.333-56.244V-76.02c0-2.24,0.592-3.953,1.775-5.137s2.896-1.775,5.137-1.775h22.079
				c2.24,0,3.952,0.592,5.137,1.775c1.184,1.184,1.775,2.896,1.775,5.137v3.455h-9.792v-2.016c0-0.961-0.479-1.439-1.439-1.439
				h-13.44c-0.96,0-1.439,0.479-1.439,1.439v16.896c0,0.959,0.479,1.439,1.439,1.439h13.44c0.96,0,1.439-0.48,1.439-1.439v-2.018
				h9.792v3.457c0,2.24-0.592,3.953-1.775,5.137c-1.185,1.184-2.896,1.775-5.137,1.775H31.245c-2.24,0-3.953-0.592-5.137-1.775
				S24.333-54.004,24.333-56.244z"/>
			<path d="M29.333-56.244V-76.02c0-2.24,0.592-3.953,1.775-5.137s2.896-1.775,5.137-1.775h22.079
				c2.24,0,3.952,0.592,5.137,1.775c1.184,1.184,1.775,2.896,1.775,5.137v3.455h-9.792v-2.016c0-0.961-0.479-1.439-1.439-1.439
				h-13.44c-0.96,0-1.439,0.479-1.439,1.439v16.896c0,0.959,0.479,1.439,1.439,1.439h13.44c0.96,0,1.439-0.48,1.439-1.439v-2.018
				h9.792v3.457c0,2.24-0.592,3.953-1.775,5.137c-1.185,1.184-2.896,1.775-5.137,1.775H36.245c-2.24,0-3.953-0.592-5.137-1.775
				S29.333-54.004,29.333-56.244z"/>
			<path d="M64-56.244V-76.02c0-2.24,0.592-3.953,1.775-5.137s2.896-1.775,5.137-1.775h22.079
				c2.24,0,3.952,0.592,5.137,1.775c1.184,1.184,1.775,2.896,1.775,5.137v3.455h-9.792v-2.016c0-0.961-0.479-1.439-1.439-1.439
				h-13.44c-0.96,0-1.439,0.479-1.439,1.439v16.896c0,0.959,0.479,1.439,1.439,1.439h13.44c0.96,0,1.439-0.48,1.439-1.439v-2.018
				h9.792v3.457c0,2.24-0.592,3.953-1.775,5.137c-1.185,1.184-2.896,1.775-5.137,1.775H70.912c-2.24,0-3.953-0.592-5.137-1.775
				S64-54.004,64-56.244z"/>
			<path d="M81-56.244V-76.02c0-2.24,0.592-3.953,1.775-5.137s2.896-1.775,5.137-1.775h22.079
				c2.24,0,3.952,0.592,5.137,1.775c1.184,1.184,1.775,2.896,1.775,5.137v3.455h-9.792v-2.016c0-0.961-0.479-1.439-1.439-1.439
				h-13.44c-0.96,0-1.439,0.479-1.439,1.439v16.896c0,0.959,0.479,1.439,1.439,1.439h13.44c0.96,0,1.439-0.48,1.439-1.439v-2.018
				h9.792v3.457c0,2.24-0.592,3.953-1.775,5.137c-1.185,1.184-2.896,1.775-5.137,1.775H87.912c-2.24,0-3.953-0.592-5.137-1.775
				S81-54.004,81-56.244z"/>
			<path d="M24.333-33.578v-19.775c0-2.24,0.592-3.951,1.775-5.137c1.184-1.184,2.896-1.775,5.137-1.775h22.079
				c2.24,0,3.952,0.592,5.137,1.775c1.184,1.186,1.775,2.896,1.775,5.137v3.455h-9.792v-2.016c0-0.959-0.479-1.439-1.439-1.439
				h-13.44c-0.96,0-1.439,0.48-1.439,1.439v16.896c0,0.959,0.479,1.439,1.439,1.439h13.44c0.96,0,1.439-0.48,1.439-1.439v-2.016
				h9.792v3.455c0,2.24-0.592,3.953-1.775,5.137c-1.185,1.184-2.896,1.775-5.137,1.775H31.245c-2.24,0-3.953-0.592-5.137-1.775
				S24.333-31.338,24.333-33.578z"/>
			<path d="M29.333-33.578v-19.775c0-2.24,0.592-3.951,1.775-5.137c1.184-1.184,2.896-1.775,5.137-1.775h22.079
				c2.24,0,3.952,0.592,5.137,1.775c1.184,1.186,1.775,2.896,1.775,5.137v3.455h-9.792v-2.016c0-0.959-0.479-1.439-1.439-1.439
				h-13.44c-0.96,0-1.439,0.48-1.439,1.439v16.896c0,0.959,0.479,1.439,1.439,1.439h13.44c0.96,0,1.439-0.48,1.439-1.439v-2.016
				h9.792v3.455c0,2.24-0.592,3.953-1.775,5.137c-1.185,1.184-2.896,1.775-5.137,1.775H36.245c-2.24,0-3.953-0.592-5.137-1.775
				S29.333-31.338,29.333-33.578z"/>
			<path d="M64-33.578v-19.775c0-2.24,0.592-3.951,1.775-5.137c1.184-1.184,2.896-1.775,5.137-1.775h22.079
				c2.24,0,3.952,0.592,5.137,1.775c1.184,1.186,1.775,2.896,1.775,5.137v3.455h-9.792v-2.016c0-0.959-0.479-1.439-1.439-1.439
				h-13.44c-0.96,0-1.439,0.48-1.439,1.439v16.896c0,0.959,0.479,1.439,1.439,1.439h13.44c0.96,0,1.439-0.48,1.439-1.439v-2.016
				h9.792v3.455c0,2.24-0.592,3.953-1.775,5.137c-1.185,1.184-2.896,1.775-5.137,1.775H70.912c-2.24,0-3.953-0.592-5.137-1.775
				S64-31.338,64-33.578z"/>
			<path d="M81-33.578v-19.775c0-2.24,0.592-3.951,1.775-5.137c1.184-1.184,2.896-1.775,5.137-1.775h22.079
				c2.24,0,3.952,0.592,5.137,1.775c1.184,1.186,1.775,2.896,1.775,5.137v3.455h-9.792v-2.016c0-0.959-0.479-1.439-1.439-1.439
				h-13.44c-0.96,0-1.439,0.48-1.439,1.439v16.896c0,0.959,0.479,1.439,1.439,1.439h13.44c0.96,0,1.439-0.48,1.439-1.439v-2.016
				h9.792v3.455c0,2.24-0.592,3.953-1.775,5.137c-1.185,1.184-2.896,1.775-5.137,1.775H87.912c-2.24,0-3.953-0.592-5.137-1.775
				S81-31.338,81-33.578z"/>
			<path d="M100-79.91v-19.777c0-2.238,0.592-3.951,1.775-5.135s2.896-1.777,5.137-1.777h22.079
				c2.24,0,3.952,0.594,5.137,1.777c1.184,1.184,1.775,2.896,1.775,5.135v3.457h-9.792v-2.016c0-0.961-0.479-1.441-1.439-1.441
				h-13.44c-0.96,0-1.439,0.48-1.439,1.441v16.895c0,0.961,0.479,1.441,1.439,1.441h13.44c0.96,0,1.439-0.48,1.439-1.441v-2.016
				h9.792v3.457c0,2.24-0.592,3.951-1.775,5.135c-1.185,1.186-2.896,1.777-5.137,1.777h-22.079c-2.24,0-3.953-0.592-5.137-1.777
				C100.592-75.959,100-77.67,100-79.91z"/>
			<path d="M100-56.244V-76.02c0-2.24,0.592-3.953,1.775-5.137s2.896-1.775,5.137-1.775h22.079
				c2.24,0,3.952,0.592,5.137,1.775c1.184,1.184,1.775,2.896,1.775,5.137v3.455h-9.792v-2.016c0-0.961-0.479-1.439-1.439-1.439
				h-13.44c-0.96,0-1.439,0.479-1.439,1.439v16.896c0,0.959,0.479,1.439,1.439,1.439h13.44c0.96,0,1.439-0.48,1.439-1.439v-2.018
				h9.792v3.457c0,2.24-0.592,3.953-1.775,5.137c-1.185,1.184-2.896,1.775-5.137,1.775h-22.079c-2.24,0-3.953-0.592-5.137-1.775
				S100-54.004,100-56.244z"/>
			<path d="M100-33.578v-19.775c0-2.24,0.592-3.951,1.775-5.137c1.184-1.184,2.896-1.775,5.137-1.775h22.079
				c2.24,0,3.952,0.592,5.137,1.775c1.184,1.186,1.775,2.896,1.775,5.137v3.455h-9.792v-2.016c0-0.959-0.479-1.439-1.439-1.439
				h-13.44c-0.96,0-1.439,0.48-1.439,1.439v16.896c0,0.959,0.479,1.439,1.439,1.439h13.44c0.96,0,1.439-0.48,1.439-1.439v-2.016
				h9.792v3.455c0,2.24-0.592,3.953-1.775,5.137c-1.185,1.184-2.896,1.775-5.137,1.775h-22.079c-2.24,0-3.953-0.592-5.137-1.775
				S100-31.338,100-33.578z"/>
			<path d="M24.333-6.912v-19.775c0-2.24,0.592-3.951,1.775-5.137c1.184-1.183,2.896-1.775,5.137-1.775h22.079
				c2.24,0,3.952,0.593,5.137,1.775c1.184,1.186,1.775,2.896,1.775,5.137v3.456h-9.792v-2.017c0-0.959-0.479-1.439-1.439-1.439
				h-13.44c-0.96,0-1.439,0.48-1.439,1.439v16.896c0,0.96,0.479,1.439,1.439,1.439h13.44c0.96,0,1.439-0.479,1.439-1.439v-2.016
				h9.792v3.455c0,2.24-0.592,3.953-1.775,5.137C57.276-0.592,55.564,0,53.324,0H31.245c-2.24,0-3.953-0.592-5.137-1.775
				S24.333-4.672,24.333-6.912z"/>
			<path d="M29.333-6.912v-19.775c0-2.24,0.592-3.951,1.775-5.137c1.184-1.183,2.896-1.775,5.137-1.775h22.079
				c2.24,0,3.952,0.593,5.137,1.775c1.184,1.186,1.775,2.896,1.775,5.137v3.456h-9.792v-2.017c0-0.959-0.479-1.439-1.439-1.439
				h-13.44c-0.96,0-1.439,0.48-1.439,1.439v16.896c0,0.96,0.479,1.439,1.439,1.439h13.44c0.96,0,1.439-0.479,1.439-1.439v-2.016
				h9.792v3.455c0,2.24-0.592,3.953-1.775,5.137C62.276-0.592,60.564,0,58.324,0H36.245c-2.24,0-3.953-0.592-5.137-1.775
				S29.333-4.672,29.333-6.912z"/>
			<path d="M64-6.912v-19.775c0-2.24,0.592-3.951,1.775-5.137c1.184-1.183,2.896-1.775,5.137-1.775h22.079
				c2.24,0,3.952,0.593,5.137,1.775c1.184,1.186,1.775,2.896,1.775,5.137v3.456h-9.792v-2.017c0-0.959-0.479-1.439-1.439-1.439
				h-13.44c-0.96,0-1.439,0.48-1.439,1.439v16.896c0,0.96,0.479,1.439,1.439,1.439h13.44c0.96,0,1.439-0.479,1.439-1.439v-2.016
				h9.792v3.455c0,2.24-0.592,3.953-1.775,5.137C96.943-0.592,95.231,0,92.991,0H70.912c-2.24,0-3.953-0.592-5.137-1.775
				S64-4.672,64-6.912z"/>
			<path d="M81-6.912v-19.775c0-2.24,0.592-3.951,1.775-5.137c1.184-1.183,2.896-1.775,5.137-1.775h22.079
				c2.24,0,3.952,0.593,5.137,1.775c1.184,1.186,1.775,2.896,1.775,5.137v3.456h-9.792v-2.017c0-0.959-0.479-1.439-1.439-1.439
				h-13.44c-0.96,0-1.439,0.48-1.439,1.439v16.896c0,0.96,0.479,1.439,1.439,1.439h13.44c0.96,0,1.439-0.479,1.439-1.439v-2.016
				h9.792v3.455c0,2.24-0.592,3.953-1.775,5.137C113.943-0.592,112.231,0,109.991,0H87.912c-2.24,0-3.953-0.592-5.137-1.775
				S81-4.672,81-6.912z"/>
			<path d="M100-6.912v-19.775c0-2.24,0.592-3.951,1.775-5.137c1.184-1.183,2.896-1.775,5.137-1.775h22.079
				c2.24,0,3.952,0.593,5.137,1.775c1.184,1.186,1.775,2.896,1.775,5.137v3.456h-9.792v-2.017c0-0.959-0.479-1.439-1.439-1.439
				h-13.44c-0.96,0-1.439,0.48-1.439,1.439v16.896c0,0.96,0.479,1.439,1.439,1.439h13.44c0.96,0,1.439-0.479,1.439-1.439v-2.016
				h9.792v3.455c0,2.24-0.592,3.953-1.775,5.137C132.943-0.592,131.231,0,128.991,0h-22.079c-2.24,0-3.953-0.592-5.137-1.775
				S100-4.672,100-6.912z"/>
		</g>
		<g>
			<path d="M0-79.91v-19.777c0-2.238,0.592-3.951,1.775-5.135s2.896-1.777,5.137-1.777h22.079
				c2.24,0,3.952,0.594,5.137,1.777c1.184,1.184,1.775,2.896,1.775,5.135v3.457h-9.792v-2.016c0-0.961-0.479-1.441-1.439-1.441
				h-13.44c-0.96,0-1.439,0.48-1.439,1.441v16.895c0,0.961,0.479,1.441,1.439,1.441h13.44c0.96,0,1.439-0.48,1.439-1.441v-2.016
				h9.792v3.457c0,2.24-0.592,3.951-1.775,5.135c-1.185,1.186-2.896,1.777-5.137,1.777H6.912c-2.24,0-3.953-0.592-5.137-1.777
				C0.592-75.959,0-77.67,0-79.91z"/>
			<path d="M0-56.244V-76.02c0-2.24,0.592-3.953,1.775-5.137s2.896-1.775,5.137-1.775h22.079
				c2.24,0,3.952,0.592,5.137,1.775c1.184,1.184,1.775,2.896,1.775,5.137v3.455h-9.792v-2.016c0-0.961-0.479-1.439-1.439-1.439
				h-13.44c-0.96,0-1.439,0.479-1.439,1.439v16.896c0,0.959,0.479,1.439,1.439,1.439h13.44c0.96,0,1.439-0.48,1.439-1.439v-2.018
				h9.792v3.457c0,2.24-0.592,3.953-1.775,5.137c-1.185,1.184-2.896,1.775-5.137,1.775H6.912c-2.24,0-3.953-0.592-5.137-1.775
				S0-54.004,0-56.244z"/>
			<path d="M0-33.578v-19.775c0-2.24,0.592-3.951,1.775-5.137c1.184-1.184,2.896-1.775,5.137-1.775h22.079
				c2.24,0,3.952,0.592,5.137,1.775c1.184,1.186,1.775,2.896,1.775,5.137v3.455h-9.792v-2.016c0-0.959-0.479-1.439-1.439-1.439
				h-13.44c-0.96,0-1.439,0.48-1.439,1.439v16.896c0,0.959,0.479,1.439,1.439,1.439h13.44c0.96,0,1.439-0.48,1.439-1.439v-2.016
				h9.792v3.455c0,2.24-0.592,3.953-1.775,5.137c-1.185,1.184-2.896,1.775-5.137,1.775H6.912c-2.24,0-3.953-0.592-5.137-1.775
				S0-31.338,0-33.578z"/>
			<path d="M0-6.912v-19.775c0-2.24,0.592-3.951,1.775-5.137C2.959-33.007,4.672-33.6,6.912-33.6h22.079
				c2.24,0,3.952,0.593,5.137,1.775c1.184,1.186,1.775,2.896,1.775,5.137v3.456h-9.792v-2.017c0-0.959-0.479-1.439-1.439-1.439
				h-13.44c-0.96,0-1.439,0.48-1.439,1.439v16.896c0,0.96,0.479,1.439,1.439,1.439h13.44c0.96,0,1.439-0.479,1.439-1.439v-2.016
				h9.792v3.455c0,2.24-0.592,3.953-1.775,5.137C32.943-0.592,31.231,0,28.991,0H6.912c-2.24,0-3.953-0.592-5.137-1.775
				S0-4.672,0-6.912z"/>
		</g>
		<g>
			<path d="M24.333-106.912v-19.775c0-2.24,0.592-3.951,1.775-5.137c1.184-1.183,2.896-1.775,5.137-1.775h22.079
				c2.24,0,3.952,0.593,5.137,1.775c1.184,1.186,1.775,2.896,1.775,5.137v3.456h-9.792v-2.017c0-0.959-0.479-1.439-1.439-1.439
				h-13.44c-0.96,0-1.439,0.48-1.439,1.439v16.896c0,0.96,0.479,1.439,1.439,1.439h13.44c0.96,0,1.439-0.479,1.439-1.439v-2.016
				h9.792v3.455c0,2.24-0.592,3.953-1.775,5.137c-1.185,1.184-2.896,1.775-5.137,1.775H31.245c-2.24,0-3.953-0.592-5.137-1.775
				S24.333-104.672,24.333-106.912z"/>
			<path d="M29.333-106.912v-19.775c0-2.24,0.592-3.951,1.775-5.137c1.184-1.183,2.896-1.775,5.137-1.775h22.079
				c2.24,0,3.952,0.593,5.137,1.775c1.184,1.186,1.775,2.896,1.775,5.137v3.456h-9.792v-2.017c0-0.959-0.479-1.439-1.439-1.439
				h-13.44c-0.96,0-1.439,0.48-1.439,1.439v16.896c0,0.96,0.479,1.439,1.439,1.439h13.44c0.96,0,1.439-0.479,1.439-1.439v-2.016
				h9.792v3.455c0,2.24-0.592,3.953-1.775,5.137c-1.185,1.184-2.896,1.775-5.137,1.775H36.245c-2.24,0-3.953-0.592-5.137-1.775
				S29.333-104.672,29.333-106.912z"/>
			<path d="M64-106.912v-19.775c0-2.24,0.592-3.951,1.775-5.137c1.184-1.183,2.896-1.775,5.137-1.775h22.079
				c2.24,0,3.952,0.593,5.137,1.775c1.184,1.186,1.775,2.896,1.775,5.137v3.456h-9.792v-2.017c0-0.959-0.479-1.439-1.439-1.439
				h-13.44c-0.96,0-1.439,0.48-1.439,1.439v16.896c0,0.96,0.479,1.439,1.439,1.439h13.44c0.96,0,1.439-0.479,1.439-1.439v-2.016
				h9.792v3.455c0,2.24-0.592,3.953-1.775,5.137c-1.185,1.184-2.896,1.775-5.137,1.775H70.912c-2.24,0-3.953-0.592-5.137-1.775
				S64-104.672,64-106.912z"/>
			<path d="M81-106.912v-19.775c0-2.24,0.592-3.951,1.775-5.137c1.184-1.183,2.896-1.775,5.137-1.775h22.079
				c2.24,0,3.952,0.593,5.137,1.775c1.184,1.186,1.775,2.896,1.775,5.137v3.456h-9.792v-2.017c0-0.959-0.479-1.439-1.439-1.439
				h-13.44c-0.96,0-1.439,0.48-1.439,1.439v16.896c0,0.96,0.479,1.439,1.439,1.439h13.44c0.96,0,1.439-0.479,1.439-1.439v-2.016
				h9.792v3.455c0,2.24-0.592,3.953-1.775,5.137c-1.185,1.184-2.896,1.775-5.137,1.775H87.912c-2.24,0-3.953-0.592-5.137-1.775
				S81-104.672,81-106.912z"/>
			<path d="M100-106.912v-19.775c0-2.24,0.592-3.951,1.775-5.137c1.184-1.183,2.896-1.775,5.137-1.775h22.079
				c2.24,0,3.952,0.593,5.137,1.775c1.184,1.186,1.775,2.896,1.775,5.137v3.456h-9.792v-2.017c0-0.959-0.479-1.439-1.439-1.439
				h-13.44c-0.96,0-1.439,0.48-1.439,1.439v16.896c0,0.96,0.479,1.439,1.439,1.439h13.44c0.96,0,1.439-0.479,1.439-1.439v-2.016
				h9.792v3.455c0,2.24-0.592,3.953-1.775,5.137c-1.185,1.184-2.896,1.775-5.137,1.775h-22.079c-2.24,0-3.953-0.592-5.137-1.775
				S100-104.672,100-106.912z"/>
		</g>
		<g>
			<path d="M0-106.912v-19.775c0-2.24,0.592-3.951,1.775-5.137c1.184-1.183,2.896-1.775,5.137-1.775h22.079
				c2.24,0,3.952,0.593,5.137,1.775c1.184,1.186,1.775,2.896,1.775,5.137v3.456h-9.792v-2.017c0-0.959-0.479-1.439-1.439-1.439
				h-13.44c-0.96,0-1.439,0.48-1.439,1.439v16.896c0,0.96,0.479,1.439,1.439,1.439h13.44c0.96,0,1.439-0.479,1.439-1.439v-2.016
				h9.792v3.455c0,2.24-0.592,3.953-1.775,5.137c-1.185,1.184-2.896,1.775-5.137,1.775H6.912c-2.24,0-3.953-0.592-5.137-1.775
				S0-104.672,0-106.912z"/>
		</g>
	</g>
</pattern>
	<g id="Grafik">
	<pattern  id="SVGID_1_" xlink:href="#uc_x5F_c_x5F_yllw2" patternTransform="matrix(1 0 0 1 1 0)">
	</pattern>
		<rect y="0.171" fill="url(#SVGID_1_)" width="100" height="100"/>
</g>
</svg>
