<svg version="1.1" xmlns="http://www.w3.org/2000/svg" xmlns:xlink="http://www.w3.org/1999/xlink" viewBox="0 0 60 60" xml:space="preserve">
	<g>
		<g>
			<path fill="#F2FF5B" d="M27.828,26.571v-9.494c0-2.618,0.691-4.619,2.078-6.001C31.293,9.691,33.295,9,35.916,9h7.306
				c2.62,0,4.624,0.691,6.013,2.076c1.381,1.383,2.076,3.385,2.076,6.002l-0.008,9.444L27.828,26.571z"/>
			<polygon fill="#F2FF5B" points="42.144,9 37.074,9 27.828,26.571 39.578,44.044 51.303,26.522"/>
		</g>
		<path d="M46.313,20.901l-11.949,5.4v-10.8L46.313,20.901z"/>
	</g>
	<path d="M37.576,48.903c0-1.221,0.824-2.079,1.979-2.079s1.947,0.858,1.947,2.079c0,1.188-0.76,2.078-1.98,2.078
		C38.367,50.981,37.576,50.091,37.576,48.903z"/>
	<path d="M28.062,48.903c0-1.221,0.824-2.079,1.979-2.079c1.154,0,1.946,0.858,1.946,2.079c0,1.188-0.759,2.078-1.979,2.078
		C28.853,50.981,28.062,50.091,28.062,48.903z"/>
	<path d="M18.547,48.903c0-1.221,0.824-2.079,1.98-2.079c1.154,0,1.945,0.858,1.945,2.079c0,1.188-0.758,2.078-1.979,2.078
		C19.338,50.981,18.547,50.091,18.547,48.903z"/>
	<path d="M9.033,48.903c0-1.221,0.824-2.079,1.979-2.079c1.154,0,1.946,0.858,1.946,2.079c0,1.188-0.759,2.078-1.979,2.078
		C9.824,50.981,9.033,50.091,9.033,48.903z"/>
</svg>
