<?xml version="1.0" encoding="utf-8"?>
<!DOCTYPE svg PUBLIC "-//W3C//DTD SVG 1.1//EN" "http://www.w3.org/Graphics/SVG/1.1/DTD/svg11.dtd">
<svg version="1.1" xmlns="http://www.w3.org/2000/svg" xmlns:xlink="http://www.w3.org/1999/xlink" viewBox="0 0 60 60" xml:space="preserve">
<path fill="#00ECEC" d="M31.547,19.283C30.533,20.297,29.135,21,27.217,21H22v17.42l4.954,7.536
	C27.086,45.759,27,45.514,27,45.184V29.978c0-1.917,0.615-3.413,1.629-4.427S31.217,24,33.134,24H39V9.571
	C38,9.181,36.201,9,34.616,9H33v5.688C33,16.607,32.561,18.27,31.547,19.283z"/>
<path fill="#00ECEC" d="M23.108,12h2.876C26.806,12,27,11.812,27,10.99V9h-1.139C24.379,9,23,9.136,22,9.447v1.542
	C22,11.811,22.286,12,23.108,12z"/>
<path fill="#00ECEC" d="M37.571,32h-3.205C33.545,32,33,32.854,33,33.677v12.83l6-8.32v-4.51C39,32.854,38.393,32,37.571,32z"/>
<path d="M44.139,30h0.164l0.008-11.567c0-3.137-0.734-5.411-2.391-7.069C41.096,10.542,40,9.955,39,9.571V24h-5.866
	c-1.917,0-3.491,0.537-4.505,1.551S27,28.06,27,29.978v15.207c0,0.33,0.023,0.575-0.109,0.772l3.239,4.78l2.87-4.23v-12.83
	C33,32.854,33.545,32,34.366,32h3.205C38.393,32,39,32.854,39,33.677v4.51L44.303,30H44.139z"/>
<path d="M16,18.182V30l0,0l0,0l6,8.42V21h5.217c1.918,0,3.316-0.703,4.33-1.717S33,16.607,33,14.688V9h-6v1.99
	c0,0.822-0.194,1.01-1.016,1.01h-2.876C22.286,12,22,11.811,22,10.989V9.447c-1,0.347-2.486,0.916-3.363,1.792
	C16.977,12.896,16,15.045,16,18.182z"/>
</svg>
