<?xml version="1.0" encoding="utf-8"?>
<!DOCTYPE svg PUBLIC "-//W3C//DTD SVG 1.1//EN" "http://www.w3.org/Graphics/SVG/1.1/DTD/svg11.dtd">
<svg version="1.1" xmlns="http://www.w3.org/2000/svg" xmlns:xlink="http://www.w3.org/1999/xlink" viewBox="0 0 60 60" xml:space="preserve">
<path fill="#00ECEC" d="M43.978,18.433c0-3.137-0.832-5.411-2.488-7.069C39.823,9.704,37.424,9,34.283,9h-8.755
	c-3.141,0-5.458,0.579-7.12,2.238C16.748,12.896,16,15.045,16,18.182V30h-0.032l-0.132,0.029l14.082,20.707L43.97,30.117
	L43.806,30h0.164L43.978,18.433z"/>
<path d="M22.839,29.502v-5.625c0-1.55,0.41-2.736,1.23-3.555c0.82-0.82,2.004-1.229,3.555-1.229h4.32
	c1.549,0,2.734,0.41,3.558,1.23c0.815,0.819,1.226,2.005,1.226,3.556v5.624H22.839z"/>
</svg>
