<?xml version="1.0" encoding="utf-8"?>
<!DOCTYPE svg PUBLIC "-//W3C//DTD SVG 1.1//EN" "http://www.w3.org/Graphics/SVG/1.1/DTD/svg11.dtd">
<svg version="1.1" xmlns="http://www.w3.org/2000/svg" xmlns:xlink="http://www.w3.org/1999/xlink"
	 viewBox="0 0 60 60" xml:space="preserve">
	<g>
		<path fill="#F2FF5B" d="M16.168,30.059V18.68c0-3.137,0.83-5.535,2.49-7.193C20.32,9.828,22.721,9,25.861,9h8.755c3.141,0,5.54,0.829,7.206,2.488
			c1.656,1.658,2.488,4.056,2.488,7.193L44.303,30L16.168,30.059z"/>
		<polygon fill="#F2FF5B" points="33.323,9 27.25,9 16.168,30.059 30.25,51 44.303,30"/>
		<path d="M23.172,30v-5.625c0-1.55,0.41-2.736,1.23-3.555c0.82-0.82,2.004-1.229,3.555-1.229h4.32
			c1.549,0,2.734,0.41,3.557,1.23c0.816,0.819,1.227,2.005,1.227,3.556V30H23.172z"/>
	</g>
</svg>
