<?xml version="1.0" encoding="utf-8"?>
<!DOCTYPE svg PUBLIC "-//W3C//DTD SVG 1.1//EN" "http://www.w3.org/Graphics/SVG/1.1/DTD/svg11.dtd">
<svg version="1.1" xmlns="http://www.w3.org/2000/svg" xmlns:xlink="http://www.w3.org/1999/xlink" viewBox="0 0 60 60" xml:space="preserve">
<rect x="27" y="9" fill="#00ECEC" width="7" height="16"/>
<path fill="#00ECEC" d="M20,10.567c-1,0.203-0.791,0.421-1.043,0.671C17.297,12.896,16,15.045,16,18.182V25h4V10.567z"/>
<polygon fill="#00ECEC" points="16,30 26,43.71 26,30 16,30 			"/>
<path fill="#00ECEC" d="M33,45.338c0,0.633,0.11,0.973,0.662,1.054L40,36.827V30h-7V45.338z"/>
<path fill="#00ECEC" d="M44.633,18.318c0-3.137-0.795-5.354-2.451-7.012C41.814,10.941,41,10.632,41,10.361V29h3.616
	L44.633,18.318z"/>
<path d="M44.604,29H41V10.361C39,9.401,37.398,9,34.949,9H34v16h-7V9h-0.806C23.527,9,21,9.425,20,10.567V25h-4v5h10v13.71
	l4.768,7.026l2.904-4.377C33.12,46.278,33,45.971,33,45.338V30h7v6.827l4.589-6.806L44.609,30L44.604,29z"/>
</svg>
