<?xml version="1.0" encoding="utf-8"?>
<!DOCTYPE svg PUBLIC "-//W3C//DTD SVG 1.1//EN" "http://www.w3.org/Graphics/SVG/1.1/DTD/svg11.dtd">
<svg version="1.1" xmlns="http://www.w3.org/2000/svg" xmlns:xlink="http://www.w3.org/1999/xlink" viewBox="0 0 60 60" xml:space="preserve">
<path fill="#00ECEC" d="M33.996,30l7.168-12h3.443c-0.122-3-0.934-4.962-2.457-6.486C40.484,9.854,38.09,9,34.949,9h-8.755
	C26.107,9,26,9.005,26,9.006V30H33.996z"/>
<polygon fill="#00ECEC" points="26,37 26,44.296 30.447,50.736 36.779,41.578 34.049,37 		"/>
<path d="M44.447,30.047L44.553,30l-0.015,0.021L44.615,30l0.018-11.418c0-0.252-0.014-0.582-0.025-0.582h-3.443l-7.168,12H26
	V9.006c-3,0.032-5.613,0.619-7.229,2.232C17.111,12.896,16,15.045,16,18.182V30l10,14.296V37h8.049l2.715,4.578l7.774-11.48
	L44.447,30.047z"/>
</svg>
