<?xml version="1.0" encoding="utf-8"?>
<!DOCTYPE svg PUBLIC "-//W3C//DTD SVG 1.1//EN" "http://www.w3.org/Graphics/SVG/1.1/DTD/svg11.dtd">
<svg version="1.1" xmlns="http://www.w3.org/2000/svg" xmlns:xlink="http://www.w3.org/1999/xlink"
	 viewBox="0 0 100 100" xml:space="preserve">
<pattern  x="-1784" y="1148.171" width="100" height="100" patternUnits="userSpaceOnUse" id="uc_x5F_m_x5F_blk" viewBox="53.775 -101.035 100 100" overflow="visible">
	<g>
		<polygon fill="none" points="53.775,-101.035 153.775,-101.035 153.775,-1.035 53.775,-1.035"/>
		<g>
			<path d="M62.684-87.957v26.748h-8.767v-39.336h13.937l13.037,26.074l13.037-26.074h14.386v39.336H96.85v-26.748l-12.7,26.748
				h-8.092L62.684-87.957z"/>
			<path d="M108.767-87.873v26.748H100v-39.336h13.937l13.037,26.074l13.037-26.074h14.386v39.336h-11.464v-26.748l-12.7,26.748
				h-8.092L108.767-87.873z"/>
			<path d="M62.684-57.791v26.749h-8.767v-39.336h13.937l13.037,26.074l13.037-26.074h14.386v39.336H96.85v-26.749l-12.7,26.749
				h-8.092L62.684-57.791z"/>
			<path d="M108.767-57.707v26.748H100v-39.336h13.937l13.037,26.074l13.037-26.074h14.386v39.336h-11.464v-26.748l-12.7,26.748
				h-8.092L108.767-57.707z"/>
			<path d="M62.684-26.832v26.748h-8.767V-39.42h13.937l13.037,26.074L93.928-39.42h14.386v39.336H96.85v-26.748l-12.7,26.748
				h-8.092L62.684-26.832z"/>
			<path d="M108.767-26.748V0H100v-39.336h13.937l13.037,26.074l13.037-26.074h14.386V0h-11.464v-26.748L130.232,0h-8.092
				L108.767-26.748z"/>
		</g>
		<g>
			<path d="M8.767-87.873v26.748H0v-39.336h13.937l13.037,26.074l13.037-26.074h14.386v39.336H42.933v-26.748l-12.7,26.748h-8.092
				L8.767-87.873z"/>
			<path d="M8.767-57.707v26.748H0v-39.336h13.937l13.037,26.074l13.037-26.074h14.386v39.336H42.933v-26.748l-12.7,26.748h-8.092
				L8.767-57.707z"/>
			<path d="M8.767-26.748V0H0v-39.336h13.937l13.037,26.074l13.037-26.074h14.386V0H42.933v-26.748L30.232,0h-8.092L8.767-26.748z"
				/>
		</g>
		<g>
			<path d="M62.684-126.832v26.748h-8.767v-39.336h13.937l13.037,26.074l13.037-26.074h14.386v39.336H96.85v-26.748l-12.7,26.748
				h-8.092L62.684-126.832z"/>
			<path d="M108.767-126.748V-100H100v-39.336h13.937l13.037,26.074l13.037-26.074h14.386V-100h-11.464v-26.748L130.232-100h-8.092
				L108.767-126.748z"/>
		</g>
		<g>
			<path d="M8.767-126.748V-100H0v-39.336h13.937l13.037,26.074l13.037-26.074h14.386V-100H42.933v-26.748L30.232-100h-8.092
				L8.767-126.748z"/>
		</g>
	</g>
</pattern>
<g id="Grafik">
	<pattern  id="SVGID_1_" xlink:href="#uc_x5F_m_x5F_blk" patternTransform="matrix(1 0 0 1 1 0)">
	</pattern>
	<rect y="0.171" fill="url(#SVGID_1_)" width="100" height="100"/>
</g>
</svg>
