<?xml version="1.0" encoding="utf-8"?>
<!DOCTYPE svg PUBLIC "-//W3C//DTD SVG 1.1//EN" "http://www.w3.org/Graphics/SVG/1.1/DTD/svg11.dtd">
<svg version="1.1" xmlns="http://www.w3.org/2000/svg" xmlns:xlink="http://www.w3.org/1999/xlink"
	 viewBox="0 0 100 100" xml:space="preserve">
<pattern  x="-1784" y="1148.171" width="100" height="100" patternUnits="userSpaceOnUse" id="uc_x5F_m_x5F_yllw" viewBox="52.484 -100.285 100 100" overflow="visible">
	<g>
		<polygon fill="none" points="52.484,-100.285 152.484,-100.285 152.484,-0.285 52.484,-0.285 		"/>
		<g>
			<path fill="#F2FF5B" d="M155.018-87.582v26.748h-8.768v-39.336h13.938l13.037,26.074l13.037-26.074h14.385v39.336h-11.463
				v-26.748l-12.701,26.748h-8.092L155.018-87.582z"/>
			<path fill="#F2FF5B" d="M155.018-56.582v26.748h-8.768V-69.17h13.938l13.037,26.074l13.037-26.074h14.385v39.336h-11.463v-26.748
				l-12.701,26.748h-8.092L155.018-56.582z"/>
			<path fill="#F2FF5B" d="M155.018-26.832v26.748h-8.768V-39.42h13.938l13.037,26.074l13.037-26.074h14.385v39.336h-11.463v-26.748
				L176.482-0.084h-8.092L155.018-26.832z"/>
		</g>
		<g>
			<path fill="#F2FF5B" d="M55.018-87.582v26.748H46.25v-39.336h13.938l13.037,26.074l13.037-26.074h14.385v39.336H89.184v-26.748
				L76.482-60.834h-8.092L55.018-87.582z"/>
			<path fill="#F2FF5B" d="M81.1-87.498v26.748h-8.766v-39.336H86.27l13.037,26.074l13.037-26.074h14.387v39.336h-11.465v-26.748
				L102.566-60.75h-8.092L81.1-87.498z"/>
			<path fill="#F2FF5B" d="M108.768-87.582v26.748H100v-39.336h13.938l13.037,26.074l13.037-26.074h14.385v39.336h-11.463v-26.748
				l-12.701,26.748h-8.092L108.768-87.582z"/>
			<path fill="#F2FF5B" d="M55.018-56.582v26.748H46.25V-69.17h13.938l13.037,26.074L86.262-69.17h14.385v39.336H89.184v-26.748
				L76.482-29.834h-8.092L55.018-56.582z"/>
			<path fill="#F2FF5B" d="M81.1-56.498v26.748h-8.766v-39.336H86.27l13.037,26.074l13.037-26.074h14.387v39.336h-11.465v-26.748
				L102.566-29.75h-8.092L81.1-56.498z"/>
			<path fill="#F2FF5B" d="M108.768-56.582v26.748H100V-69.17h13.938l13.037,26.074l13.037-26.074h14.385v39.336h-11.463v-26.748
				l-12.701,26.748h-8.092L108.768-56.582z"/>
			<path fill="#F2FF5B" d="M55.018-26.832v26.748H46.25V-39.42h13.938l13.037,26.074L86.262-39.42h14.385v39.336H89.184v-26.748
				L76.482-0.084h-8.092L55.018-26.832z"/>
			<path fill="#F2FF5B" d="M81.1-26.748V0h-8.766v-39.336H86.27l13.037,26.074l13.037-26.074h14.387V0h-11.465v-26.748L102.566,0
				h-8.092L81.1-26.748z"/>
			<path fill="#F2FF5B" d="M108.768-26.832v26.748H100V-39.42h13.938l13.037,26.074l13.037-26.074h14.385v39.336h-11.463v-26.748
				L130.232-0.084h-8.092L108.768-26.832z"/>
		</g>
		<g>
			<path fill="#F2FF5B" d="M8.768-87.582v26.748H0v-39.336h13.938l13.037,26.074l13.037-26.074h14.385v39.336H42.934v-26.748
				L30.232-60.834h-8.092L8.768-87.582z"/>
			<path fill="#F2FF5B" d="M8.768-56.582v26.748H0V-69.17h13.938l13.037,26.074L40.012-69.17h14.385v39.336H42.934v-26.748
				L30.232-29.834h-8.092L8.768-56.582z"/>
			<path fill="#F2FF5B" d="M8.768-26.832v26.748H0V-39.42h13.938l13.037,26.074L40.012-39.42h14.385v39.336H42.934v-26.748
				L30.232-0.084h-8.092L8.768-26.832z"/>
		</g>
		<g>
			<path fill="#F2FF5B" d="M155.018-126.832v26.748h-8.768v-39.336h13.938l13.037,26.074l13.037-26.074h14.385v39.336h-11.463
				v-26.748l-12.701,26.748h-8.092L155.018-126.832z"/>
		</g>
		<g>
			<path fill="#F2FF5B" d="M55.018-126.832v26.748H46.25v-39.336h13.938l13.037,26.074l13.037-26.074h14.385v39.336H89.184v-26.748
				l-12.701,26.748h-8.092L55.018-126.832z"/>
			<path fill="#F2FF5B" d="M81.1-126.748V-100h-8.766v-39.336H86.27l13.037,26.074l13.037-26.074h14.387V-100h-11.465v-26.748
				L102.566-100h-8.092L81.1-126.748z"/>
			<path fill="#F2FF5B" d="M108.768-126.832v26.748H100v-39.336h13.938l13.037,26.074l13.037-26.074h14.385v39.336h-11.463v-26.748
				l-12.701,26.748h-8.092L108.768-126.832z"/>
		</g>
		<g>
			<path fill="#F2FF5B" d="M8.768-126.832v26.748H0v-39.336h13.938l13.037,26.074l13.037-26.074h14.385v39.336H42.934v-26.748
				l-12.701,26.748h-8.092L8.768-126.832z"/>
		</g>
	</g>
</pattern>
<g id="Grafik">
	<pattern  id="SVGID_1_" xlink:href="#uc_x5F_m_x5F_yllw" patternTransform="matrix(1 0 0 1 1 0)">
	</pattern>
	<rect y="0.171" fill="url(#SVGID_1_)" width="100" height="100"/>
</g>
</svg>
