<?xml version="1.0" encoding="utf-8"?>
<!DOCTYPE svg PUBLIC "-//W3C//DTD SVG 1.1//EN" "http://www.w3.org/Graphics/SVG/1.1/DTD/svg11.dtd">
<svg version="1.1" xmlns="http://www.w3.org/2000/svg" xmlns:xlink="http://www.w3.org/1999/xlink"
	 viewBox="0 0 100 100" xml:space="preserve">
<pattern  x="-1784" y="1148.171" width="100" height="100" patternUnits="userSpaceOnUse" id="uc_x5F_u_x5F_yllw" viewBox="29.084 -111.799 100 100" overflow="visible">
	<g>
		<polygon fill="none" points="29.084,-111.799 129.084,-111.799 129.084,-11.799 29.084,-11.799 		"/>
		<g>
			<path fill="#F2FF5B" d="M65.237-111.266v26.688c0,2.24-0.593,3.953-1.776,5.137s-2.896,1.775-5.136,1.775h-22.08
				c-2.24,0-3.952-0.592-5.136-1.775c-1.185-1.184-1.776-2.896-1.776-5.137v-26.688h9.792v25.248c0,0.96,0.48,1.439,1.44,1.439
				h13.439c0.96,0,1.44-0.479,1.44-1.439v-25.248H65.237z"/>
			<path fill="#F2FF5B" d="M65.237-84.933v26.688c0,2.24-0.593,3.952-1.776,5.136c-1.184,1.185-2.896,1.776-5.136,1.776h-22.08
				c-2.24,0-3.952-0.592-5.136-1.776c-1.185-1.184-1.776-2.896-1.776-5.136v-26.688h9.792v25.248c0,0.96,0.48,1.44,1.44,1.44h13.439
				c0.96,0,1.44-0.48,1.44-1.44v-25.248H65.237z"/>
			<path fill="#F2FF5B" d="M65.237-59.933v26.688c0,2.24-0.593,3.952-1.776,5.136c-1.184,1.185-2.896,1.776-5.136,1.776h-22.08
				c-2.24,0-3.952-0.592-5.136-1.776c-1.185-1.184-1.776-2.896-1.776-5.136v-26.688h9.792v25.248c0,0.96,0.48,1.44,1.44,1.44h13.439
				c0.96,0,1.44-0.48,1.44-1.44v-25.248H65.237z"/>
			<path fill="#F2FF5B" d="M65.237-33.6v26.688c0,2.24-0.593,3.953-1.776,5.137S60.564,0,58.325,0h-22.08
				c-2.24,0-3.952-0.592-5.136-1.775c-1.185-1.184-1.776-2.896-1.776-5.137V-33.6h9.792v25.248c0,0.96,0.48,1.439,1.44,1.439h13.439
				c0.96,0,1.44-0.479,1.44-1.439V-33.6H65.237z"/>
			<path fill="#F2FF5B" d="M90.571-111.266v26.688c0,2.24-0.593,3.953-1.776,5.137s-2.896,1.775-5.136,1.775h-22.08
				c-2.24,0-3.952-0.592-5.136-1.775c-1.185-1.184-1.776-2.896-1.776-5.137v-26.688h9.792v25.248c0,0.96,0.48,1.439,1.44,1.439
				h13.439c0.96,0,1.44-0.479,1.44-1.439v-25.248H90.571z"/>
			<path fill="#F2FF5B" d="M90.571-84.933v26.688c0,2.24-0.593,3.952-1.776,5.136c-1.184,1.185-2.896,1.776-5.136,1.776h-22.08
				c-2.24,0-3.952-0.592-5.136-1.776c-1.185-1.184-1.776-2.896-1.776-5.136v-26.688h9.792v25.248c0,0.96,0.48,1.44,1.44,1.44h13.439
				c0.96,0,1.44-0.48,1.44-1.44v-25.248H90.571z"/>
			<path fill="#F2FF5B" d="M90.571-59.933v26.688c0,2.24-0.593,3.952-1.776,5.136c-1.184,1.185-2.896,1.776-5.136,1.776h-22.08
				c-2.24,0-3.952-0.592-5.136-1.776c-1.185-1.184-1.776-2.896-1.776-5.136v-26.688h9.792v25.248c0,0.96,0.48,1.44,1.44,1.44h13.439
				c0.96,0,1.44-0.48,1.44-1.44v-25.248H90.571z"/>
			<path fill="#F2FF5B" d="M90.571-33.6v26.688c0,2.24-0.593,3.953-1.776,5.137S85.898,0,83.659,0h-22.08
				c-2.24,0-3.952-0.592-5.136-1.775c-1.185-1.184-1.776-2.896-1.776-5.137V-33.6h9.792v25.248c0,0.96,0.48,1.439,1.44,1.439h13.439
				c0.96,0,1.44-0.479,1.44-1.439V-33.6H90.571z"/>
			<path fill="#F2FF5B" d="M113.571-111.266v26.688c0,2.24-0.593,3.953-1.776,5.137s-2.896,1.775-5.136,1.775h-22.08
				c-2.24,0-3.952-0.592-5.136-1.775c-1.185-1.184-1.776-2.896-1.776-5.137v-26.688h9.792v25.248c0,0.96,0.48,1.439,1.44,1.439
				h13.439c0.96,0,1.44-0.479,1.44-1.439v-25.248H113.571z"/>
			<path fill="#F2FF5B" d="M113.571-84.933v26.688c0,2.24-0.593,3.952-1.776,5.136c-1.184,1.185-2.896,1.776-5.136,1.776h-22.08
				c-2.24,0-3.952-0.592-5.136-1.776c-1.185-1.184-1.776-2.896-1.776-5.136v-26.688h9.792v25.248c0,0.96,0.48,1.44,1.44,1.44h13.439
				c0.96,0,1.44-0.48,1.44-1.44v-25.248H113.571z"/>
			<path fill="#F2FF5B" d="M113.571-59.933v26.688c0,2.24-0.593,3.952-1.776,5.136c-1.184,1.185-2.896,1.776-5.136,1.776h-22.08
				c-2.24,0-3.952-0.592-5.136-1.776c-1.185-1.184-1.776-2.896-1.776-5.136v-26.688h9.792v25.248c0,0.96,0.48,1.44,1.44,1.44h13.439
				c0.96,0,1.44-0.48,1.44-1.44v-25.248H113.571z"/>
			<path fill="#F2FF5B" d="M113.571-33.6v26.688c0,2.24-0.593,3.953-1.776,5.137S108.898,0,106.659,0h-22.08
				c-2.24,0-3.952-0.592-5.136-1.775c-1.185-1.184-1.776-2.896-1.776-5.137V-33.6h9.792v25.248c0,0.96,0.48,1.439,1.44,1.439h13.439
				c0.96,0,1.44-0.479,1.44-1.439V-33.6H113.571z"/>
			<path fill="#F2FF5B" d="M135.904-111.266v26.688c0,2.24-0.593,3.953-1.776,5.137s-2.896,1.775-5.136,1.775h-22.08
				c-2.24,0-3.952-0.592-5.136-1.775c-1.185-1.184-1.776-2.896-1.776-5.137v-26.688h9.792v25.248c0,0.96,0.48,1.439,1.44,1.439
				h13.439c0.96,0,1.44-0.479,1.44-1.439v-25.248H135.904z"/>
			<path fill="#F2FF5B" d="M135.904-84.933v26.688c0,2.24-0.593,3.952-1.776,5.136c-1.184,1.185-2.896,1.776-5.136,1.776h-22.08
				c-2.24,0-3.952-0.592-5.136-1.776c-1.185-1.184-1.776-2.896-1.776-5.136v-26.688h9.792v25.248c0,0.96,0.48,1.44,1.44,1.44h13.439
				c0.96,0,1.44-0.48,1.44-1.44v-25.248H135.904z"/>
			<path fill="#F2FF5B" d="M135.904-59.933v26.688c0,2.24-0.593,3.952-1.776,5.136c-1.184,1.185-2.896,1.776-5.136,1.776h-22.08
				c-2.24,0-3.952-0.592-5.136-1.776c-1.185-1.184-1.776-2.896-1.776-5.136v-26.688h9.792v25.248c0,0.96,0.48,1.44,1.44,1.44h13.439
				c0.96,0,1.44-0.48,1.44-1.44v-25.248H135.904z"/>
			<path fill="#F2FF5B" d="M135.904-33.6v26.688c0,2.24-0.593,3.953-1.776,5.137S131.231,0,128.992,0h-22.08
				c-2.24,0-3.952-0.592-5.136-1.775C100.592-2.959,100-4.672,100-6.912V-33.6h9.792v25.248c0,0.96,0.48,1.439,1.44,1.439h13.439
				c0.96,0,1.44-0.479,1.44-1.439V-33.6H135.904z"/>
		</g>
		<g>
			<path fill="#F2FF5B" d="M35.904-111.266v26.688c0,2.24-0.593,3.953-1.776,5.137s-2.896,1.775-5.136,1.775H6.912
				c-2.24,0-3.952-0.592-5.136-1.775C0.592-80.625,0-82.338,0-84.578v-26.688h9.792v25.248c0,0.96,0.48,1.439,1.44,1.439h13.439
				c0.96,0,1.44-0.479,1.44-1.439v-25.248H35.904z"/>
			<path fill="#F2FF5B" d="M35.904-84.933v26.688c0,2.24-0.593,3.952-1.776,5.136c-1.184,1.185-2.896,1.776-5.136,1.776H6.912
				c-2.24,0-3.952-0.592-5.136-1.776C0.592-54.292,0-56.004,0-58.244v-26.688h9.792v25.248c0,0.96,0.48,1.44,1.44,1.44h13.439
				c0.96,0,1.44-0.48,1.44-1.44v-25.248H35.904z"/>
			<path fill="#F2FF5B" d="M35.904-59.933v26.688c0,2.24-0.593,3.952-1.776,5.136c-1.184,1.185-2.896,1.776-5.136,1.776H6.912
				c-2.24,0-3.952-0.592-5.136-1.776C0.592-29.292,0-31.004,0-33.244v-26.688h9.792v25.248c0,0.96,0.48,1.44,1.44,1.44h13.439
				c0.96,0,1.44-0.48,1.44-1.44v-25.248H35.904z"/>
			<path fill="#F2FF5B" d="M35.904-33.6v26.688c0,2.24-0.593,3.953-1.776,5.137S31.231,0,28.992,0H6.912
				C4.672,0,2.96-0.592,1.776-1.775C0.592-2.959,0-4.672,0-6.912V-33.6h9.792v25.248c0,0.96,0.48,1.439,1.44,1.439h13.439
				c0.96,0,1.44-0.479,1.44-1.439V-33.6H35.904z"/>
		</g>
		<g>
			<path fill="#F2FF5B" d="M65.237-133.6v26.688c0,2.24-0.593,3.953-1.776,5.137S60.564-100,58.325-100h-22.08
				c-2.24,0-3.952-0.592-5.136-1.775c-1.185-1.184-1.776-2.896-1.776-5.137V-133.6h9.792v25.248c0,0.96,0.48,1.439,1.44,1.439
				h13.439c0.96,0,1.44-0.479,1.44-1.439V-133.6H65.237z"/>
			<path fill="#F2FF5B" d="M90.571-133.6v26.688c0,2.24-0.593,3.953-1.776,5.137S85.898-100,83.659-100h-22.08
				c-2.24,0-3.952-0.592-5.136-1.775c-1.185-1.184-1.776-2.896-1.776-5.137V-133.6h9.792v25.248c0,0.96,0.48,1.439,1.44,1.439
				h13.439c0.96,0,1.44-0.479,1.44-1.439V-133.6H90.571z"/>
			<path fill="#F2FF5B" d="M113.571-133.6v26.688c0,2.24-0.593,3.953-1.776,5.137S108.898-100,106.659-100h-22.08
				c-2.24,0-3.952-0.592-5.136-1.775c-1.185-1.184-1.776-2.896-1.776-5.137V-133.6h9.792v25.248c0,0.96,0.48,1.439,1.44,1.439
				h13.439c0.96,0,1.44-0.479,1.44-1.439V-133.6H113.571z"/>
			<path fill="#F2FF5B" d="M135.904-133.6v26.688c0,2.24-0.593,3.953-1.776,5.137S131.231-100,128.992-100h-22.08
				c-2.24,0-3.952-0.592-5.136-1.775c-1.185-1.184-1.776-2.896-1.776-5.137V-133.6h9.792v25.248c0,0.96,0.48,1.439,1.44,1.439
				h13.439c0.96,0,1.44-0.479,1.44-1.439V-133.6H135.904z"/>
		</g>
		<g>
			<path fill="#F2FF5B" d="M35.904-133.6v26.688c0,2.24-0.593,3.953-1.776,5.137S31.231-100,28.992-100H6.912
				c-2.24,0-3.952-0.592-5.136-1.775C0.592-102.959,0-104.672,0-106.912V-133.6h9.792v25.248c0,0.96,0.48,1.439,1.44,1.439h13.439
				c0.96,0,1.44-0.479,1.44-1.439V-133.6H35.904z"/>
		</g>
	</g>
</pattern>
<g id="Grafik">
	<pattern  id="SVGID_1_" xlink:href="#uc_x5F_u_x5F_yllw" patternTransform="matrix(1 0 0 1 1 0)">
	</pattern>
	<rect y="0.171" fill="url(#SVGID_1_)" width="100" height="100"/>
</g>
</svg>
