<?xml version="1.0" encoding="utf-8"?>
<!DOCTYPE svg PUBLIC "-//W3C//DTD SVG 1.1//EN" "http://www.w3.org/Graphics/SVG/1.1/DTD/svg11.dtd">
<svg version="1.1" xmlns="http://www.w3.org/2000/svg" xmlns:xlink="http://www.w3.org/1999/xlink"
	 viewBox="0 0 100 100" xml:space="preserve">
<pattern  x="-1784" y="1148.171" width="100" height="100" patternUnits="userSpaceOnUse" id="uc_x5F_u_x5F_yllw2" viewBox="31.937 -112.152 100 100" overflow="visible">
	<g>
		<polygon fill="none" points="31.937,-112.152 131.937,-112.152 131.937,-12.152 31.937,-12.152 		"/>
		<g>
			<path d="M167.98-111.973v26.856c0,2.255-0.598,3.979-1.789,5.169c-1.191,1.191-2.915,1.787-5.167,1.787h-22.221
				c-2.255,0-3.979-0.596-5.169-1.787c-1.191-1.19-1.787-2.914-1.787-5.169v-26.856h9.854v25.408c0,0.966,0.483,1.448,1.45,1.448
				h13.525c0.965,0,1.448-0.482,1.448-1.448v-25.408H167.98z"/>
			<path d="M165.98-85.473v26.857c0,2.255-0.598,3.979-1.789,5.169c-1.191,1.192-2.915,1.788-5.167,1.788h-22.221
				c-2.255,0-3.979-0.596-5.169-1.788c-1.191-1.19-1.787-2.914-1.787-5.169v-26.857h9.854v25.408c0,0.967,0.483,1.449,1.45,1.449
				h13.525c0.965,0,1.448-0.482,1.448-1.449v-25.408H165.98z"/>
			<path d="M165.018-33.813v26.857c0,2.255-0.598,3.979-1.789,5.169C162.037-0.596,160.313,0,158.062,0h-22.221
				c-2.255,0-3.979-0.596-5.169-1.787c-1.191-1.19-1.787-2.914-1.787-5.169v-26.857h9.854v25.409c0,0.966,0.483,1.448,1.45,1.448
				h13.525c0.965,0,1.448-0.482,1.448-1.448v-25.409H165.018z"/>
		</g>
		<g>
			<path d="M67.98-111.973v26.856c0,2.255-0.598,3.979-1.789,5.169C65-78.756,63.276-78.16,61.024-78.16H38.804
				c-2.255,0-3.979-0.596-5.169-1.787c-1.191-1.19-1.787-2.914-1.787-5.169v-26.856h9.854v25.408c0,0.966,0.483,1.448,1.45,1.448
				h13.525c0.965,0,1.448-0.482,1.448-1.448v-25.408H67.98z"/>
			<path d="M65.98-85.473v26.857c0,2.255-0.598,3.979-1.789,5.169c-1.191,1.192-2.915,1.788-5.167,1.788H36.804
				c-2.255,0-3.979-0.596-5.169-1.788c-1.191-1.19-1.787-2.914-1.787-5.169v-26.857h9.854v25.408c0,0.967,0.483,1.449,1.45,1.449
				h13.525c0.965,0,1.448-0.482,1.448-1.449v-25.408H65.98z"/>
			<path d="M69.599-60.314v26.859c0,2.254-0.598,3.977-1.789,5.168S64.895-26.5,62.643-26.5H40.422
				c-2.255,0-3.979-0.596-5.169-1.787c-1.191-1.191-1.787-2.914-1.787-5.168v-26.859h9.854v25.409c0,0.966,0.483,1.45,1.45,1.45
				h13.525c0.965,0,1.448-0.484,1.448-1.45v-25.409H69.599z"/>
			<path d="M65.018-33.813v26.857c0,2.255-0.598,3.979-1.789,5.169C62.037-0.596,60.313,0,58.062,0H35.841
				c-2.255,0-3.979-0.596-5.169-1.787c-1.191-1.19-1.787-2.914-1.787-5.169v-26.857h9.854v25.409c0,0.966,0.483,1.448,1.45,1.448
				h13.525c0.965,0,1.448-0.482,1.448-1.448v-25.409H65.018z"/>
			<path d="M81.412-111.973v26.856c0,2.255-0.598,3.979-1.789,5.169c-1.191,1.191-2.915,1.787-5.167,1.787H52.235
				c-2.255,0-3.979-0.596-5.17-1.787c-1.19-1.19-1.786-2.914-1.786-5.169v-26.856h9.854v25.408c0,0.966,0.483,1.448,1.45,1.448
				h13.524c0.966,0,1.449-0.482,1.449-1.448v-25.408H81.412z"/>
			<path d="M91.476-85.473v26.857c0,2.255-0.598,3.979-1.789,5.169c-1.19,1.192-2.915,1.788-5.167,1.788H62.299
				c-2.255,0-3.979-0.596-5.17-1.788c-1.19-1.19-1.786-2.914-1.786-5.169v-26.857h9.854v25.408c0,0.967,0.483,1.449,1.45,1.449
				h13.525c0.965,0,1.448-0.482,1.448-1.449v-25.408H91.476z"/>
			<path d="M83.412-60.314v26.859c0,2.254-0.598,3.977-1.789,5.168S78.708-26.5,76.456-26.5H54.235
				c-2.255,0-3.979-0.596-5.17-1.787c-1.19-1.191-1.786-2.914-1.786-5.168v-26.859h9.854v25.409c0,0.966,0.483,1.45,1.45,1.45
				h13.524c0.966,0,1.449-0.484,1.449-1.45v-25.409H83.412z"/>
			<path d="M90.513-33.813v26.857c0,2.255-0.598,3.979-1.789,5.169C87.533-0.596,85.809,0,83.557,0H61.336
				c-2.255,0-3.979-0.596-5.17-1.787c-1.19-1.19-1.786-2.914-1.786-5.169v-26.857h9.854v25.409c0,0.966,0.483,1.448,1.45,1.448
				h13.525c0.965,0,1.448-0.482,1.448-1.448v-25.409H90.513z"/>
			<path d="M116.622-111.973v26.856c0,2.255-0.598,3.979-1.789,5.169c-1.191,1.191-2.915,1.787-5.167,1.787H87.445
				c-2.255,0-3.979-0.596-5.17-1.787c-1.19-1.19-1.786-2.914-1.786-5.169v-26.856h9.854v25.408c0,0.966,0.483,1.448,1.45,1.448
				h13.525c0.965,0,1.448-0.482,1.448-1.448v-25.408H116.622z"/>
			<path d="M114.622-85.473v26.857c0,2.255-0.598,3.979-1.789,5.169c-1.191,1.192-2.915,1.788-5.167,1.788H85.445
				c-2.255,0-3.979-0.596-5.17-1.788c-1.19-1.19-1.786-2.914-1.786-5.169v-26.857h9.854v25.408c0,0.967,0.483,1.449,1.45,1.449
				h13.525c0.965,0,1.448-0.482,1.448-1.449v-25.408H114.622z"/>
			<path d="M116.622-60.314v26.859c0,2.254-0.598,3.977-1.789,5.168s-2.915,1.787-5.167,1.787H87.445
				c-2.255,0-3.979-0.596-5.17-1.787c-1.19-1.191-1.786-2.914-1.786-5.168v-26.859h9.854v25.409c0,0.966,0.483,1.45,1.45,1.45
				h13.525c0.965,0,1.448-0.484,1.448-1.45v-25.409H116.622z"/>
			<path d="M113.659-33.813v26.857c0,2.255-0.598,3.979-1.789,5.169C110.679-0.596,108.955,0,106.703,0H84.482
				c-2.255,0-3.979-0.596-5.17-1.787c-1.19-1.19-1.786-2.914-1.786-5.169v-26.857h9.854v25.409c0,0.966,0.483,1.448,1.45,1.448
				h13.525c0.965,0,1.448-0.482,1.448-1.448v-25.409H113.659z"/>
			<path d="M129.133-111.973v26.856c0,2.255-0.596,3.979-1.786,5.169c-1.191,1.191-2.915,1.787-5.17,1.787H99.956
				c-2.254,0-3.977-0.596-5.167-1.787C93.596-81.138,93-82.861,93-85.116v-26.856h9.855v25.408c0,0.966,0.483,1.448,1.448,1.448
				h13.525c0.967,0,1.45-0.482,1.45-1.448v-25.408H129.133z"/>
			<path d="M137.096-85.473v26.857c0,2.255-0.596,3.979-1.786,5.169c-1.191,1.192-2.915,1.788-5.17,1.788h-22.221
				c-2.254,0-3.976-0.596-5.167-1.788c-1.193-1.19-1.789-2.914-1.789-5.169v-26.857h9.855v25.408c0,0.967,0.483,1.449,1.449,1.449
				h13.524c0.967,0,1.45-0.482,1.45-1.449v-25.408H137.096z"/>
			<path d="M130.032-60.314v26.859c0,2.254-0.596,3.977-1.786,5.168c-1.191,1.191-2.915,1.787-5.17,1.787h-22.221
				c-2.254,0-3.977-0.596-5.167-1.787c-1.193-1.191-1.789-2.914-1.789-5.168v-26.859h9.855v25.409c0,0.966,0.483,1.45,1.448,1.45
				h13.525c0.967,0,1.45-0.484,1.45-1.45v-25.409H130.032z"/>
			<path d="M136.133-33.813v26.857c0,2.255-0.596,3.979-1.786,5.169C133.155-0.596,131.432,0,129.177,0h-22.221
				c-2.254,0-3.976-0.596-5.167-1.787C100.596-2.978,100-4.701,100-6.956v-26.857h9.855v25.409c0,0.966,0.483,1.448,1.449,1.448
				h13.524c0.967,0,1.45-0.482,1.45-1.448v-25.409H136.133z"/>
		</g>
		<g>
			<path d="M37.096-85.473v26.857c0,2.255-0.596,3.979-1.786,5.169c-1.191,1.192-2.915,1.788-5.17,1.788H7.919
				c-2.254,0-3.976-0.596-5.167-1.788c-1.193-1.19-1.789-2.914-1.789-5.169v-26.857h9.855v25.408c0,0.967,0.483,1.449,1.449,1.449
				h13.524c0.967,0,1.45-0.482,1.45-1.449v-25.408H37.096z"/>
			<path d="M36.133-33.813v26.857c0,2.255-0.596,3.979-1.786,5.169C33.155-0.596,31.432,0,29.177,0H6.956
				C4.702,0,2.98-0.596,1.789-1.787C0.596-2.978,0-4.701,0-6.956v-26.857h9.855v25.409c0,0.966,0.483,1.448,1.449,1.448h13.524
				c0.967,0,1.45-0.482,1.45-1.448v-25.409H36.133z"/>
		</g>
		<g>
			<path d="M165.018-133.813v26.857c0,2.255-0.598,3.979-1.789,5.169c-1.191,1.191-2.915,1.787-5.167,1.787h-22.221
				c-2.255,0-3.979-0.596-5.169-1.787c-1.191-1.19-1.787-2.914-1.787-5.169v-26.857h9.854v25.409c0,0.966,0.483,1.448,1.45,1.448
				h13.525c0.965,0,1.448-0.482,1.448-1.448v-25.409H165.018z"/>
		</g>
		<g>
			<path d="M65.018-133.813v26.857c0,2.255-0.598,3.979-1.789,5.169c-1.191,1.191-2.915,1.787-5.167,1.787H35.841
				c-2.255,0-3.979-0.596-5.169-1.787c-1.191-1.19-1.787-2.914-1.787-5.169v-26.857h9.854v25.409c0,0.966,0.483,1.448,1.45,1.448
				h13.525c0.965,0,1.448-0.482,1.448-1.448v-25.409H65.018z"/>
			<path d="M90.513-133.813v26.857c0,2.255-0.598,3.979-1.789,5.169c-1.19,1.191-2.915,1.787-5.167,1.787H61.336
				c-2.255,0-3.979-0.596-5.17-1.787c-1.19-1.19-1.786-2.914-1.786-5.169v-26.857h9.854v25.409c0,0.966,0.483,1.448,1.45,1.448
				h13.525c0.965,0,1.448-0.482,1.448-1.448v-25.409H90.513z"/>
			<path d="M113.659-133.813v26.857c0,2.255-0.598,3.979-1.789,5.169c-1.191,1.191-2.915,1.787-5.167,1.787H84.482
				c-2.255,0-3.979-0.596-5.17-1.787c-1.19-1.19-1.786-2.914-1.786-5.169v-26.857h9.854v25.409c0,0.966,0.483,1.448,1.45,1.448
				h13.525c0.965,0,1.448-0.482,1.448-1.448v-25.409H113.659z"/>
			<path d="M136.133-133.813v26.857c0,2.255-0.596,3.979-1.786,5.169c-1.191,1.191-2.915,1.787-5.17,1.787h-22.221
				c-2.254,0-3.976-0.596-5.167-1.787c-1.193-1.19-1.789-2.914-1.789-5.169v-26.857h9.855v25.409c0,0.966,0.483,1.448,1.449,1.448
				h13.524c0.967,0,1.45-0.482,1.45-1.448v-25.409H136.133z"/>
		</g>
		<g>
			<path d="M36.133-133.813v26.857c0,2.255-0.596,3.979-1.786,5.169c-1.191,1.191-2.915,1.787-5.17,1.787H6.956
				c-2.254,0-3.976-0.596-5.167-1.787C0.596-102.978,0-104.701,0-106.956v-26.857h9.855v25.409c0,0.966,0.483,1.448,1.449,1.448
				h13.524c0.967,0,1.45-0.482,1.45-1.448v-25.409H36.133z"/>
		</g>
	</g>
</pattern>
	<g id="Grafik">
	<pattern  id="SVGID_1_" xlink:href="#uc_x5F_u_x5F_yllw2" patternTransform="matrix(1 0 0 1 1 0)">
	</pattern>
		<rect y="0.171" fill="url(#SVGID_1_)" width="100" height="100"/>
</g>
</svg>
